<svg width="19" height="22" viewBox="0 0 19 22" fill="none" xmlns="http://www.w3.org/2000/svg">
<path d="M15.5 16.9609C16.7447 17.3853 17.5 17.9428 17.5 18.5534C17.5 19.8831 13.9183 20.9609 9.5 20.9609C5.08172 20.9609 1.5 19.8831 1.5 18.5534C1.5 17.9428 2.25527 17.3853 3.5 16.9609" stroke="#00B368" stroke-width="1.5" stroke-linecap="round"/>
<path d="M12.5 8.46094C12.5 10.1178 11.1569 11.4609 9.5 11.4609C7.84315 11.4609 6.5 10.1178 6.5 8.46094C6.5 6.80408 7.84315 5.46094 9.5 5.46094C11.1569 5.46094 12.5 6.80408 12.5 8.46094Z" stroke="#00B368" stroke-width="1.5"/>
<path d="M9.5 0.960938C13.5588 0.960938 17 4.38897 17 8.54784C17 12.7729 13.5028 15.7379 10.2725 17.7541C10.0371 17.8897 9.77087 17.9609 9.5 17.9609C9.22913 17.9609 8.96291 17.8897 8.7275 17.7541C5.50325 15.7183 2 12.7875 2 8.54784C2 4.38897 5.4412 0.960938 9.5 0.960938Z" stroke="#00B368" stroke-width="1.5"/>
</svg>
