<svg width="36" height="36" viewBox="0 0 36 36" fill="none" xmlns="http://www.w3.org/2000/svg">
<path d="M28.5 13.5V11.7273C28.5 9.18741 28.5 7.91748 28.1217 6.90321C27.5135 5.27265 26.2274 3.98647 24.5968 3.3783C23.5825 3 22.3126 3 19.7727 3C15.328 3 13.1056 3 11.3306 3.66203C8.47714 4.72633 6.22633 6.97713 5.16203 9.83063C4.5 11.6056 4.5 13.828 4.5 18.2727L4.5 22.0909C4.5 26.695 4.5 28.997 5.69675 30.5957C6.03964 31.0537 6.44629 31.4604 6.90433 31.8032C8.50301 33 10.805 33 15.4091 33H16.5C18.2546 33 21.75 33 21.75 33" stroke="white" stroke-width="2.25" stroke-linecap="round" stroke-linejoin="round"/>
<path d="M16.5 21.5H17.7605C18.7528 21.5 19.249 21.5 19.6477 21.7614C20.0464 22.0227 20.2683 22.4934 20.7121 23.4348L23.1 28.5L26.4 18L28.7879 23.0652C29.2317 24.0066 29.4536 24.4773 29.8523 24.7386C30.251 25 30.7472 25 31.7395 25H33" stroke="white" stroke-width="2.25" stroke-linecap="round" stroke-linejoin="round"/>
<path d="M4.5 18C4.5 15.2386 6.73858 13 9.5 13H11.1667C11.9416 13 12.3291 13 12.647 12.9148C13.5098 12.6836 14.1836 12.0098 14.4148 11.147C14.5 10.8291 14.5 10.4416 14.5 9.66667V8C14.5 5.23858 16.7386 3 19.5 3" stroke="white" stroke-width="2.25" stroke-linecap="round" stroke-linejoin="round"/>
</svg>
