<svg width="36" height="36" viewBox="0 0 36 36" fill="none" xmlns="http://www.w3.org/2000/svg">
<path d="M12.5934 3.82793C14.8057 2.45716 16.7367 3.00957 17.8967 3.88949C18.3723 4.25027 18.6101 4.43066 18.75 4.43066C18.8899 4.43066 19.1277 4.25027 19.6033 3.88949C20.7633 3.00957 22.6943 2.45716 24.9066 3.82793C27.8101 5.62692 28.4671 11.5618 21.7699 16.5689C20.4943 17.5226 19.8565 17.9995 18.75 17.9995C17.6435 17.9995 17.0057 17.5226 15.7301 16.5689C9.03292 11.5618 9.68991 5.62692 12.5934 3.82793Z" stroke="white" stroke-width="2.25" stroke-linecap="round"/>
<path d="M6 21H9.59223C10.0335 21 10.4686 21.0994 10.8633 21.2904L13.9262 22.7723C14.3209 22.9633 14.756 23.0627 15.1972 23.0627H16.7612C18.2738 23.0627 19.5 24.2493 19.5 25.713C19.5 25.7722 19.4595 25.8242 19.4007 25.8404L15.5893 26.8942C14.9056 27.0832 14.1735 27.0174 13.5375 26.7096L10.2632 25.1254" stroke="white" stroke-width="2.25" stroke-linecap="round" stroke-linejoin="round"/>
<path d="M19.5 24.75L26.3892 22.6334C27.6104 22.2529 28.9306 22.7041 29.6957 23.7634C30.2488 24.5294 30.0236 25.6263 29.2177 26.0913L17.9443 32.5958C17.2273 33.0095 16.3814 33.1104 15.5927 32.8764L6 30.0299" stroke="white" stroke-width="2.25" stroke-linecap="round" stroke-linejoin="round"/>
</svg>
