<svg width="36" height="36" viewBox="0 0 36 36" fill="none" xmlns="http://www.w3.org/2000/svg">
<path d="M25.5 16.2067C25.5 15.6883 25.5 15.429 25.5781 15.198C25.8049 14.5267 26.4027 14.2661 27.0016 13.9933C27.675 13.6866 28.0117 13.5333 28.3453 13.5063C28.7239 13.4757 29.1033 13.5573 29.427 13.7389C29.8561 13.9798 30.1554 14.4374 30.4618 14.8095C31.8769 16.5283 32.5844 17.3876 32.8433 18.3353C33.0522 19.1001 33.0522 19.8999 32.8433 20.6647C32.4657 22.0469 31.2727 23.2055 30.3897 24.2781C29.938 24.8267 29.7121 25.101 29.427 25.2611C29.1033 25.4427 28.7239 25.5243 28.3453 25.4937C28.0117 25.4667 27.675 25.3134 27.0016 25.0067C26.4027 24.7339 25.8049 24.4733 25.5781 23.802C25.5 23.571 25.5 23.3117 25.5 22.7933V16.2067Z" stroke="white" stroke-width="2.25"/>
<path d="M10.5 16.2064C10.5 15.5536 10.4817 14.9668 9.95387 14.5078C9.76189 14.3409 9.50738 14.2249 8.99836 13.9931C8.32501 13.6864 7.98834 13.533 7.65474 13.5061C6.65387 13.4251 6.11538 14.1082 5.53819 14.8093C4.12312 16.528 3.41559 17.3874 3.1567 18.3351C2.94777 19.0999 2.94777 19.8996 3.1567 20.6644C3.53431 22.0467 4.72728 23.2053 5.61032 24.2778C6.16693 24.9539 6.69865 25.5708 7.65474 25.4935C7.98834 25.4665 8.32501 25.3131 8.99836 25.0064C9.50738 24.7746 9.76189 24.6587 9.95387 24.4917C10.4817 24.0327 10.5 23.446 10.5 22.7931V16.2064Z" stroke="white" stroke-width="2.25"/>
<path d="M7.5 13.5C7.5 8.52944 12.201 4.5 18 4.5C23.799 4.5 28.5 8.52944 28.5 13.5" stroke="white" stroke-width="2.25" stroke-linecap="square" stroke-linejoin="round"/>
<path d="M28.5 25.5V26.7C28.5 29.351 25.8137 31.5 22.5 31.5H19.5" stroke="white" stroke-width="2.25" stroke-linecap="round" stroke-linejoin="round"/>
</svg>
