<svg width="24" height="25" viewBox="0 0 24 25" fill="none" xmlns="http://www.w3.org/2000/svg">
<path d="M14.875 5.18146C14.1789 6.02465 13.0653 6.68971 11.9516 6.5947C11.8124 5.45461 12.3576 4.24326 12.9957 3.49507C13.6917 2.62813 14.9098 2.01058 15.8958 1.96307C16.0119 3.15067 15.5594 4.31452 14.875 5.18146Z" fill="black"/>
<path d="M15.8842 6.82032C14.2717 6.72531 12.8912 7.75852 12.1256 7.75852C11.3483 7.75852 10.1766 6.86782 8.90055 6.89158C7.24164 6.91533 5.69874 7.87728 4.85189 9.40928C3.11177 12.4733 4.39946 17.0099 6.08157 19.5039C6.90522 20.739 7.89128 22.0928 9.19057 22.0453C10.4202 21.9978 10.9075 21.2259 12.3924 21.2259C13.8889 21.2259 14.3181 22.0453 15.6174 22.0216C16.9631 21.9978 17.8099 20.7865 18.6336 19.5514C19.5732 18.15 19.9561 16.7843 19.9793 16.713C19.9561 16.6892 17.3807 15.6798 17.3575 12.6395C17.3343 10.0981 19.3876 8.88674 19.4804 8.81548C18.3204 7.05784 16.5106 6.86782 15.8842 6.82032Z" fill="black"/>
</svg>
