<svg width="25" height="25" viewBox="0 0 25 25" fill="none" xmlns="http://www.w3.org/2000/svg">
<path d="M18.5 2.5V4.5M6.5 2.5V4.5" stroke="#818793" stroke-width="1.5" stroke-linecap="round" stroke-linejoin="round"/>
<path d="M10.5 17.5L10.5 13.8472C10.5 13.6555 10.3633 13.5 10.1946 13.5H9.5M14.1297 17.5L15.4842 13.8492C15.5475 13.6785 15.4128 13.5 15.2207 13.5H13.5" stroke="#818793" stroke-width="1.5" stroke-linecap="round"/>
<path d="M3 12.7432C3 8.38594 3 6.20728 4.25212 4.85364C5.50424 3.5 7.51949 3.5 11.55 3.5H13.45C17.4805 3.5 19.4958 3.5 20.7479 4.85364C22 6.20728 22 8.38594 22 12.7432V13.2568C22 17.6141 22 19.7927 20.7479 21.1464C19.4958 22.5 17.4805 22.5 13.45 22.5H11.55C7.51949 22.5 5.50424 22.5 4.25212 21.1464C3 19.7927 3 17.6141 3 13.2568V12.7432Z" stroke="#818793" stroke-width="1.5" stroke-linecap="round" stroke-linejoin="round"/>
<path d="M6.5 8.5H18.5" stroke="#818793" stroke-width="1.5" stroke-linecap="round" stroke-linejoin="round"/>
</svg>
