<svg width="24" height="25" viewBox="0 0 24 25" fill="none" xmlns="http://www.w3.org/2000/svg">
<path d="M7.96 7.757C9.357 6.71 11.312 6.246 13.208 6.638C16.971 7.418 18.933 10.429 18.998 14.178C19.052 17.225 17.118 20.978 14.176 22.191C12.416 22.917 10.13 22.175 9.413 20.318C9.146 19.625 9.199 18.952 9.311 18.274L9.391 17.822C9.449 17.509 9.508 17.193 9.541 16.873C9.608 16.224 9.237 15.82 8.768 15.485L8.528 15.323L7.972 14.973L7.706 14.79C7.076 14.339 6.408 13.697 6.132 12.551C5.647 10.546 6.542 8.821 7.96 7.757ZM5 4C5.53043 4 6.03914 4.21071 6.41421 4.58579C6.78929 4.96086 7 5.46957 7 6C7 6.53043 6.78929 7.03914 6.41421 7.41421C6.03914 7.78929 5.53043 8 5 8C4.46957 8 3.96086 7.78929 3.58579 7.41421C3.21071 7.03914 3 6.53043 3 6C3 5.46957 3.21071 4.96086 3.58579 4.58579C3.96086 4.21071 4.46957 4 5 4ZM18.5 5C18.7652 5 19.0196 5.10536 19.2071 5.29289C19.3946 5.48043 19.5 5.73478 19.5 6C19.5 6.26522 19.3946 6.51957 19.2071 6.70711C19.0196 6.89464 18.7652 7 18.5 7C18.2348 7 17.9804 6.89464 17.7929 6.70711C17.6054 6.51957 17.5 6.26522 17.5 6C17.5 5.73478 17.6054 5.48043 17.7929 5.29289C17.9804 5.10536 18.2348 5 18.5 5ZM9.5 2.5C9.69698 2.5 9.89204 2.5388 10.074 2.61418C10.256 2.68956 10.4214 2.80005 10.5607 2.93934C10.6999 3.07863 10.8104 3.24399 10.8858 3.42597C10.9612 3.60796 11 3.80302 11 4C11 4.19698 10.9612 4.39204 10.8858 4.57403C10.8104 4.75601 10.6999 4.92137 10.5607 5.06066C10.4214 5.19995 10.256 5.31044 10.074 5.38582C9.89204 5.4612 9.69698 5.5 9.5 5.5C9.10218 5.5 8.72064 5.34196 8.43934 5.06066C8.15804 4.77936 8 4.39782 8 4C8 3.60218 8.15804 3.22064 8.43934 2.93934C8.72064 2.65804 9.10218 2.5 9.5 2.5ZM14.5 2.5C14.697 2.5 14.892 2.5388 15.074 2.61418C15.256 2.68956 15.4214 2.80005 15.5607 2.93934C15.6999 3.07863 15.8104 3.24399 15.8858 3.42597C15.9612 3.60796 16 3.80302 16 4C16 4.19698 15.9612 4.39204 15.8858 4.57403C15.8104 4.75601 15.6999 4.92137 15.5607 5.06066C15.4214 5.19995 15.256 5.31044 15.074 5.38582C14.892 5.4612 14.697 5.5 14.5 5.5C14.1022 5.5 13.7206 5.34196 13.4393 5.06066C13.158 4.77936 13 4.39782 13 4C13 3.60218 13.158 3.22064 13.4393 2.93934C13.7206 2.65804 14.1022 2.5 14.5 2.5Z" fill="#00B368"/>
</svg>
