<svg width="24" height="25" viewBox="0 0 24 25" fill="none" xmlns="http://www.w3.org/2000/svg">
<path d="M20.8491 12.706C20.8491 12.0758 20.799 11.4456 20.6987 10.8283H12.1875V14.3908H17.0636C16.863 15.5354 16.2112 16.5643 15.2585 17.2074V19.5224H18.1666C19.8714 17.9147 20.8491 15.5354 20.8491 12.706Z" fill="#4285F4"/>
<path d="M12.1849 21.7602C14.6167 21.7602 16.6724 20.9371 18.1641 19.5224L15.256 17.2074C14.4412 17.7733 13.4008 18.0948 12.1849 18.0948C9.82838 18.0948 7.83533 16.4615 7.12084 14.2751H4.125V16.6672C5.65426 19.7925 8.77544 21.7602 12.1849 21.7602Z" fill="#34A853"/>
<path d="M7.12104 14.2751C6.74493 13.1305 6.74493 11.8829 7.12104 10.7254V8.34613H4.12472C2.83343 10.9569 2.83343 14.0436 4.12472 16.6544L7.12104 14.2751Z" fill="#FBBC04"/>
<path d="M12.1849 6.90572C13.476 6.87999 14.717 7.38158 15.6446 8.29471L18.2268 5.64533C16.5847 4.07628 14.4287 3.21458 12.1849 3.24031C8.77544 3.24031 5.65426 5.22091 4.125 8.34616L7.12084 10.7383C7.83533 8.53907 9.82837 6.90572 12.1849 6.90572Z" fill="#EA4335"/>
</svg>
