<svg width="24" height="25" viewBox="0 0 24 25" fill="none" xmlns="http://www.w3.org/2000/svg">
<path d="M12 5V6.5M12 6.5V8M12 6.5L13.5 6.5M12 6.5H10.5" stroke="#00B368" stroke-width="1.5" stroke-linecap="round"/>
<path d="M8.58579 3.08579C8 3.67157 8 4.61438 8 6.5C8 8.38562 8 9.32843 8.58579 9.91421C9.17157 10.5 10.1144 10.5 12 10.5C13.8856 10.5 14.8284 10.5 15.4142 9.91421C16 9.32843 16 8.38562 16 6.5C16 4.61438 16 3.67157 15.4142 3.08579C14.8284 2.5 13.8856 2.5 12 2.5C10.1144 2.5 9.17157 2.5 8.58579 3.08579Z" stroke="#00B368" stroke-width="1.5" stroke-linecap="round" stroke-linejoin="round"/>
<path d="M4 22.5L4 12.4707C4 9.16123 4 7.50649 5.02513 6.47836C5.67665 5.82493 6.58055 5.58679 8 5.5M20 22.5L20 12.4707C20 9.16123 20 7.50649 18.9749 6.47836C18.3233 5.82493 17.4194 5.58679 16 5.5" stroke="#00B368" stroke-width="1.5" stroke-linecap="round" stroke-linejoin="round"/>
<path d="M3 22.5L21 22.5" stroke="#00B368" stroke-width="1.5" stroke-linecap="round" stroke-linejoin="round"/>
<path d="M9.5 22.5L9.5 20C9.5 19.0654 9.5 18.5981 9.70096 18.25C9.83261 18.022 10.022 17.8326 10.25 17.701C10.5981 17.5 11.0654 17.5 12 17.5C12.9346 17.5 13.4019 17.5 13.75 17.701C13.978 17.8326 14.1674 18.022 14.299 18.25C14.5 18.5981 14.5 19.0654 14.5 20V22.5" stroke="#00B368" stroke-width="1.5" stroke-linecap="round"/>
<path d="M8.00896 13.5H8M12 13.5H11.991M16.0011 13.5H15.9922" stroke="#00B368" stroke-width="2" stroke-linecap="round" stroke-linejoin="round"/>
</svg>
