<svg width="24" height="24" viewBox="0 0 24 24" fill="none" xmlns="http://www.w3.org/2000/svg">
<path d="M8 16L16 8M10 9C10 9.55228 9.55228 10 9 10C8.44772 10 8 9.55228 8 9C8 8.44772 8.44772 8 9 8C9.55228 8 10 8.44772 10 9ZM16 14.8284C16 15.3807 15.5523 15.8284 15 15.8284C14.4477 15.8284 14 15.3807 14 14.8284C14 14.2761 14.4477 13.8284 15 13.8284C15.5523 13.8284 16 14.2761 16 14.8284Z" stroke="#00B368" stroke-width="1.5" stroke-linecap="round"/>
<path d="M12 22C17.5228 22 22 17.5228 22 12C22 6.47715 17.5228 2 12 2C6.47715 2 2 6.47715 2 12C2 17.5228 6.47715 22 12 22Z" stroke="#00B368" stroke-width="1.5"/>
</svg>
