<svg width="24" height="25" viewBox="0 0 24 25" fill="none" xmlns="http://www.w3.org/2000/svg">
<path d="M18.2505 11H19.6403C21.4918 11 22.0421 11.2655 21.9975 12.5838C21.9237 14.7674 20.939 17.3047 17 18" stroke="#00B368" stroke-width="1.5" stroke-linecap="round"/>
<path d="M5.94627 21.1145C2.57185 18.52 2.07468 14.8401 2.00143 11.0001C1.96979 9.3413 2.45126 9 4.65919 9H15.3408C17.5487 9 18.0302 9.3413 17.9986 11.0001C17.9253 14.8401 17.4281 18.52 14.0537 21.1145C13.0934 21.8528 12.2831 22 10.9194 22H9.08064C7.71686 22 6.90658 21.8528 5.94627 21.1145Z" stroke="#00B368" stroke-width="1.5" stroke-linecap="round"/>
<path d="M10 9V14M8.50424 16.7966L8.79616 14.9451C8.88166 14.4028 9.39425 14 9.99884 14C10.6034 14 11.116 14.4028 11.2015 14.9451L11.4934 16.7966C11.6508 17.7944 8.36613 17.6726 8.50424 16.7966Z" stroke="#00B368" stroke-width="1.5" stroke-linecap="round" stroke-linejoin="round"/>
<path d="M11.3089 3C10.7622 3.33861 10.0012 4.5 10.0012 6M7.53971 4.5C7.53971 4.5 7 5 7 6M14.0012 4.5C13.7279 4.6693 13.5 5.5 13.5 6" stroke="#00B368" stroke-width="1.5" stroke-linecap="round" stroke-linejoin="round"/>
</svg>
