<svg width="24" height="25" viewBox="0 0 24 25" fill="none" xmlns="http://www.w3.org/2000/svg">
<path d="M6.63244 18.7626L5.03072 6.59986C4.91063 5.688 5.11589 5.5 6.12552 5.5H16.8745C17.8841 5.5 18.0894 5.688 17.9693 6.59986L16.3676 18.7626C16.1495 20.4182 16.0405 21.246 15.4139 21.7437C14.1165 22.7744 8.827 22.7295 7.58606 21.7437C6.95948 21.246 6.85047 20.4182 6.63244 18.7626Z" stroke="#00B368" stroke-width="1.5" stroke-linecap="round" stroke-linejoin="round"/>
<path d="M13.5 19.5L13.946 3.44128C13.9771 2.91272 14.4148 2.5 14.9443 2.5H19.0014" stroke="#00B368" stroke-width="1.5" stroke-linecap="round"/>
<path d="M6 10.5C6.18182 10.1667 6.78182 9.5 8.09091 9.5C9.72727 9.5 9.29545 10.5 10.3864 10.5C11.4773 10.5 13.1136 9.5 14.75 9.5C16.3864 9.5 17.5 10.5 17.5 10.5" stroke="#00B368" stroke-width="1.5" stroke-linecap="round"/>
<path d="M10.0089 16.5H10" stroke="#00B368" stroke-width="2" stroke-linecap="round" stroke-linejoin="round"/>
</svg>
