<svg width="24" height="25" viewBox="0 0 24 25" fill="none" xmlns="http://www.w3.org/2000/svg">
<path d="M13 6.14868C10.158 3.30666 6.20842 2.6484 4.17841 4.67841M4.17841 4.67841C2.1484 6.70842 2.80666 10.658 5.64868 13.5M4.17841 4.67841C4.42346 5.90363 5.72249 8.57432 8.95707 9.45647" stroke="#00B368" stroke-width="1.5" stroke-linecap="round" stroke-linejoin="round"/>
<path d="M9.21114 20.2889C11.2975 22.3753 15.3568 21.6987 18.2778 18.7778C21.1987 15.8568 21.8753 11.7975 19.7889 9.71114M9.21114 20.2889C7.12475 18.2025 7.80129 14.1432 10.7222 11.2222C13.6432 8.30129 17.7025 7.62475 19.7889 9.71114M9.21114 20.2889C10.7222 19.7852 13.5829 19.3717 14.8781 14.6225C15.7847 11.2981 18.5296 9.96299 19.7889 9.71114" stroke="#00B368" stroke-width="1.5" stroke-linecap="round" stroke-linejoin="round"/>
</svg>
