<svg width="24" height="25" viewBox="0 0 24 25" fill="none" xmlns="http://www.w3.org/2000/svg">
<path d="M2 12.5C2 9.67157 2 8.25736 2.87868 7.37868C3.75736 6.5 5.17157 6.5 8 6.5H13C15.8284 6.5 17.2426 6.5 18.1213 7.37868C19 8.25736 19 9.67157 19 12.5C19 15.3284 19 16.7426 18.1213 17.6213C17.2426 18.5 15.8284 18.5 13 18.5H8C5.17157 18.5 3.75736 18.5 2.87868 17.6213C2 16.7426 2 15.3284 2 12.5Z" stroke="#00B368" stroke-width="1.5" stroke-linecap="round"/>
<path d="M10.8282 9.5L9.08572 11.6749C8.89899 11.9079 9.03283 12.2433 9.33733 12.3053L11.1627 12.6773C11.4873 12.7434 11.6111 13.1147 11.3842 13.3413L9.22216 15.5" stroke="#00B368" stroke-width="1.5" stroke-linecap="round" stroke-linejoin="round"/>
<path d="M19 10L20.0272 10.1712C20.7085 10.2847 21.0491 10.3415 21.3076 10.5067C21.5618 10.6691 21.7612 10.9044 21.8796 11.1819C22 11.464 22 11.8093 22 12.5C22 13.1907 22 13.536 21.8796 13.8181C21.7612 14.0956 21.5618 14.3309 21.3076 14.4933C21.0491 14.6585 20.7085 14.7153 20.0272 14.8288L19 15" stroke="#00B368" stroke-width="1.5" stroke-linecap="round"/>
</svg>
