<svg width="17" height="17" viewBox="0 0 17 17" fill="none" xmlns="http://www.w3.org/2000/svg">
<path d="M16.7303 4.97179C16.69 4.07799 16.5456 3.46644 16.3408 2.93217C16.1259 2.3811 15.8404 1.91068 15.3736 1.44697C14.9068 0.983271 14.4401 0.690936 13.8893 0.479245C13.3554 0.270914 12.7442 0.129787 11.8509 0.0894651C10.9543 0.049143 10.6689 0.0390625 8.39203 0.0390625C6.11184 0.0390625 5.8264 0.049143 4.93313 0.0894651C4.03986 0.129787 3.42868 0.274275 2.89473 0.479245C2.34063 0.694296 1.87049 0.97991 1.40707 1.44697C0.943642 1.91404 0.651482 2.3811 0.439918 2.93217C0.235071 3.46644 0.0906702 4.07799 0.0503723 4.97179C0.0100745 5.86896 0 6.15457 0 8.43277C0 10.7143 0.0100745 10.9999 0.0503723 11.8937C0.0906702 12.7876 0.235071 13.3991 0.439918 13.9334C0.65484 14.4844 0.940283 14.9549 1.40707 15.4186C1.87049 15.8856 2.34063 16.1746 2.89137 16.3863C3.42532 16.5946 4.0365 16.7358 4.92977 16.7761C5.8264 16.8164 6.11184 16.8265 8.38867 16.8265C10.6689 16.8265 10.9543 16.8164 11.8476 16.7761C12.7408 16.7358 13.352 16.5913 13.886 16.3863C14.4367 16.1712 14.9068 15.8856 15.3703 15.4186C15.8337 14.9515 16.1259 14.4844 16.3374 13.9334C16.5456 13.3991 16.6867 12.7876 16.727 11.8937C16.7673 10.9966 16.7773 10.711 16.7773 8.43277C16.7773 6.15457 16.7706 5.8656 16.7303 4.97179ZM15.2225 11.8265C15.1856 12.6464 15.0479 13.0933 14.9337 13.3857C14.7826 13.7754 14.5979 14.0577 14.3024 14.3534C14.0069 14.6491 13.7281 14.8272 13.3352 14.9851C13.0397 15.0993 12.5931 15.2371 11.777 15.2741C10.8939 15.3144 10.6286 15.3245 8.38531 15.3245C6.14207 15.3245 5.87677 15.3144 4.99358 15.2741C4.17419 15.2371 3.72755 15.0993 3.43539 14.9851C3.04585 14.8339 2.76376 14.6491 2.46824 14.3534C2.17273 14.0577 1.99474 13.7788 1.83691 13.3857C1.72273 13.09 1.58505 12.6431 1.54811 11.8265C1.50781 10.9428 1.49774 10.6774 1.49774 8.43277C1.49774 6.18818 1.50781 5.92272 1.54811 5.039C1.58505 4.21912 1.72273 3.77221 1.83691 3.47988C1.98803 3.0901 2.17273 2.80784 2.46824 2.51215C2.76376 2.21645 3.04249 2.03836 3.43539 1.88044C3.73091 1.76619 4.17754 1.62842 4.99358 1.59146C5.87677 1.55114 6.14207 1.54106 8.38531 1.54106C10.6286 1.54106 10.8939 1.55114 11.777 1.59146C12.5964 1.62842 13.0431 1.76619 13.3352 1.88044C13.7248 2.03164 14.0069 2.21645 14.3024 2.51215C14.5979 2.80784 14.7759 3.08674 14.9337 3.47988C15.0479 3.77557 15.1856 4.22248 15.2225 5.039C15.2628 5.92272 15.2729 6.18818 15.2729 8.43277C15.2729 10.6774 15.2595 10.9428 15.2225 11.8265Z" fill="#00B368"/>
<path d="M8.38517 4.11834C6.00088 4.11834 4.0733 6.05044 4.0733 8.4328C4.0733 10.8185 6.00424 12.7473 8.38517 12.7473C10.7661 12.7473 12.697 10.8118 12.697 8.4328C12.697 6.04708 10.7695 4.11834 8.38517 4.11834ZM8.38517 11.2318C6.84042 11.2318 5.58783 9.97848 5.58783 8.4328C5.58783 6.88712 6.84042 5.63378 8.38517 5.63378C9.92992 5.63378 11.1825 6.88712 11.1825 8.4328C11.1825 9.97848 9.92992 11.2318 8.38517 11.2318Z" fill="#00B368"/>
<path d="M12.8653 4.95837C13.4217 4.95837 13.8728 4.50705 13.8728 3.95032C13.8728 3.39359 13.4217 2.94227 12.8653 2.94227C12.3089 2.94227 11.8579 3.39359 11.8579 3.95032C11.8579 4.50705 12.3089 4.95837 12.8653 4.95837Z" fill="#00B368"/>
</svg>
