<svg width="55" height="52" viewBox="0 0 55 52" fill="none" xmlns="http://www.w3.org/2000/svg">
<path d="M2.87977 39.0102C3.89906 40.71 4.93722 42.2534 7.97622 45.1941C8.68594 45.874 10.7056 47.2067 13.0727 48.5937C15.3095 49.6652 17.6896 50.4741 20.1548 51.0006C21.8952 51.4154 25.3457 51.5378 27.3276 51.48C27.4917 51.485 27.6552 51.4602 27.8085 51.4071C27.9617 51.354 28.1015 51.2737 28.2195 51.1709C28.3375 51.0681 28.4313 50.945 28.4954 50.8088C28.5594 50.6727 28.5924 50.5264 28.5923 50.3785C28.5819 50.1431 28.4845 49.9177 28.3155 49.7378C28.1466 49.558 27.9158 49.4341 27.6598 49.3858C27.6598 49.3858 22.2501 48.5155 20.5097 48.009C18.7694 47.5024 15.3642 45.9692 14.4015 44.6094C14.1675 44.1062 13.9863 42.2058 14.5336 42.4404C15.3264 42.7804 19.4111 44.538 19.4111 44.538C19.6947 44.6441 20.0117 44.6522 20.3014 44.5607C20.5912 44.4692 20.8332 44.2846 20.981 44.0423C21.1289 43.8 21.1722 43.5171 21.1027 43.2478C21.0331 42.9785 20.8555 42.7418 20.6041 42.5832C20.6041 42.5832 16.3306 39.7275 15.0999 39.1088C13.5899 38.3609 10.4301 37.3648 9.08611 36.1341C0.958214 28.6856 5.68848 14.0367 5.68848 14.0367C-2.26576 23.6746 -0.56317 33.3125 2.87977 39.0102Z" fill="#00B368"/>
<path d="M51.9491 13.8055C51.0015 12.0819 50.0275 10.4943 47.1093 7.45506C46.4336 6.74795 44.4667 5.35071 42.1601 3.87188C39.9696 2.72643 37.625 1.83869 35.1836 1.23038C33.4622 0.757832 30.0192 0.509661 28.0373 0.509661C27.8734 0.49858 27.7088 0.517429 27.5533 0.565077C27.3977 0.612725 27.2545 0.688189 27.1321 0.786937C27.0098 0.885685 26.9108 1.00568 26.8413 1.13972C26.7717 1.27376 26.7329 1.41907 26.7273 1.56694C26.7288 1.80192 26.8172 2.02975 26.9786 2.21444C27.1399 2.39913 27.365 2.53016 27.6182 2.58682C27.6182 2.58682 32.9903 3.6373 34.708 4.20164C36.4257 4.76597 39.7629 6.40119 40.6689 7.79503C40.8803 8.30497 40.9823 10.2087 40.4462 9.95718C39.6685 9.59342 35.6593 7.69644 35.6593 7.69644C35.3803 7.58079 35.0637 7.56204 34.7702 7.64378C34.4768 7.72553 34.2272 7.90202 34.0695 8.13935C33.9117 8.37668 33.8569 8.65812 33.9155 8.92964C33.9741 9.20116 34.1421 9.4436 34.3871 9.61042C34.3871 9.61042 38.5397 12.6259 39.7516 13.2888C41.2163 14.0877 44.3421 15.1858 45.6332 16.464C53.4478 24.1811 48.0984 38.6465 48.0984 38.6465C56.4528 29.3044 55.1542 19.6121 51.9491 13.8055Z" fill="#00B368"/>
<path fill-rule="evenodd" clip-rule="evenodd" d="M13.0229 3.3222C14.3996 1.79406 17.7809 -0.527075 20.292 2.41358C22.8031 5.35424 25.1931 7.30091 26.0742 7.90667C26.1171 8.97951 26.2068 10.3901 26.3532 11.952C23.3351 11.9677 20.8475 12.9526 18.8912 14.3493C18.1474 14.8803 17.4826 15.4689 16.8951 16.0831C14.9401 11.527 12.7516 5.95407 13.0229 3.3222ZM17.7717 18.1008C17.8991 18.3914 18.0233 18.674 18.1435 18.9473L18.1435 18.9473C18.655 20.1109 19.0921 21.1051 19.3834 21.8252C20.4983 24.5815 19.5464 27.1056 18.774 29.1537L18.774 29.1537C18.5163 29.837 18.2786 30.4672 18.1443 31.0354C17.7286 32.7942 17.5852 34.7015 20.187 35.8181C20.2486 35.043 20.3741 34.2329 20.5689 33.4316C21.1219 31.1567 22.2914 28.7138 24.4308 27.2875C26.0781 26.1894 28.1575 25.9527 30.1564 26.2117C29.8711 25.7554 29.5591 25.2481 29.2131 24.675C27.8747 22.4584 27.0393 17.9853 26.5644 13.9527C23.8793 13.9224 21.7274 14.7818 20.0533 15.977C19.1633 16.6124 18.4036 17.3467 17.7717 18.1008ZM31.5476 28.5419C31.5947 28.5556 31.6416 28.5695 31.6883 28.5837C31.7927 28.7408 31.8941 28.8929 31.9936 29.042L31.9939 29.0425L31.994 29.0426C32.7698 30.2058 33.4242 31.1871 34.4171 32.9353C34.4908 33.0652 34.5655 33.197 34.641 33.3303C35.1785 34.2792 35.7612 35.3078 36.3959 36.3097C35.2085 36.7575 34.2338 37.586 33.4523 38.5359C32.825 39.2983 32.2969 40.1692 31.8622 41.0573C31.453 40.7063 31.0849 40.3763 30.7394 40.0666L30.7393 40.0665C28.7044 38.2421 27.4546 37.1216 23.2244 36.5698C22.8422 36.52 22.486 36.4622 22.1543 36.3969C22.1893 35.6288 22.3007 34.7747 22.5123 33.904C23.0066 31.8706 23.9901 29.985 25.5402 28.9516C27.0345 27.9554 29.2988 27.889 31.5476 28.5419ZM33.4642 42.3501C36.9756 44.9305 40.9541 44.1875 42.4045 43.9166C42.6279 43.8748 42.7914 43.8443 42.8838 43.8389C43.586 43.7976 45.5684 42.4346 42.1817 41.6499C40.4163 41.2408 38.8977 39.7992 37.5793 38.0388C37.4441 38.0686 37.313 38.1061 37.1857 38.1505C36.39 38.4281 35.6564 39.0049 34.9967 39.8066C34.3856 40.5494 33.8742 41.4412 33.4642 42.3501Z" fill="#00B368"/>
</svg>
