<svg width="25" height="24" viewBox="0 0 25 24" fill="none" xmlns="http://www.w3.org/2000/svg">
<path d="M7.5 8.49999L10.442 10.2394C12.1572 11.2535 12.8428 11.2535 14.558 10.2394L17.5 8.49999" stroke="#00B368" stroke-width="1.5" stroke-linecap="round" stroke-linejoin="round"/>
<path d="M2.51577 13.4756C2.58114 16.5411 2.61383 18.0739 3.74496 19.2093C4.87608 20.3448 6.45033 20.3843 9.59883 20.4634C11.5393 20.5122 13.4607 20.5122 15.4012 20.4634C18.5497 20.3843 20.1239 20.3448 21.2551 19.2093C22.3862 18.0739 22.4189 16.5411 22.4842 13.4756C22.5053 12.4899 22.5053 11.5101 22.4842 10.5244C22.4189 7.45884 22.3862 5.92607 21.2551 4.79064C20.1239 3.65521 18.5497 3.61565 15.4012 3.53655C13.4607 3.48779 11.5393 3.48779 9.59882 3.53654C6.45033 3.61564 4.87608 3.65519 3.74495 4.79062C2.61382 5.92606 2.58114 7.45882 2.51576 10.5244C2.49474 11.51 2.49475 12.4899 2.51577 13.4756Z" stroke="#00B368" stroke-width="1.5" stroke-linejoin="round"/>
</svg>
