<svg width="32" height="32" viewBox="0 0 32 32" fill="none" xmlns="http://www.w3.org/2000/svg">
<path d="M5.03683 15.9232C3.7728 13.7192 3.16246 11.9194 2.79445 10.095C2.25016 7.39685 3.49574 4.76116 5.55917 3.07938C6.43126 2.36859 7.43097 2.61144 7.94667 3.53661L9.11091 5.62529C10.0337 7.28084 10.4951 8.10861 10.4036 8.9862C10.3121 9.8638 9.68982 10.5786 8.4453 12.0081L5.03683 15.9232ZM5.03683 15.9232C7.59534 20.3844 11.6104 24.4018 16.0769 26.9632M16.0769 26.9632C18.2809 28.2273 20.0807 28.8376 21.905 29.2056C24.6032 29.7499 27.2389 28.5043 28.9207 26.4409C29.6315 25.5688 29.3886 24.5691 28.4635 24.0534L26.3748 22.8892C24.7192 21.9664 23.8915 21.505 23.0139 21.5965C22.1363 21.688 21.4215 22.3103 19.992 23.5548L16.0769 26.9632Z" stroke="#00B368" stroke-width="2" stroke-linejoin="round"/>
<path d="M18.6667 9.10922C20.5643 9.91506 22.0851 11.4358 22.8909 13.3334M19.5387 2.66675C24.255 4.02776 27.9722 7.74478 29.3333 12.4609" stroke="#00B368" stroke-width="2" stroke-linecap="round"/>
</svg>
