<svg width="11" height="18" viewBox="0 0 11 18" fill="none" xmlns="http://www.w3.org/2000/svg">
<path d="M5.23268 0.0390625C2.66142 0.0390625 0.569734 2.05822 0.569734 4.54047C0.569734 7.02253 2.66142 9.04078 5.23268 9.04078C7.80384 9.04078 9.8945 7.02253 9.8945 4.54047C9.8945 2.05822 7.80386 0.0390625 5.23268 0.0390625ZM5.23268 2.67647C6.29685 2.67647 7.16222 3.51306 7.16222 4.54047C7.16222 5.56745 6.29687 6.4034 5.23268 6.4034C4.16829 6.4034 3.30202 5.56747 3.30202 4.54047C3.30202 3.51306 4.16829 2.67647 5.23268 2.67647ZM1.3883 9.19393C0.926963 9.18701 0.473305 9.40656 0.210139 9.81145C-0.192035 10.4283 0.000625163 11.2422 0.638055 11.6302C1.48121 12.1409 2.39613 12.5033 3.34494 12.7121L0.739109 15.229C0.205659 15.7443 0.206111 16.5789 0.739669 17.0942C1.0071 17.3513 1.35589 17.48 1.70557 17.48C2.05488 17.48 2.40485 17.3511 2.67147 17.0936L5.23158 14.6208L7.79394 17.0936C8.32694 17.6087 9.19122 17.6087 9.72516 17.0936C10.2588 16.5787 10.2588 15.7432 9.72516 15.2291L7.1182 12.7127C8.06728 12.5038 8.9825 12.1413 9.82508 11.6302C10.4638 11.2423 10.6567 10.4274 10.2547 9.81147C9.85217 9.19449 9.00946 9.00864 8.37029 9.39724C6.46136 10.5565 4.00171 10.5558 2.09338 9.39724C1.87371 9.26366 1.62995 9.19758 1.3883 9.19395V9.19393Z" fill="#00B368"/>
</svg>
