<svg width="39" height="26" viewBox="0 0 39 26" fill="none" xmlns="http://www.w3.org/2000/svg">
<path fill-rule="evenodd" clip-rule="evenodd" d="M7.25911 11.0482H9.29835V12.9321H10.5344V7.9082H9.29835V9.92568H7.25911V7.9082H6.01611V12.9321H7.25911V11.0482Z" fill="#DB0525"/>
<path fill-rule="evenodd" clip-rule="evenodd" d="M20.4897 10.3983L21.6077 12.134V12.1415H22.2998V12.134L23.4108 10.4133V12.9321H24.6561V7.9082H23.728L21.9549 10.5904L20.1818 7.9082H19.2537V12.9321H20.4966L20.4897 10.3983Z" fill="#DB0525"/>
<path fill-rule="evenodd" clip-rule="evenodd" d="M29.4709 11.8461H26.9317V10.9746H29.1538V9.91088H26.9317V8.99464H29.4709V7.9082H25.6887V12.932H29.4709V11.8461Z" fill="#DB0525"/>
<path fill-rule="evenodd" clip-rule="evenodd" d="M8.27973 19.1932C9.23568 19.1932 10.0227 18.7601 10.4602 18.0528L9.51576 17.3478C9.3028 17.775 8.77736 18.0263 8.24268 18.0263C7.42559 18.0263 6.83072 17.4207 6.83072 16.5856C6.83072 15.7505 7.42559 15.1451 8.24268 15.1451C8.73801 15.1451 9.20097 15.3601 9.43245 15.7296L10.3884 15.0171C9.93242 14.3698 9.15931 13.9775 8.24962 13.9775C6.74277 13.9775 5.57153 15.0713 5.57153 16.5856C5.57153 18.1002 6.77054 19.1932 8.27973 19.1932Z" fill="#DB0525"/>
<path fill-rule="evenodd" clip-rule="evenodd" d="M12.2195 15.175H13.1385C13.6176 15.175 13.9926 15.4333 13.9926 15.8397C13.9926 16.2535 13.6176 16.5196 13.1385 16.5196H12.2195V15.175ZM12.2194 17.6421H13.1685L14.1175 19.0976H15.5665L14.3906 17.3392C14.9207 17.0288 15.2355 16.4975 15.2355 15.8397C15.2355 14.7541 14.4045 14.0742 13.1615 14.0742H10.9741V19.0976H12.2194V17.6421Z" fill="#DB0525"/>
<path fill-rule="evenodd" clip-rule="evenodd" d="M19.9507 15.1604V14.0742H16.1685V19.0976H19.9507V18.0116H17.4115V17.1399H19.6336V16.0762H17.4115V15.1604H19.9507Z" fill="#DB0525"/>
<path fill-rule="evenodd" clip-rule="evenodd" d="M22.0593 15.1973H22.8255C23.6425 15.1973 24.2675 15.7953 24.2675 16.5714C24.2675 17.3692 23.6425 17.9746 22.8255 17.9746H22.0593V15.1973ZM25.5265 16.5714C25.5265 15.1009 24.3993 14.0742 22.8253 14.0742H20.8162V19.0976H22.8253C24.3993 19.0976 25.5265 18.0634 25.5265 16.5714Z" fill="#DB0525"/>
<path fill-rule="evenodd" clip-rule="evenodd" d="M26.2119 19.0976H27.4558V14.0742H26.2119V19.0976Z" fill="#DB0525"/>
<path fill-rule="evenodd" clip-rule="evenodd" d="M28.0842 14.0742V15.1897H29.5194V19.0978H30.7554V15.1897H32.1905V14.0742H28.0842Z" fill="#DB0525"/>
<path fill-rule="evenodd" clip-rule="evenodd" d="M13.4948 12.9317C12.9879 12.5212 12.6638 11.8933 12.6638 11.1891C12.6638 9.9528 13.6638 8.95025 14.8952 8.95025C16.1266 8.95025 17.1242 9.9528 17.1242 11.1891C17.1242 11.8933 16.8002 12.5212 16.2932 12.9317H17.9321C18.2793 12.4049 18.4783 11.782 18.4783 11.1145C18.4783 9.2213 16.8742 7.6875 14.8952 7.6875C12.9161 7.6875 11.312 9.2213 11.312 11.1145C11.312 11.782 11.5111 12.4049 11.856 12.9317H13.4948Z" fill="#DB0525"/>
<path fill-rule="evenodd" clip-rule="evenodd" d="M13.5156 11.7705C13.7425 12.3104 14.2748 12.6896 14.8952 12.6896C15.5155 12.6896 16.0456 12.3104 16.2724 11.7705H13.5156Z" fill="#DB0525"/>
</svg>
