<svg width="40" height="26" viewBox="0 0 40 26" fill="none" xmlns="http://www.w3.org/2000/svg">
<path d="M26.1403 8.9082C26.4931 9.36732 26.7949 9.86899 27.0362 10.4037L20.2242 15.4571L17.3779 13.6613V11.501L20.2242 13.2968L26.1403 8.9082Z" fill="#21A038"/>
<path d="M14.4745 13.5086C14.4745 13.4117 14.4769 13.3154 14.4816 13.2197L12.7567 13.1328C12.7508 13.2575 12.7473 13.3828 12.7473 13.5086C12.7473 15.5862 13.5839 17.4676 14.9372 18.8296L16.1601 17.5988C15.1198 16.5505 14.4745 15.104 14.4745 13.5086Z" fill="url(#paint0_linear_485_49676)"/>
<path d="M20.2233 7.72218C20.3196 7.72218 20.4152 7.72573 20.5104 7.73046L20.5967 5.99383C20.4729 5.98792 20.3484 5.98438 20.2233 5.98438C18.1591 5.98438 16.2898 6.82639 14.9365 8.1884L16.1594 9.41922C17.2009 8.37098 18.6381 7.72218 20.2233 7.72218Z" fill="url(#paint1_linear_485_49676)"/>
<path d="M20.2237 19.2951C20.1275 19.2951 20.0318 19.2927 19.9367 19.288L19.8503 21.024C19.9742 21.0299 20.0987 21.0334 20.2237 21.0334C22.2879 21.0334 24.1573 20.1914 25.5105 18.8295L24.2876 17.5986C23.2461 18.6457 21.8089 19.2951 20.2237 19.2951Z" fill="url(#paint2_linear_485_49676)"/>
<path d="M23.4657 8.73202L24.92 7.65364C23.6366 6.60953 22.0033 5.98438 20.2244 5.98438V7.72278C21.4262 7.72219 22.5422 8.09563 23.4657 8.73202Z" fill="url(#paint3_linear_485_49676)"/>
<path d="M27.6998 13.5086C27.6998 13.0482 27.6586 12.598 27.58 12.1602L25.9708 13.3537C25.9719 13.4052 25.9731 13.4565 25.9731 13.508C25.9731 15.2068 25.2416 16.7372 24.0791 17.7966L25.2398 19.0878C26.7504 17.7116 27.6998 15.7214 27.6998 13.5086Z" fill="#21A038"/>
<path d="M20.2244 19.2959C18.5365 19.2959 17.0159 18.5596 15.9632 17.3896L14.6804 18.5578C16.0483 20.0788 18.0257 21.0342 20.2244 21.0342V19.2959Z" fill="url(#paint4_linear_485_49676)"/>
<path d="M16.3685 9.21981L15.2078 7.92871C13.6966 9.30549 12.7473 11.2956 12.7473 13.5085H14.4745C14.4751 11.8091 15.2061 10.2793 16.3685 9.21981Z" fill="url(#paint5_linear_485_49676)"/>
<defs>
<linearGradient id="paint0_linear_485_49676" x1="14.5624" y1="18.6117" x2="12.9067" y2="13.8566" gradientUnits="userSpaceOnUse">
<stop offset="0.1444" stop-color="#F2E913"/>
<stop offset="0.3037" stop-color="#E7E518"/>
<stop offset="0.5823" stop-color="#CADB26"/>
<stop offset="0.891" stop-color="#A3CD39"/>
</linearGradient>
<linearGradient id="paint1_linear_485_49676" x1="15.4301" y1="7.80814" x2="19.5513" y2="6.24771" gradientUnits="userSpaceOnUse">
<stop offset="0.0592" stop-color="#0FA8E0"/>
<stop offset="0.5385" stop-color="#0099F9"/>
<stop offset="0.9234" stop-color="#0291EB"/>
</linearGradient>
<linearGradient id="paint2_linear_485_49676" x1="19.7363" y1="19.4055" x2="24.9045" y2="18.245" gradientUnits="userSpaceOnUse">
<stop offset="0.1226" stop-color="#A3CD39"/>
<stop offset="0.2846" stop-color="#86C339"/>
<stop offset="0.8693" stop-color="#21A038"/>
</linearGradient>
<linearGradient id="paint3_linear_485_49676" x1="19.863" y1="7.26654" x2="24.0465" y2="8.54903" gradientUnits="userSpaceOnUse">
<stop offset="0.0566" stop-color="#0291EB"/>
<stop offset="0.79" stop-color="#0C8ACB"/>
</linearGradient>
<linearGradient id="paint4_linear_485_49676" x1="15.1136" y1="19.0522" x2="19.5497" y2="20.699" gradientUnits="userSpaceOnUse">
<stop offset="0.1324" stop-color="#F2E913"/>
<stop offset="0.2977" stop-color="#EBE716"/>
<stop offset="0.5306" stop-color="#D9E01F"/>
<stop offset="0.8023" stop-color="#BBD62D"/>
<stop offset="0.9829" stop-color="#A3CD39"/>
</linearGradient>
<linearGradient id="paint5_linear_485_49676" x1="14.3484" y1="13.719" x2="16.1264" y2="9.12329" gradientUnits="userSpaceOnUse">
<stop offset="0.0698" stop-color="#A3CD39"/>
<stop offset="0.2599" stop-color="#81C55F"/>
<stop offset="0.9216" stop-color="#0FA8E0"/>
</linearGradient>
</defs>
</svg>
