<svg width="40" height="26" viewBox="0 0 40 26" fill="none" xmlns="http://www.w3.org/2000/svg">
<path d="M8.17363 7.1361C7.95183 7.2465 7.76701 7.4305 7.69308 7.6145C7.65611 7.7249 7.61914 8.71851 7.61914 10.5217V13.2449H8.91294V11.5153H10.6134L11.057 12.3617L11.5005 13.2081H12.2399C12.6465 13.2081 12.9792 13.2081 12.9792 13.1713C12.9792 13.1345 12.7574 12.6929 12.4617 12.1777L11.9441 11.2209L12.092 11.1473C12.8313 10.6689 13.164 9.67531 12.9792 8.5713C12.8683 7.9089 12.5356 7.4305 12.0181 7.2097C11.7223 7.0993 11.6854 7.0625 10.0219 7.0625C8.72811 7.0625 8.32149 7.0625 8.17363 7.1361ZM11.3896 8.3873C11.4636 8.4241 11.5745 8.53451 11.6114 8.64491C11.7223 8.90251 11.7223 9.52811 11.6484 9.71211C11.4266 10.1537 11.1309 10.2641 9.87405 10.2641H8.94991V8.3137H10.0958C10.7243 8.3137 11.3157 8.3505 11.3896 8.3873ZM14.8644 7.0993C14.3099 7.2833 13.9033 7.6513 13.7555 8.2033C13.6076 8.64491 13.4597 9.63851 13.4597 10.1537C13.4597 10.6321 13.6076 11.5889 13.7185 11.9937C13.9403 12.6561 14.273 13.0241 14.9014 13.1713C15.1971 13.2449 15.4559 13.2449 16.417 13.2449C17.489 13.2449 17.5999 13.2081 17.8956 13.0977C18.6719 12.7665 19.0046 11.8465 19.0046 10.1537C19.0046 8.35051 18.6349 7.4673 17.8217 7.1729C17.526 7.0625 17.4151 7.0625 16.2322 7.0625C15.6037 7.0625 14.9753 7.0993 14.8644 7.0993ZM17.452 8.4609C17.8217 8.97611 17.8217 11.4785 17.452 11.8465C17.3411 11.9569 15.1971 11.9569 15.1232 11.8465C14.8644 11.5153 14.7535 9.71211 14.9753 8.86571C15.0492 8.53451 15.0862 8.4241 15.1971 8.3873C15.271 8.3505 15.7886 8.3505 16.38 8.3505C17.2672 8.3505 17.4151 8.3505 17.452 8.4609ZM20.2614 7.1729C20.1505 7.2465 20.0027 7.3937 19.9287 7.5041C19.8178 7.6881 19.8178 7.7985 19.7809 10.0065C19.7809 11.5521 19.7809 12.3985 19.8178 12.5457C19.9287 12.8769 20.1505 13.1345 20.4832 13.2081C20.8159 13.2817 23.2926 13.2817 23.7362 13.2081C24.5864 13.0609 25.03 12.5825 25.1039 11.6625C25.1409 11.1473 25.067 10.7793 24.8452 10.4113L24.6973 10.1537L24.9191 9.74891C25.1039 9.38091 25.1409 9.34411 25.1409 8.79211C25.1409 8.3505 25.1039 8.1665 25.03 7.9457C24.8821 7.6145 24.6603 7.3937 24.3276 7.2097L24.0319 7.0625H22.2945C20.4832 7.0625 20.4832 7.0625 20.2614 7.1729ZM23.6992 8.3873C23.7732 8.4609 23.8101 8.8289 23.7732 9.01291C23.7362 9.12331 23.6623 9.23371 23.5883 9.34411C23.4405 9.49131 23.4405 9.49131 22.2945 9.49131H21.1486V8.3137H22.4054C23.0708 8.3505 23.6623 8.3873 23.6992 8.3873ZM23.4405 10.8529C23.6623 10.9265 23.7732 11.1841 23.7732 11.4785C23.7732 11.6625 23.7362 11.7729 23.6623 11.8097C23.5883 11.8833 23.2556 11.8833 22.3315 11.8833H21.0747V10.7057L22.1836 10.7425C22.812 10.7793 23.3665 10.8161 23.4405 10.8529ZM26.9522 7.1729C26.3977 7.3937 26.139 7.7617 25.9172 8.5713C25.8063 8.97611 25.8063 9.19691 25.8063 10.1537C25.8063 11.1473 25.8063 11.2577 25.9541 11.7729C26.139 12.3985 26.2868 12.6561 26.6195 12.9137C27.0261 13.2081 27.137 13.2081 28.5417 13.2081C29.9464 13.2081 30.0943 13.1713 30.464 12.9137C30.7966 12.6929 30.9445 12.3985 31.1293 11.7729C31.2772 11.2577 31.2772 11.1473 31.2772 10.1537C31.2772 9.23371 31.2772 9.01291 31.1663 8.5713C30.9445 7.7249 30.6857 7.3569 30.1313 7.1729C29.8355 7.0625 29.7246 7.0625 28.5417 7.0625C27.3588 7.0625 27.211 7.0625 26.9522 7.1729ZM29.6137 8.3873C29.7616 8.4609 29.8355 8.60811 29.9464 9.23371C30.0943 10.0065 29.9464 11.4417 29.7246 11.7729C29.6507 11.9201 29.6507 11.9201 28.5417 11.9201C27.2479 11.9201 27.3219 11.9569 27.174 11.2209C26.9522 10.1905 27.137 8.4977 27.4328 8.3873C27.6176 8.3137 29.4659 8.3137 29.6137 8.3873Z" fill="#2F69B1"/>
<path d="M7.77296 14.8951L7.61914 15.0482V19.6116L7.74221 19.7341C7.86527 19.8566 7.92679 19.8566 8.14214 19.8566C8.3575 19.8566 8.41903 19.826 8.51132 19.7647C8.66515 19.581 8.6959 19.3972 8.6959 18.6009V17.8352H9.37273L9.71115 18.1415C10.388 18.7234 10.6341 19.0297 10.6341 19.3666C10.6341 19.5503 10.6649 19.6116 10.7879 19.7341C10.9417 19.8872 10.9725 19.8872 11.1878 19.8872C11.3724 19.8872 11.434 19.8566 11.557 19.7647C11.7109 19.6422 11.7109 19.6116 11.7109 19.2747C11.7109 18.9991 11.6801 18.8765 11.557 18.6315C11.4032 18.2946 10.911 17.7434 10.6341 17.4983L10.4495 17.3452L10.7571 17.0696C11.1263 16.7327 11.4647 16.3039 11.6186 15.967C11.7108 15.7832 11.7416 15.6301 11.7416 15.3851C11.7416 15.0482 11.7416 15.0482 11.5878 14.8951C11.4647 14.7725 11.4032 14.7725 11.1571 14.7725C10.8802 14.7725 10.8494 14.7725 10.7571 14.8951C10.6956 14.9869 10.6649 15.0788 10.6649 15.2319C10.6649 15.3545 10.6341 15.5076 10.6033 15.5688C10.511 15.7526 10.1726 16.1508 9.74191 16.5183L9.4035 16.7939H8.72667V16.0282C8.72667 15.6301 8.69591 15.2013 8.66515 15.1094C8.60362 14.8644 8.41903 14.7419 8.14214 14.7419C7.92679 14.7725 7.89602 14.7725 7.77296 14.8951ZM13.649 14.8338C13.0337 15.0176 12.6953 15.477 12.4492 16.3651C12.3261 16.7633 12.3261 16.9164 12.2954 18.0802C12.2646 19.4585 12.2954 19.6116 12.5107 19.7647C12.6646 19.8872 13.0645 19.8872 13.1876 19.7647C13.3414 19.6422 13.4029 19.4891 13.4029 19.0297V18.5703H15.8026V19.0909C15.8026 19.581 15.8025 19.6116 15.9256 19.7341C16.0487 19.8566 16.1102 19.8566 16.3256 19.8566C16.5717 19.8566 16.6024 19.8566 16.7255 19.7035L16.8485 19.5503V18.0802C16.8178 16.702 16.8178 16.5795 16.7255 16.2733C16.5101 15.5382 16.1717 15.0788 15.741 14.8951C15.4949 14.7725 15.4334 14.7725 14.6643 14.7725C14.0797 14.7725 13.7721 14.7725 13.649 14.8338ZM15.2488 15.8751C15.4949 15.967 15.7103 16.5183 15.7718 17.2227L15.8026 17.529H13.4029L13.4337 17.1614C13.4952 16.5183 13.7413 15.9057 13.9874 15.8445C14.2028 15.8139 15.095 15.8445 15.2488 15.8751ZM18.3253 14.8338C17.8638 14.9869 17.6177 15.2013 17.4638 15.5995C17.3715 15.8139 17.3716 15.9364 17.3716 16.3039C17.3716 17.0389 17.5869 17.4677 18.1099 17.7127C18.3253 17.8046 18.3868 17.8352 19.3097 17.8352C20.2634 17.8659 20.2942 17.8659 20.3865 17.9577C20.5095 18.0803 20.5403 18.4784 20.4173 18.6622L20.325 18.7847H19.0944C17.9253 18.7847 17.833 18.7847 17.7407 18.8765C17.4946 19.0909 17.4638 19.5197 17.71 19.7341L17.8638 19.8566H19.2174C19.9558 19.8566 20.6326 19.826 20.7249 19.7954C20.971 19.7341 21.2479 19.4585 21.4325 19.1216C21.5863 18.8459 21.5863 18.7847 21.5863 18.2946C21.5863 17.8352 21.5863 17.774 21.4633 17.529C21.3094 17.1921 21.0941 16.9777 20.8787 16.8552C20.7249 16.7939 20.5711 16.7633 19.6481 16.7327C18.4176 16.702 18.4483 16.7327 18.4483 16.2426C18.4483 15.7526 18.3868 15.7832 19.8635 15.7526L21.1248 15.722L21.2479 15.5995C21.371 15.477 21.371 15.4463 21.4017 15.0788L21.4325 14.6807H19.9866C18.9406 14.7725 18.4483 14.8032 18.3253 14.8338ZM22.9092 14.8338C22.8169 14.8644 22.6631 14.9257 22.5708 14.9563C21.9863 15.2626 21.7094 16.3345 22.0785 17.0696C22.2324 17.3758 22.3862 17.5596 22.6631 17.7127C22.8784 17.8352 22.9092 17.8352 23.8321 17.8659C24.3551 17.8659 24.8166 17.8965 24.8781 17.9271C25.032 17.9884 25.1243 18.2334 25.0627 18.509C25.0012 18.8459 25.0627 18.8459 23.6475 18.8459H22.3862L22.2631 18.9684C22.1401 19.0909 22.1401 19.1522 22.1401 19.3666C22.1401 19.581 22.1708 19.6422 22.2631 19.7647L22.3862 19.8872H23.7706C25.3396 19.8872 25.3704 19.8872 25.678 19.581C25.9549 19.3053 26.078 18.9991 26.1087 18.4478C26.1395 17.8352 26.0164 17.4677 25.678 17.1308C25.5242 16.9777 25.3704 16.8858 25.2473 16.8552C25.155 16.8245 24.6936 16.7939 24.2013 16.7939C23.7091 16.7939 23.2784 16.7939 23.1861 16.7633C23.0323 16.7327 22.94 16.5795 22.94 16.3039C22.94 16.0282 23.0015 15.8751 23.1861 15.8445C23.2784 15.8445 23.8321 15.8139 24.4474 15.8139C25.8934 15.8139 25.9241 15.7832 25.9241 15.1094V14.7725H24.4782C23.5245 14.7725 23.0323 14.8032 22.9092 14.8338ZM27.9854 14.8644C27.8623 14.9257 27.6777 15.0176 27.5854 15.0788C27.2163 15.3545 26.8778 16.0895 26.7855 16.8552C26.724 17.3758 26.724 19.4278 26.7855 19.6116C26.8471 19.7954 27.0317 19.8872 27.3085 19.8872C27.4624 19.8872 27.5547 19.8566 27.6777 19.7647L27.8315 19.6422V19.1216L27.8623 18.6009H30.2004L30.2312 19.1216V19.6422L30.385 19.7647C30.5081 19.8872 30.5696 19.8872 30.7542 19.8872C30.9388 19.8872 31.0003 19.8566 31.1234 19.7647L31.2772 19.6422V18.2028C31.2772 16.8858 31.2772 16.7327 31.1849 16.3958C30.9695 15.6301 30.6619 15.1707 30.2312 14.9563C29.9543 14.8338 29.9543 14.8338 29.0929 14.8032C28.3238 14.7725 28.2007 14.7725 27.9854 14.8644ZM29.8313 15.9976C30.0158 16.212 30.1697 16.6714 30.1697 17.1308L30.2004 17.4983H27.8315V17.2227C27.8315 16.6408 28.0777 15.967 28.3546 15.8445C28.4161 15.8139 28.7237 15.8139 29.0929 15.8139H29.7082L29.8313 15.9976Z" fill="#D31223"/>
</svg>
