<svg width="39" height="26" viewBox="0 0 39 26" fill="none" xmlns="http://www.w3.org/2000/svg">
<path fill-rule="evenodd" clip-rule="evenodd" d="M11.335 12.5493C11.335 16.5826 14.546 19.872 18.5217 19.872C19.0096 19.872 19.4976 19.8282 20.0583 19.7779C20.6835 19.7219 21.3992 19.6577 22.3062 19.637C23.6823 19.637 25.1732 20.1461 26.817 21.6341C26.9699 21.7907 27.1992 21.5949 27.0463 21.3992C25.4026 19.3238 23.9117 18.9322 22.4208 18.5797C20.5859 18.149 19.6303 17.1309 18.9804 15.9561C18.8657 15.7212 18.7893 15.7603 18.7893 16.0736C18.751 16.5435 18.7893 16.9742 18.8657 17.405H18.6363C16.0369 17.405 13.8962 15.2121 13.8962 12.5493C13.8962 9.88653 16.0369 7.69365 18.6363 7.69365C21.2358 7.69365 23.3765 9.88653 23.3765 12.5493C23.3765 12.7059 23.3765 12.9017 23.3383 13.0975C22.956 13.0192 22.3062 13.0192 21.8092 13.0584C21.6181 13.0584 21.6181 13.1367 21.771 13.1759C23.3001 13.4891 24.3704 14.4681 24.638 16.2694C24.638 16.3477 24.6762 16.3477 24.7145 16.3085C25.3261 15.2121 25.7084 13.9199 25.7084 12.5493C25.7084 8.47682 22.4973 5.1875 18.5217 5.1875C14.546 5.1875 11.335 8.51598 11.335 12.5493ZM23.7205 15.5652C23.9881 15.6826 24.1027 16.0742 24.1027 16.27C24.141 16.5833 24.0645 16.7399 23.9498 16.7399C23.8352 16.7399 23.6822 16.6224 23.5293 16.3483C23.3764 16.0742 23.3 15.8001 23.3764 15.6435C23.4911 15.5652 23.6058 15.526 23.7205 15.5652ZM22.1532 16.7783C22.3061 16.7783 22.4972 16.8566 22.6884 17.0133C22.9942 17.2874 23.1089 17.6006 22.956 17.8356C22.8795 17.9531 22.6884 18.0314 22.5355 18.0314C22.3443 18.0314 22.1532 17.9531 22.0385 17.8356C21.7327 17.5615 21.6562 17.1699 21.8474 16.935C21.8856 16.8566 22.0003 16.7783 22.1532 16.7783Z" fill="#F28A1A"/>
</svg>
