<svg width="39" height="26" viewBox="0 0 39 26" fill="none" xmlns="http://www.w3.org/2000/svg">
<path fill-rule="evenodd" clip-rule="evenodd" d="M13.4625 9.5625V9.56579C13.4592 9.56579 12.4258 9.5625 12.1502 10.5526C11.8976 11.4605 11.1857 13.9671 11.166 14.0362H10.9691C10.9691 14.0362 10.2408 11.4737 9.98494 10.5493C9.70936 9.55921 8.67265 9.5625 8.67265 9.5625H6.31055V17.0954H8.67265V12.6217H8.77108H8.8695L10.2474 17.0954H11.8877L13.2656 12.625H13.4625V17.0954H15.8246V9.5625H13.4625Z" fill="#4DB45E"/>
<path fill-rule="evenodd" clip-rule="evenodd" d="M22.0909 9.5625C22.0909 9.5625 21.3987 9.625 21.0739 10.352L19.4007 14.0362H19.2039V9.5625H16.8418V17.0954H19.0727C19.0727 17.0954 19.7977 17.0296 20.1225 16.3059L21.7629 12.6217H21.9597V17.0954H24.3218V9.5625H22.0909Z" fill="#4DB45E"/>
<path fill-rule="evenodd" clip-rule="evenodd" d="M25.3713 12.9844V17.0962H27.7334V14.6949H30.2924C31.4078 14.6949 32.3527 13.9811 32.7037 12.9844H25.3713Z" fill="#4DB45E"/>
<path fill-rule="evenodd" clip-rule="evenodd" d="M30.2924 9.5625H25.04C25.3025 10.9967 26.3753 12.148 27.763 12.523C28.078 12.6086 28.4093 12.6546 28.7505 12.6546H32.7989C32.835 12.4836 32.8514 12.3092 32.8514 12.1283C32.8514 10.7105 31.7064 9.5625 30.2924 9.5625Z" fill="url(#paint0_linear_485_49666)"/>
<defs>
<linearGradient id="paint0_linear_485_49666" x1="25.0407" y1="11.1086" x2="32.8514" y2="11.1086" gradientUnits="userSpaceOnUse">
<stop offset="0.3" stop-color="#00B4E6"/>
<stop offset="1" stop-color="#088CCB"/>
</linearGradient>
</defs>
</svg>
