<svg width="39" height="26" viewBox="0 0 39 26" fill="none" xmlns="http://www.w3.org/2000/svg">
<g clip-path="url(#clip0_485_49686)">
<path d="M32.2185 11.6311V15.7282H30.7421V12.8542H29.3206V15.7282H27.8442V11.6309H32.2185V11.6311Z" fill="#141414"/>
<path fill-rule="evenodd" clip-rule="evenodd" d="M24.8122 15.8747C26.1339 15.8747 27.1153 15.0717 27.1153 13.8544C27.1153 12.6761 26.3912 11.9111 25.181 11.9111C24.6226 11.9111 24.1617 12.1059 23.8146 12.4421C23.8975 11.7473 24.4904 11.2401 25.1431 11.2401C25.2938 11.2401 26.428 11.2377 26.428 11.2377L27.0693 10.0215C27.0693 10.0215 25.6454 10.0536 24.9835 10.0536C23.471 10.0797 22.4495 11.442 22.4495 13.0966C22.4495 15.0242 23.4458 15.8747 24.8122 15.8747ZM24.8203 12.9884C25.311 12.9884 25.6512 13.3079 25.6512 13.8542C25.6512 14.3459 25.3489 14.7511 24.8203 14.7522C24.3146 14.7522 23.9744 14.3768 23.9744 13.8626C23.9744 13.3161 24.3146 12.9884 24.8203 12.9884Z" fill="#141414"/>
<path d="M21.2478 14.3564C21.2478 14.3564 20.8992 14.5556 20.3785 14.5933C19.7798 14.6109 19.2464 14.2362 19.2464 13.5705C19.2464 12.9211 19.7171 12.5489 20.3634 12.5489C20.7597 12.5489 21.2839 12.8211 21.2839 12.8211C21.2839 12.8211 21.6675 12.1236 21.8662 11.7747C21.5024 11.5014 21.0177 11.3516 20.454 11.3516C19.0314 11.3516 17.9294 12.2707 17.9294 13.5622C17.9294 14.8702 18.9651 15.768 20.454 15.741C20.8702 15.7256 21.4443 15.5808 21.7942 15.358L21.2478 14.3564Z" fill="#141414"/>
<path d="M6.3103 9.29492L7.91425 12.1359V13.8689L6.31218 16.7043L6.3103 9.29492Z" fill="#5B57A2"/>
<path d="M12.4688 11.1012L13.9717 10.1884L17.0476 10.1855L12.4688 12.9652V11.1012Z" fill="#D90751"/>
<path d="M12.4603 9.27764L12.4688 13.039L10.8611 12.0601V6.4375L12.4603 9.27764Z" fill="#FAB718"/>
<path d="M17.0476 10.1859L13.9716 10.1887L12.4603 9.27764L10.8611 6.4375L17.0476 10.1859Z" fill="#ED6F26"/>
<path d="M12.4688 16.7198V14.8949L10.8611 13.9346L10.862 19.5628L12.4688 16.7198Z" fill="#63B22F"/>
<path d="M13.968 15.8155L7.91414 12.1359L6.3103 9.29492L17.0412 15.8118L13.968 15.8155Z" fill="#1487C9"/>
<path d="M10.8621 19.5628L12.4687 16.7198L13.9679 15.8152L17.041 15.8115L10.8621 19.5628Z" fill="#017F36"/>
<path d="M6.31201 16.7039L10.8741 13.9345L9.34033 13.002L7.91409 13.8684L6.31201 16.7039Z" fill="#984995"/>
</g>
<defs>
<clipPath id="clip0_485_49686">
<rect width="26.3793" height="13.125" fill="white" transform="translate(6.3103 6.4375)"/>
</clipPath>
</defs>
</svg>
