<svg width="39" height="26" viewBox="0 0 39 26" fill="none" xmlns="http://www.w3.org/2000/svg">
<path d="M21.3371 5.5C18.643 5.5 16.478 7.50832 16.478 9.96293C16.478 12.4378 18.6643 14.4259 21.3365 14.4259C24.0086 14.4259 26.1968 12.4175 26.1968 9.96293C26.1968 7.50832 24.0093 5.5 21.3371 5.5ZM21.3371 11.6264C20.3433 11.6264 19.5264 10.8757 19.5264 9.96293C19.5264 9.05011 20.3433 8.29945 21.3371 8.29945C22.3309 8.29945 23.1481 9.05011 23.1481 9.96293C23.1259 10.8757 22.3309 11.6264 21.3371 11.6264Z" fill="#8B3FFD"/>
<path d="M16.478 6.79688V13.2884H14.7564L12.5479 6.79688H16.478Z" fill="#8B3FFD"/>
<path d="M26.1122 18.9512C26.1122 18.0804 25.3971 17.376 24.3871 17.376C23.3971 17.376 22.6921 18.0533 22.6921 18.984C22.6921 19.9193 23.4171 20.6013 24.4572 20.6013C25.1171 20.6013 25.6721 20.3293 26.0171 19.7765L25.3172 19.477C25.1523 19.7534 24.7921 19.9331 24.4572 19.9331C24.0322 19.9331 23.5423 19.6383 23.5122 19.2283H26.0871C26.1036 19.1367 26.1119 19.044 26.1122 18.9512ZM23.5271 18.6849C23.5873 18.2703 23.8972 17.9985 24.3922 17.9985C24.8821 17.9985 25.1821 18.2647 25.2221 18.6849H23.5271Z" fill="black"/>
<path d="M16.4737 17.375C15.4587 17.375 14.7388 18.0479 14.7388 18.997C14.7388 19.9368 15.4587 20.6004 16.4838 20.6004C17.5138 20.6004 18.2337 19.9368 18.2337 19.0108C18.2337 18.057 17.4938 17.375 16.4737 17.375ZM16.4838 19.8953C15.9736 19.8953 15.6587 19.5452 15.6587 19.0014C15.6587 18.4486 15.9787 18.0707 16.4838 18.0707C16.9938 18.0707 17.3137 18.4439 17.3137 19.0014C17.3137 19.5499 16.9988 19.8953 16.4838 19.8953Z" fill="black"/>
<path d="M12.8596 17.376C12.4438 17.376 12.1305 17.5069 11.8173 17.8315H11.7145C11.5041 17.5384 11.1607 17.376 10.7755 17.376C10.5832 17.3743 10.3931 17.4147 10.2211 17.4939C10.049 17.5731 9.89978 17.6888 9.78573 17.8315H9.68292L9.67787 17.8271V17.4393H8.81738V20.5328H9.74721V18.9408C9.74721 18.4267 9.98219 18.1246 10.3884 18.1246C10.7652 18.1246 11.0098 18.3817 11.0098 18.774V20.5328H11.9444V18.9408C11.9444 18.4305 12.1794 18.1246 12.5906 18.1246C12.9624 18.1246 13.2022 18.3817 13.2022 18.7786V20.5328H14.137V18.6748C14.137 17.8677 13.6671 17.376 12.8596 17.376Z" fill="black"/>
<path d="M28.18 19.4598H28.1135C28.1135 19.4048 27.7081 18.4251 27.4423 17.8181L27.2762 17.4385H26.3394L27.6684 20.5429L27.1447 21.7259H28.075L29.9888 17.4396H29.0515L28.8987 17.7642L28.3803 18.946C28.2342 19.2761 28.1742 19.4292 28.18 19.4598Z" fill="black"/>
<path d="M20.8125 17.376C20.3965 17.376 20.0392 17.5428 19.7994 17.8405H19.7014L19.6918 17.8361V17.4392H18.8308V20.5328H19.7606V18.9498C19.7606 18.4449 20.0255 18.129 20.4605 18.129C20.8667 18.129 21.1652 18.4085 21.1652 18.8504V20.5326H22.0951V18.6659C22.0951 17.9082 21.5567 17.376 20.8125 17.376Z" fill="black"/>
</svg>
