<svg width="39" height="26" viewBox="0 0 39 26" fill="none" xmlns="http://www.w3.org/2000/svg">
<path fill-rule="evenodd" clip-rule="evenodd" d="M19.7191 21.0909C18.9923 21.7125 18.0495 22.0876 17.0193 22.0876C14.7206 22.0876 12.8572 20.2197 12.8572 17.9154C12.8572 15.6111 14.7206 13.7432 17.0193 13.7432C18.0495 13.7432 18.9923 14.1184 19.7191 14.7399C20.4459 14.1184 21.3887 13.7432 22.4189 13.7432C24.7176 13.7432 26.5811 15.6111 26.5811 17.9154C26.5811 20.2197 24.7176 22.0876 22.4189 22.0876C21.3887 22.0876 20.4459 21.7125 19.7191 21.0909Z" fill="#ED0006"/>
<path fill-rule="evenodd" clip-rule="evenodd" d="M19.7192 21.091C20.6142 20.3257 21.1816 19.187 21.1816 17.9154C21.1816 16.6438 20.6142 15.5051 19.7192 14.7399C20.446 14.1184 21.3888 13.7432 22.419 13.7432C24.7177 13.7432 26.5812 15.6111 26.5812 17.9154C26.5812 20.2197 24.7177 22.0876 22.419 22.0876C21.3888 22.0876 20.446 21.7125 19.7192 21.091Z" fill="#F9A000"/>
<path fill-rule="evenodd" clip-rule="evenodd" d="M19.7192 21.0913C20.6141 20.326 21.1815 19.1873 21.1815 17.9157C21.1815 16.6442 20.6141 15.5055 19.7192 14.7402C18.8243 15.5055 18.2568 16.6442 18.2568 17.9157C18.2568 19.1873 18.8243 20.326 19.7192 21.0913Z" fill="#FF5E00"/>
<path fill-rule="evenodd" clip-rule="evenodd" d="M15.1829 11.0113H13.7699L12.7103 6.78954C12.66 6.59534 12.5532 6.42365 12.3961 6.34274C12.0041 6.13939 11.5721 5.97756 11.1008 5.89594V5.7334H13.3772C13.6913 5.7334 13.927 5.97756 13.9662 6.26112L14.516 9.30641L15.9284 5.7334H17.3022L15.1829 11.0113ZM18.0875 11.0113H16.7529L17.8518 5.7334H19.1864L18.0875 11.0113ZM20.9132 7.19617C20.9525 6.9119 21.1881 6.74936 21.463 6.74936C21.895 6.70855 22.3656 6.79017 22.7583 6.99282L22.9939 5.85646C22.6012 5.69393 22.1692 5.6123 21.7772 5.6123C20.4819 5.6123 19.5394 6.34337 19.5394 7.358C19.5394 8.12988 20.207 8.53516 20.6783 8.77932C21.1881 9.02278 21.3845 9.18531 21.3452 9.42877C21.3452 9.79395 20.9525 9.95649 20.5605 9.95649C20.0892 9.95649 19.618 9.83476 19.1867 9.63141L18.951 10.7685C19.4223 10.9711 19.9321 11.0527 20.4034 11.0527C21.8557 11.0928 22.7583 10.3625 22.7583 9.26623C22.7583 7.88572 20.9132 7.8048 20.9132 7.19617ZM27.4285 11.0113L26.3689 5.7334H25.2307C24.9951 5.7334 24.7595 5.89594 24.6809 6.13939L22.7188 11.0113H24.0925L24.3668 10.2401H26.0547L26.2118 11.0113H27.4285ZM25.4271 7.15536L25.8191 9.14451H24.7202L25.4271 7.15536Z" fill="#172B85"/>
</svg>
