<svg width="24" height="24" viewBox="0 0 24 24" fill="none" xmlns="http://www.w3.org/2000/svg">
<g clip-path="url(#clip0_597_26015)">
<path d="M5.57081 18.8966L8.46666 17.9247C8.98805 17.7497 9.54909 18.0527 9.68705 18.5851C9.77208 18.9133 9.867 19.2594 9.97289 19.6256C10.3259 20.8454 9.65133 22.1262 8.4473 22.5303L8.38205 22.5522C7.20427 22.9474 5.92102 22.3676 5.43994 21.2221C5.29149 20.8687 5.14365 20.5149 4.99641 20.1609C4.785 19.6527 5.049 19.0717 5.57081 18.8966ZM8.22952 8.98107C8.60475 10.9706 8.44584 12.1023 8.50748 13.6842C8.52394 14.1067 8.262 14.4901 7.86117 14.6246L3.96239 15.933C3.48328 16.0938 2.96236 15.8508 2.77711 15.3806C2.19281 13.8977 1.64573 12.4501 1.26581 11.3181C-0.0354847 7.44052 1.04902 4.89235 3.19945 4.17066C5.34994 3.44898 7.57284 5.49962 8.22952 8.98107ZM18.4292 16.1941L15.5333 15.2222C15.012 15.0472 14.4509 15.3502 14.313 15.8826C14.2279 16.2107 14.133 16.5569 14.0271 16.9231C13.6741 18.1429 14.3487 19.4237 15.5527 19.8278L15.618 19.8496C16.7957 20.2449 18.079 19.6651 18.5601 18.5196C18.7085 18.1661 18.8563 17.8124 19.0036 17.4584C19.215 16.9502 18.951 16.3692 18.4292 16.1941ZM15.7705 6.27854C15.3953 8.26806 15.5542 9.39981 15.4925 10.9817C15.4761 11.4042 15.738 11.7875 16.1388 11.9221L20.0376 13.2305C20.5167 13.3913 21.0376 13.1483 21.2229 12.6781C21.8072 11.1952 22.3543 9.74752 22.7342 8.61554C24.0355 4.73795 22.951 2.18982 20.8005 1.46809C18.6501 0.746446 16.4272 2.79713 15.7705 6.27854Z" stroke="#00B368" stroke-width="1.5" stroke-miterlimit="10" stroke-linecap="round" stroke-linejoin="round"/>
</g>
<defs>
<clipPath id="clip0_597_26015">
<rect width="24" height="24" fill="white"/>
</clipPath>
</defs>
</svg>
