<svg width="24" height="24" viewBox="0 0 24 24" fill="none" xmlns="http://www.w3.org/2000/svg">
<mask id="mask0_597_26005" style="mask-type:luminance" maskUnits="userSpaceOnUse" x="0" y="0" width="24" height="24">
<path d="M23.2499 23.25V0.750071H0.75V23.25H23.2499Z" fill="white" stroke="white" stroke-width="1.5"/>
</mask>
<g mask="url(#mask0_597_26005)">
<path d="M14.5937 19.3477C14.6767 19.6291 14.7321 19.9162 14.7452 20.2116C14.8246 21.9885 13.4879 23.411 11.6354 23.2896C10.5414 23.2179 9.35625 22.7957 8.5771 22.0234C6.86921 20.3303 6.73707 17.0225 6.63906 14.7661C6.5027 11.6268 6.7779 8.76767 8.70352 7.22821C10.9043 5.46876 14.4455 4.91296 16.8788 6.15435C17.9048 6.67785 18.425 7.76422 18.1703 8.8835C17.7978 10.5206 16.2587 11.4601 14.9618 12.3685C13.8721 13.1317 12.9402 14.1376 13.086 15.5321C13.2303 16.913 14.2072 18.0386 14.5937 19.3477Z" stroke="#00B368" stroke-width="1.5" stroke-miterlimit="10" stroke-linecap="round" stroke-linejoin="round"/>
<path d="M20.5312 2.67188C20.5312 3.70744 19.6917 4.54688 18.6562 4.54688C17.6206 4.54688 16.7812 3.70744 16.7812 2.67188C16.7812 1.63632 17.6206 0.796886 18.6562 0.796886C19.6917 0.796886 20.5312 1.63632 20.5312 2.67188Z" stroke="#00B368" stroke-width="1.5" stroke-miterlimit="10" stroke-linecap="round" stroke-linejoin="round"/>
<path d="M14.7656 2.10938C14.7656 2.886 14.136 3.51562 13.3594 3.51562C12.5827 3.51562 11.9531 2.886 11.9531 2.10938C11.9531 1.33276 12.5827 0.703133 13.3594 0.703133C14.136 0.703133 14.7656 1.33276 14.7656 2.10938Z" stroke="#00B368" stroke-width="1.5" stroke-miterlimit="10" stroke-linecap="round" stroke-linejoin="round"/>
<path d="M10.0312 3.28125C10.0312 4.05788 9.40162 4.6875 8.625 4.6875C7.84837 4.6875 7.21875 4.05788 7.21875 3.28125C7.21875 2.50463 7.84837 1.87501 8.625 1.87501C9.40162 1.87501 10.0312 2.50463 10.0312 3.28125Z" stroke="#00B368" stroke-width="1.5" stroke-miterlimit="10" stroke-linecap="round" stroke-linejoin="round"/>
<path d="M6 6C6 6.55227 5.55227 7 5 7C4.44773 7 4 6.55227 4 6C4 5.44773 4.44773 5 5 5C5.55227 5 6 5.44773 6 6Z" stroke="#00B368" stroke-width="1.5" stroke-miterlimit="10" stroke-linecap="round" stroke-linejoin="round"/>
</g>
</svg>
