<svg width="24" height="24" viewBox="0 0 24 24" fill="none" xmlns="http://www.w3.org/2000/svg">
<g clip-path="url(#clip0_597_26039)">
<path d="M9.23488 21.5744H12.0475V22.9807H9.23488V21.5744ZM23.1775 1.84178C22.0809 0.745124 20.2965 0.745124 19.1998 1.84178L0 21.0419L0.49723 21.5391C2.41635 23.4582 5.53905 23.4581 7.45817 21.539L11.5285 17.4686L11.0313 16.9715C10.7571 16.6973 10.7571 16.2512 11.0313 15.9771L13.02 13.9883L14.0144 14.9827L23.1776 5.81943C24.2742 4.72278 24.2742 2.93838 23.1775 1.84178ZM10.0368 14.9826C9.38854 15.6309 9.25124 16.5995 9.62476 17.3835L6.46371 20.5447C5.26318 21.7452 3.40312 21.8943 2.03875 20.992L11.0311 11.9995L12.0255 12.994L10.0368 14.9826ZM14.0143 12.9939L12.0255 11.0051L13.02 10.0106L15.0087 11.9995L14.0143 12.9939ZM16.0032 11.005L14.0144 9.01615L15.0088 8.02174L16.9976 10.0106L16.0032 11.005ZM22.1831 4.82507L17.992 9.0162L16.0033 7.02733L20.1942 2.83624C20.7426 2.28791 21.6347 2.28791 22.1831 2.83624C22.7314 3.38452 22.7314 4.27669 22.1831 4.82507ZM17.6728 21.5744H20.4855V22.9807H17.6728V21.5744ZM13.4539 21.5744H16.2665V22.9807H13.4539V21.5744Z" fill="#00B368"/>
</g>
<defs>
<clipPath id="clip0_597_26039">
<rect width="24" height="24" fill="white"/>
</clipPath>
</defs>
</svg>
