<svg width="25" height="24" viewBox="0 0 25 24" fill="none" xmlns="http://www.w3.org/2000/svg">
<path d="M3.56164 15.1933L3.92688 13.1219C4.35856 10.6736 4.5744 9.44952 5.42914 8.72476C6.28389 8 7.51171 8 9.96734 8H15.0327C17.4883 8 18.7161 8 19.5709 8.72476C20.4256 9.44952 20.6414 10.6736 21.0731 13.1219L21.4384 15.1933C22.0357 18.5811 22.3344 20.275 21.4147 21.3875C20.495 22.5 18.7959 22.5 15.3979 22.5H9.6021C6.20406 22.5 4.50504 22.5 3.58533 21.3875C2.66562 20.275 2.9643 18.5811 3.56164 15.1933Z" stroke="#00B368" stroke-width="1.5"/>
<path d="M8 8L8.16782 5.98618C8.35558 3.73306 10.2391 2 12.5 2C14.7609 2 16.6444 3.73306 16.8322 5.98618L17 8" stroke="#00B368" stroke-width="1.5"/>
<path d="M15.5 11C15.37 12.4131 14.0657 13.5 12.5 13.5C10.9343 13.5 9.63002 12.4131 9.5 11" stroke="#00B368" stroke-width="1.5" stroke-linecap="round"/>
</svg>
