<svg width="16" height="16" viewBox="0 0 16 16" fill="none" xmlns="http://www.w3.org/2000/svg">
<path d="M9.29573 1.58313L10.6156 4.24466C10.7956 4.61515 11.2755 4.97053 11.6805 5.03858L14.0727 5.43932C15.6025 5.69639 15.9625 6.81544 14.8601 7.91937L13.0003 9.79453C12.6854 10.1121 12.5129 10.7246 12.6104 11.1631L13.1428 13.4844C13.5628 15.3217 12.5954 16.0325 10.983 15.0722L8.74079 13.7339C8.33583 13.4919 7.66841 13.4919 7.25595 13.7339L5.0137 15.0722C3.40888 16.0325 2.43399 15.3142 2.85394 13.4844L3.38638 11.1631C3.48387 10.7246 3.31139 10.1121 2.99642 9.79453L1.13663 7.91937C0.0417499 6.81544 0.394211 5.69639 1.92404 5.43932L4.31628 5.03858C4.71373 4.97053 5.19368 4.61515 5.37366 4.24466L6.69351 1.58313C7.41344 0.138955 8.58331 0.138955 9.29573 1.58313Z" fill="#FFA800"/>
</svg>
