<svg width="24" height="25" viewBox="0 0 24 25" fill="none" xmlns="http://www.w3.org/2000/svg">
<path d="M17 2.5C17 3.00986 17 3.26479 17.0677 3.50236C17.1049 3.63286 17.157 3.75864 17.223 3.87723C17.3431 4.09309 17.5234 4.27336 17.8839 4.63388L19.8661 6.61612C20.2266 6.97664 20.4069 7.15691 20.6228 7.27701C20.7414 7.34298 20.8671 7.39509 20.9976 7.43228C21.2352 7.5 21.4901 7.5 22 7.5" stroke="#00B368" stroke-width="1.5" stroke-linecap="round" stroke-linejoin="round"/>
<path d="M11.6931 7.5L6.76525 12.4278C5.70048 13.4926 5.1681 14.025 5.0412 14.663C4.98627 14.9391 4.98627 15.2234 5.0412 15.4996C5.1681 16.1376 5.70049 16.67 6.76525 17.7348C7.83001 18.7995 8.3624 19.3319 9.00037 19.4588C9.27655 19.5137 9.56085 19.5137 9.83704 19.4588C10.475 19.3319 11.0074 18.7995 12.0722 17.7348L17 12.8069" stroke="#00B368" stroke-width="1.5" stroke-linecap="round" stroke-linejoin="round"/>
<path d="M11 6.5L18 13.5" stroke="#00B368" stroke-width="1.5" stroke-linecap="round" stroke-linejoin="round"/>
<path d="M8 19.1372L6.83054 19.9725C6.35987 20.3087 6.12454 20.4768 5.86646 20.4971C5.76637 20.505 5.66567 20.4967 5.56824 20.4724C5.31702 20.41 5.11252 20.2055 4.70352 19.7965C4.29453 19.3875 4.09003 19.183 4.02756 18.9318C4.00333 18.8343 3.995 18.7336 4.00288 18.6335C4.0232 18.3755 4.1913 18.1401 4.52749 17.6695L5.36282 16.5" stroke="#00B368" stroke-width="1.5" stroke-linecap="round" stroke-linejoin="round"/>
<path d="M13.5 8.5L18.5 4.5M16 11L20 6" stroke="#00B368" stroke-width="1.5" stroke-linejoin="round"/>
<path d="M4.5 20L2 22.5" stroke="#00B368" stroke-width="1.5" stroke-linecap="round" stroke-linejoin="round"/>
</svg>
