<svg width="19" height="16" viewBox="0 0 19 16" fill="none" xmlns="http://www.w3.org/2000/svg">
<path fill-rule="evenodd" clip-rule="evenodd" d="M1.79643 6.95224C6.60231 4.8246 9.80698 3.42193 11.4104 2.74423C15.9887 0.809257 16.94 0.473131 17.56 0.462032C17.6964 0.459591 18.0013 0.493934 18.1988 0.656793C18.3656 0.794307 18.4115 0.980069 18.4335 1.11045C18.4554 1.24083 18.4828 1.53783 18.461 1.7699C18.2129 4.41874 17.1394 10.8467 16.5933 13.8135C16.3622 15.0688 15.9072 15.4897 15.4667 15.5309C14.5093 15.6204 13.7824 14.888 12.8551 14.2704C11.4042 13.3039 10.5845 12.7023 9.17609 11.7592C7.54844 10.6693 8.60358 10.0703 9.53116 9.09131C9.77392 8.8351 13.992 4.9365 14.0737 4.58283C14.0839 4.5386 14.0933 4.37372 13.9969 4.28666C13.9006 4.1996 13.7583 4.22937 13.6556 4.25305C13.5101 4.28661 11.1922 5.84339 6.70192 8.92338C6.04399 9.38245 5.44806 9.60613 4.91412 9.59441C4.3255 9.58149 3.19323 9.25622 2.35151 8.97819C1.3191 8.63718 0.498561 8.45689 0.570011 7.87774C0.607227 7.57609 1.01603 7.26759 1.79643 6.95224Z" fill="#00B368"/>
</svg>
