<svg width="15" height="12" viewBox="0 0 15 12" fill="none" xmlns="http://www.w3.org/2000/svg">
<path fill-rule="evenodd" clip-rule="evenodd" d="M1.13019 5.18017C4.95041 3.51576 7.49782 2.41848 8.77242 1.88833C12.4117 0.374647 13.1679 0.111703 13.6608 0.103021C13.7692 0.101111 14.0115 0.127977 14.1686 0.255377C14.3011 0.362952 14.3376 0.50827 14.3551 0.610262C14.3725 0.712254 14.3943 0.944596 14.377 1.12614C14.1798 3.19826 13.3264 8.22675 12.8923 10.5476C12.7086 11.5296 12.3469 11.8589 11.9967 11.8911C11.2357 11.9611 10.6579 11.3882 9.9208 10.905C8.76743 10.149 8.11586 9.67832 6.99632 8.94056C5.7025 8.08795 6.54123 7.61935 7.27857 6.85351C7.47154 6.65309 10.8245 3.60329 10.8894 3.32663C10.8975 3.29203 10.9051 3.16305 10.8284 3.09494C10.7518 3.02684 10.6387 3.05013 10.5571 3.06865C10.4414 3.09491 8.59893 4.31274 5.02959 6.72214C4.5066 7.08127 4.03289 7.25625 3.60846 7.24708C3.14056 7.23697 2.24052 6.98252 1.57143 6.76502C0.750757 6.49826 0.0985068 6.35722 0.155303 5.90417C0.184886 5.66819 0.509849 5.42686 1.13019 5.18017Z" fill="#49BEFF"/>
</svg>
