<svg width="18" height="18" viewBox="0 0 18 18" fill="none" xmlns="http://www.w3.org/2000/svg">
<path fill-rule="evenodd" clip-rule="evenodd" d="M13.1751 10.3062C12.9645 10.2014 11.932 9.69639 11.7398 9.62606C11.5476 9.55643 11.4076 9.52196 11.267 9.73156C11.1271 9.93975 10.7249 10.411 10.6027 10.5502C10.4797 10.6902 10.3574 10.7071 10.1475 10.603C9.93764 10.4975 9.2606 10.2773 8.45847 9.56557C7.83443 9.01134 7.41252 8.32699 7.29026 8.1174C7.16799 7.90851 7.27683 7.79527 7.38213 7.69118C7.47683 7.59763 7.59203 7.44712 7.69733 7.32544C7.80263 7.20306 7.83726 7.11585 7.90723 6.97588C7.9779 6.83662 7.94256 6.71494 7.88956 6.61015C7.83726 6.50535 7.41747 5.47637 7.2422 5.05788C7.07188 4.65065 6.89873 4.70621 6.77011 4.69918C6.64714 4.69355 6.50721 4.69215 6.36727 4.69215C6.22734 4.69215 5.99978 4.74419 5.80755 4.95379C5.61461 5.16268 5.07256 5.66838 5.07256 6.69736C5.07256 7.72564 5.82451 8.71946 5.92981 8.85942C6.03511 8.99868 7.4104 11.1101 9.51714 12.0153C10.0189 12.2305 10.4097 12.3592 10.7143 12.4549C11.2175 12.6145 11.6755 12.592 12.0373 12.5379C12.4401 12.4781 13.2797 12.0322 13.455 11.5441C13.6296 11.0559 13.6296 10.6375 13.5773 10.5502C13.525 10.463 13.385 10.411 13.1744 10.3062H13.1751ZM9.34329 15.513H9.34046C8.08916 15.5132 6.86083 15.1785 5.78423 14.5438L5.52981 14.3933L2.88525 15.084L3.59127 12.5182L3.42519 12.2551C2.72563 11.1469 2.35541 9.86433 2.35733 8.55558C2.35874 4.72239 5.49235 1.60379 9.34611 1.60379C11.2119 1.60379 12.966 2.32823 14.2847 3.64206C14.9351 4.28673 15.4507 5.05336 15.8015 5.89759C16.1523 6.74183 16.3315 7.64692 16.3285 8.5605C16.3271 12.3937 13.1935 15.513 9.34329 15.513ZM15.2882 2.64403C14.5096 1.86397 13.5831 1.24547 12.5625 0.824353C11.5419 0.403239 10.4474 0.187891 9.34258 0.190787C4.71072 0.190787 0.939639 3.94309 0.938226 8.55488C0.937519 10.0291 1.3241 11.4681 2.0598 12.7362L0.867554 17.0709L5.32274 15.9076C6.55517 16.5758 7.93627 16.926 9.33975 16.926H9.34329C13.9752 16.926 17.7462 13.1737 17.7476 8.5612C17.7511 7.46208 17.5355 6.37319 17.1133 5.35753C16.6912 4.34186 16.0708 3.41958 15.2882 2.64403Z" fill="#1BC100"/>
</svg>
