<svg width="17" height="18" viewBox="0 0 17 18" fill="none" xmlns="http://www.w3.org/2000/svg">
<path d="M0 8.82796C3.4966 8.78774 5.45364 8.55887 6.75626 7.25626C8.05887 5.95364 8.28774 3.9966 8.32796 0.5C3.76922 0.590497 0.090497 4.26922 0 8.82796Z" fill="#00B368"/>
<path d="M8.83564 0.504797C8.87599 3.99839 9.10524 5.95423 10.4073 7.25626C11.6894 8.53843 13.6057 8.78029 17 8.82589C16.9095 4.32275 13.3178 0.678795 8.83564 0.504797Z" fill="#00B368"/>
<path d="M16.9952 9.33769C13.6038 9.38346 11.6888 9.6257 10.4073 10.9073C9.1257 12.1888 8.88346 14.1038 8.83769 17.4952C13.2645 17.3223 16.8223 13.7645 16.9952 9.33769Z" fill="#00B368"/>
<path d="M8.32592 17.5C8.28029 14.1057 8.03843 12.1894 6.75626 10.9073C5.45423 9.60524 3.49839 9.37599 0.00479681 9.33564C0.178796 13.8178 3.82277 17.4095 8.32592 17.5Z" fill="#00B368"/>
</svg>
