<svg width="22" height="22" viewBox="0 0 22 22" fill="none" xmlns="http://www.w3.org/2000/svg">
<path d="M11.0001 21.9256C17.0342 21.9256 21.9258 17.034 21.9258 10.9999C21.9258 4.96581 17.0342 0.0742188 11.0001 0.0742188C4.966 0.0742188 0.0744019 4.96581 0.0744019 10.9999C0.0744019 17.034 4.966 21.9256 11.0001 21.9256Z" fill="#FC3F1D"/>
<path d="M14.9536 17.8586H12.5552V5.99626H11.4868C9.52828 5.99626 8.50241 6.9755 8.50241 8.43726C8.50241 10.0957 9.20998 10.8641 10.6738 11.8433L11.8801 12.6563L8.41321 17.8566H5.83435L8.95453 13.2138C7.16027 11.9325 6.15063 10.6816 6.15063 8.57107C6.15063 5.93341 7.98948 4.13916 11.4705 4.13916H14.9374V17.8546H14.9536V17.8586Z" fill="white"/>
</svg>
