<svg width="18" height="13" viewBox="0 0 18 13" fill="none" xmlns="http://www.w3.org/2000/svg">
<path fill-rule="evenodd" clip-rule="evenodd" d="M16.0428 0.406121C16.8138 0.603768 17.4217 1.18259 17.6292 1.91671C18.0148 3.25789 17.9999 6.05318 17.9999 6.05318C17.9999 6.05318 17.9999 8.83436 17.6292 10.1755C17.4217 10.9097 16.8138 11.4885 16.0428 11.6861C14.6342 12.0391 8.99996 12.0391 8.99996 12.0391C8.99996 12.0391 3.38055 12.0391 1.95716 11.672C1.18616 11.4744 0.578251 10.8955 0.370674 10.1614C0 8.83436 0 6.03906 0 6.03906C0 6.03906 0 3.25789 0.370674 1.91671C0.578251 1.18259 1.20098 0.589651 1.95716 0.392004C3.36572 0.0390625 8.99996 0.0390625 8.99996 0.0390625C8.99996 0.0390625 14.6342 0.0390625 16.0428 0.406121ZM11.8912 6.0391L7.20589 8.60851V3.46969L11.8912 6.0391Z" fill="#00B368"/>
</svg>
