<svg width="189" height="74" viewBox="0 0 189 74" fill="none" xmlns="http://www.w3.org/2000/svg">
<path d="M37.6464 62.6179C36.8636 62.9765 33.7828 63.1359 33.7828 63.1359C33.7828 63.1359 32.137 63.2654 32.0166 63.2654C31.9564 63.2654 31.8761 63.2654 31.7858 63.2654C31.7657 63.2654 31.7356 63.2654 31.7155 63.2654C31.6954 63.2654 31.6653 63.2654 31.6453 63.2654C31.5951 63.2654 31.5349 63.2654 31.4747 63.2555C31.003 63.2256 30.3005 63.1359 29.4375 62.8968C29.3271 62.8669 29.2167 62.8271 29.1063 62.7972C28.9959 62.7673 28.8755 62.7274 28.7551 62.6876C28.6347 62.6478 28.5142 62.6079 28.3938 62.5581C28.2734 62.5083 28.1429 62.4585 28.0225 62.4087C27.6512 62.2592 27.2598 62.0699 26.8685 61.8707C26.8685 61.8607 26.8584 61.8508 26.8484 61.8408C26.8083 61.7611 26.7781 61.6914 26.7581 61.6117C26.728 61.532 26.7079 61.4523 26.6979 61.3726C26.6778 61.2929 26.6778 61.2032 26.6678 61.1136C26.6577 60.7649 26.748 60.4062 26.9989 60.0476C26.9989 60.0476 27.0692 59.8384 27.1695 59.5196C27.2699 59.2008 27.4104 58.7724 27.5509 58.3141C27.6914 57.8658 27.8318 57.3976 27.9222 57.0091C27.9723 56.8098 28.0024 56.6305 28.0125 56.4811C28.0125 56.4113 28.0125 56.3416 28.0125 56.2818C28.0125 56.2221 27.9924 56.1723 27.9723 56.1224C27.9322 56.0328 27.9021 55.9531 27.872 55.8734L27.8519 55.8136L27.8318 55.7439C27.8318 55.7439 27.8017 55.6542 27.7917 55.6144C27.7616 55.5247 27.7415 55.435 27.7114 55.3454C27.6813 55.2557 27.6612 55.1561 27.6311 55.0664C27.581 54.8772 27.5208 54.6679 27.4405 54.4488C27.4003 54.3392 27.3702 54.2196 27.32 54.1001C27.3 54.0403 27.2699 53.9805 27.2498 53.9208C27.2297 53.861 27.1996 53.7913 27.1695 53.7215C27.1394 53.6518 27.1193 53.5821 27.0993 53.5123C27.0792 53.4326 27.0591 53.3529 27.0491 53.2633C27.019 53.0839 26.9989 52.9046 26.9989 52.7054C26.9989 52.5061 26.9989 52.3069 27.019 52.0877C27.0391 51.8785 27.0591 51.6693 27.0993 51.4601C27.1193 51.3605 27.1394 51.2509 27.1595 51.1513C27.1695 51.1014 27.1796 51.0516 27.1896 51.0018C27.1996 50.952 27.2097 50.9022 27.2197 50.8524C27.2699 50.6531 27.32 50.4738 27.3702 50.3144C27.4806 49.9857 27.591 49.7266 27.6914 49.5872C27.6914 49.5872 27.5509 49.8063 27.31 50.155C27.1896 50.3343 27.0491 50.5535 26.8785 50.7926C26.7179 51.0317 26.5373 51.3106 26.3466 51.5896C26.156 51.8785 25.9552 52.1873 25.7445 52.4962C25.5338 52.815 25.313 53.1437 25.1023 53.4625C24.8815 53.7913 24.6607 54.12 24.4299 54.4289C24.2091 54.7377 23.9783 55.0366 23.7575 55.3155C23.5769 55.5347 23.4364 55.7538 23.336 55.9929C23.2257 56.2221 23.1654 56.4512 23.1253 56.6903C23.1052 56.8098 23.0952 56.9294 23.0852 57.0489C23.0852 57.1685 23.0852 57.288 23.0952 57.4076C23.1052 57.5271 23.1253 57.6467 23.1454 57.7662C23.1654 57.8858 23.2056 57.9954 23.2357 58.1149C23.3862 58.5831 23.6371 59.0215 23.9482 59.42C24.2593 59.8085 24.6306 60.1671 25.022 60.4262C25.4033 60.6951 25.7244 60.994 25.9854 61.2929C26.0355 61.3527 26.0857 61.4224 26.1459 61.4822C25.1023 60.8745 24.0084 60.0874 22.9045 59.1111C21.9211 58.2344 20.9476 57.1984 20.0043 56.0527C19.9843 55.7638 19.9943 55.4649 20.0946 55.176C20.205 54.8572 20.4258 54.5683 20.777 54.3392C20.777 54.3392 20.9175 54.1698 21.1182 53.9108C21.329 53.6518 21.5999 53.3031 21.8709 52.9245C22.0114 52.7353 22.1418 52.546 22.2723 52.3567C22.4028 52.1674 22.5131 51.9781 22.6135 51.8088C22.7139 51.6294 22.7941 51.47 22.8443 51.3306C22.8945 51.1911 22.9146 51.0616 22.9045 50.962C22.8845 50.8623 22.8744 50.7627 22.8644 50.6631C22.8543 50.5635 22.8443 50.4639 22.8443 50.3642C22.8443 50.2646 22.8343 50.165 22.8242 50.0554C22.8242 49.9558 22.8242 49.8462 22.8142 49.7366C22.8142 49.627 22.8142 49.5174 22.7941 49.3979C22.7941 49.2883 22.7841 49.1588 22.7741 49.0392C22.764 48.9097 22.744 48.7802 22.7339 48.6507C22.7139 48.5112 22.7038 48.3718 22.6737 48.2124C22.6436 48.0629 22.6436 47.8936 22.6536 47.7043C22.6536 47.6146 22.6637 47.515 22.6737 47.4254C22.6837 47.3257 22.7038 47.2261 22.7239 47.1265C22.764 46.9272 22.8042 46.718 22.8644 46.5088C22.9246 46.2996 22.9848 46.1004 23.0651 45.9011C23.1353 45.7019 23.2156 45.5026 23.2959 45.3333C23.3762 45.1539 23.4665 44.9846 23.5468 44.8352C23.6271 44.6857 23.7073 44.5562 23.7876 44.4367C23.8679 44.3271 23.9281 44.2374 23.9883 44.1776C23.9883 44.1776 23.2658 44.9049 22.3225 45.8314C22.0816 46.0705 21.8307 46.3195 21.5598 46.5786C21.2888 46.8376 21.0179 47.0966 20.7469 47.3656C20.4659 47.6246 20.185 47.8836 19.904 48.1327C19.623 48.3817 19.342 48.6109 19.071 48.8201C18.6395 49.1488 18.3385 49.5374 18.1478 49.9657C17.9571 50.3941 17.8869 50.8623 17.8969 51.3306C17.927 52.277 18.3284 53.2433 18.8503 53.9905C18.9807 54.1798 19.0911 54.3591 19.1915 54.5484C19.2918 54.7377 19.3621 54.917 19.4223 55.0963C19.4725 55.2258 19.5026 55.3553 19.5327 55.4749C19.4925 55.4251 19.4524 55.3753 19.4022 55.3155C18.2783 53.861 17.2245 52.2272 16.2712 50.4639C15.8999 49.7765 15.5487 49.0592 15.2175 48.3319C15.2175 48.312 15.2175 48.2921 15.2175 48.2721C15.2376 48.1227 15.2677 47.9832 15.3178 47.8338C15.368 47.6844 15.4383 47.5449 15.5286 47.4054C15.7092 47.1364 15.9701 46.9073 16.3615 46.7678C16.3615 46.7678 16.4017 46.7379 16.4719 46.6782C16.5421 46.6184 16.6425 46.5387 16.773 46.4391C17.0238 46.2398 17.355 45.9709 17.6862 45.6819C17.8568 45.5325 18.0173 45.3831 18.1779 45.2336C18.3385 45.0842 18.489 44.9348 18.6195 44.7853C18.8804 44.4964 19.051 44.2374 19.061 44.0382C19.0811 43.6397 19.1614 43.2711 19.2316 42.8626C19.2717 42.6534 19.3119 42.4342 19.342 42.1951C19.3621 42.0756 19.3721 41.9461 19.3922 41.8166C19.4022 41.6871 19.4122 41.5476 19.4223 41.3982C19.4323 41.2487 19.4624 41.0893 19.5026 40.92C19.5527 40.7506 19.6129 40.5713 19.6832 40.392C19.7534 40.2126 19.8438 40.0234 19.9441 39.844C20.0445 39.6647 20.1448 39.4854 20.2552 39.316C20.3656 39.1467 20.476 38.9773 20.5864 38.8279C20.6968 38.6784 20.8172 38.539 20.9175 38.4095C21.1283 38.1604 21.329 37.9811 21.4594 37.8914C21.4594 37.8914 20.6365 38.4194 19.5728 39.1068C19.0309 39.4555 18.4187 39.854 17.7966 40.2326C17.1744 40.6111 16.5421 40.9797 15.9501 41.2686C15.4884 41.4978 15.1171 41.7966 14.8562 42.1653C14.7258 42.3446 14.6154 42.5438 14.5251 42.7431C14.4347 42.9523 14.3745 43.1615 14.3344 43.3807C14.1638 44.2673 14.3143 45.2336 14.6354 46.0306C14.7157 46.2299 14.7759 46.4291 14.8161 46.6184C14.8663 46.8077 14.8964 46.997 14.9064 47.1763C14.9265 47.3556 14.9265 47.5349 14.9265 47.6943C14.9265 47.7143 14.9265 47.7242 14.9265 47.7441C14.505 46.7977 14.1236 45.8214 13.7724 44.8252C13.4212 43.8389 13.1201 42.8327 12.8492 41.8166C12.6685 41.1391 12.518 40.4617 12.3875 39.7843C12.4076 39.7145 12.4277 39.6448 12.4478 39.5751C12.5481 39.316 12.6986 39.057 12.9194 38.8478C13.1402 38.6386 13.4412 38.4792 13.8226 38.4194C13.8226 38.4194 14.0032 38.3397 14.2742 38.2003C14.5451 38.0707 14.9064 37.8815 15.2777 37.6822C15.649 37.483 16.0303 37.2638 16.3314 37.0546C16.6325 36.8454 16.8532 36.6362 16.9135 36.4668C16.9636 36.2875 17.0339 36.1281 17.1041 35.9587C17.1443 35.879 17.1744 35.7894 17.2145 35.7097C17.2547 35.63 17.2948 35.5403 17.3349 35.4507C17.3751 35.361 17.4152 35.2713 17.4554 35.1717C17.4955 35.0721 17.5457 34.9824 17.5858 34.8728C17.626 34.7633 17.6761 34.6636 17.7163 34.5441C17.7564 34.4245 17.8066 34.305 17.8467 34.1854C17.8668 34.1257 17.8969 34.0559 17.927 33.9862C17.9571 33.9165 17.9973 33.8467 18.0374 33.777C18.1177 33.6375 18.218 33.498 18.3284 33.3486C18.4388 33.2091 18.5693 33.0697 18.6997 32.9302C18.7599 32.8605 18.8302 32.8007 18.9004 32.7309C18.9707 32.6712 19.0409 32.6014 19.1112 32.5417C19.1814 32.4819 19.2517 32.4221 19.3219 32.3623C19.3922 32.3026 19.4624 32.2528 19.5327 32.2029C19.6732 32.0934 19.8137 32.0037 19.9341 31.924C20.0043 31.8842 20.0645 31.8443 20.1247 31.8045C20.185 31.7646 20.2452 31.7347 20.2953 31.7048C20.4057 31.6451 20.4961 31.6052 20.5663 31.5753C20.5663 31.5753 20.3455 31.6451 19.9843 31.7746C19.8939 31.8045 19.7936 31.8343 19.6832 31.8742C19.5728 31.9041 19.4624 31.9439 19.342 31.9838C19.1011 32.0635 18.8202 32.1432 18.5392 32.2328C18.2481 32.3225 17.9471 32.4221 17.626 32.5317C17.3048 32.6313 16.9737 32.7409 16.6425 32.8405C15.9802 33.0497 15.3178 33.239 14.7057 33.3685C14.224 33.4781 13.8226 33.6774 13.4914 33.9464C13.3208 34.0858 13.1803 34.2353 13.0599 34.4046C12.9294 34.574 12.8191 34.7533 12.7388 34.9426C12.6485 35.1319 12.5682 35.3411 12.518 35.5403C12.4678 35.7495 12.4277 35.9587 12.3976 36.1679C12.3775 36.3772 12.3675 36.5963 12.3675 36.8055C12.3675 37.0147 12.3875 37.214 12.4176 37.4132C12.4277 37.5129 12.4377 37.6025 12.4478 37.7021C12.4478 37.8018 12.4578 37.8914 12.4478 37.9811C12.4478 38.0707 12.4478 38.1604 12.4377 38.2501C12.4377 38.3397 12.4277 38.4194 12.4076 38.5091C12.3875 38.6784 12.3474 38.8378 12.3073 38.9873C12.2872 39.0471 12.2671 39.1068 12.247 39.1666C12.2169 39.0172 12.1868 38.8677 12.1567 38.7183C11.7955 36.6461 11.6249 34.5441 11.6851 32.4819C11.6851 32.3524 11.6851 32.2229 11.6951 32.0934C11.6951 31.9639 11.7051 31.8343 11.7152 31.7048C11.7152 31.5753 11.7352 31.4558 11.7352 31.3263C11.7453 31.1968 11.7553 31.0672 11.7654 30.9377C11.7654 30.9377 11.7654 30.9278 11.7654 30.9178C11.8256 30.8082 11.8958 30.6887 11.9861 30.5691C12.1367 30.3599 12.3474 30.1607 12.6083 30.0212C12.8692 29.8817 13.1703 29.812 13.5316 29.8518C13.5316 29.8518 13.7122 29.822 13.9932 29.7622C14.2742 29.7024 14.6455 29.6227 15.0469 29.5331C15.4383 29.4334 15.8397 29.3338 16.1708 29.2143C16.3314 29.1545 16.4819 29.0947 16.5923 29.025C16.7127 28.9652 16.8031 28.8955 16.8432 28.8158C17.0339 28.5269 17.2446 28.2778 17.4955 27.9989C17.6159 27.8594 17.7363 27.7099 17.8668 27.5406C18.0073 27.3712 18.1378 27.1919 18.2883 26.9727C18.3084 26.9528 18.3284 26.9229 18.3485 26.893C18.3686 26.8632 18.3886 26.8432 18.4187 26.8133C18.4689 26.7536 18.5191 26.7038 18.5793 26.6539C18.6897 26.5444 18.8202 26.4348 18.9506 26.3352C19.0911 26.2355 19.2416 26.1259 19.3922 26.0363C19.5527 25.9367 19.7033 25.847 19.8638 25.7673C20.195 25.5979 20.5161 25.4684 20.7871 25.3688C21.0681 25.2692 21.2989 25.2194 21.4394 25.2094C21.4394 25.2094 20.5663 25.2692 19.4323 25.3588C19.1413 25.3788 18.8302 25.3987 18.5191 25.4186C18.208 25.4385 17.8768 25.4684 17.5557 25.4784C17.2346 25.4983 16.9034 25.5083 16.5823 25.5182C16.4217 25.5182 16.2612 25.5182 16.1106 25.5182C15.9601 25.5182 15.8096 25.5182 15.659 25.5182C15.1974 25.4983 14.786 25.588 14.4147 25.7573C14.3244 25.7972 14.234 25.847 14.1437 25.8968C14.0534 25.9466 13.9731 26.0064 13.9029 26.0662C13.7423 26.1857 13.6018 26.3252 13.4613 26.4746C13.3208 26.6241 13.2104 26.7934 13.1101 26.9628C13.0097 27.1321 12.9094 27.3214 12.8291 27.5007C12.7588 27.69 12.6886 27.8793 12.6384 28.0686C12.5882 28.2579 12.5481 28.4472 12.518 28.6265C12.4979 28.8158 12.4578 28.9851 12.4076 29.1545C12.3875 29.2342 12.3574 29.3139 12.3273 29.3936C12.2972 29.4733 12.2671 29.543 12.237 29.6227C12.1166 29.8917 11.9661 30.1308 11.8256 30.33C11.8256 30.2802 11.8256 30.2304 11.8456 30.1706C11.8757 29.9216 11.9058 29.6626 11.936 29.4135C12.0664 28.4073 12.247 27.421 12.4678 26.4647C12.6886 25.5083 12.9596 24.5718 13.2606 23.6752C13.3409 23.4461 13.4212 23.2269 13.4914 23.0077C13.5717 22.7886 13.662 22.5694 13.7423 22.3502C13.7423 22.3303 13.7523 22.3203 13.7624 22.3004C13.8627 22.1709 14.0233 22.0115 14.224 21.8621C14.3244 21.7923 14.4347 21.7126 14.5552 21.6529C14.6154 21.623 14.6756 21.5931 14.7358 21.5732C14.796 21.5532 14.8663 21.5333 14.9365 21.5134C15.2075 21.4536 15.4985 21.4536 15.8196 21.5831C15.8196 21.5831 16.512 21.6429 17.2647 21.6529C17.646 21.6628 18.0374 21.6529 18.3585 21.6329C18.6897 21.6031 18.9506 21.5433 19.071 21.4337C19.3219 21.2145 19.5828 21.0352 19.8839 20.836C19.9541 20.7861 20.0344 20.7363 20.1147 20.6766C20.195 20.6168 20.2753 20.557 20.3556 20.4972C20.5262 20.3777 20.6968 20.2283 20.8874 20.0689C21.0781 19.8995 21.3491 19.7501 21.6702 19.6006C21.8307 19.5309 21.9913 19.4711 22.1619 19.4114C22.2522 19.3815 22.3325 19.3516 22.4128 19.3317C22.5031 19.3018 22.5834 19.2818 22.6737 19.252C23.3561 19.0627 24.0184 18.973 24.2894 19.0029C24.2894 19.0029 24.0887 18.983 23.7475 18.9431C23.5769 18.9232 23.3762 18.8933 23.1454 18.8634C22.9146 18.8335 22.6637 18.7937 22.3927 18.7638C21.8508 18.6941 21.2387 18.6044 20.6365 18.4948C20.0344 18.3952 19.4323 18.2657 18.9004 18.1162C18.489 17.9967 18.0876 17.9867 17.7062 18.0565C17.3249 18.1262 16.9737 18.2856 16.6525 18.4948C16.5723 18.5546 16.492 18.6044 16.4217 18.6642C16.3515 18.724 16.2712 18.7837 16.2009 18.8535C16.0605 18.983 15.93 19.1224 15.8096 19.2719C15.6891 19.4213 15.5888 19.5807 15.4884 19.7401C15.4383 19.8198 15.3881 19.8995 15.3479 19.9792C15.3078 20.0589 15.2677 20.1386 15.2275 20.2183C15.1573 20.3777 15.077 20.5271 14.9867 20.6566C14.8964 20.7961 14.806 20.9157 14.7057 21.0352C14.6053 21.1448 14.505 21.2544 14.4046 21.354C14.3043 21.4437 14.2039 21.5333 14.1036 21.613C14.0735 21.6429 14.0434 21.6628 14.0032 21.6828C14.0434 21.5732 14.0935 21.4735 14.1337 21.364C14.1738 21.2544 14.224 21.1548 14.2742 21.0551C14.3244 20.9455 14.3645 20.8459 14.4147 20.7463C14.4648 20.6467 14.505 20.5371 14.5552 20.4375C14.6555 20.2382 14.7458 20.039 14.8462 19.8397C14.9465 19.6405 15.0469 19.4512 15.1472 19.252C15.1974 19.1523 15.2476 19.0627 15.2978 18.963C15.3479 18.8734 15.3981 18.7738 15.4583 18.6841C15.5085 18.5944 15.5587 18.4948 15.6089 18.4052C15.639 18.3553 15.659 18.3155 15.6891 18.2657C15.7193 18.2159 15.7393 18.176 15.7694 18.1262C15.8798 17.9369 15.9802 17.7576 16.0906 17.5783C16.2009 17.399 16.3113 17.2196 16.4117 17.0503C16.4619 16.9606 16.512 16.871 16.5723 16.7913C16.6224 16.7016 16.6826 16.6219 16.7328 16.5322C17.2045 15.795 17.6862 15.1076 18.1578 14.47L18.1779 14.49C18.1779 14.49 18.2481 14.4202 18.3786 14.3306C18.5091 14.231 18.6897 14.1214 18.9105 14.0217C19.1313 13.9221 19.3721 13.8524 19.633 13.8524C19.8939 13.8524 20.1649 13.9122 20.4158 14.0915C20.4158 14.0915 21.038 14.2808 21.7204 14.4402C22.0616 14.5199 22.4228 14.5896 22.7339 14.6095C23.045 14.6394 23.3059 14.6294 23.4464 14.5398C23.7374 14.3704 24.0285 14.2409 24.3596 14.0915C24.6808 13.9321 25.0521 13.7528 25.4936 13.4738C25.7144 13.3343 26.0155 13.2048 26.3466 13.1052C26.6778 12.9956 27.0391 12.9159 27.3903 12.8462C28.0928 12.7167 28.7651 12.6569 29.016 12.7067C29.016 12.7067 28.8253 12.6768 28.5042 12.6071C28.1831 12.5473 27.7315 12.4477 27.2297 12.3282C26.2162 12.0891 24.9718 11.7603 24.0485 11.3419C23.316 11.0131 22.5533 11.0928 21.8809 11.3917C21.7103 11.4614 21.5498 11.5511 21.3892 11.6507C21.2286 11.7503 21.0781 11.8599 20.9376 11.9795C20.7971 12.099 20.6667 12.2186 20.5362 12.3481C20.476 12.4079 20.4158 12.4776 20.3556 12.5473C20.2953 12.6071 20.2452 12.6768 20.195 12.7466C20.0946 12.8761 19.9843 12.9956 19.8739 13.1052C19.7635 13.2148 19.6431 13.3144 19.5327 13.3941C19.4122 13.4738 19.3019 13.5535 19.1814 13.6233C19.061 13.693 18.9506 13.7528 18.8503 13.8026C18.7499 13.8424 18.6596 13.8823 18.5793 13.9122C18.8302 13.5834 19.071 13.2646 19.3119 12.9657C19.5828 12.627 19.8538 12.2983 20.1047 11.9994C20.5362 11.4814 22.1318 9.16014 22.6737 8.37312C23.045 8.09417 23.4966 7.89493 23.9984 7.90489C23.9984 7.90489 27.0692 7.02821 27.3803 6.23122C27.6914 5.43424 28.1329 4.81657 28.5343 3.55136C28.9357 2.28615 30.6919 0.353462 31.2539 0.034668C31.2539 0.034668 27.872 1.91754 25.4033 2.46547C23.4565 2.90381 22.764 4.98593 22.764 6.63968C22.764 7.24738 22.5633 7.78534 22.3124 8.21372C20.8373 9.82761 18.78 12.099 18.5793 12.3481C18.3987 12.5772 18.1879 12.8263 17.9772 13.0654C17.9772 12.9956 17.9872 12.9259 17.9973 12.8462C18.0374 12.5971 18.1177 12.3282 18.2381 12.0392C18.2983 11.8898 18.3786 11.7503 18.4689 11.6009C18.5592 11.4614 18.6696 11.312 18.7901 11.1725C19.2918 10.6047 19.7635 9.89735 19.9943 9.14021C20.1147 8.76165 20.1649 8.37312 20.1348 7.99455C20.1047 7.61598 19.9843 7.24738 19.7534 6.88873C19.1614 6.00209 18.6496 4.74684 18.2983 3.72072C18.1277 3.20268 17.9872 2.74441 17.8869 2.41566C17.7966 2.0869 17.7464 1.88766 17.7464 1.88766C17.8166 2.15664 17.7865 2.86396 17.6761 3.65098C17.6159 4.03951 17.5356 4.44797 17.4353 4.82654C17.3349 5.2051 17.2045 5.55378 17.064 5.83273C16.4719 6.92858 16.3515 7.61598 16.0303 8.35319C15.8698 8.73176 16.1508 9.4889 16.492 10.1564C16.6626 10.4851 16.8432 10.794 16.9737 11.0131C17.1142 11.2323 17.2045 11.3718 17.2045 11.3718C17.4754 11.571 17.6159 11.8201 17.6962 12.0791C17.7665 12.3381 17.7564 12.6071 17.7263 12.8562C17.6962 13.1052 17.626 13.3244 17.5658 13.4838C17.5658 13.5137 17.5457 13.5236 17.5457 13.5436C16.9235 14.2708 16.2712 15.0479 15.7092 15.9245C15.649 16.0142 15.5988 16.1039 15.5386 16.1836C15.4784 16.2732 15.4282 16.3629 15.368 16.4525C15.2576 16.6319 15.1472 16.8112 15.0369 17.0005C14.9265 17.1898 14.8161 17.3691 14.7157 17.5584C14.6856 17.6082 14.6656 17.648 14.6354 17.6978C14.6053 17.7476 14.5853 17.7975 14.5552 17.8473C14.505 17.9469 14.4548 18.0366 14.3946 18.1362C14.3444 18.2358 14.2842 18.3354 14.234 18.4251C14.1839 18.5247 14.1337 18.6243 14.0735 18.724C13.9731 18.9232 13.8627 19.1224 13.7624 19.3317C13.662 19.5409 13.5617 19.7501 13.4613 19.9493C13.4111 20.0589 13.361 20.1585 13.3208 20.2681C13.2706 20.3777 13.2205 20.4773 13.1803 20.5869C13.1703 20.6168 13.1603 20.6467 13.1402 20.6666C13.1402 20.4773 13.1402 20.2781 13.1703 20.0589C13.1803 19.9792 13.2004 19.8995 13.2205 19.8098C13.2405 19.7301 13.2606 19.6405 13.2907 19.5608C13.3509 19.3914 13.4212 19.2121 13.5115 19.0427C13.7022 18.6941 13.8527 18.3055 13.9731 17.907C14.0032 17.8074 14.0333 17.7078 14.0534 17.6082C14.0735 17.4986 14.0935 17.399 14.1136 17.2993C14.1538 17.0901 14.1738 16.8809 14.1839 16.6717C14.1839 16.4625 14.1839 16.2533 14.1638 16.0441C14.1437 15.8349 14.0935 15.6356 14.0333 15.4364C13.9129 15.0379 13.7022 14.6693 13.3911 14.3405C13.1904 14.1313 12.9997 13.9022 12.809 13.6531C12.6184 13.4041 12.4377 13.1351 12.2571 12.8661C12.0764 12.5872 11.9058 12.3082 11.7553 12.0293C11.5948 11.7503 11.4543 11.4714 11.3138 11.2024C11.0528 10.6644 10.8321 10.1763 10.6916 9.82761C10.5511 9.47893 10.4708 9.25976 10.4708 9.25976C10.521 9.4092 10.5712 9.68814 10.6013 10.0468C10.6414 10.4054 10.6715 10.8438 10.6815 11.302C10.7116 12.2285 10.6815 13.2248 10.4608 13.9022C10.4106 14.0716 10.3604 14.221 10.3203 14.3704C10.2801 14.5199 10.25 14.6593 10.23 14.7888C10.1798 15.0578 10.1396 15.287 10.1196 15.5161C10.0995 15.7452 10.0794 15.9544 10.0594 16.1537C10.0493 16.2533 10.0393 16.3629 10.0192 16.4625C10.0092 16.5621 9.98911 16.6717 9.96904 16.7813C9.92889 17.0005 10.0292 17.2993 10.1998 17.6082C10.3805 17.927 10.6314 18.2557 10.8923 18.5646C11.1532 18.8734 11.4141 19.1424 11.6148 19.3416C11.8155 19.5309 11.956 19.6604 11.956 19.6604C12.2872 19.7999 12.508 20.0191 12.6485 20.2681C12.799 20.5172 12.8592 20.7961 12.8993 21.0551C12.8993 21.1249 12.8993 21.1747 12.9094 21.2444C12.8191 21.4636 12.7187 21.6828 12.6384 21.9119C12.5481 22.141 12.4678 22.3602 12.3775 22.5893C12.2972 22.8185 12.2169 23.0476 12.1367 23.2767C11.8256 24.2132 11.5546 25.1795 11.3138 26.1658C11.093 27.162 10.9124 28.1782 10.7719 29.2143C10.7518 29.3537 10.7418 29.4932 10.7217 29.6327C10.6715 29.4733 10.6213 29.294 10.5912 29.1047C10.5712 28.9353 10.5511 28.756 10.5611 28.5667C10.5611 28.477 10.5611 28.3774 10.5712 28.2778C10.5712 28.1782 10.5912 28.0786 10.6113 27.9789C10.6514 27.7797 10.6815 27.5705 10.6916 27.3513C10.6916 27.2417 10.6916 27.1321 10.6916 27.0325C10.6916 26.9229 10.6916 26.8133 10.6916 26.7038C10.6815 26.4846 10.6514 26.2654 10.6113 26.0462C10.5712 25.8271 10.521 25.6079 10.4507 25.3987C10.3102 24.9703 10.1196 24.5619 9.85865 24.1933C9.72819 24.004 9.57766 23.8346 9.40706 23.6752C9.23646 23.5158 9.05582 23.3763 8.84508 23.2468C8.32325 22.928 7.76127 22.5096 7.2294 22.0314C6.69753 21.5632 6.19577 21.0452 5.76425 20.557C5.54347 20.308 5.3528 20.0788 5.17217 19.8597C4.99153 19.6405 4.841 19.4412 4.72058 19.2818C4.4697 18.9431 4.31917 18.7339 4.31917 18.7339C4.40949 18.8734 4.53994 19.1723 4.70051 19.5508C4.78079 19.7401 4.86107 19.9493 4.94136 20.1784C5.03167 20.4076 5.11196 20.6467 5.20227 20.8858C5.24241 21.0053 5.28256 21.1348 5.3227 21.2544C5.36284 21.3739 5.40298 21.5034 5.44312 21.623C5.5234 21.872 5.59365 22.1311 5.65386 22.3702C5.68397 22.4897 5.71407 22.6092 5.73414 22.7288C5.76425 22.8483 5.78432 22.9579 5.79436 23.0675C5.82446 23.2867 5.84453 23.4959 5.84453 23.6852C5.84453 23.8745 5.84453 24.0438 5.84453 24.2132C5.84453 24.3726 5.8646 24.522 5.88467 24.6615C5.90474 24.801 5.91478 24.9305 5.93485 25.06C5.95492 25.1795 5.98503 25.2991 6.0051 25.4186C6.10545 25.8669 6.2058 26.2355 6.27605 26.7137C6.30616 26.9429 6.49683 27.2218 6.77781 27.4908C7.0588 27.7598 7.42007 28.0188 7.78134 28.2579C8.14261 28.487 8.49385 28.6863 8.7648 28.8257C8.89526 28.8955 9.00565 28.9552 9.08593 28.9851C9.16621 29.025 9.20635 29.0449 9.20635 29.0449C9.58769 29.0847 9.87872 29.2441 10.0995 29.4534C10.3303 29.6626 10.4909 29.9216 10.6013 30.1706C10.6213 30.2005 10.6213 30.2304 10.6414 30.2603C10.6414 30.3001 10.6414 30.34 10.6314 30.3798C10.6314 30.5094 10.6113 30.6389 10.6013 30.7783C10.5912 30.9079 10.5812 31.0473 10.5712 31.1768C10.5712 31.3063 10.5511 31.4359 10.5511 31.5753C10.5511 31.7048 10.531 31.8443 10.531 31.9738C10.531 32.1033 10.531 32.2428 10.521 32.3723C10.4608 34.5042 10.6314 36.676 11.0027 38.8179C11.0027 38.8378 11.0027 38.8578 11.0127 38.8777C10.9324 38.7482 10.8421 38.6087 10.7719 38.4593C10.6113 38.1305 10.4909 37.742 10.4407 37.3136C10.3403 36.4569 9.97907 35.5602 9.40706 34.7832C9.12607 34.3947 8.77484 34.046 8.38346 33.7571C8.18275 33.6076 7.97201 33.4781 7.75124 33.3685C7.53046 33.259 7.29965 33.1593 7.04877 33.0996C6.73767 33.0099 6.40651 32.9003 6.06531 32.7708C5.89471 32.7011 5.72411 32.6313 5.55351 32.5616C5.38291 32.4819 5.21231 32.4022 5.04171 32.3225C4.34927 31.9937 3.66687 31.6052 3.07479 31.2266C2.77373 31.0374 2.50278 30.8481 2.2519 30.6688C2.00102 30.4994 1.79028 30.35 1.60964 30.2105C1.24837 29.9415 1.02759 29.7721 1.02759 29.7721C1.15805 29.8917 1.3989 30.1507 1.68992 30.4894C1.83042 30.6588 1.99098 30.858 2.16158 31.0672C2.24186 31.1669 2.33218 31.2765 2.41246 31.396C2.49275 31.5056 2.58306 31.6251 2.67338 31.7347C2.84398 31.9639 3.02462 32.2029 3.18518 32.442C3.35578 32.6811 3.51635 32.9103 3.65684 33.1494C3.79733 33.3785 3.93783 33.6076 4.04822 33.8168C4.1586 34.036 4.23889 34.2353 4.2991 34.4245C4.35931 34.6138 4.40949 34.7931 4.4697 34.9525C4.52991 35.1119 4.59012 35.2514 4.65033 35.3909C4.77076 35.6499 4.89118 35.8691 5.0116 36.0683C5.13203 36.2676 5.25245 36.4469 5.36284 36.6362C5.47323 36.8255 5.58361 37.0147 5.68397 37.2439C5.78432 37.473 6.06531 37.6922 6.43661 37.8815C6.61725 37.9811 6.81796 38.0707 7.0287 38.1504C7.23944 38.2301 7.46021 38.2999 7.68099 38.3696C8.11251 38.4991 8.53399 38.5987 8.84508 38.6685C9.15618 38.7382 9.36692 38.7681 9.36692 38.7681C9.75829 38.7083 10.1095 38.788 10.4006 38.9375C10.5511 39.0072 10.6815 39.1068 10.802 39.2064C10.9224 39.3061 11.0328 39.4157 11.1331 39.5252C11.1331 39.5252 11.1331 39.5352 11.1532 39.5452C11.3138 40.3621 11.4944 41.1889 11.7051 41.9959C11.9761 43.0419 12.2972 44.078 12.6585 45.0942C12.9796 46.0107 13.3309 46.8974 13.7122 47.774C13.361 47.4254 13.0097 46.9671 12.789 46.3793C12.4678 45.5225 11.8356 44.7156 11.0127 44.0979C10.6013 43.7891 10.1497 43.5301 9.64791 43.3408C9.15618 43.1515 8.63434 43.032 8.09244 43.022C7.4 43.0121 6.61725 42.9124 5.82446 42.763C5.62376 42.7231 5.42305 42.6833 5.22234 42.6434C5.02164 42.6036 4.83097 42.5538 4.63026 42.504C4.23889 42.4044 3.85754 42.3047 3.49627 42.2051C2.77373 41.9959 2.15155 41.7767 1.69996 41.6074C1.46915 41.5277 1.29855 41.4579 1.16809 41.4081C1.04766 41.3583 0.977417 41.3284 0.977417 41.3284C1.0577 41.3683 1.18816 41.438 1.33869 41.5376C1.48922 41.6273 1.67989 41.7468 1.89063 41.8763C2.10137 42.0059 2.32215 42.1553 2.56299 42.3147C2.80384 42.4741 3.05472 42.6434 3.3056 42.8228C3.55649 43.0021 3.80737 43.1814 4.05825 43.3707C4.17867 43.4604 4.2991 43.56 4.41952 43.6496C4.53994 43.7493 4.65033 43.8389 4.76072 43.9286C4.9815 44.1179 5.1822 44.3071 5.3528 44.4865C5.5234 44.6758 5.67393 44.8551 5.77428 45.0344C5.99506 45.3831 6.19577 45.662 6.38644 45.8912C6.57711 46.1203 6.75774 46.2896 6.93838 46.459C7.10898 46.6184 7.27958 46.7579 7.44014 46.9173C7.52042 46.997 7.60071 47.0767 7.68099 47.1564C7.76127 47.246 7.84155 47.3357 7.92184 47.4353C8.0824 47.6346 8.4236 47.794 8.84508 47.9035C9.26657 48.0131 9.75829 48.0729 10.24 48.1128C11.1933 48.1825 12.0564 48.1327 12.0564 48.1327C12.247 48.053 12.4377 48.0131 12.6184 48.0131C12.799 48.0131 12.9796 48.0231 13.1502 48.0729C13.4714 48.1526 13.7523 48.302 14.0032 48.4714C14.3745 49.2983 14.7759 50.1052 15.1974 50.8922C16.1708 52.7054 17.2547 54.379 18.4187 55.8833C18.3284 55.8236 18.2381 55.7738 18.1478 55.714C17.9872 55.5944 17.8166 55.455 17.6561 55.2956C17.4955 55.1362 17.355 54.9569 17.2145 54.7576C16.6626 53.9606 15.7895 53.3131 14.7759 52.8747C14.2742 52.6655 13.7222 52.5061 13.1703 52.4264C12.8893 52.3866 12.6083 52.3667 12.3273 52.3766C12.0463 52.3766 11.7654 52.4065 11.4844 52.4563C11.1331 52.526 10.7518 52.5759 10.3504 52.6157C10.1497 52.6356 9.93893 52.6556 9.72819 52.6655C9.51745 52.6755 9.30671 52.6854 9.09597 52.6954C8.67448 52.7054 8.23293 52.7054 7.81145 52.6954C7.37993 52.6954 6.96848 52.6655 6.57711 52.6356C6.18573 52.6157 5.80439 52.5759 5.47323 52.546C5.13203 52.5161 4.83097 52.4762 4.58009 52.4364C4.3292 52.4065 4.1285 52.3766 3.97797 52.3567C3.83747 52.3368 3.75719 52.3268 3.75719 52.3268C3.94786 52.3766 4.34927 52.4962 4.85104 52.6655C5.10192 52.7552 5.38291 52.8548 5.67393 52.9644C5.96496 53.074 6.26601 53.1935 6.58714 53.3131C6.89824 53.4326 7.20933 53.5621 7.52042 53.7016C7.83152 53.8311 8.12254 53.9706 8.40353 54.12C8.96551 54.4089 9.43717 54.7078 9.74826 55.0266C10.3704 55.6642 10.8521 55.963 11.2837 56.1922C11.394 56.2519 11.4944 56.3018 11.5948 56.3615C11.6951 56.4213 11.7955 56.4711 11.9058 56.5309C12.0062 56.5907 12.1066 56.6504 12.2169 56.7202C12.3173 56.7899 12.4277 56.8696 12.5381 56.9493C12.6485 57.039 12.799 57.0987 12.9897 57.1486C13.08 57.1685 13.1803 57.1884 13.2807 57.1984C13.381 57.2083 13.5015 57.2183 13.6118 57.2183C14.0735 57.2382 14.5953 57.1884 15.087 57.1087C15.5788 57.029 16.0504 56.9294 16.3916 56.8497C16.5622 56.8098 16.7027 56.77 16.793 56.7401C16.8934 56.7102 16.9436 56.7003 16.9436 56.7003C17.2948 56.4512 17.6761 56.3615 18.0374 56.3715C18.218 56.3715 18.3987 56.3914 18.5693 56.4313C18.6997 56.4612 18.8202 56.501 18.9506 56.5409C19.9541 57.7762 21.0079 58.892 22.0716 59.8483C23.2056 60.8645 24.3496 61.6814 25.4434 62.329C25.4033 62.329 25.3531 62.309 25.313 62.2991C25.2628 62.2891 25.2126 62.2692 25.1524 62.2592C24.9417 62.1994 24.7209 62.1297 24.5102 62.0301C24.3998 61.9803 24.2894 61.9205 24.189 61.8607C24.0786 61.801 23.9783 61.7312 23.8679 61.6515C23.6572 61.5021 23.4364 61.3626 23.1855 61.253C23.0651 61.1933 22.9447 61.1335 22.8142 61.0837C22.6837 61.0339 22.5533 60.984 22.4228 60.9442C22.2924 60.8944 22.1619 60.8545 22.0214 60.8147C21.8809 60.7748 21.7404 60.7449 21.5999 60.7151C21.4594 60.6852 21.3189 60.6553 21.1684 60.6354C21.0982 60.6254 21.0279 60.6154 20.9476 60.6055C20.8774 60.6055 20.8071 60.5856 20.7269 60.5756C20.5763 60.5557 20.4358 60.5457 20.2853 60.5457C20.1348 60.5457 19.9843 60.5357 19.8337 60.5357C19.5327 60.5357 19.2316 60.5557 18.9305 60.5955C18.3385 60.6653 17.7564 60.8246 17.2246 61.0737C16.5522 61.3925 15.7293 61.6814 14.8562 61.9105C13.9932 62.1496 13.0699 62.329 12.237 62.4585C11.8256 62.5182 11.4242 62.578 11.0629 62.6179C10.7016 62.6577 10.3805 62.6876 10.1095 62.7175C9.83858 62.7374 9.6178 62.7573 9.46727 62.7573C9.31674 62.7573 9.23646 62.7673 9.23646 62.7673C9.66798 62.7872 11.0528 62.9367 12.528 63.1558C12.8993 63.2156 13.2706 63.2754 13.642 63.3352C14.0133 63.4049 14.3745 63.4746 14.7157 63.5543C15.067 63.634 15.3781 63.7237 15.6791 63.8233C15.9802 63.9229 16.2311 64.0425 16.4518 64.162C16.6726 64.2915 16.8733 64.4011 17.064 64.4908C17.2547 64.5804 17.4353 64.6502 17.5959 64.7099C17.6761 64.7398 17.7564 64.7697 17.8367 64.7896C17.917 64.8096 17.9872 64.8395 18.0575 64.8594C18.198 64.8992 18.3385 64.9291 18.4689 64.959C18.7298 65.0188 18.9807 65.0586 19.2316 65.1084C19.3621 65.1383 19.4825 65.1682 19.623 65.2081C19.7635 65.2479 19.904 65.2977 20.0545 65.3575C20.3556 65.477 20.8071 65.4472 21.2788 65.3176C21.5197 65.2579 21.7605 65.1682 22.0114 65.0686C22.2522 64.969 22.5031 64.8494 22.7339 64.7299C23.1955 64.4908 23.617 64.2218 23.9181 64.0225C24.2191 63.8233 24.3998 63.6739 24.3998 63.6739C24.6306 63.3053 24.9618 63.0761 25.313 62.9367C25.604 62.8271 25.9051 62.7773 26.2061 62.7573C26.6577 62.9865 27.0993 63.1957 27.5107 63.365C27.6512 63.4248 27.7817 63.4746 27.9222 63.5244C28.0627 63.5742 28.1931 63.6241 28.3236 63.6639C28.454 63.7137 28.5845 63.7436 28.7049 63.7835C28.8354 63.8233 28.9558 63.8632 29.0762 63.893C30.0396 64.1521 30.8224 64.2517 31.3542 64.2915C31.4245 64.2915 31.4847 64.2915 31.5449 64.3015C31.575 64.3015 31.6051 64.3015 31.6352 64.3015H31.7155C31.7155 64.3015 31.7456 64.3015 31.7657 64.3015C32.6588 65.0586 33.4115 66.3238 31.575 68.1469C30.1801 69.5317 30.7923 73.5764 30.8525 73.945C30.8224 73.7059 30.6919 72.092 32.9398 68.7148C34.5254 66.3438 33.9534 64.9391 33.3513 64.2417C33.7928 64.2218 34.1742 64.1919 34.1742 64.1919C36.8736 63.9229 36.9941 65.2878 36.9941 65.2878C36.2113 66.5829 37.255 68.137 37.255 68.137C37.0442 66.7422 38.399 65.8058 38.7703 64.1919C38.9409 63.4348 39.1517 62.9466 38.8707 62.6776C38.5395 62.3688 38.0377 62.3489 37.6263 62.5481L37.6464 62.6179Z" fill="#D1D5DB"/>
<path d="M82.7978 10.308H77.5773V19.2762H75.1382V8.01172H85.2369V19.2762H82.7978V10.308Z" fill="#FF4A37"/>
<path d="M87.6104 8.0119H90.0495V9.24667C90.5487 8.77009 91.0836 8.40183 91.6541 8.14188C92.2247 7.88193 92.8665 7.75195 93.5797 7.75195C94.3785 7.75195 95.1131 7.90359 95.7835 8.20686C96.4682 8.4957 97.0529 8.90729 97.5379 9.44164C98.0229 9.96153 98.4009 10.5826 98.6719 11.3046C98.9429 12.0123 99.0784 12.7849 99.0784 13.6225C99.0784 14.489 98.9287 15.2833 98.6291 16.0054C98.3438 16.713 97.9515 17.3268 97.4523 17.8467C96.9531 18.3522 96.3541 18.7493 95.6551 19.0382C94.9705 19.327 94.2359 19.4714 93.4513 19.4714C92.7524 19.4714 92.1248 19.3631 91.5685 19.1465C91.0122 18.9298 90.5059 18.6266 90.0495 18.2367V23.609H87.6104V8.0119ZM93.0877 17.1752C93.5726 17.1752 94.0219 17.0958 94.4356 16.9369C94.8635 16.778 95.2343 16.547 95.5481 16.2437C95.8619 15.926 96.1044 15.5505 96.2756 15.1172C96.461 14.6695 96.5538 14.1641 96.5538 13.6009C96.5538 13.081 96.4753 12.6044 96.3184 12.1711C96.1615 11.7234 95.9333 11.3479 95.6337 11.0447C95.3484 10.7269 95.0061 10.4814 94.6067 10.3082C94.2073 10.1349 93.7652 10.0482 93.2802 10.0482C92.5385 10.0482 91.8823 10.2287 91.3118 10.5898C90.7555 10.9508 90.3347 11.3841 90.0495 11.8895V15.3122C90.3347 15.9188 90.7412 16.3809 91.269 16.6986C91.7967 17.0163 92.403 17.1752 93.0877 17.1752Z" fill="#FF4A37"/>
<path d="M100.346 13.6225C100.346 12.7704 100.488 11.9906 100.774 11.283C101.059 10.5609 101.465 9.93987 101.993 9.41997C102.521 8.90007 103.149 8.4957 103.876 8.20686C104.603 7.90359 105.409 7.75195 106.294 7.75195C107.164 7.75195 107.963 7.90359 108.69 8.20686C109.432 8.4957 110.066 8.90007 110.594 9.41997C111.122 9.93987 111.529 10.5609 111.814 11.283C112.113 11.9906 112.263 12.7704 112.263 13.6225C112.263 14.4746 112.113 15.2616 111.814 15.9837C111.529 16.6914 111.122 17.3051 110.594 17.825C110.066 18.345 109.432 18.7493 108.69 19.0382C107.963 19.327 107.164 19.4714 106.294 19.4714C105.424 19.4714 104.625 19.327 103.897 19.0382C103.17 18.7493 102.542 18.345 102.015 17.825C101.487 17.3051 101.073 16.6914 100.774 15.9837C100.488 15.2616 100.346 14.4746 100.346 13.6225ZM102.87 13.6225C102.87 14.128 102.949 14.5974 103.106 15.0306C103.277 15.4638 103.512 15.8393 103.812 16.157C104.111 16.4748 104.468 16.7275 104.882 16.9153C105.31 17.0885 105.78 17.1752 106.294 17.1752C106.807 17.1752 107.271 17.0958 107.684 16.9369C108.112 16.7636 108.476 16.5253 108.776 16.222C109.075 15.9043 109.31 15.5288 109.482 15.0956C109.653 14.6623 109.738 14.1713 109.738 13.6225C109.738 13.0737 109.646 12.5827 109.46 12.1494C109.289 11.7017 109.047 11.3263 108.733 11.023C108.419 10.7053 108.055 10.467 107.642 10.3082C107.228 10.1349 106.779 10.0482 106.294 10.0482C105.809 10.0482 105.352 10.1349 104.924 10.3082C104.511 10.467 104.147 10.7053 103.833 11.023C103.534 11.3263 103.298 11.7017 103.127 12.1494C102.956 12.5827 102.87 13.0737 102.87 13.6225Z" fill="#FF4A37"/>
<path d="M45.0078 35.3614H46.2959C46.7968 34.7115 47.1331 33.9677 47.3049 33.1302C47.4766 32.2925 47.5625 31.3466 47.5625 30.2923V26.3931H56.536V35.3614H58.1031V40.2355H55.8275V37.6576H47.2834V40.2355H45.0078V35.3614ZM54.0886 35.3614V28.6893H49.881V31.5704C49.881 32.2636 49.7879 32.9568 49.6019 33.65C49.4158 34.3288 49.1583 34.8993 48.8291 35.3614H54.0886Z" fill="#3981F1"/>
<path d="M58.5997 32.0038C58.5997 31.1518 58.7428 30.3719 59.0291 29.6643C59.3153 28.9422 59.7232 28.3212 60.2527 27.8013C60.7822 27.2814 61.412 26.877 62.1418 26.5882C62.8718 26.2849 63.6804 26.1333 64.5677 26.1333C65.4407 26.1333 66.2422 26.2849 66.9721 26.5882C67.7163 26.877 68.3532 27.2814 68.8827 27.8013C69.4122 28.3212 69.8201 28.9422 70.1063 29.6643C70.4069 30.3719 70.5572 31.1518 70.5572 32.0038C70.5572 32.8559 70.4069 33.643 70.1063 34.3651C69.8201 35.0728 69.4122 35.6865 68.8827 36.2064C68.3532 36.7263 67.7163 37.1307 66.9721 37.4195C66.2422 37.7083 65.4407 37.8527 64.5677 37.8527C63.6947 37.8527 62.8932 37.7083 62.1633 37.4195C61.4334 37.1307 60.8037 36.7263 60.2742 36.2064C59.7446 35.6865 59.3296 35.0728 59.0291 34.3651C58.7428 33.643 58.5997 32.8559 58.5997 32.0038ZM61.1329 32.0038C61.1329 32.5093 61.2116 32.9787 61.369 33.4119C61.5407 33.8452 61.7769 34.2206 62.0774 34.5384C62.378 34.8561 62.7358 35.1088 63.1509 35.2966C63.5802 35.4698 64.0525 35.5565 64.5677 35.5565C65.0829 35.5565 65.548 35.4771 65.9631 35.3182C66.3925 35.1449 66.7574 34.9066 67.058 34.6034C67.3585 34.2856 67.5947 33.9102 67.7664 33.4769C67.9381 33.0436 68.024 32.5526 68.024 32.0038C68.024 31.455 67.931 30.9641 67.7449 30.5308C67.5732 30.0831 67.3299 29.7076 67.015 29.4043C66.7001 29.0866 66.3352 28.8483 65.9202 28.6895C65.5051 28.5162 65.0543 28.4295 64.5677 28.4295C64.0811 28.4295 63.6231 28.5162 63.1938 28.6895C62.7788 28.8483 62.4138 29.0866 62.0989 29.4043C61.7984 29.7076 61.5622 30.0831 61.3905 30.5308C61.2187 30.9641 61.1329 31.455 61.1329 32.0038Z" fill="#3981F1"/>
<path d="M72.0717 26.3931H74.5189V30.9639L79.3491 26.3931H82.5477L77.1164 31.4838L82.7411 37.6576H79.607L75.335 33.0218L74.5189 33.8233V37.6576H72.0717V26.3931Z" fill="#3981F1"/>
<path d="M83.5137 26.3931H94.0331V28.6893H89.9969V37.6576H87.5499V28.6893H83.5137V26.3931Z" fill="#3981F1"/>
<path d="M94.5677 32.0038C94.5677 31.1518 94.711 30.3719 94.9976 29.6643C95.2835 28.9422 95.6913 28.3212 96.2208 27.8013C96.7503 27.2814 97.3801 26.877 98.1103 26.5882C98.8397 26.2849 99.6487 26.1333 100.536 26.1333C101.409 26.1333 102.21 26.2849 102.94 26.5882C103.685 26.877 104.321 27.2814 104.851 27.8013C105.38 28.3212 105.789 28.9422 106.075 29.6643C106.375 30.3719 106.525 31.1518 106.525 32.0038C106.525 32.8559 106.375 33.643 106.075 34.3651C105.789 35.0728 105.38 35.6865 104.851 36.2064C104.321 36.7263 103.685 37.1307 102.94 37.4195C102.21 37.7083 101.409 37.8527 100.536 37.8527C99.663 37.8527 98.8612 37.7083 98.1317 37.4195C97.4016 37.1307 96.7718 36.7263 96.2423 36.2064C95.7128 35.6865 95.2979 35.0728 94.9976 34.3651C94.711 33.643 94.5677 32.8559 94.5677 32.0038ZM97.1014 32.0038C97.1014 32.5093 97.1802 32.9787 97.3371 33.4119C97.5091 33.8452 97.7449 34.2206 98.0458 34.5384C98.346 34.8561 98.7043 35.1088 99.1191 35.2966C99.5484 35.4698 100.021 35.5565 100.536 35.5565C101.051 35.5565 101.517 35.4771 101.932 35.3182C102.361 35.1449 102.725 34.9066 103.026 34.6034C103.327 34.2856 103.563 33.9102 103.734 33.4769C103.906 33.0436 103.992 32.5526 103.992 32.0038C103.992 31.455 103.899 30.9641 103.713 30.5308C103.542 30.0831 103.298 29.7076 102.983 29.4043C102.668 29.0866 102.303 28.8483 101.889 28.6895C101.474 28.5162 101.022 28.4295 100.536 28.4295C100.049 28.4295 99.5913 28.5162 99.1621 28.6895C98.7472 28.8483 98.3819 29.0866 98.0673 29.4043C97.7664 29.7076 97.5306 30.0831 97.3586 30.5308C97.1873 30.9641 97.1014 31.455 97.1014 32.0038Z" fill="#3981F1"/>
<path d="M108.021 26.3932H110.468V27.628C110.968 27.1514 111.505 26.7832 112.078 26.5232C112.65 26.2633 113.294 26.1333 114.01 26.1333C114.811 26.1333 115.549 26.2849 116.221 26.5882C116.908 26.877 117.495 27.2886 117.981 27.823C118.468 28.3429 118.847 28.9639 119.119 29.6859C119.391 30.3936 119.527 31.1662 119.527 32.0038C119.527 32.8703 119.377 33.6646 119.076 34.3867C118.79 35.0944 118.397 35.7082 117.895 36.2281C117.394 36.7335 116.793 37.1307 116.092 37.4195C115.405 37.7083 114.668 37.8527 113.881 37.8527C113.18 37.8527 112.55 37.7445 111.992 37.5278C111.434 37.3112 110.925 37.0079 110.468 36.618V41.9903H108.021V26.3932ZM113.516 35.5565C114.003 35.5565 114.454 35.4771 114.869 35.3182C115.298 35.1594 115.67 34.9283 115.985 34.6251C116.3 34.3073 116.543 33.9318 116.715 33.4985C116.901 33.0508 116.994 32.5454 116.994 31.9822C116.994 31.4623 116.915 30.9857 116.758 30.5524C116.6 30.1048 116.371 29.7293 116.071 29.426C115.784 29.1083 115.441 28.8628 115.041 28.6895C114.639 28.5162 114.196 28.4295 113.709 28.4295C112.965 28.4295 112.307 28.61 111.734 28.9711C111.176 29.3321 110.754 29.7654 110.468 30.2709V33.6935C110.754 34.3001 111.162 34.7622 111.691 35.08C112.221 35.3977 112.829 35.5565 113.516 35.5565Z" fill="#3981F1"/>
<path d="M120.741 32.0038C120.741 31.1518 120.884 30.3719 121.17 29.6643C121.457 28.9422 121.864 28.3212 122.394 27.8013C122.923 27.2814 123.553 26.877 124.283 26.5882C125.013 26.2849 125.822 26.1333 126.709 26.1333C127.582 26.1333 128.383 26.2849 129.114 26.5882C129.857 26.877 130.494 27.2814 131.024 27.8013C131.553 28.3212 131.961 28.9422 132.248 29.6643C132.548 30.3719 132.698 31.1518 132.698 32.0038C132.698 32.8559 132.548 33.643 132.248 34.3651C131.961 35.0728 131.553 35.6865 131.024 36.2064C130.494 36.7263 129.857 37.1307 129.114 37.4195C128.383 37.7083 127.582 37.8527 126.709 37.8527C125.836 37.8527 125.034 37.7083 124.304 37.4195C123.575 37.1307 122.945 36.7263 122.415 36.2064C121.886 35.6865 121.471 35.0728 121.17 34.3651C120.884 33.643 120.741 32.8559 120.741 32.0038ZM123.274 32.0038C123.274 32.5093 123.353 32.9787 123.51 33.4119C123.682 33.8452 123.918 34.2206 124.219 34.5384C124.519 34.8561 124.877 35.1088 125.292 35.2966C125.721 35.4698 126.194 35.5565 126.709 35.5565C127.224 35.5565 127.689 35.4771 128.104 35.3182C128.534 35.1449 128.899 34.9066 129.199 34.6034C129.5 34.2856 129.736 33.9102 129.907 33.4769C130.079 33.0436 130.165 32.5526 130.165 32.0038C130.165 31.455 130.072 30.9641 129.886 30.5308C129.714 30.0831 129.471 29.7076 129.156 29.4043C128.841 29.0866 128.477 28.8483 128.061 28.6895C127.646 28.5162 127.195 28.4295 126.709 28.4295C126.222 28.4295 125.764 28.5162 125.335 28.6895C124.92 28.8483 124.555 29.0866 124.24 29.4043C123.939 29.7076 123.704 30.0831 123.532 30.5308C123.36 30.9641 123.274 31.455 123.274 32.0038Z" fill="#3981F1"/>
<path d="M134.219 26.3931H138.984C140.544 26.3931 141.718 26.6169 142.505 27.0646C143.292 27.5123 143.686 28.2849 143.686 29.3825C143.686 29.9024 143.571 30.3429 143.342 30.7039C143.114 31.065 142.813 31.3899 142.441 31.6787C142.97 31.8809 143.364 32.2203 143.622 32.6969C143.879 33.159 144.008 33.6933 144.008 34.2999C144.008 35.4264 143.614 36.2712 142.827 36.8344C142.04 37.3832 140.931 37.6576 139.499 37.6576H134.219V26.3931ZM136.666 33.0001V35.4264H139.264C139.993 35.4264 140.544 35.3325 140.917 35.1447C141.289 34.957 141.475 34.6537 141.475 34.2349C141.475 33.7872 141.296 33.4695 140.938 33.2818C140.594 33.094 140.058 33.0001 139.328 33.0001H136.666ZM136.666 28.6243V30.8555H139.542C140.043 30.8555 140.437 30.7617 140.723 30.5739C141.01 30.3862 141.152 30.0974 141.152 29.7074C141.152 29.2453 140.96 28.9493 140.573 28.8193C140.201 28.6893 139.65 28.6243 138.92 28.6243H136.666Z" fill="#3981F1"/>
<path d="M80.8035 51.5734L82.1234 54.2349C82.3034 54.6054 82.7833 54.9608 83.1883 55.0288L85.5805 55.4296C87.1103 55.6866 87.4703 56.8057 86.3679 57.9096L84.5081 59.7848C84.1932 60.1023 84.0207 60.7148 84.1182 61.1533L84.6506 63.4746C85.0706 65.312 84.1032 66.0227 82.4909 65.0624L80.2486 63.7241C79.8436 63.4822 79.1762 63.4822 78.7638 63.7241L76.5215 65.0624C74.9167 66.0227 73.9418 65.3044 74.3618 63.4746L74.8942 61.1533C74.9917 60.7148 74.8192 60.1023 74.5042 59.7848L72.6444 57.9096C71.5496 56.8057 71.902 55.6866 73.4319 55.4296L75.8241 55.0288C76.2215 54.9608 76.7015 54.6054 76.8815 54.2349L78.2013 51.5734C78.9212 50.1292 80.0911 50.1292 80.8035 51.5734Z" fill="#FFA800"/>
<path d="M94.6758 58.0142L95.2838 51.6782H102.1V53.3262H96.8358L96.5158 56.2702C96.8251 56.0676 97.1558 55.9129 97.5078 55.8062C97.8705 55.6889 98.3025 55.6302 98.8038 55.6302C99.3691 55.6302 99.8811 55.7156 100.34 55.8862C100.798 56.0462 101.193 56.2809 101.524 56.5902C101.854 56.8996 102.105 57.2782 102.276 57.7262C102.457 58.1742 102.548 58.6809 102.548 59.2462C102.548 59.8542 102.441 60.3982 102.228 60.8782C102.014 61.3582 101.721 61.7636 101.348 62.0942C100.974 62.4249 100.537 62.6809 100.036 62.8622C99.5345 63.0329 98.9905 63.1182 98.4038 63.1182C97.9025 63.1182 97.4278 63.0596 96.9798 62.9422C96.5425 62.8249 96.1425 62.6436 95.7798 62.3982C95.4278 62.1529 95.1291 61.8382 94.8838 61.4542C94.6491 61.0596 94.4945 60.5956 94.4198 60.0622H96.2598C96.3238 60.2862 96.4251 60.4836 96.5638 60.6542C96.7131 60.8249 96.8838 60.9689 97.0758 61.0862C97.2678 61.2036 97.4758 61.2942 97.6998 61.3582C97.9238 61.4116 98.1478 61.4382 98.3718 61.4382C98.6918 61.4382 98.9905 61.4009 99.2678 61.3262C99.5451 61.2409 99.7851 61.1129 99.9878 60.9422C100.201 60.7716 100.366 60.5582 100.484 60.3022C100.601 60.0356 100.66 59.7156 100.66 59.3422C100.66 58.6596 100.457 58.1369 100.052 57.7742C99.6571 57.4116 99.1345 57.2302 98.4838 57.2302C98.0785 57.2302 97.7105 57.2996 97.3798 57.4382C97.0491 57.5769 96.7505 57.7689 96.4838 58.0142H94.6758ZM105.48 63.1182C105.16 63.0969 104.893 62.9902 104.68 62.7982C104.477 62.5956 104.376 62.3236 104.376 61.9822C104.376 61.6089 104.493 61.3262 104.728 61.1342C104.963 60.9316 105.224 60.8302 105.512 60.8302C105.544 60.8302 105.576 60.8302 105.608 60.8302C106.088 60.8622 106.419 61.0329 106.6 61.3422C106.781 61.6516 106.872 61.9769 106.872 62.3182C106.872 62.3716 106.872 62.4249 106.872 62.4782C106.872 62.7876 106.813 63.0916 106.696 63.3902C106.579 63.6996 106.424 63.9876 106.232 64.2542C106.04 64.5209 105.821 64.7502 105.576 64.9422C105.331 65.1449 105.075 65.2889 104.808 65.3742L104.328 64.7182C104.584 64.5369 104.819 64.3076 105.032 64.0302C105.245 63.7529 105.395 63.4489 105.48 63.1182ZM117.563 57.3262C117.563 58.1902 117.473 58.9796 117.291 59.6942C117.121 60.3982 116.849 61.0009 116.475 61.5022C116.113 62.0036 115.654 62.3929 115.099 62.6702C114.545 62.9476 113.889 63.0862 113.131 63.0862C112.374 63.0862 111.718 62.9529 111.163 62.6862C110.609 62.4089 110.15 62.0249 109.787 61.5342C109.425 61.0436 109.153 60.4516 108.971 59.7582C108.79 59.0649 108.699 58.2916 108.699 57.4382C108.699 56.5636 108.785 55.7636 108.955 55.0382C109.126 54.3129 109.393 53.6889 109.755 53.1662C110.118 52.6436 110.577 52.2436 111.131 51.9662C111.697 51.6782 112.363 51.5342 113.131 51.5342C113.878 51.5342 114.529 51.6729 115.083 51.9502C115.638 52.2276 116.097 52.6222 116.459 53.1342C116.833 53.6462 117.11 54.2596 117.291 54.9742C117.473 55.6782 117.563 56.4622 117.563 57.3262ZM110.539 57.3262C110.539 57.9129 110.582 58.4569 110.667 58.9582C110.753 59.4596 110.897 59.8969 111.099 60.2702C111.302 60.6329 111.569 60.9209 111.899 61.1342C112.23 61.3369 112.641 61.4382 113.131 61.4382C113.611 61.4382 114.017 61.3369 114.347 61.1342C114.678 60.9209 114.945 60.6329 115.147 60.2702C115.35 59.8969 115.494 59.4596 115.579 58.9582C115.665 58.4569 115.707 57.9129 115.707 57.3262C115.707 56.7502 115.665 56.2116 115.579 55.7102C115.494 55.1982 115.35 54.7609 115.147 54.3982C114.945 54.0249 114.678 53.7316 114.347 53.5182C114.017 53.3049 113.611 53.1982 113.131 53.1982C112.641 53.1982 112.23 53.3049 111.899 53.5182C111.569 53.7316 111.302 54.0249 111.099 54.3982C110.897 54.7609 110.753 55.1982 110.667 55.7102C110.582 56.2116 110.539 56.7502 110.539 57.3262Z" fill="#111827"/>
<path d="M187.872 41.3735C187.752 41.4233 187.571 41.493 187.34 41.5727C186.889 41.7421 186.256 41.9612 185.544 42.1704C185.183 42.28 184.801 42.3796 184.41 42.4693C184.219 42.5191 184.018 42.559 183.818 42.6088C183.617 42.6486 183.416 42.6885 183.216 42.7283C182.413 42.8778 181.63 42.9674 180.948 42.9873C180.406 42.9973 179.884 43.1169 179.392 43.3061C178.901 43.4954 178.449 43.7544 178.037 44.0633C177.215 44.6909 176.582 45.4978 176.261 46.3446C176.04 46.9324 175.699 47.3807 175.338 47.7394C175.719 46.8627 176.071 45.9661 176.392 45.0595C176.753 44.0434 177.064 43.0172 177.345 41.9612C177.556 41.1543 177.736 40.3374 177.897 39.5105C177.897 39.5105 177.897 39.5005 177.917 39.4906C178.017 39.381 178.128 39.2714 178.248 39.1718C178.369 39.0722 178.509 38.9825 178.65 38.9028C178.941 38.7534 179.292 38.6737 179.683 38.7334C179.683 38.7334 179.884 38.7036 180.205 38.6338C180.516 38.5641 180.938 38.4645 181.369 38.3349C181.59 38.2652 181.811 38.1955 182.021 38.1158C182.232 38.0361 182.433 37.9464 182.614 37.8468C182.975 37.6575 183.266 37.4383 183.366 37.2092C183.467 36.9801 183.577 36.7808 183.687 36.6015C183.798 36.4122 183.918 36.2329 184.039 36.0337C184.159 35.8344 184.279 35.6152 184.4 35.3562C184.46 35.2267 184.52 35.0773 184.58 34.9179C184.641 34.7585 184.691 34.5891 184.751 34.3899C184.811 34.2006 184.892 33.9914 185.002 33.7822C185.112 33.563 185.243 33.3438 185.393 33.1147C185.534 32.8856 185.694 32.6465 185.865 32.4074C186.026 32.1683 186.206 31.9292 186.377 31.7001C186.467 31.5805 186.547 31.4709 186.638 31.3613C186.718 31.2518 186.808 31.1422 186.889 31.0326C187.049 30.8234 187.22 30.6142 187.36 30.4548C187.651 30.116 187.882 29.857 188.023 29.7375C188.023 29.7375 187.812 29.9068 187.441 30.1758C187.26 30.3053 187.039 30.4647 186.798 30.6341C186.547 30.8034 186.266 30.9927 185.975 31.192C185.383 31.5705 184.701 31.9591 184.008 32.2878C183.838 32.3675 183.667 32.4472 183.497 32.5269C183.326 32.5967 183.145 32.6664 182.975 32.7361C182.634 32.8656 182.302 32.9752 181.991 33.0649C181.74 33.1346 181.51 33.2243 181.289 33.3339C181.068 33.4435 180.857 33.573 180.657 33.7224C180.265 34.0113 179.924 34.3699 179.633 34.7485C179.061 35.5156 178.7 36.4122 178.599 37.2789C178.559 37.7073 178.429 38.0859 178.268 38.4246C178.198 38.574 178.108 38.7135 178.027 38.843C178.027 38.8231 178.027 38.8032 178.037 38.7833C178.409 36.6414 178.589 34.4696 178.519 32.3376C178.519 32.2081 178.519 32.0687 178.509 31.9391C178.509 31.8096 178.499 31.6702 178.489 31.5407C178.489 31.4111 178.469 31.2717 178.469 31.1422C178.459 31.0127 178.449 30.8732 178.439 30.7437C178.429 30.6142 178.419 30.4747 178.409 30.3452C178.409 30.3053 178.409 30.2655 178.399 30.2256C178.409 30.1957 178.419 30.1659 178.439 30.136C178.559 29.8869 178.72 29.6279 178.941 29.4187C179.171 29.2095 179.462 29.0501 179.834 29.0102C179.834 29.0102 179.874 28.9903 179.954 28.9505C180.034 28.9106 180.145 28.8608 180.275 28.7911C180.546 28.6516 180.898 28.4523 181.259 28.2232C181.62 27.9941 181.981 27.7251 182.262 27.4561C182.533 27.1871 182.734 26.9181 182.764 26.6791C182.824 26.2108 182.925 25.8323 183.035 25.384C183.065 25.2744 183.085 25.1548 183.105 25.0253C183.125 24.9058 183.145 24.7663 183.155 24.6268C183.176 24.4873 183.186 24.3379 183.196 24.1785C183.196 24.0191 183.216 23.8398 183.196 23.6505C183.196 23.4612 183.206 23.252 183.246 23.0329C183.266 22.9233 183.286 22.8137 183.306 22.6941C183.326 22.5746 183.356 22.455 183.386 22.3355C183.446 22.0964 183.517 21.8473 183.597 21.5883C183.637 21.4688 183.677 21.3393 183.717 21.2197C183.758 21.0902 183.798 20.9707 183.838 20.8511C183.918 20.602 184.008 20.363 184.099 20.1438C184.179 19.9146 184.259 19.7054 184.34 19.5162C184.49 19.1376 184.631 18.8387 184.721 18.6992C184.721 18.6992 184.58 18.9085 184.32 19.2472C184.189 19.4165 184.039 19.6158 183.868 19.825C183.687 20.0442 183.497 20.2733 183.276 20.5223C182.844 21.0105 182.333 21.5285 181.811 21.9968C181.279 22.475 180.717 22.8934 180.195 23.2122C179.984 23.3417 179.804 23.4812 179.633 23.6406C179.462 23.7999 179.312 23.9693 179.181 24.1586C178.921 24.5272 178.73 24.9356 178.589 25.364C178.519 25.5732 178.469 25.7924 178.429 26.0116C178.389 26.2307 178.359 26.4499 178.349 26.6691C178.349 26.7787 178.349 26.8883 178.349 26.9978C178.349 27.1074 178.349 27.217 178.349 27.3166C178.359 27.5258 178.389 27.7351 178.429 27.9443C178.449 28.0439 178.459 28.1435 178.469 28.2431C178.469 28.3428 178.479 28.4424 178.479 28.532C178.479 28.7213 178.469 28.9006 178.449 29.07C178.419 29.2593 178.369 29.4386 178.318 29.598C178.298 29.4585 178.288 29.3191 178.268 29.1796C178.128 28.1435 177.947 27.1274 177.726 26.1311C177.496 25.1449 177.215 24.1785 176.903 23.2421C176.823 23.0129 176.743 22.7838 176.663 22.5547C176.572 22.3255 176.492 22.1064 176.402 21.8772C176.321 21.6481 176.221 21.4289 176.131 21.2097C176.131 21.15 176.131 21.0902 176.141 21.0205C176.181 20.7614 176.251 20.4825 176.392 20.2334C176.542 19.9844 176.753 19.7652 177.084 19.6257C177.084 19.6257 177.225 19.5062 177.425 19.3069C177.626 19.1077 177.887 18.8387 178.148 18.5299C178.409 18.231 178.66 17.8923 178.84 17.5735C179.011 17.2647 179.111 16.9658 179.071 16.7466C179.051 16.6371 179.041 16.5275 179.021 16.4278C179.011 16.3183 178.991 16.2186 178.981 16.119C178.961 15.9098 178.941 15.7006 178.921 15.4814C178.89 15.2623 178.86 15.0232 178.81 14.7542C178.78 14.6247 178.75 14.4852 178.72 14.3358C178.68 14.1863 178.63 14.0269 178.579 13.8675C178.369 13.2001 178.328 12.1939 178.359 11.2674C178.369 10.8091 178.399 10.3708 178.439 10.0121C178.469 9.65347 178.519 9.37453 178.569 9.22509C178.569 9.22509 178.489 9.44427 178.349 9.79295C178.208 10.1416 177.987 10.6298 177.726 11.1677C177.596 11.4367 177.445 11.7157 177.285 11.9946C177.124 12.2736 176.954 12.5625 176.773 12.8314C176.592 13.1004 176.412 13.3694 176.221 13.6185C176.03 13.8675 175.83 14.1066 175.639 14.3059C175.328 14.6346 175.127 15.0032 174.997 15.4017C174.937 15.601 174.886 15.8002 174.866 16.0094C174.836 16.2186 174.836 16.4179 174.846 16.6371C174.846 16.8463 174.876 17.0555 174.916 17.2647C174.937 17.3743 174.957 17.4739 174.977 17.5735C174.997 17.6731 175.027 17.7728 175.057 17.8724C175.177 18.2709 175.328 18.6594 175.519 19.0081C175.609 19.1774 175.679 19.3568 175.739 19.5261C175.769 19.6158 175.79 19.6955 175.81 19.7752C175.83 19.8549 175.85 19.9445 175.86 20.0242C175.89 20.2434 175.9 20.4426 175.89 20.6319C175.88 20.602 175.86 20.5722 175.85 20.5522C175.8 20.4426 175.749 20.3331 175.709 20.2334C175.659 20.1239 175.619 20.0242 175.559 19.9146C175.458 19.7054 175.358 19.4962 175.258 19.297C175.157 19.0878 175.047 18.8885 174.947 18.6893C174.896 18.5897 174.846 18.49 174.786 18.3904C174.736 18.2908 174.676 18.1912 174.625 18.1015C174.575 18.0019 174.515 17.9122 174.465 17.8126C174.435 17.7628 174.415 17.713 174.385 17.6632C174.355 17.6134 174.324 17.5735 174.304 17.5237C174.194 17.3344 174.084 17.1451 173.973 16.9658C173.863 16.7765 173.752 16.5972 173.642 16.4179C173.592 16.3282 173.532 16.2386 173.481 16.1489C173.421 16.0592 173.371 15.9696 173.311 15.8899C172.749 15.0132 172.097 14.2361 171.474 13.5089C171.474 13.489 171.464 13.469 171.454 13.4491C171.394 13.2897 171.324 13.0705 171.294 12.8215C171.264 12.5724 171.254 12.3034 171.324 12.0444C171.394 11.7854 171.545 11.5363 171.816 11.3371C171.816 11.3371 171.916 11.1976 172.046 10.9785C172.187 10.7593 172.368 10.4505 172.528 10.1217C172.869 9.46419 173.15 8.69709 172.99 8.31852C172.669 7.58131 172.548 6.89392 171.956 5.79806C171.806 5.51912 171.685 5.17044 171.575 4.79187C171.474 4.4133 171.394 4.00485 171.334 3.61632C171.224 2.83926 171.193 2.12197 171.264 1.85299C171.264 1.85299 171.213 2.05223 171.123 2.38099C171.033 2.70975 170.892 3.16801 170.712 3.68605C170.36 4.71217 169.849 5.96742 169.257 6.85407C169.026 7.20275 168.905 7.58131 168.875 7.95988C168.845 8.33845 168.895 8.72698 169.016 9.10555C169.247 9.86268 169.718 10.58 170.22 11.1379C170.35 11.2773 170.451 11.4268 170.551 11.5662C170.641 11.7157 170.722 11.8551 170.782 12.0046C170.902 12.2935 170.983 12.5724 171.023 12.8115C171.033 12.8912 171.043 12.951 171.043 13.0307C170.832 12.7816 170.631 12.5425 170.441 12.3134C170.24 12.0544 168.183 9.79295 166.708 8.17905C166.457 7.74071 166.256 7.21271 166.256 6.60501C166.256 4.95127 165.564 2.86914 163.617 2.4308C161.158 1.88288 157.766 0 157.766 0C158.328 0.318794 160.084 2.25148 160.486 3.51669C160.887 4.78191 161.329 5.38961 161.64 6.19655C161.951 6.99354 165.022 7.87022 165.022 7.87022C165.523 7.86026 165.965 8.0595 166.346 8.33845C166.878 9.12547 168.484 11.4467 168.915 11.9647C169.176 12.2736 169.437 12.5924 169.708 12.9311C169.949 13.2299 170.19 13.5487 170.441 13.8775C170.35 13.8476 170.26 13.8078 170.17 13.7679C170.059 13.7181 169.949 13.6583 169.839 13.5886C169.718 13.5288 169.608 13.4491 169.487 13.3595C169.367 13.2698 169.257 13.1801 169.146 13.0705C169.036 12.961 168.925 12.8414 168.825 12.7119C168.775 12.6422 168.725 12.5724 168.665 12.5127C168.604 12.4429 168.544 12.3831 168.484 12.3134C168.363 12.1839 168.223 12.0644 168.082 11.9448C167.942 11.8253 167.791 11.7157 167.631 11.616C167.47 11.5164 167.31 11.4268 167.139 11.357C166.467 11.0582 165.704 10.9785 164.972 11.3072C164.038 11.7256 162.794 12.0544 161.79 12.2935C161.289 12.413 160.837 12.5027 160.516 12.5724C160.195 12.6322 160.004 12.6721 160.004 12.6721C160.265 12.6322 160.927 12.6721 161.63 12.8115C161.991 12.8813 162.342 12.961 162.683 13.0705C163.015 13.1801 163.306 13.2997 163.536 13.4391C163.978 13.7181 164.339 13.8974 164.67 14.0568C165.002 14.2062 165.293 14.3358 165.584 14.5051C165.734 14.5948 165.985 14.6047 166.296 14.5749C166.607 14.545 166.969 14.4752 167.31 14.4055C167.992 14.2461 168.614 14.0568 168.614 14.0568C168.865 13.8875 169.136 13.8177 169.397 13.8177C169.658 13.8177 169.909 13.8974 170.12 13.9871C170.34 14.0767 170.521 14.1963 170.651 14.2959C170.782 14.3955 170.852 14.4553 170.852 14.4553C170.852 14.4553 170.862 14.4453 170.872 14.4354C171.344 15.0829 171.826 15.7604 172.297 16.4976C172.347 16.5773 172.408 16.6669 172.458 16.7566C172.518 16.8363 172.568 16.926 172.618 17.0156C172.729 17.185 172.829 17.3643 172.94 17.5436C173.04 17.7229 173.15 17.9023 173.251 18.0915C173.281 18.1414 173.301 18.1812 173.331 18.231C173.361 18.2808 173.381 18.3207 173.411 18.3705C173.461 18.4701 173.512 18.5598 173.562 18.6494C173.612 18.7491 173.662 18.8387 173.722 18.9284C173.772 19.028 173.823 19.1177 173.873 19.2173C173.973 19.4066 174.074 19.6058 174.174 19.8051C174.274 20.0043 174.365 20.2036 174.465 20.4028C174.515 20.5024 174.555 20.602 174.605 20.7116C174.656 20.8212 174.696 20.9208 174.746 21.0205C174.786 21.1201 174.836 21.2297 174.886 21.3293C174.927 21.4389 174.977 21.5385 175.017 21.6481C174.987 21.6282 174.957 21.6082 174.916 21.5784C174.816 21.4987 174.716 21.419 174.615 21.3193C174.515 21.2297 174.405 21.1201 174.314 21.0005C174.214 20.891 174.124 20.7614 174.033 20.622C173.943 20.4825 173.863 20.343 173.793 20.1836C173.762 20.1039 173.722 20.0242 173.672 19.9445C173.632 19.8648 173.582 19.7851 173.532 19.7054C173.431 19.546 173.321 19.3966 173.21 19.2372C173.09 19.0878 172.96 18.9483 172.819 18.8188C172.749 18.7491 172.679 18.6893 172.598 18.6295C172.528 18.5697 172.448 18.51 172.368 18.4602C172.046 18.2509 171.695 18.0915 171.314 18.0218C170.932 17.9521 170.541 17.962 170.12 18.0816C169.588 18.231 168.986 18.3506 168.384 18.4602C167.781 18.5598 167.169 18.6494 166.627 18.7291C166.356 18.759 166.106 18.7989 165.875 18.8288C165.644 18.8586 165.443 18.8885 165.273 18.9085C164.931 18.9483 164.731 18.9682 164.731 18.9682C165.002 18.9383 165.664 19.028 166.346 19.2173C166.437 19.2372 166.517 19.2671 166.607 19.297C166.698 19.3169 166.778 19.3568 166.858 19.3767C167.029 19.4365 167.189 19.4962 167.35 19.566C167.661 19.7054 167.932 19.8648 168.133 20.0342C168.323 20.1936 168.494 20.343 168.665 20.4626C168.745 20.5223 168.825 20.5821 168.905 20.6419C168.986 20.7017 169.056 20.7515 169.136 20.8013C169.437 21.0005 169.698 21.1799 169.949 21.399C170.079 21.5086 170.34 21.5684 170.672 21.5983C171.003 21.6282 171.394 21.6282 171.765 21.6182C172.518 21.5983 173.21 21.5485 173.21 21.5485C173.522 21.4289 173.823 21.419 174.094 21.4787C174.164 21.4987 174.224 21.5086 174.294 21.5385C174.355 21.5584 174.415 21.5883 174.475 21.6182C174.595 21.678 174.706 21.7477 174.806 21.8274C174.997 21.9768 175.157 22.1362 175.268 22.2658C175.268 22.2857 175.278 22.2956 175.288 22.3156C175.368 22.5347 175.448 22.7539 175.539 22.9731C175.619 23.1922 175.689 23.4114 175.769 23.6406C176.071 24.5471 176.331 25.4736 176.562 26.43C176.783 27.3864 176.954 28.3726 177.094 29.3788C177.124 29.6279 177.154 29.8869 177.184 30.136C177.184 30.1858 177.184 30.2456 177.205 30.2954C177.054 30.0961 176.903 29.857 176.783 29.588C176.753 29.5083 176.723 29.4386 176.693 29.3589C176.663 29.2792 176.633 29.1995 176.612 29.1198C176.562 28.9604 176.522 28.7811 176.502 28.5918C176.482 28.4025 176.442 28.2232 176.382 28.0339C176.331 27.8446 176.261 27.6554 176.191 27.4661C176.111 27.2768 176.02 27.0975 175.91 26.9281C175.81 26.7588 175.689 26.5894 175.559 26.44C175.428 26.2905 175.278 26.1511 175.127 26.0315C175.047 25.9717 174.967 25.912 174.876 25.8621C174.786 25.8123 174.706 25.7625 174.605 25.7227C174.234 25.5533 173.823 25.4637 173.361 25.4836C173.21 25.4836 173.06 25.4836 172.909 25.4836C172.759 25.4836 172.598 25.4836 172.438 25.4836C172.117 25.4836 171.785 25.4537 171.464 25.4437C171.133 25.4238 170.812 25.4039 170.501 25.384C170.19 25.364 169.879 25.3441 169.588 25.3242C168.454 25.2445 167.581 25.1747 167.581 25.1747C167.721 25.1847 167.962 25.2445 168.233 25.3341C168.504 25.4338 168.825 25.5633 169.156 25.7326C169.317 25.8123 169.477 25.912 169.628 26.0016C169.778 26.1012 169.939 26.2009 170.079 26.3005C170.22 26.4101 170.34 26.5197 170.451 26.6193C170.511 26.6791 170.561 26.7289 170.611 26.7787C170.631 26.8086 170.662 26.8285 170.682 26.8584C170.702 26.8883 170.722 26.9181 170.742 26.9381C170.882 27.1473 171.023 27.3366 171.163 27.5059C171.294 27.6753 171.414 27.8247 171.535 27.9642C171.785 28.2431 171.996 28.4922 172.187 28.7811C172.237 28.8508 172.327 28.9206 172.438 28.9903C172.548 29.0501 172.699 29.1198 172.859 29.1796C173.18 29.2991 173.592 29.4087 173.983 29.4984C174.375 29.588 174.756 29.6677 175.037 29.7275C175.318 29.7873 175.499 29.8172 175.499 29.8172C175.86 29.7773 176.171 29.8471 176.422 29.9865C176.683 30.126 176.893 30.3253 177.044 30.5345C177.134 30.654 177.205 30.7636 177.265 30.8831C177.265 30.8831 177.265 30.8831 177.265 30.9031C177.275 31.0326 177.285 31.1621 177.295 31.2916C177.295 31.4211 177.305 31.5506 177.315 31.6702C177.315 31.7997 177.335 31.9292 177.335 32.0587C177.335 32.1882 177.335 32.3177 177.345 32.4472C177.405 34.4995 177.235 36.6015 176.873 38.6836C176.843 38.8331 176.813 38.9825 176.783 39.1319C176.763 39.0722 176.743 39.0124 176.723 38.9526C176.683 38.8032 176.653 38.6438 176.622 38.4744C176.612 38.3947 176.602 38.3051 176.592 38.2154C176.592 38.1257 176.582 38.0361 176.582 37.9464C176.582 37.8568 176.582 37.7571 176.582 37.6675C176.582 37.5678 176.602 37.4782 176.612 37.3786C176.643 37.1793 176.663 36.9701 176.663 36.7709C176.663 36.5617 176.663 36.3525 176.633 36.1333C176.602 35.9241 176.562 35.7149 176.512 35.5057C176.452 35.2964 176.382 35.0972 176.291 34.9079C176.201 34.7186 176.091 34.5393 175.97 34.37C175.84 34.2006 175.699 34.0512 175.539 33.9117C175.208 33.6427 174.806 33.4435 174.324 33.3339C173.712 33.2044 173.04 33.0051 172.388 32.8059C172.056 32.7062 171.725 32.5967 171.404 32.497C171.083 32.3974 170.782 32.2978 170.491 32.1982C170.2 32.1085 169.929 32.0188 169.688 31.9491C169.568 31.9093 169.447 31.8794 169.347 31.8395C169.237 31.8096 169.136 31.7698 169.046 31.7399C168.685 31.6204 168.464 31.5407 168.464 31.5407C168.534 31.5705 168.624 31.6104 168.735 31.6702C168.785 31.7001 168.845 31.7299 168.905 31.7698C168.966 31.8096 169.026 31.8395 169.096 31.8893C169.226 31.969 169.357 32.0587 169.497 32.1683C169.568 32.2181 169.638 32.2679 169.708 32.3277C169.778 32.3875 169.849 32.4472 169.919 32.507C169.989 32.5668 170.059 32.6365 170.13 32.6963C170.2 32.7561 170.27 32.8258 170.33 32.8955C170.461 33.035 170.581 33.1745 170.702 33.3139C170.812 33.4534 170.912 33.6029 170.993 33.7423C171.033 33.8121 171.073 33.8818 171.103 33.9515C171.133 34.0213 171.163 34.091 171.183 34.1508C171.224 34.2803 171.274 34.3998 171.314 34.5094C171.354 34.619 171.394 34.7286 171.444 34.8382C171.484 34.9378 171.535 35.0374 171.575 35.1371C171.615 35.2367 171.655 35.3263 171.695 35.416C171.735 35.5057 171.775 35.5953 171.816 35.675C171.856 35.7647 171.886 35.8444 171.926 35.9241C171.996 36.0934 172.066 36.2528 172.117 36.4321C172.167 36.6115 172.388 36.8107 172.699 37.0199C173 37.2291 173.381 37.4483 173.752 37.6475C174.124 37.8468 174.495 38.0361 174.756 38.1656C175.027 38.2951 175.208 38.3848 175.208 38.3848C175.589 38.4445 175.88 38.594 176.111 38.8131C176.331 39.0223 176.482 39.2913 176.582 39.5404C176.612 39.6101 176.622 39.6799 176.643 39.7496C176.502 40.437 176.352 41.1144 176.181 41.7819C175.91 42.808 175.599 43.8043 175.258 44.7905C174.906 45.7868 174.525 46.7531 174.104 47.7095C174.104 47.6896 174.104 47.6796 174.104 47.6597C174.104 47.4903 174.104 47.3209 174.124 47.1416C174.144 46.9623 174.164 46.773 174.214 46.5837C174.264 46.3945 174.314 46.1952 174.395 45.996C174.716 45.199 174.876 44.2227 174.696 43.346C174.656 43.1268 174.595 42.9076 174.505 42.7084C174.415 42.5092 174.314 42.3099 174.184 42.1306C173.923 41.7719 173.562 41.4631 173.09 41.234C172.498 40.955 171.866 40.5864 171.244 40.1979C170.621 39.8193 170.009 39.4208 169.467 39.0722C168.404 38.3848 167.581 37.8568 167.581 37.8568C167.711 37.9464 167.912 38.1257 168.123 38.3748C168.233 38.4943 168.343 38.6338 168.454 38.7932C168.564 38.9426 168.675 39.112 168.785 39.2814C168.895 39.4507 168.996 39.63 169.096 39.8094C169.196 39.9887 169.287 40.178 169.357 40.3573C169.427 40.5366 169.497 40.7159 169.538 40.8853C169.578 41.0547 169.608 41.2141 169.618 41.3635C169.628 41.5129 169.638 41.6524 169.648 41.7819C169.658 41.9114 169.678 42.0409 169.698 42.1605C169.728 42.3996 169.768 42.6187 169.809 42.8279C169.879 43.2364 169.959 43.605 169.979 44.0035C169.989 44.2027 170.17 44.4618 170.421 44.7507C170.551 44.9001 170.702 45.0495 170.862 45.199C171.023 45.3484 171.183 45.4978 171.354 45.6473C171.685 45.9362 172.026 46.2052 172.267 46.4044C172.398 46.504 172.498 46.5837 172.568 46.6435C172.638 46.7033 172.679 46.7332 172.679 46.7332C173.06 46.8726 173.331 47.1018 173.512 47.3708C173.602 47.5003 173.672 47.6497 173.722 47.7991C173.772 47.9486 173.803 48.088 173.823 48.2375C173.823 48.2574 173.823 48.2773 173.823 48.2973C173.491 49.0245 173.14 49.7418 172.769 50.4292C171.816 52.1925 170.762 53.8263 169.638 55.2808C169.598 55.3406 169.558 55.3904 169.507 55.4402C169.538 55.3107 169.568 55.1912 169.618 55.0617C169.678 54.8823 169.758 54.6931 169.849 54.5137C169.939 54.3244 170.049 54.1451 170.19 53.9558C170.722 53.2087 171.113 52.2423 171.143 51.2959C171.153 50.8277 171.083 50.3595 170.892 49.9311C170.702 49.5027 170.401 49.1142 169.969 48.7854C169.698 48.5762 169.417 48.3471 169.136 48.098C168.855 47.8589 168.574 47.5899 168.293 47.3309C168.012 47.0719 167.741 46.8029 167.48 46.5439C167.219 46.2849 166.959 46.0358 166.718 45.7967C165.774 44.8603 165.052 44.143 165.052 44.143C165.112 44.2027 165.182 44.2924 165.253 44.402C165.323 44.5116 165.403 44.6411 165.493 44.8005C165.574 44.9499 165.664 45.1193 165.744 45.2986C165.825 45.4779 165.905 45.6672 165.975 45.8664C166.055 46.0657 166.116 46.2649 166.176 46.4742C166.236 46.6834 166.286 46.8926 166.316 47.0918C166.336 47.1914 166.346 47.2911 166.366 47.3907C166.376 47.4903 166.387 47.58 166.387 47.6696C166.387 47.8489 166.386 48.0283 166.366 48.1777C166.336 48.3271 166.326 48.4766 166.306 48.616C166.296 48.7555 166.276 48.885 166.266 49.0046C166.256 49.1341 166.246 49.2536 166.246 49.3632C166.246 49.4828 166.236 49.5924 166.226 49.7019C166.226 49.8115 166.226 49.9211 166.216 50.0207C166.216 50.1303 166.206 50.22 166.196 50.3296C166.196 50.4292 166.186 50.5288 166.176 50.6284C166.166 50.7281 166.146 50.8277 166.136 50.9273C166.116 51.0269 166.136 51.1564 166.196 51.2959C166.246 51.4354 166.326 51.6047 166.427 51.7741C166.527 51.9435 166.647 52.1327 166.768 52.322C166.898 52.5113 167.029 52.7006 167.169 52.8899C167.44 53.2585 167.711 53.6171 167.922 53.8761C168.123 54.1352 168.263 54.3045 168.263 54.3045C168.624 54.5337 168.835 54.8325 168.945 55.1414C169.056 55.4303 169.066 55.7391 169.036 56.018C168.093 57.1637 167.119 58.1998 166.136 59.0765C165.042 60.0528 163.938 60.8398 162.894 61.4475C162.944 61.3877 162.995 61.3279 163.055 61.2582C163.316 60.9593 163.627 60.6704 164.018 60.3915C164.41 60.1225 164.781 59.7738 165.092 59.3853C165.403 58.9868 165.654 58.5485 165.804 58.0802C165.845 57.9607 165.875 57.8511 165.895 57.7316C165.915 57.612 165.935 57.4925 165.945 57.3729C165.945 57.2534 165.955 57.1338 165.955 57.0143C165.955 56.8947 165.935 56.7752 165.915 56.6556C165.875 56.4165 165.804 56.1874 165.704 55.9583C165.594 55.7291 165.453 55.5 165.283 55.2808C165.062 55.0019 164.831 54.703 164.61 54.3942C164.389 54.0854 164.159 53.7566 163.938 53.4278C163.717 53.109 163.506 52.7803 163.296 52.4615C163.085 52.1527 162.884 51.8438 162.694 51.5549C162.503 51.266 162.322 50.997 162.162 50.7579C162.001 50.5188 161.851 50.2997 161.73 50.1204C161.489 49.7617 161.349 49.5525 161.349 49.5525C161.439 49.692 161.56 49.951 161.67 50.2798C161.72 50.4391 161.78 50.6185 161.82 50.8177C161.83 50.8675 161.841 50.9173 161.861 50.9672C161.861 51.017 161.881 51.0668 161.891 51.1166C161.911 51.2162 161.931 51.3158 161.951 51.4254C161.991 51.6346 162.011 51.8438 162.031 52.053C162.051 52.2623 162.051 52.4715 162.051 52.6707C162.051 52.8699 162.031 53.0592 162.001 53.2286C161.991 53.3183 161.971 53.398 161.951 53.4777C161.931 53.5474 161.901 53.6271 161.881 53.6869C161.851 53.7566 161.83 53.8164 161.8 53.8861C161.77 53.9459 161.75 54.0057 161.73 54.0654C161.69 54.185 161.65 54.3045 161.61 54.4141C161.539 54.6333 161.479 54.8425 161.429 55.0318C161.399 55.1314 161.379 55.2211 161.349 55.3107C161.319 55.4004 161.299 55.49 161.269 55.5797C161.258 55.6195 161.238 55.6694 161.228 55.7092L161.208 55.7789L161.178 55.8387C161.148 55.9184 161.108 56.0081 161.068 56.0878C161.048 56.1276 161.038 56.1874 161.028 56.2472C161.028 56.3069 161.028 56.3667 161.028 56.4464C161.038 56.5959 161.078 56.7752 161.118 56.9744C161.208 57.3629 161.349 57.8312 161.489 58.2795C161.63 58.7378 161.77 59.1661 161.871 59.4849C161.981 59.8037 162.041 60.0129 162.041 60.0129C162.292 60.3716 162.392 60.7302 162.372 61.0789C162.372 61.1685 162.362 61.2482 162.342 61.3379C162.322 61.4176 162.302 61.4973 162.282 61.577C162.252 61.6567 162.222 61.7364 162.192 61.8061C162.192 61.8161 162.182 61.8261 162.172 61.836C161.77 62.0452 161.379 62.2246 161.018 62.374C160.887 62.4238 160.767 62.4736 160.646 62.5234C160.526 62.5633 160.405 62.6131 160.285 62.6529C160.165 62.6928 160.054 62.7326 159.934 62.7625C159.823 62.7924 159.713 62.8323 159.603 62.8621C158.73 63.0913 158.037 63.1809 157.565 63.2208C157.505 63.2208 157.455 63.2208 157.395 63.2307C157.365 63.2307 157.345 63.2307 157.325 63.2307C157.305 63.2307 157.274 63.2307 157.254 63.2307C157.164 63.2307 157.084 63.2307 157.024 63.2307C156.903 63.2307 155.257 63.1012 155.257 63.1012C155.257 63.1012 152.177 62.9518 151.394 62.5832C150.982 62.3939 150.471 62.4138 150.149 62.7127C149.858 62.9817 150.079 63.4698 150.25 64.227C150.611 65.8409 151.976 66.7773 151.765 68.1721C151.765 68.1721 152.809 66.6279 152.026 65.3228C152.026 65.3228 152.146 63.958 154.846 64.227C154.846 64.227 155.227 64.2469 155.669 64.2768C155.067 64.9742 154.495 66.3788 156.08 68.7499C158.328 72.1271 158.208 73.741 158.168 73.9801C158.228 73.6115 158.84 69.5668 157.445 68.182C155.609 66.3589 156.361 65.0937 157.254 64.3366C157.274 64.3366 157.284 64.3366 157.305 64.3366H157.385C157.385 64.3366 157.445 64.3366 157.475 64.3366C157.535 64.3366 157.596 64.3366 157.666 64.3266C158.198 64.2868 158.98 64.1871 159.944 63.9281C160.064 63.8982 160.185 63.8584 160.315 63.8185C160.436 63.7787 160.566 63.7488 160.696 63.699C160.827 63.6591 160.957 63.6093 161.098 63.5595C161.228 63.5097 161.369 63.4499 161.509 63.4001C161.931 63.2307 162.372 63.0215 162.814 62.7924C163.105 62.8123 163.416 62.8721 163.707 62.9717C164.058 63.1112 164.389 63.3304 164.62 63.7089C164.62 63.7089 164.801 63.8484 165.102 64.0576C165.403 64.2569 165.825 64.5258 166.286 64.7649C166.517 64.8845 166.758 65.004 167.009 65.1037C167.26 65.2033 167.5 65.293 167.741 65.3527C168.213 65.4723 168.665 65.5121 168.966 65.3926C169.116 65.3328 169.267 65.283 169.397 65.2431C169.538 65.2033 169.658 65.1734 169.788 65.1435C170.039 65.0837 170.29 65.0439 170.551 64.9941C170.682 64.9642 170.822 64.9343 170.963 64.8945C171.033 64.8745 171.113 64.8546 171.183 64.8247C171.264 64.8048 171.334 64.7749 171.424 64.745C171.585 64.6852 171.765 64.6155 171.956 64.5259C172.147 64.4362 172.347 64.3266 172.568 64.1971C172.789 64.0676 173.05 63.958 173.341 63.8584C173.642 63.7588 173.963 63.6691 174.304 63.5894C174.656 63.5097 175.007 63.44 175.378 63.3702C175.749 63.3104 176.121 63.2407 176.492 63.1909C177.967 62.9717 179.362 62.8223 179.784 62.8024C179.784 62.8024 179.703 62.8024 179.553 62.7924C179.402 62.7924 179.181 62.7725 178.911 62.7526C178.64 62.7326 178.308 62.6928 177.957 62.6529C177.596 62.6131 177.195 62.5633 176.783 62.4935C175.95 62.364 175.037 62.1847 174.164 61.9456C173.291 61.7165 172.468 61.4276 171.796 61.1088C171.264 60.8597 170.682 60.7103 170.079 60.6306C169.778 60.5907 169.477 60.5708 169.176 60.5708C169.026 60.5708 168.875 60.5708 168.725 60.5808C168.574 60.5808 168.424 60.6007 168.283 60.6107C168.213 60.6107 168.133 60.6306 168.062 60.6405C167.992 60.6405 167.912 60.6605 167.842 60.6704C167.691 60.6904 167.551 60.7202 167.41 60.7501C167.27 60.78 167.129 60.8099 166.989 60.8498C166.848 60.8896 166.718 60.9295 166.587 60.9793C166.457 61.0191 166.326 61.0689 166.196 61.1187C166.065 61.1685 165.945 61.2283 165.825 61.2881C165.584 61.4076 165.363 61.5471 165.142 61.6866C165.042 61.7563 164.931 61.836 164.821 61.8958C164.711 61.9556 164.6 62.0153 164.49 62.0652C164.279 62.1648 164.058 62.2445 163.848 62.2943C163.797 62.3142 163.747 62.3242 163.687 62.3341C163.647 62.3341 163.597 62.3541 163.557 62.364C164.66 61.7165 165.804 60.8996 166.928 59.8834C167.992 58.937 169.046 57.8212 170.049 56.5759C170.17 56.5361 170.29 56.4863 170.431 56.4663C170.601 56.4265 170.782 56.4066 170.963 56.4066C171.324 56.4066 171.705 56.4863 172.056 56.7353C172.056 56.7353 172.107 56.7552 172.207 56.7752C172.297 56.8051 172.438 56.8349 172.608 56.8848C172.95 56.9645 173.411 57.074 173.913 57.1438C174.405 57.2235 174.937 57.2733 175.388 57.2534C175.499 57.2534 175.619 57.2434 175.719 57.2334C175.82 57.2235 175.92 57.2036 176.01 57.1836C176.191 57.1338 176.342 57.074 176.462 56.9844C176.572 56.8947 176.683 56.815 176.783 56.7552C176.883 56.6855 176.994 56.6257 177.094 56.566C177.195 56.5062 177.295 56.4564 177.405 56.3966C177.506 56.3468 177.616 56.287 177.716 56.2272C178.148 55.9882 178.63 55.6893 179.252 55.0617C179.563 54.7429 180.045 54.444 180.596 54.1551C180.877 54.0156 181.168 53.8761 181.48 53.7367C181.781 53.5972 182.102 53.4677 182.413 53.3481C182.724 53.2286 183.025 53.109 183.326 52.9995C183.617 52.8899 183.898 52.8002 184.149 52.7006C184.651 52.5312 185.042 52.4017 185.243 52.3619C185.243 52.3619 185.163 52.3718 185.022 52.3918C184.882 52.4117 184.681 52.4416 184.42 52.4715C184.169 52.5013 183.868 52.5412 183.527 52.581C183.186 52.6209 182.814 52.6508 182.423 52.6707C182.021 52.7006 181.61 52.7205 181.189 52.7305C180.767 52.7305 180.326 52.7305 179.904 52.7305C179.693 52.7305 179.483 52.7106 179.272 52.7006C179.061 52.6807 178.86 52.6707 178.65 52.6508C178.248 52.6109 177.867 52.5611 177.516 52.4914C177.235 52.4316 176.954 52.4117 176.673 52.4117C176.392 52.4117 176.111 52.4216 175.83 52.4615C175.278 52.5412 174.726 52.6906 174.224 52.9098C173.21 53.3481 172.337 53.9957 171.785 54.7927C171.645 54.9919 171.494 55.1712 171.344 55.3306C171.183 55.49 171.023 55.6295 170.852 55.7491C170.762 55.8188 170.672 55.8686 170.581 55.9184C171.735 54.4141 172.819 52.7404 173.803 50.9273C174.224 50.1502 174.615 49.3333 174.997 48.5065C175.248 48.3371 175.529 48.1877 175.85 48.108C176.02 48.0681 176.201 48.0482 176.382 48.0482C176.562 48.0482 176.753 48.098 176.944 48.1677C176.944 48.1677 177.807 48.2176 178.76 48.1478C179.242 48.1179 179.733 48.0482 180.155 47.9386C180.576 47.829 180.918 47.6796 181.078 47.4704C181.158 47.3708 181.239 47.2811 181.319 47.1914C181.399 47.1018 181.48 47.0221 181.56 46.9523C181.72 46.8029 181.891 46.6535 182.062 46.4941C182.232 46.3347 182.413 46.1554 182.614 45.9262C182.804 45.6971 183.005 45.4281 183.226 45.0695C183.336 44.8901 183.477 44.7108 183.647 44.5215C183.828 44.3422 184.019 44.1529 184.239 43.9636C184.35 43.874 184.46 43.7744 184.58 43.6847C184.691 43.595 184.811 43.4954 184.942 43.4058C185.183 43.2165 185.444 43.0372 185.694 42.8578C185.945 42.6785 186.196 42.5092 186.437 42.3498C186.678 42.1904 186.899 42.0409 187.109 41.9114C187.32 41.7819 187.501 41.6624 187.661 41.5727C187.812 41.483 187.942 41.4133 188.023 41.3635C188.023 41.3635 187.952 41.3934 187.832 41.4432L187.872 41.3735Z" fill="#D1D5DB"/>
</svg>
