<svg width="179" height="74" viewBox="0 0 179 74" fill="none" xmlns="http://www.w3.org/2000/svg">
<path d="M37.6012 62.6179C36.8184 62.9765 33.7376 63.1359 33.7376 63.1359C33.7376 63.1359 32.0918 63.2654 31.9714 63.2654C31.9112 63.2654 31.8309 63.2654 31.7406 63.2654C31.7205 63.2654 31.6904 63.2654 31.6703 63.2654C31.6503 63.2654 31.6202 63.2654 31.6001 63.2654C31.5499 63.2654 31.4897 63.2654 31.4295 63.2555C30.9578 63.2256 30.2554 63.1359 29.3923 62.8968C29.2819 62.8669 29.1716 62.8271 29.0612 62.7972C28.9508 62.7673 28.8304 62.7274 28.7099 62.6876C28.5895 62.6478 28.4691 62.6079 28.3487 62.5581C28.2282 62.5083 28.0978 62.4585 27.9774 62.4087C27.606 62.2592 27.2147 62.0699 26.8233 61.8707C26.8233 61.8607 26.8133 61.8508 26.8032 61.8408C26.7631 61.7611 26.733 61.6914 26.7129 61.6117C26.6828 61.532 26.6627 61.4523 26.6527 61.3726C26.6326 61.2929 26.6326 61.2032 26.6226 61.1136C26.6126 60.7649 26.7029 60.4062 26.9538 60.0476C26.9538 60.0476 27.024 59.8384 27.1244 59.5196C27.2247 59.2008 27.3652 58.7724 27.5057 58.3141C27.6462 57.8658 27.7867 57.3976 27.877 57.0091C27.9272 56.8098 27.9573 56.6305 27.9673 56.4811C27.9673 56.4113 27.9673 56.3416 27.9673 56.2818C27.9673 56.2221 27.9472 56.1723 27.9272 56.1224C27.887 56.0328 27.8569 55.9531 27.8268 55.8734L27.8068 55.8136L27.7867 55.7439C27.7867 55.7439 27.7566 55.6542 27.7465 55.6144C27.7164 55.5247 27.6964 55.435 27.6663 55.3454C27.6362 55.2557 27.6161 55.1561 27.586 55.0664C27.5358 54.8772 27.4756 54.6679 27.3953 54.4488C27.3552 54.3392 27.3251 54.2196 27.2749 54.1001C27.2548 54.0403 27.2247 53.9805 27.2046 53.9208C27.1846 53.861 27.1545 53.7913 27.1244 53.7215C27.0942 53.6518 27.0742 53.5821 27.0541 53.5123C27.034 53.4326 27.014 53.3529 27.0039 53.2633C26.9738 53.0839 26.9538 52.9046 26.9538 52.7054C26.9538 52.5061 26.9538 52.3069 26.9738 52.0877C26.9939 51.8785 27.014 51.6693 27.0541 51.4601C27.0742 51.3605 27.0942 51.2509 27.1143 51.1513C27.1244 51.1014 27.1344 51.0516 27.1444 51.0018C27.1545 50.952 27.1645 50.9022 27.1745 50.8524C27.2247 50.6531 27.2749 50.4738 27.3251 50.3144C27.4354 49.9857 27.5458 49.7266 27.6462 49.5872C27.6462 49.5872 27.5057 49.8063 27.2648 50.155C27.1444 50.3343 27.0039 50.5535 26.8333 50.7926C26.6728 51.0317 26.4921 51.3106 26.3015 51.5896C26.1108 51.8785 25.9101 52.1873 25.6993 52.4962C25.4886 52.815 25.2678 53.1437 25.0571 53.4625C24.8363 53.7913 24.6155 54.12 24.3847 54.4289C24.1639 54.7377 23.9331 55.0366 23.7124 55.3155C23.5317 55.5347 23.3912 55.7538 23.2909 55.9929C23.1805 56.2221 23.1203 56.4512 23.0801 56.6903C23.0601 56.8098 23.05 56.9294 23.04 57.0489C23.04 57.1685 23.04 57.288 23.05 57.4076C23.0601 57.5271 23.0801 57.6467 23.1002 57.7662C23.1203 57.8858 23.1604 57.9954 23.1905 58.1149C23.341 58.5831 23.5919 59.0215 23.903 59.42C24.2141 59.8085 24.5854 60.1671 24.9768 60.4262C25.3581 60.6951 25.6793 60.994 25.9402 61.2929C25.9904 61.3527 26.0405 61.4224 26.1008 61.4822C25.0571 60.8745 23.9632 60.0874 22.8594 59.1111C21.8759 58.2344 20.9025 57.1984 19.9592 56.0527C19.9391 55.7638 19.9491 55.4649 20.0495 55.176C20.1599 54.8572 20.3806 54.5683 20.7319 54.3392C20.7319 54.3392 20.8724 54.1698 21.0731 53.9108C21.2838 53.6518 21.5548 53.3031 21.8257 52.9245C21.9662 52.7353 22.0967 52.546 22.2271 52.3567C22.3576 52.1674 22.468 51.9781 22.5683 51.8088C22.6687 51.6294 22.749 51.47 22.7991 51.3306C22.8493 51.1911 22.8694 51.0616 22.8594 50.962C22.8393 50.8623 22.8293 50.7627 22.8192 50.6631C22.8092 50.5635 22.7991 50.4639 22.7991 50.3642C22.7991 50.2646 22.7891 50.165 22.7791 50.0554C22.7791 49.9558 22.7791 49.8462 22.769 49.7366C22.769 49.627 22.769 49.5174 22.749 49.3979C22.749 49.2883 22.7389 49.1588 22.7289 49.0392C22.7189 48.9097 22.6988 48.7802 22.6888 48.6507C22.6687 48.5112 22.6587 48.3718 22.6285 48.2124C22.5984 48.0629 22.5984 47.8936 22.6085 47.7043C22.6085 47.6146 22.6185 47.515 22.6285 47.4254C22.6386 47.3257 22.6586 47.2261 22.6787 47.1265C22.7189 46.9272 22.759 46.718 22.8192 46.5088C22.8794 46.2996 22.9396 46.1004 23.0199 45.9011C23.0902 45.7019 23.1705 45.5026 23.2507 45.3333C23.331 45.1539 23.4213 44.9846 23.5016 44.8352C23.5819 44.6857 23.6622 44.5562 23.7425 44.4367C23.8227 44.3271 23.883 44.2374 23.9432 44.1776C23.9432 44.1776 23.2206 44.9049 22.2773 45.8314C22.0365 46.0705 21.7856 46.3195 21.5146 46.5786C21.2437 46.8376 20.9727 47.0966 20.7018 47.3656C20.4208 47.6246 20.1398 47.8836 19.8588 48.1327C19.5778 48.3817 19.2968 48.6109 19.0259 48.8201C18.5944 49.1488 18.2933 49.5374 18.1026 49.9657C17.912 50.3941 17.8417 50.8623 17.8517 51.3306C17.8819 52.277 18.2833 53.2433 18.8051 53.9905C18.9356 54.1798 19.0459 54.3591 19.1463 54.5484C19.2467 54.7377 19.3169 54.917 19.3771 55.0963C19.4273 55.2258 19.4574 55.3553 19.4875 55.4749C19.4474 55.4251 19.4072 55.3753 19.357 55.3155C18.2331 53.861 17.1794 52.2272 16.226 50.4639C15.8547 49.7765 15.5035 49.0592 15.1723 48.3319C15.1723 48.312 15.1723 48.2921 15.1723 48.2721C15.1924 48.1227 15.2225 47.9832 15.2727 47.8338C15.3229 47.6844 15.3931 47.5449 15.4834 47.4054C15.6641 47.1364 15.925 46.9073 16.3163 46.7678C16.3163 46.7678 16.3565 46.7379 16.4267 46.6782C16.497 46.6184 16.5973 46.5387 16.7278 46.4391C16.9787 46.2398 17.3098 45.9709 17.641 45.6819C17.8116 45.5325 17.9722 45.3831 18.1327 45.2336C18.2933 45.0842 18.4438 44.9348 18.5743 44.7853C18.8352 44.4964 19.0058 44.2374 19.0158 44.0382C19.0359 43.6397 19.1162 43.2711 19.1864 42.8626C19.2266 42.6534 19.2667 42.4342 19.2968 42.1951C19.3169 42.0756 19.3269 41.9461 19.347 41.8166C19.357 41.6871 19.3671 41.5476 19.3771 41.3982C19.3871 41.2487 19.4173 41.0893 19.4574 40.92C19.5076 40.7506 19.5678 40.5713 19.638 40.392C19.7083 40.2126 19.7986 40.0234 19.8989 39.844C19.9993 39.6647 20.0997 39.4854 20.21 39.316C20.3204 39.1467 20.4308 38.9773 20.5412 38.8279C20.6516 38.6784 20.772 38.539 20.8724 38.4095C21.0831 38.1604 21.2838 37.9811 21.4143 37.8914C21.4143 37.8914 20.5914 38.4194 19.5276 39.1068C18.9857 39.4555 18.3736 39.854 17.7514 40.2326C17.1292 40.6111 16.497 40.9797 15.9049 41.2686C15.4433 41.4978 15.072 41.7966 14.8111 42.1653C14.6806 42.3446 14.5702 42.5438 14.4799 42.7431C14.3896 42.9523 14.3294 43.1615 14.2892 43.3807C14.1186 44.2673 14.2691 45.2336 14.5903 46.0306C14.6706 46.2299 14.7308 46.4291 14.7709 46.6184C14.8211 46.8077 14.8512 46.997 14.8612 47.1763C14.8813 47.3556 14.8813 47.5349 14.8813 47.6943C14.8813 47.7143 14.8813 47.7242 14.8813 47.7441C14.4598 46.7977 14.0785 45.8214 13.7272 44.8252C13.376 43.8389 13.075 42.8327 12.804 41.8166C12.6234 41.1391 12.4728 40.4617 12.3424 39.7843C12.3624 39.7145 12.3825 39.6448 12.4026 39.5751C12.5029 39.316 12.6535 39.057 12.8742 38.8478C13.095 38.6386 13.3961 38.4792 13.7774 38.4194C13.7774 38.4194 13.9581 38.3397 14.229 38.2003C14.5 38.0707 14.8612 37.8815 15.2325 37.6822C15.6038 37.483 15.9852 37.2638 16.2862 37.0546C16.5873 36.8454 16.8081 36.6362 16.8683 36.4668C16.9185 36.2875 16.9887 36.1281 17.059 35.9587C17.0991 35.879 17.1292 35.7894 17.1693 35.7097C17.2095 35.63 17.2496 35.5403 17.2898 35.4507C17.3299 35.361 17.3701 35.2713 17.4102 35.1717C17.4503 35.0721 17.5005 34.9824 17.5407 34.8728C17.5808 34.7633 17.631 34.6636 17.6711 34.5441C17.7113 34.4245 17.7614 34.305 17.8016 34.1854C17.8216 34.1257 17.8517 34.0559 17.8819 33.9862C17.912 33.9165 17.9521 33.8467 17.9922 33.777C18.0725 33.6375 18.1729 33.498 18.2833 33.3486C18.3937 33.2091 18.5241 33.0697 18.6546 32.9302C18.7148 32.8605 18.785 32.8007 18.8553 32.7309C18.9255 32.6712 18.9958 32.6014 19.066 32.5417C19.1363 32.4819 19.2065 32.4221 19.2768 32.3623C19.347 32.3026 19.4173 32.2528 19.4875 32.2029C19.628 32.0934 19.7685 32.0037 19.8889 31.924C19.9592 31.8842 20.0194 31.8443 20.0796 31.8045C20.1398 31.7646 20.2 31.7347 20.2502 31.7048C20.3606 31.6451 20.4509 31.6052 20.5211 31.5753C20.5211 31.5753 20.3004 31.6451 19.9391 31.7746C19.8488 31.8045 19.7484 31.8343 19.638 31.8742C19.5276 31.9041 19.4173 31.9439 19.2968 31.9838C19.056 32.0635 18.775 32.1432 18.494 32.2328C18.203 32.3225 17.9019 32.4221 17.5808 32.5317C17.2597 32.6313 16.9285 32.7409 16.5973 32.8405C15.935 33.0497 15.2727 33.239 14.6605 33.3685C14.1788 33.4781 13.7774 33.6774 13.4463 33.9464C13.2757 34.0858 13.1352 34.2353 13.0147 34.4046C12.8843 34.574 12.7739 34.7533 12.6936 34.9426C12.6033 35.1319 12.523 35.3411 12.4728 35.5403C12.4227 35.7495 12.3825 35.9587 12.3524 36.1679C12.3323 36.3772 12.3223 36.5963 12.3223 36.8055C12.3223 37.0147 12.3424 37.214 12.3725 37.4132C12.3825 37.5129 12.3926 37.6025 12.4026 37.7021C12.4026 37.8018 12.4126 37.8914 12.4026 37.9811C12.4026 38.0707 12.4026 38.1604 12.3926 38.2501C12.3926 38.3397 12.3825 38.4194 12.3624 38.5091C12.3424 38.6784 12.3022 38.8378 12.2621 38.9873C12.242 39.0471 12.2219 39.1068 12.2019 39.1666C12.1718 39.0172 12.1417 38.8677 12.1116 38.7183C11.7503 36.6461 11.5797 34.5441 11.6399 32.4819C11.6399 32.3524 11.6399 32.2229 11.6499 32.0934C11.6499 31.9639 11.66 31.8343 11.67 31.7048C11.67 31.5753 11.6901 31.4558 11.6901 31.3263C11.7001 31.1968 11.7102 31.0672 11.7202 30.9377C11.7202 30.9377 11.7202 30.9278 11.7202 30.9178C11.7804 30.8082 11.8506 30.6887 11.941 30.5691C12.0915 30.3599 12.3022 30.1607 12.5632 30.0212C12.8241 29.8817 13.1251 29.812 13.4864 29.8518C13.4864 29.8518 13.667 29.822 13.948 29.7622C14.229 29.7024 14.6003 29.6227 15.0017 29.5331C15.3931 29.4334 15.7945 29.3338 16.1257 29.2143C16.2862 29.1545 16.4368 29.0947 16.5472 29.025C16.6676 28.9652 16.7579 28.8955 16.798 28.8158C16.9887 28.5269 17.1995 28.2778 17.4503 27.9989C17.5708 27.8594 17.6912 27.7099 17.8216 27.5406C17.9621 27.3712 18.0926 27.1919 18.2431 26.9727C18.2632 26.9528 18.2833 26.9229 18.3033 26.893C18.3234 26.8632 18.3435 26.8432 18.3736 26.8133C18.4238 26.7536 18.4739 26.7038 18.5341 26.6539C18.6445 26.5444 18.775 26.4348 18.9055 26.3352C19.0459 26.2355 19.1965 26.1259 19.347 26.0363C19.5076 25.9367 19.6581 25.847 19.8187 25.7673C20.1498 25.5979 20.471 25.4684 20.7419 25.3688C21.0229 25.2692 21.2537 25.2194 21.3942 25.2094C21.3942 25.2094 20.5211 25.2692 19.3871 25.3588C19.0961 25.3788 18.785 25.3987 18.4739 25.4186C18.1628 25.4385 17.8317 25.4684 17.5105 25.4784C17.1894 25.4983 16.8583 25.5083 16.5371 25.5182C16.3766 25.5182 16.216 25.5182 16.0655 25.5182C15.9149 25.5182 15.7644 25.5182 15.6139 25.5182C15.1523 25.4983 14.7408 25.588 14.3695 25.7573C14.2792 25.7972 14.1889 25.847 14.0985 25.8968C14.0082 25.9466 13.9279 26.0064 13.8577 26.0662C13.6971 26.1857 13.5566 26.3252 13.4161 26.4746C13.2757 26.6241 13.1653 26.7934 13.0649 26.9628C12.9646 27.1321 12.8642 27.3214 12.7839 27.5007C12.7137 27.69 12.6434 27.8793 12.5933 28.0686C12.5431 28.2579 12.5029 28.4472 12.4728 28.6265C12.4528 28.8158 12.4126 28.9851 12.3624 29.1545C12.3424 29.2342 12.3123 29.3139 12.2822 29.3936C12.2521 29.4733 12.222 29.543 12.1918 29.6227C12.0714 29.8917 11.9209 30.1308 11.7804 30.33C11.7804 30.2802 11.7804 30.2304 11.8005 30.1706C11.8306 29.9216 11.8607 29.6626 11.8908 29.4135C12.0212 28.4073 12.2019 27.421 12.4227 26.4647C12.6434 25.5083 12.9144 24.5718 13.2154 23.6752C13.2957 23.4461 13.376 23.2269 13.4463 23.0077C13.5265 22.7886 13.6169 22.5694 13.6971 22.3502C13.6971 22.3303 13.7072 22.3203 13.7172 22.3004C13.8176 22.1709 13.9781 22.0115 14.1788 21.8621C14.2792 21.7923 14.3896 21.7126 14.51 21.6529C14.5702 21.623 14.6304 21.5931 14.6906 21.5732C14.7508 21.5532 14.8211 21.5333 14.8913 21.5134C15.1623 21.4536 15.4533 21.4536 15.7744 21.5831C15.7744 21.5831 16.4669 21.6429 17.2195 21.6529C17.6009 21.6628 17.9922 21.6529 18.3134 21.6329C18.6445 21.6031 18.9055 21.5433 19.0259 21.4337C19.2768 21.2145 19.5377 21.0352 19.8387 20.836C19.909 20.7861 19.9893 20.7363 20.0695 20.6766C20.1498 20.6168 20.2301 20.557 20.3104 20.4972C20.481 20.3777 20.6516 20.2283 20.8423 20.0689C21.0329 19.8995 21.3039 19.7501 21.625 19.6006C21.7856 19.5309 21.9461 19.4711 22.1167 19.4114C22.2071 19.3815 22.2873 19.3516 22.3676 19.3317C22.4579 19.3018 22.5382 19.2818 22.6285 19.252C23.3109 19.0627 23.9733 18.973 24.2442 19.0029C24.2442 19.0029 24.0435 18.983 23.7023 18.9431C23.5317 18.9232 23.331 18.8933 23.1002 18.8634C22.8694 18.8335 22.6185 18.7937 22.3476 18.7638C21.8057 18.6941 21.1935 18.6044 20.5914 18.4948C19.9893 18.3952 19.3871 18.2657 18.8553 18.1162C18.4438 17.9967 18.0424 17.9867 17.6611 18.0565C17.2797 18.1262 16.9285 18.2856 16.6074 18.4948C16.5271 18.5546 16.4468 18.6044 16.3766 18.6642C16.3063 18.724 16.226 18.7837 16.1558 18.8535C16.0153 18.983 15.8848 19.1224 15.7644 19.2719C15.644 19.4213 15.5436 19.5807 15.4433 19.7401C15.3931 19.8198 15.3429 19.8995 15.3028 19.9792C15.2626 20.0589 15.2225 20.1386 15.1824 20.2183C15.1121 20.3777 15.0318 20.5271 14.9415 20.6566C14.8512 20.7961 14.7609 20.9157 14.6605 21.0352C14.5602 21.1448 14.4598 21.2544 14.3595 21.354C14.2591 21.4437 14.1588 21.5333 14.0584 21.613C14.0283 21.6429 13.9982 21.6628 13.9581 21.6828C13.9982 21.5732 14.0484 21.4735 14.0885 21.364C14.1287 21.2544 14.1788 21.1548 14.229 21.0551C14.2792 20.9455 14.3193 20.8459 14.3695 20.7463C14.4197 20.6467 14.4598 20.5371 14.51 20.4375C14.6103 20.2382 14.7007 20.039 14.801 19.8397C14.9014 19.6405 15.0017 19.4512 15.1021 19.252C15.1523 19.1523 15.2024 19.0627 15.2526 18.963C15.3028 18.8734 15.353 18.7738 15.4132 18.6841C15.4633 18.5944 15.5135 18.4948 15.5637 18.4052C15.5938 18.3553 15.6139 18.3155 15.644 18.2657C15.6741 18.2159 15.6942 18.176 15.7243 18.1262C15.8347 17.9369 15.935 17.7576 16.0454 17.5783C16.1558 17.399 16.2662 17.2196 16.3665 17.0503C16.4167 16.9606 16.4669 16.871 16.5271 16.7913C16.5773 16.7016 16.6375 16.6219 16.6877 16.5322C17.1593 15.795 17.641 15.1076 18.1127 14.47L18.1327 14.49C18.1327 14.49 18.203 14.4202 18.3334 14.3306C18.4639 14.231 18.6445 14.1214 18.8653 14.0217C19.0861 13.9221 19.3269 13.8524 19.5879 13.8524C19.8488 13.8524 20.1197 13.9122 20.3706 14.0915C20.3706 14.0915 20.9928 14.2808 21.6752 14.4402C22.0164 14.5199 22.3777 14.5896 22.6888 14.6095C22.9999 14.6394 23.2608 14.6294 23.4013 14.5398C23.6923 14.3704 23.9833 14.2409 24.3145 14.0915C24.6356 13.9321 25.0069 13.7528 25.4485 13.4738C25.6692 13.3343 25.9703 13.2048 26.3015 13.1052C26.6326 12.9956 26.9939 12.9159 27.3451 12.8462C28.0476 12.7167 28.72 12.6569 28.9708 12.7067C28.9708 12.7067 28.7802 12.6768 28.459 12.6071C28.1379 12.5473 27.6863 12.4477 27.1846 12.3282C26.171 12.0891 24.9266 11.7603 24.0034 11.3419C23.2708 11.0131 22.5081 11.0928 21.8358 11.3917C21.6652 11.4614 21.5046 11.5511 21.344 11.6507C21.1835 11.7503 21.0329 11.8599 20.8924 11.9795C20.7519 12.099 20.6215 12.2186 20.491 12.3481C20.4308 12.4079 20.3706 12.4776 20.3104 12.5473C20.2502 12.6071 20.2 12.6768 20.1498 12.7466C20.0495 12.8761 19.9391 12.9956 19.8287 13.1052C19.7183 13.2148 19.5979 13.3144 19.4875 13.3941C19.3671 13.4738 19.2567 13.5535 19.1363 13.6233C19.0158 13.693 18.9055 13.7528 18.8051 13.8026C18.7047 13.8424 18.6144 13.8823 18.5341 13.9122C18.785 13.5834 19.0259 13.2646 19.2667 12.9657C19.5377 12.627 19.8086 12.2983 20.0595 11.9994C20.491 11.4814 22.0866 9.16014 22.6285 8.37312C22.9999 8.09417 23.4514 7.89493 23.9532 7.90489C23.9532 7.90489 27.024 7.02821 27.3351 6.23122C27.6462 5.43424 28.0877 4.81657 28.4892 3.55136C28.8906 2.28615 30.6467 0.353462 31.2087 0.034668C31.2087 0.034668 27.8268 1.91754 25.3581 2.46547C23.4113 2.90381 22.7189 4.98593 22.7189 6.63968C22.7189 7.24738 22.5182 7.78534 22.2673 8.21372C20.7921 9.82761 18.7349 12.099 18.5341 12.3481C18.3535 12.5772 18.1428 12.8263 17.932 13.0654C17.932 12.9956 17.9421 12.9259 17.9521 12.8462C17.9922 12.5971 18.0725 12.3282 18.1929 12.0392C18.2532 11.8898 18.3334 11.7503 18.4238 11.6009C18.5141 11.4614 18.6245 11.312 18.7449 11.1725C19.2467 10.6047 19.7183 9.89735 19.9491 9.14021C20.0695 8.76165 20.1197 8.37312 20.0896 7.99455C20.0595 7.61598 19.9391 7.24738 19.7083 6.88873C19.1162 6.00209 18.6044 4.74684 18.2532 3.72072C18.0826 3.20268 17.9421 2.74441 17.8417 2.41566C17.7514 2.0869 17.7012 1.88766 17.7012 1.88766C17.7715 2.15664 17.7414 2.86396 17.631 3.65098C17.5708 4.03951 17.4905 4.44797 17.3901 4.82654C17.2898 5.2051 17.1593 5.55378 17.0188 5.83273C16.4267 6.92858 16.3063 7.61598 15.9852 8.35319C15.8246 8.73176 16.1056 9.4889 16.4468 10.1564C16.6174 10.4851 16.798 10.794 16.9285 11.0131C17.069 11.2323 17.1593 11.3718 17.1593 11.3718C17.4303 11.571 17.5708 11.8201 17.651 12.0791C17.7213 12.3381 17.7113 12.6071 17.6811 12.8562C17.651 13.1052 17.5808 13.3244 17.5206 13.4838C17.5206 13.5137 17.5005 13.5236 17.5005 13.5436C16.8783 14.2708 16.226 15.0479 15.6641 15.9245C15.6038 16.0142 15.5537 16.1039 15.4935 16.1836C15.4332 16.2732 15.3831 16.3629 15.3229 16.4525C15.2125 16.6319 15.1021 16.8112 14.9917 17.0005C14.8813 17.1898 14.7709 17.3691 14.6706 17.5584C14.6405 17.6082 14.6204 17.648 14.5903 17.6978C14.5602 17.7476 14.5401 17.7975 14.51 17.8473C14.4598 17.9469 14.4096 18.0366 14.3494 18.1362C14.2993 18.2358 14.239 18.3354 14.1889 18.4251C14.1387 18.5247 14.0885 18.6243 14.0283 18.724C13.9279 18.9232 13.8176 19.1224 13.7172 19.3317C13.6169 19.5409 13.5165 19.7501 13.4161 19.9493C13.366 20.0589 13.3158 20.1585 13.2757 20.2681C13.2255 20.3777 13.1753 20.4773 13.1352 20.5869C13.1251 20.6168 13.1151 20.6467 13.095 20.6666C13.095 20.4773 13.095 20.2781 13.1251 20.0589C13.1352 19.9792 13.1552 19.8995 13.1753 19.8098C13.1954 19.7301 13.2154 19.6405 13.2456 19.5608C13.3058 19.3914 13.376 19.2121 13.4663 19.0427C13.657 18.6941 13.8075 18.3055 13.9279 17.907C13.9581 17.8074 13.9882 17.7078 14.0082 17.6082C14.0283 17.4986 14.0484 17.399 14.0684 17.2993C14.1086 17.0901 14.1287 16.8809 14.1387 16.6717C14.1387 16.4625 14.1387 16.2533 14.1186 16.0441C14.0985 15.8349 14.0484 15.6356 13.9882 15.4364C13.8677 15.0379 13.657 14.6693 13.3459 14.3405C13.1452 14.1313 12.9545 13.9022 12.7639 13.6531C12.5732 13.4041 12.3926 13.1351 12.2119 12.8661C12.0313 12.5872 11.8607 12.3082 11.7102 12.0293C11.5496 11.7503 11.4091 11.4714 11.2686 11.2024C11.0077 10.6644 10.7869 10.1763 10.6464 9.82761C10.5059 9.47893 10.4256 9.25976 10.4256 9.25976C10.4758 9.4092 10.526 9.68814 10.5561 10.0468C10.5962 10.4054 10.6263 10.8438 10.6364 11.302C10.6665 12.2285 10.6364 13.2248 10.4156 13.9022C10.3654 14.0716 10.3152 14.221 10.2751 14.3704C10.235 14.5199 10.2049 14.6593 10.1848 14.7888C10.1346 15.0578 10.0945 15.287 10.0744 15.5161C10.0543 15.7452 10.0343 15.9544 10.0142 16.1537C10.0042 16.2533 9.99412 16.3629 9.97405 16.4625C9.96401 16.5621 9.94394 16.6717 9.92387 16.7813C9.88373 17.0005 9.98408 17.2993 10.1547 17.6082C10.3353 17.927 10.5862 18.2557 10.8471 18.5646C11.108 18.8734 11.369 19.1424 11.5697 19.3416C11.7704 19.5309 11.9109 19.6604 11.9109 19.6604C12.242 19.7999 12.4628 20.0191 12.6033 20.2681C12.7538 20.5172 12.814 20.7961 12.8542 21.0551C12.8542 21.1249 12.8542 21.1747 12.8642 21.2444C12.7739 21.4636 12.6735 21.6828 12.5933 21.9119C12.5029 22.141 12.4227 22.3602 12.3323 22.5893C12.2521 22.8185 12.1718 23.0476 12.0915 23.2767C11.7804 24.2132 11.5094 25.1795 11.2686 26.1658C11.0478 27.162 10.8672 28.1782 10.7267 29.2143C10.7066 29.3537 10.6966 29.4932 10.6765 29.6327C10.6263 29.4733 10.5762 29.294 10.5461 29.1047C10.526 28.9353 10.5059 28.756 10.516 28.5667C10.516 28.477 10.516 28.3774 10.526 28.2778C10.526 28.1782 10.5461 28.0786 10.5661 27.9789C10.6063 27.7797 10.6364 27.5705 10.6464 27.3513C10.6464 27.2417 10.6464 27.1321 10.6464 27.0325C10.6464 26.9229 10.6464 26.8133 10.6464 26.7038C10.6364 26.4846 10.6063 26.2654 10.5661 26.0462C10.526 25.8271 10.4758 25.6079 10.4056 25.3987C10.2651 24.9703 10.0744 24.5619 9.81348 24.1933C9.68302 24.004 9.53249 23.8346 9.36189 23.6752C9.19129 23.5158 9.01066 23.3763 8.79992 23.2468C8.27808 22.928 7.71611 22.5096 7.18424 22.0314C6.65237 21.5632 6.1506 21.0452 5.71908 20.557C5.49831 20.308 5.30764 20.0788 5.127 19.8597C4.94637 19.6405 4.79584 19.4412 4.67541 19.2818C4.42453 18.9431 4.274 18.7339 4.274 18.7339C4.36432 18.8734 4.49478 19.1723 4.65534 19.5508C4.73563 19.7401 4.81591 19.9493 4.89619 20.1784C4.98651 20.4076 5.06679 20.6467 5.15711 20.8858C5.19725 21.0053 5.23739 21.1348 5.27753 21.2544C5.31767 21.3739 5.35781 21.5034 5.39795 21.623C5.47824 21.872 5.54848 22.1311 5.6087 22.3702C5.6388 22.4897 5.66891 22.6092 5.68898 22.7288C5.71908 22.8483 5.73915 22.9579 5.74919 23.0675C5.7793 23.2867 5.79937 23.4959 5.79937 23.6852C5.79937 23.8745 5.79937 24.0438 5.79937 24.2132C5.79937 24.3726 5.81944 24.522 5.83951 24.6615C5.85958 24.801 5.86961 24.9305 5.88968 25.06C5.90975 25.1795 5.93986 25.2991 5.95993 25.4186C6.06028 25.8669 6.16064 26.2355 6.23088 26.7137C6.26099 26.9429 6.45166 27.2218 6.73265 27.4908C7.01364 27.7598 7.37491 28.0188 7.73618 28.2579C8.09745 28.487 8.44868 28.6863 8.71964 28.8257C8.85009 28.8955 8.96048 28.9552 9.04076 28.9851C9.12105 29.025 9.16119 29.0449 9.16119 29.0449C9.54253 29.0847 9.83355 29.2441 10.0543 29.4534C10.2851 29.6626 10.4457 29.9216 10.5561 30.1706C10.5762 30.2005 10.5762 30.2304 10.5962 30.2603C10.5962 30.3001 10.5962 30.34 10.5862 30.3798C10.5862 30.5094 10.5661 30.6389 10.5561 30.7783C10.5461 30.9079 10.536 31.0473 10.526 31.1768C10.526 31.3063 10.5059 31.4359 10.5059 31.5753C10.5059 31.7048 10.4858 31.8443 10.4858 31.9738C10.4858 32.1033 10.4858 32.2428 10.4758 32.3723C10.4156 34.5042 10.5862 36.676 10.9575 38.8179C10.9575 38.8378 10.9575 38.8578 10.9675 38.8777C10.8873 38.7482 10.7969 38.6087 10.7267 38.4593C10.5661 38.1305 10.4457 37.742 10.3955 37.3136C10.2952 36.4569 9.9339 35.5602 9.36189 34.7832C9.0809 34.3947 8.72967 34.046 8.33829 33.7571C8.13759 33.6076 7.92685 33.4781 7.70607 33.3685C7.48529 33.259 7.25448 33.1593 7.0036 33.0996C6.69251 33.0099 6.36134 32.9003 6.02014 32.7708C5.84954 32.7011 5.67894 32.6313 5.50834 32.5616C5.33774 32.4819 5.16714 32.4022 4.99654 32.3225C4.30411 31.9937 3.62171 31.6052 3.02963 31.2266C2.72857 31.0374 2.45761 30.8481 2.20673 30.6688C1.95585 30.4994 1.74511 30.35 1.56447 30.2105C1.2032 29.9415 0.982427 29.7721 0.982427 29.7721C1.11289 29.8917 1.35373 30.1507 1.64476 30.4894C1.78525 30.6588 1.94582 30.858 2.11641 31.0672C2.1967 31.1669 2.28701 31.2765 2.3673 31.396C2.44758 31.5056 2.5379 31.6251 2.62821 31.7347C2.79881 31.9639 2.97945 32.2029 3.14001 32.442C3.31061 32.6811 3.47118 32.9103 3.61167 33.1494C3.75217 33.3785 3.89266 33.6076 4.00305 33.8168C4.11344 34.036 4.19372 34.2353 4.25393 34.4245C4.31414 34.6138 4.36432 34.7931 4.42453 34.9525C4.48474 35.1119 4.54495 35.2514 4.60517 35.3909C4.72559 35.6499 4.84601 35.8691 4.96644 36.0683C5.08686 36.2676 5.20728 36.4469 5.31767 36.6362C5.42806 36.8255 5.53845 37.0147 5.6388 37.2439C5.73915 37.473 6.02014 37.6922 6.39145 37.8815C6.57208 37.9811 6.77279 38.0707 6.98353 38.1504C7.19427 38.2301 7.41505 38.2999 7.63582 38.3696C8.06734 38.4991 8.48882 38.5987 8.79992 38.6685C9.11101 38.7382 9.32175 38.7681 9.32175 38.7681C9.71313 38.7083 10.0644 38.788 10.3554 38.9375C10.5059 39.0072 10.6364 39.1068 10.7568 39.2064C10.8772 39.3061 10.9876 39.4157 11.088 39.5252C11.088 39.5252 11.088 39.5352 11.108 39.5452C11.2686 40.3621 11.4492 41.1889 11.66 41.9959C11.9309 43.0419 12.2521 44.078 12.6133 45.0942C12.9345 46.0107 13.2857 46.8974 13.667 47.774C13.3158 47.4254 12.9646 46.9671 12.7438 46.3793C12.4227 45.5225 11.7904 44.7156 10.9675 44.0979C10.5561 43.7891 10.1045 43.5301 9.60274 43.3408C9.11101 43.1515 8.58918 43.032 8.04727 43.022C7.35484 43.0121 6.57208 42.9124 5.77929 42.763C5.57859 42.7231 5.37788 42.6833 5.17718 42.6434C4.97647 42.6036 4.7858 42.5538 4.5851 42.504C4.19372 42.4044 3.81238 42.3047 3.45111 42.2051C2.72857 41.9959 2.10638 41.7767 1.65479 41.6074C1.42398 41.5277 1.25338 41.4579 1.12292 41.4081C1.0025 41.3583 0.932251 41.3284 0.932251 41.3284C1.01253 41.3683 1.14299 41.438 1.29352 41.5376C1.44405 41.6273 1.63472 41.7468 1.84546 41.8763C2.0562 42.0059 2.27698 42.1553 2.51783 42.3147C2.75867 42.4741 3.00956 42.6434 3.26044 42.8228C3.51132 43.0021 3.7622 43.1814 4.01308 43.3707C4.13351 43.4604 4.25393 43.56 4.37435 43.6496C4.49478 43.7493 4.60517 43.8389 4.71555 43.9286C4.93633 44.1179 5.13704 44.3071 5.30764 44.4865C5.47824 44.6758 5.62877 44.8551 5.72912 45.0344C5.9499 45.3831 6.1506 45.662 6.34127 45.8912C6.53194 46.1203 6.71258 46.2896 6.89321 46.459C7.06381 46.6184 7.23441 46.7579 7.39498 46.9173C7.47526 46.997 7.55554 47.0767 7.63582 47.1564C7.71611 47.246 7.79639 47.3357 7.87667 47.4353C8.03724 47.6346 8.37844 47.794 8.79992 47.9035C9.2214 48.0131 9.71313 48.0729 10.1948 48.1128C11.1482 48.1825 12.0112 48.1327 12.0112 48.1327C12.2019 48.053 12.3926 48.0131 12.5732 48.0131C12.7538 48.0131 12.9345 48.0231 13.1051 48.0729C13.4262 48.1526 13.7072 48.302 13.9581 48.4714C14.3294 49.2983 14.7308 50.1052 15.1523 50.8922C16.1257 52.7054 17.2095 54.379 18.3736 55.8833C18.2833 55.8236 18.1929 55.7738 18.1026 55.714C17.9421 55.5944 17.7715 55.455 17.6109 55.2956C17.4503 55.1362 17.3098 54.9569 17.1693 54.7576C16.6174 53.9606 15.7443 53.3131 14.7308 52.8747C14.229 52.6655 13.6771 52.5061 13.1251 52.4264C12.8441 52.3866 12.5632 52.3667 12.2822 52.3766C12.0012 52.3766 11.7202 52.4065 11.4392 52.4563C11.088 52.526 10.7066 52.5759 10.3052 52.6157C10.1045 52.6356 9.89376 52.6556 9.68302 52.6655C9.47228 52.6755 9.26154 52.6854 9.0508 52.6954C8.62932 52.7054 8.18776 52.7054 7.76628 52.6954C7.33476 52.6954 6.92332 52.6655 6.53194 52.6356C6.14057 52.6157 5.75922 52.5759 5.42806 52.546C5.08686 52.5161 4.7858 52.4762 4.53492 52.4364C4.28404 52.4065 4.08333 52.3766 3.9328 52.3567C3.79231 52.3368 3.71203 52.3268 3.71203 52.3268C3.9027 52.3766 4.30411 52.4962 4.80587 52.6655C5.05675 52.7552 5.33774 52.8548 5.62877 52.9644C5.91979 53.074 6.22085 53.1935 6.54198 53.3131C6.85307 53.4326 7.16417 53.5621 7.47526 53.7016C7.78635 53.8311 8.07738 53.9706 8.35836 54.12C8.92034 54.4089 9.392 54.7078 9.70309 55.0266C10.3253 55.6642 10.807 55.963 11.2385 56.1922C11.3489 56.2519 11.4492 56.3018 11.5496 56.3615C11.6499 56.4213 11.7503 56.4711 11.8607 56.5309C11.961 56.5907 12.0614 56.6504 12.1718 56.7202C12.2721 56.7899 12.3825 56.8696 12.4929 56.9493C12.6033 57.039 12.7538 57.0987 12.9445 57.1486C13.0348 57.1685 13.1352 57.1884 13.2355 57.1984C13.3359 57.2083 13.4563 57.2183 13.5667 57.2183C14.0283 57.2382 14.5501 57.1884 15.0419 57.1087C15.5336 57.029 16.0053 56.9294 16.3465 56.8497C16.5171 56.8098 16.6575 56.77 16.7479 56.7401C16.8482 56.7102 16.8984 56.7003 16.8984 56.7003C17.2496 56.4512 17.631 56.3615 17.9922 56.3715C18.1729 56.3715 18.3535 56.3914 18.5241 56.4313C18.6546 56.4612 18.775 56.501 18.9055 56.5409C19.909 57.7762 20.9627 58.892 22.0264 59.8483C23.1604 60.8645 24.3044 61.6814 25.3983 62.329C25.3581 62.329 25.308 62.309 25.2678 62.2991C25.2176 62.2891 25.1675 62.2692 25.1073 62.2592C24.8965 62.1994 24.6757 62.1297 24.465 62.0301C24.3546 61.9803 24.2442 61.9205 24.1439 61.8607C24.0335 61.801 23.9331 61.7312 23.8227 61.6515C23.612 61.5021 23.3912 61.3626 23.1403 61.253C23.0199 61.1933 22.8995 61.1335 22.769 61.0837C22.6386 61.0339 22.5081 60.984 22.3777 60.9442C22.2472 60.8944 22.1167 60.8545 21.9762 60.8147C21.8358 60.7748 21.6953 60.7449 21.5548 60.7151C21.4143 60.6852 21.2738 60.6553 21.1233 60.6354C21.053 60.6254 20.9828 60.6154 20.9025 60.6055C20.8322 60.6055 20.762 60.5856 20.6817 60.5756C20.5312 60.5557 20.3907 60.5457 20.2401 60.5457C20.0896 60.5457 19.9391 60.5357 19.7886 60.5357C19.4875 60.5357 19.1864 60.5557 18.8854 60.5955C18.2933 60.6653 17.7113 60.8246 17.1794 61.0737C16.507 61.3925 15.6841 61.6814 14.8111 61.9105C13.948 62.1496 13.0248 62.329 12.1918 62.4585C11.7804 62.5182 11.379 62.578 11.0177 62.6179C10.6564 62.6577 10.3353 62.6876 10.0644 62.7175C9.79341 62.7374 9.57263 62.7573 9.4221 62.7573C9.27158 62.7573 9.19129 62.7673 9.19129 62.7673C9.62281 62.7872 11.0077 62.9367 12.4829 63.1558C12.8542 63.2156 13.2255 63.2754 13.5968 63.3352C13.9681 63.4049 14.3294 63.4746 14.6706 63.5543C15.0218 63.634 15.3329 63.7237 15.6339 63.8233C15.935 63.9229 16.1859 64.0425 16.4067 64.162C16.6274 64.2915 16.8281 64.4011 17.0188 64.4908C17.2095 64.5804 17.3901 64.6502 17.5507 64.7099C17.631 64.7398 17.7113 64.7697 17.7915 64.7896C17.8718 64.8096 17.9421 64.8395 18.0123 64.8594C18.1528 64.8992 18.2933 64.9291 18.4238 64.959C18.6847 65.0188 18.9356 65.0586 19.1864 65.1084C19.3169 65.1383 19.4373 65.1682 19.5778 65.2081C19.7183 65.2479 19.8588 65.2977 20.0093 65.3575C20.3104 65.477 20.762 65.4472 21.2336 65.3176C21.4745 65.2579 21.7153 65.1682 21.9662 65.0686C22.2071 64.969 22.4579 64.8494 22.6888 64.7299C23.1504 64.4908 23.5719 64.2218 23.8729 64.0225C24.174 63.8233 24.3546 63.6739 24.3546 63.6739C24.5854 63.3053 24.9166 63.0761 25.2678 62.9367C25.5588 62.8271 25.8599 62.7773 26.161 62.7573C26.6126 62.9865 27.0541 63.1957 27.4656 63.365C27.606 63.4248 27.7365 63.4746 27.877 63.5244C28.0175 63.5742 28.148 63.6241 28.2784 63.6639C28.4089 63.7137 28.5393 63.7436 28.6598 63.7835C28.7902 63.8233 28.9106 63.8632 29.0311 63.893C29.9944 64.1521 30.7772 64.2517 31.3091 64.2915C31.3793 64.2915 31.4395 64.2915 31.4997 64.3015C31.5298 64.3015 31.5599 64.3015 31.5901 64.3015H31.6703C31.6703 64.3015 31.7004 64.3015 31.7205 64.3015C32.6137 65.0586 33.3663 66.3238 31.5298 68.1469C30.1349 69.5317 30.7471 73.5764 30.8073 73.945C30.7772 73.7059 30.6467 72.092 32.8946 68.7148C34.4802 66.3438 33.9082 64.9391 33.3061 64.2417C33.7476 64.2218 34.129 64.1919 34.129 64.1919C36.8285 63.9229 36.9489 65.2878 36.9489 65.2878C36.1661 66.5829 37.2098 68.137 37.2098 68.137C36.9991 66.7422 38.3538 65.8058 38.7251 64.1919C38.8957 63.4348 39.1065 62.9466 38.8255 62.6776C38.4943 62.3688 37.9926 62.3489 37.5811 62.5481L37.6012 62.6179Z" fill="#D1D5DB"/>
<g clip-path="url(#clip0_304_1665)">
<path d="M130.613 33.6201C132.379 33.6201 133.63 33.3013 134.562 32.6145V29.4994C133.605 30.1616 132.453 30.5786 130.834 30.5786C128.112 30.5786 126.984 28.4692 126.984 25.1333C126.984 21.6258 128.357 19.8352 130.859 19.8352C132.33 19.8352 133.777 20.3503 134.537 20.8409V17.6032C133.728 17.1616 132.33 16.8428 130.417 16.8428C125.537 16.8428 123.011 20.3503 123.011 25.256C123.036 30.6277 125.512 33.6201 130.613 33.6201ZM106.752 32.1975V29.0824C105.575 29.8918 103.564 30.6032 101.725 30.6032C98.9294 30.6032 97.8749 29.2786 97.7032 26.5805H106.924V24.5692C106.924 18.9522 104.447 16.8428 100.646 16.8428C95.9866 16.8428 93.7795 20.3994 93.7795 25.2805C93.7795 30.8975 96.5506 33.6201 101.406 33.6201C103.834 33.6201 105.624 32.9579 106.752 32.1975ZM71.7577 17.1371V23.5145H66.6569V17.1371H62.8313V33.3013H66.6569V26.556H71.7577V33.3013H75.5833V17.1371H71.7577ZM92.8231 30.2598H91.131V17.1371H79.9975V18.5107C79.9975 22.4598 79.7523 27.5616 78.4035 30.2598H77.1773V36.9805H80.7087V33.3013H89.2673V36.9805H92.7986V30.2598H92.8231ZM118.94 33.3013H123.281L117.15 24.5937L122.545 17.1371H118.695L113.3 24.5937V17.1371H109.474V33.3013H113.3V25.3541L118.94 33.3013ZM100.548 19.8352C102.436 19.8352 103.025 21.405 103.025 23.4409V23.7598H97.7032C97.8013 21.1843 98.7332 19.8352 100.548 19.8352ZM87.3054 30.2598H81.9103C82.9648 27.8315 83.2591 23.4164 83.2591 20.6201V20.1296H87.3054V30.2598Z" fill="black"/>
<path d="M59.6434 33.3012H55.7442V13.9974H54.0031C50.8151 13.9974 49.1475 15.5918 49.1475 17.971C49.1475 20.6691 50.3001 21.9201 52.6788 23.5144L54.6407 24.839L49.0003 33.3012H44.8069L49.8832 25.7465C46.9649 23.6616 45.3219 21.6258 45.3219 18.1918C45.3219 13.8993 48.3137 10.9805 53.9785 10.9805H59.6189V33.3012H59.6434Z" fill="#FC3F1D"/>
</g>
<path d="M76.2584 51.5734L77.5782 54.2349C77.7582 54.6054 78.2382 54.9608 78.6431 55.0288L81.0353 55.4296C82.5652 55.6866 82.9251 56.8057 81.8228 57.9096L79.963 59.7848C79.648 60.1023 79.4755 60.7148 79.573 61.1533L80.1054 63.4746C80.5254 65.312 79.558 66.0227 77.9457 65.0624L75.7034 63.7241C75.2985 63.4822 74.6311 63.4822 74.2186 63.7241L71.9763 65.0624C70.3715 66.0227 69.3966 65.3044 69.8166 63.4746L70.349 61.1533C70.4465 60.7148 70.274 60.1023 69.9591 59.7848L68.0993 57.9096C67.0044 56.8057 67.3569 55.6866 68.8867 55.4296L71.2789 55.0288C71.6764 54.9608 72.1563 54.6054 72.3363 54.2349L73.6562 51.5734C74.3761 50.1292 75.546 50.1292 76.2584 51.5734Z" fill="#FFA800"/>
<path d="M97.2346 51.6782V59.1822H98.5306V60.8142H97.2346V62.9902H95.3946V60.8142H89.5546V59.4862L94.8506 51.6782H97.2346ZM91.6986 59.1822H95.3946V53.6462L91.6986 59.1822ZM101.185 63.1182C100.865 63.0969 100.598 62.9902 100.385 62.7982C100.182 62.5956 100.081 62.3236 100.081 61.9822C100.081 61.6089 100.198 61.3262 100.433 61.1342C100.667 60.9316 100.929 60.8302 101.217 60.8302C101.249 60.8302 101.281 60.8302 101.313 60.8302C101.793 60.8622 102.123 61.0329 102.305 61.3422C102.486 61.6516 102.577 61.9769 102.577 62.3182C102.577 62.3716 102.577 62.4249 102.577 62.4782C102.577 62.7876 102.518 63.0916 102.401 63.3902C102.283 63.6996 102.129 63.9876 101.937 64.2542C101.745 64.5209 101.526 64.7502 101.281 64.9422C101.035 65.1449 100.779 65.2889 100.513 65.3742L100.033 64.7182C100.289 64.5369 100.523 64.3076 100.737 64.0302C100.95 63.7529 101.099 63.4489 101.185 63.1182ZM110.9 57.5822C110.74 57.8276 110.553 58.0356 110.34 58.2062C110.127 58.3769 109.892 58.5209 109.636 58.6382C109.391 58.7449 109.129 58.8249 108.852 58.8782C108.575 58.9316 108.297 58.9582 108.02 58.9582C107.487 58.9582 106.996 58.8782 106.548 58.7182C106.111 58.5476 105.727 58.3076 105.396 57.9982C105.065 57.6889 104.809 57.3102 104.628 56.8622C104.447 56.4142 104.356 55.9076 104.356 55.3422C104.356 54.7662 104.457 54.2436 104.66 53.7742C104.873 53.3049 105.156 52.9102 105.508 52.5902C105.871 52.2596 106.292 52.0089 106.772 51.8382C107.263 51.6569 107.791 51.5662 108.356 51.5662C109.145 51.5556 109.828 51.7316 110.404 52.0942C110.991 52.4462 111.439 52.8942 111.748 53.4382C112.068 53.9716 112.292 54.5849 112.42 55.2782C112.559 55.9609 112.639 56.6489 112.66 57.3422C112.66 58.0676 112.591 58.7769 112.452 59.4702C112.313 60.1636 112.073 60.7822 111.732 61.3262C111.401 61.8596 110.953 62.2916 110.388 62.6222C109.823 62.9422 109.113 63.1022 108.26 63.1022C107.791 63.1022 107.343 63.0489 106.916 62.9422C106.5 62.8249 106.121 62.6542 105.78 62.4302C105.439 62.1956 105.151 61.9076 104.916 61.5662C104.681 61.2142 104.527 60.7982 104.452 60.3182H106.356C106.495 60.7022 106.745 60.9902 107.108 61.1822C107.471 61.3636 107.855 61.4542 108.26 61.4542C108.58 61.4542 108.863 61.4116 109.108 61.3262C109.353 61.2302 109.572 61.1076 109.764 60.9582C109.956 60.8089 110.121 60.6329 110.26 60.4302C110.399 60.2169 110.511 59.9929 110.596 59.7582C110.735 59.4062 110.82 59.0489 110.852 58.6862C110.884 58.3129 110.9 57.9449 110.9 57.5822ZM106.212 55.2302C106.212 55.8809 106.399 56.3929 106.772 56.7662C107.156 57.1396 107.668 57.3262 108.308 57.3262C108.596 57.3262 108.868 57.2836 109.124 57.1982C109.391 57.1022 109.62 56.9742 109.812 56.8142C110.004 56.6436 110.153 56.4409 110.26 56.2062C110.377 55.9609 110.441 55.6942 110.452 55.4062C110.452 55.1076 110.404 54.8249 110.308 54.5582C110.212 54.2916 110.073 54.0622 109.892 53.8702C109.711 53.6676 109.487 53.5076 109.22 53.3902C108.964 53.2729 108.676 53.2142 108.356 53.2142C107.737 53.2142 107.225 53.3956 106.82 53.7582C106.425 54.1209 106.223 54.6116 106.212 55.2302Z" fill="#111827"/>
<path d="M178.827 41.3735C178.706 41.4233 178.526 41.493 178.295 41.5727C177.843 41.7421 177.211 41.9612 176.499 42.1704C176.137 42.28 175.756 42.3796 175.365 42.4693C175.174 42.5191 174.973 42.559 174.773 42.6088C174.572 42.6486 174.371 42.6885 174.171 42.7283C173.368 42.8778 172.585 42.9674 171.903 42.9873C171.361 42.9973 170.839 43.1169 170.347 43.3061C169.855 43.4954 169.404 43.7544 168.992 44.0633C168.169 44.6909 167.537 45.4978 167.216 46.3446C166.995 46.9324 166.654 47.3807 166.293 47.7394C166.674 46.8627 167.025 45.9661 167.347 45.0595C167.708 44.0434 168.019 43.0172 168.3 41.9612C168.511 41.1543 168.691 40.3374 168.852 39.5105C168.852 39.5105 168.852 39.5005 168.872 39.4906C168.972 39.381 169.083 39.2714 169.203 39.1718C169.323 39.0722 169.464 38.9825 169.604 38.9028C169.895 38.7534 170.247 38.6737 170.638 38.7334C170.638 38.7334 170.839 38.7036 171.16 38.6338C171.471 38.5641 171.893 38.4645 172.324 38.3349C172.545 38.2652 172.766 38.1955 172.976 38.1158C173.187 38.0361 173.388 37.9464 173.568 37.8468C173.93 37.6575 174.221 37.4383 174.321 37.2092C174.421 36.9801 174.532 36.7808 174.642 36.6015C174.753 36.4122 174.873 36.2329 174.993 36.0337C175.114 35.8344 175.234 35.6152 175.355 35.3562C175.415 35.2267 175.475 35.0773 175.535 34.9179C175.596 34.7585 175.646 34.5891 175.706 34.3899C175.766 34.2006 175.846 33.9914 175.957 33.7822C176.067 33.563 176.198 33.3438 176.348 33.1147C176.489 32.8856 176.649 32.6465 176.82 32.4074C176.98 32.1683 177.161 31.9292 177.332 31.7001C177.422 31.5805 177.502 31.4709 177.593 31.3613C177.673 31.2518 177.763 31.1422 177.843 31.0326C178.004 30.8234 178.175 30.6142 178.315 30.4548C178.606 30.116 178.837 29.857 178.977 29.7375C178.977 29.7375 178.767 29.9068 178.395 30.1758C178.215 30.3053 177.994 30.4647 177.753 30.6341C177.502 30.8034 177.221 30.9927 176.93 31.192C176.338 31.5705 175.656 31.9591 174.963 32.2878C174.793 32.3675 174.622 32.4472 174.451 32.5269C174.281 32.5967 174.1 32.6664 173.93 32.7361C173.588 32.8656 173.257 32.9752 172.946 33.0649C172.695 33.1346 172.465 33.2243 172.244 33.3339C172.023 33.4435 171.812 33.573 171.612 33.7224C171.22 34.0113 170.879 34.3699 170.588 34.7485C170.016 35.5156 169.655 36.4122 169.554 37.2789C169.514 37.7073 169.384 38.0859 169.223 38.4246C169.153 38.574 169.063 38.7135 168.982 38.843C168.982 38.8231 168.982 38.8032 168.992 38.7833C169.364 36.6414 169.544 34.4696 169.474 32.3376C169.474 32.2081 169.474 32.0687 169.464 31.9391C169.464 31.8096 169.454 31.6702 169.444 31.5407C169.444 31.4111 169.424 31.2717 169.424 31.1422C169.414 31.0127 169.404 30.8732 169.394 30.7437C169.384 30.6142 169.374 30.4747 169.364 30.3452C169.364 30.3053 169.364 30.2655 169.354 30.2256C169.364 30.1957 169.374 30.1659 169.394 30.136C169.514 29.8869 169.675 29.6279 169.895 29.4187C170.126 29.2095 170.417 29.0501 170.789 29.0102C170.789 29.0102 170.829 28.9903 170.909 28.9505C170.989 28.9106 171.1 28.8608 171.23 28.7911C171.501 28.6516 171.852 28.4523 172.214 28.2232C172.575 27.9941 172.936 27.7251 173.217 27.4561C173.488 27.1871 173.689 26.9181 173.719 26.6791C173.779 26.2108 173.879 25.8323 173.99 25.384C174.02 25.2744 174.04 25.1548 174.06 25.0253C174.08 24.9058 174.1 24.7663 174.11 24.6268C174.13 24.4873 174.14 24.3379 174.15 24.1785C174.15 24.0191 174.171 23.8398 174.15 23.6505C174.15 23.4612 174.16 23.252 174.201 23.0329C174.221 22.9233 174.241 22.8137 174.261 22.6941C174.281 22.5746 174.311 22.455 174.341 22.3355C174.401 22.0964 174.472 21.8473 174.552 21.5883C174.592 21.4688 174.632 21.3393 174.672 21.2197C174.712 21.0902 174.753 20.9707 174.793 20.8511C174.873 20.602 174.963 20.363 175.054 20.1438C175.134 19.9146 175.214 19.7054 175.294 19.5162C175.445 19.1376 175.585 18.8387 175.676 18.6992C175.676 18.6992 175.535 18.9085 175.274 19.2472C175.144 19.4165 174.993 19.6158 174.823 19.825C174.642 20.0442 174.452 20.2733 174.231 20.5223C173.799 21.0105 173.287 21.5285 172.766 21.9968C172.234 22.475 171.672 22.8934 171.15 23.2122C170.939 23.3417 170.759 23.4812 170.588 23.6406C170.417 23.7999 170.267 23.9693 170.136 24.1586C169.875 24.5272 169.685 24.9356 169.544 25.364C169.474 25.5732 169.424 25.7924 169.384 26.0116C169.344 26.2307 169.313 26.4499 169.303 26.6691C169.303 26.7787 169.303 26.8883 169.303 26.9978C169.303 27.1074 169.303 27.217 169.303 27.3166C169.313 27.5258 169.344 27.7351 169.384 27.9443C169.404 28.0439 169.414 28.1435 169.424 28.2431C169.424 28.3428 169.434 28.4424 169.434 28.532C169.434 28.7213 169.424 28.9006 169.404 29.07C169.374 29.2593 169.323 29.4386 169.273 29.598C169.253 29.4585 169.243 29.3191 169.223 29.1796C169.083 28.1435 168.902 27.1274 168.681 26.1311C168.45 25.1449 168.169 24.1785 167.858 23.2421C167.778 23.0129 167.698 22.7838 167.617 22.5547C167.527 22.3255 167.447 22.1064 167.357 21.8772C167.276 21.6481 167.176 21.4289 167.086 21.2097C167.086 21.15 167.086 21.0902 167.096 21.0205C167.136 20.7614 167.206 20.4825 167.347 20.2334C167.497 19.9844 167.708 19.7652 168.039 19.6257C168.039 19.6257 168.179 19.5062 168.38 19.3069C168.581 19.1077 168.842 18.8387 169.103 18.5299C169.364 18.231 169.614 17.8923 169.795 17.5735C169.966 17.2647 170.066 16.9658 170.026 16.7466C170.006 16.6371 169.996 16.5275 169.976 16.4278C169.966 16.3183 169.946 16.2186 169.936 16.119C169.916 15.9098 169.895 15.7006 169.875 15.4814C169.845 15.2623 169.815 15.0232 169.765 14.7542C169.735 14.6247 169.705 14.4852 169.675 14.3358C169.635 14.1863 169.584 14.0269 169.534 13.8675C169.323 13.2001 169.283 12.1939 169.313 11.2674C169.323 10.8091 169.354 10.3708 169.394 10.0121C169.424 9.65347 169.474 9.37453 169.524 9.22509C169.524 9.22509 169.444 9.44427 169.303 9.79295C169.163 10.1416 168.942 10.6298 168.681 11.1677C168.551 11.4367 168.4 11.7157 168.24 11.9946C168.079 12.2736 167.908 12.5625 167.728 12.8314C167.547 13.1004 167.367 13.3694 167.176 13.6185C166.985 13.8675 166.785 14.1066 166.594 14.3059C166.283 14.6346 166.082 15.0032 165.952 15.4017C165.891 15.601 165.841 15.8002 165.821 16.0094C165.791 16.2186 165.791 16.4179 165.801 16.6371C165.801 16.8463 165.831 17.0555 165.871 17.2647C165.891 17.3743 165.911 17.4739 165.932 17.5735C165.952 17.6731 165.982 17.7728 166.012 17.8724C166.132 18.2709 166.283 18.6594 166.473 19.0081C166.564 19.1774 166.634 19.3568 166.694 19.5261C166.724 19.6158 166.744 19.6955 166.764 19.7752C166.785 19.8549 166.805 19.9445 166.815 20.0242C166.845 20.2434 166.855 20.4426 166.845 20.6319C166.835 20.602 166.815 20.5722 166.805 20.5522C166.754 20.4426 166.704 20.3331 166.664 20.2334C166.614 20.1239 166.574 20.0242 166.514 19.9146C166.413 19.7054 166.313 19.4962 166.213 19.297C166.112 19.0878 166.002 18.8885 165.901 18.6893C165.851 18.5897 165.801 18.49 165.741 18.3904C165.691 18.2908 165.63 18.1912 165.58 18.1015C165.53 18.0019 165.47 17.9122 165.42 17.8126C165.39 17.7628 165.37 17.713 165.339 17.6632C165.309 17.6134 165.279 17.5735 165.259 17.5237C165.149 17.3344 165.038 17.1451 164.928 16.9658C164.818 16.7765 164.707 16.5972 164.597 16.4179C164.547 16.3282 164.486 16.2386 164.436 16.1489C164.376 16.0592 164.326 15.9696 164.266 15.8899C163.704 15.0132 163.051 14.2361 162.429 13.5089C162.429 13.489 162.419 13.469 162.409 13.4491C162.349 13.2897 162.279 13.0705 162.249 12.8215C162.218 12.5724 162.208 12.3034 162.279 12.0444C162.349 11.7854 162.499 11.5363 162.77 11.3371C162.77 11.3371 162.871 11.1976 163.001 10.9785C163.142 10.7593 163.322 10.4505 163.483 10.1217C163.824 9.46419 164.105 8.69709 163.945 8.31852C163.623 7.58131 163.503 6.89392 162.911 5.79806C162.76 5.51912 162.64 5.17044 162.53 4.79187C162.429 4.4133 162.349 4.00485 162.289 3.61632C162.178 2.83926 162.148 2.12197 162.218 1.85299C162.218 1.85299 162.168 2.05223 162.078 2.38099C161.988 2.70975 161.847 3.16801 161.667 3.68605C161.315 4.71217 160.804 5.96742 160.211 6.85407C159.981 7.20275 159.86 7.58131 159.83 7.95988C159.8 8.33845 159.85 8.72698 159.971 9.10555C160.201 9.86268 160.673 10.58 161.175 11.1379C161.305 11.2773 161.406 11.4268 161.506 11.5662C161.596 11.7157 161.677 11.8551 161.737 12.0046C161.857 12.2935 161.937 12.5724 161.978 12.8115C161.988 12.8912 161.998 12.951 161.998 13.0307C161.787 12.7816 161.586 12.5425 161.396 12.3134C161.195 12.0544 159.138 9.79295 157.662 8.17905C157.412 7.74071 157.211 7.21271 157.211 6.60501C157.211 4.95127 156.518 2.86914 154.572 2.4308C152.113 1.88288 148.721 0 148.721 0C149.283 0.318794 151.039 2.25148 151.441 3.51669C151.842 4.78191 152.284 5.38961 152.595 6.19655C152.906 6.99354 155.977 7.87022 155.977 7.87022C156.478 7.86026 156.92 8.0595 157.301 8.33845C157.833 9.12547 159.439 11.4467 159.87 11.9647C160.131 12.2736 160.392 12.5924 160.663 12.9311C160.904 13.2299 161.145 13.5487 161.396 13.8775C161.305 13.8476 161.215 13.8078 161.125 13.7679C161.014 13.7181 160.904 13.6583 160.793 13.5886C160.673 13.5288 160.563 13.4491 160.442 13.3595C160.322 13.2698 160.211 13.1801 160.101 13.0705C159.991 12.961 159.88 12.8414 159.78 12.7119C159.73 12.6422 159.68 12.5724 159.619 12.5127C159.559 12.4429 159.499 12.3831 159.439 12.3134C159.318 12.1839 159.178 12.0644 159.037 11.9448C158.897 11.8253 158.746 11.7157 158.586 11.616C158.425 11.5164 158.265 11.4268 158.094 11.357C157.422 11.0582 156.659 10.9785 155.926 11.3072C154.993 11.7256 153.749 12.0544 152.745 12.2935C152.243 12.413 151.792 12.5027 151.471 12.5724C151.15 12.6322 150.959 12.6721 150.959 12.6721C151.22 12.6322 151.882 12.6721 152.585 12.8115C152.946 12.8813 153.297 12.961 153.638 13.0705C153.969 13.1801 154.26 13.2997 154.491 13.4391C154.933 13.7181 155.294 13.8974 155.625 14.0568C155.956 14.2062 156.247 14.3358 156.539 14.5051C156.689 14.5948 156.94 14.6047 157.251 14.5749C157.562 14.545 157.923 14.4752 158.265 14.4055C158.947 14.2461 159.569 14.0568 159.569 14.0568C159.82 13.8875 160.091 13.8177 160.352 13.8177C160.613 13.8177 160.864 13.8974 161.074 13.9871C161.295 14.0767 161.476 14.1963 161.606 14.2959C161.737 14.3955 161.807 14.4553 161.807 14.4553C161.807 14.4553 161.817 14.4453 161.827 14.4354C162.299 15.0829 162.78 15.7604 163.252 16.4976C163.302 16.5773 163.363 16.6669 163.413 16.7566C163.473 16.8363 163.523 16.926 163.573 17.0156C163.684 17.185 163.784 17.3643 163.894 17.5436C163.995 17.7229 164.105 17.9023 164.205 18.0915C164.236 18.1414 164.256 18.1812 164.286 18.231C164.316 18.2808 164.336 18.3207 164.366 18.3705C164.416 18.4701 164.466 18.5598 164.517 18.6494C164.567 18.7491 164.617 18.8387 164.677 18.9284C164.727 19.028 164.777 19.1177 164.828 19.2173C164.928 19.4066 165.028 19.6058 165.129 19.8051C165.229 20.0043 165.319 20.2036 165.42 20.4028C165.47 20.5024 165.51 20.602 165.56 20.7116C165.61 20.8212 165.651 20.9208 165.701 21.0205C165.741 21.1201 165.791 21.2297 165.841 21.3293C165.881 21.4389 165.932 21.5385 165.972 21.6481C165.942 21.6282 165.911 21.6082 165.871 21.5784C165.771 21.4987 165.671 21.419 165.57 21.3193C165.47 21.2297 165.36 21.1201 165.269 21.0005C165.169 20.891 165.079 20.7614 164.988 20.622C164.898 20.4825 164.818 20.343 164.747 20.1836C164.717 20.1039 164.677 20.0242 164.627 19.9445C164.587 19.8648 164.537 19.7851 164.486 19.7054C164.386 19.546 164.276 19.3966 164.165 19.2372C164.045 19.0878 163.914 18.9483 163.774 18.8188C163.704 18.7491 163.633 18.6893 163.553 18.6295C163.483 18.5697 163.403 18.51 163.322 18.4602C163.001 18.2509 162.65 18.0915 162.269 18.0218C161.887 17.9521 161.496 17.962 161.074 18.0816C160.543 18.231 159.94 18.3506 159.338 18.4602C158.736 18.5598 158.124 18.6494 157.582 18.7291C157.311 18.759 157.06 18.7989 156.83 18.8288C156.599 18.8586 156.398 18.8885 156.227 18.9085C155.886 18.9483 155.686 18.9682 155.686 18.9682C155.956 18.9383 156.619 19.028 157.301 19.2173C157.392 19.2372 157.472 19.2671 157.562 19.297C157.652 19.3169 157.733 19.3568 157.813 19.3767C157.984 19.4365 158.144 19.4962 158.305 19.566C158.616 19.7054 158.887 19.8648 159.087 20.0342C159.278 20.1936 159.449 20.343 159.619 20.4626C159.7 20.5223 159.78 20.5821 159.86 20.6419C159.94 20.7017 160.011 20.7515 160.091 20.8013C160.392 21.0005 160.653 21.1799 160.904 21.399C161.034 21.5086 161.295 21.5684 161.626 21.5983C161.958 21.6282 162.349 21.6282 162.72 21.6182C163.473 21.5983 164.165 21.5485 164.165 21.5485C164.476 21.4289 164.777 21.419 165.048 21.4787C165.119 21.4987 165.179 21.5086 165.249 21.5385C165.309 21.5584 165.37 21.5883 165.43 21.6182C165.55 21.678 165.661 21.7477 165.761 21.8274C165.952 21.9768 166.112 22.1362 166.223 22.2658C166.223 22.2857 166.233 22.2956 166.243 22.3156C166.323 22.5347 166.403 22.7539 166.494 22.9731C166.574 23.1922 166.644 23.4114 166.724 23.6406C167.025 24.5471 167.286 25.4736 167.517 26.43C167.738 27.3864 167.908 28.3726 168.049 29.3788C168.079 29.6279 168.109 29.8869 168.139 30.136C168.139 30.1858 168.139 30.2456 168.159 30.2954C168.009 30.0961 167.858 29.857 167.738 29.588C167.708 29.5083 167.678 29.4386 167.648 29.3589C167.617 29.2792 167.587 29.1995 167.567 29.1198C167.517 28.9604 167.477 28.7811 167.457 28.5918C167.437 28.4025 167.397 28.2232 167.336 28.0339C167.286 27.8446 167.216 27.6554 167.146 27.4661C167.066 27.2768 166.975 27.0975 166.865 26.9281C166.764 26.7588 166.644 26.5894 166.514 26.44C166.383 26.2905 166.233 26.1511 166.082 26.0315C166.002 25.9717 165.922 25.912 165.831 25.8621C165.741 25.8123 165.661 25.7625 165.56 25.7227C165.189 25.5533 164.777 25.4637 164.316 25.4836C164.165 25.4836 164.015 25.4836 163.864 25.4836C163.714 25.4836 163.553 25.4836 163.393 25.4836C163.071 25.4836 162.74 25.4537 162.419 25.4437C162.088 25.4238 161.767 25.4039 161.456 25.384C161.145 25.364 160.834 25.3441 160.543 25.3242C159.409 25.2445 158.536 25.1747 158.536 25.1747C158.676 25.1847 158.917 25.2445 159.188 25.3341C159.459 25.4338 159.78 25.5633 160.111 25.7326C160.272 25.8123 160.432 25.912 160.583 26.0016C160.733 26.1012 160.894 26.2009 161.034 26.3005C161.175 26.4101 161.295 26.5197 161.406 26.6193C161.466 26.6791 161.516 26.7289 161.566 26.7787C161.586 26.8086 161.616 26.8285 161.636 26.8584C161.657 26.8883 161.677 26.9181 161.697 26.9381C161.837 27.1473 161.978 27.3366 162.118 27.5059C162.249 27.6753 162.369 27.8247 162.489 27.9642C162.74 28.2431 162.951 28.4922 163.142 28.7811C163.192 28.8508 163.282 28.9206 163.393 28.9903C163.503 29.0501 163.654 29.1198 163.814 29.1796C164.135 29.2991 164.547 29.4087 164.938 29.4984C165.329 29.588 165.711 29.6677 165.992 29.7275C166.273 29.7873 166.453 29.8172 166.453 29.8172C166.815 29.7773 167.126 29.8471 167.377 29.9865C167.638 30.126 167.848 30.3253 167.999 30.5345C168.089 30.654 168.159 30.7636 168.22 30.8831C168.22 30.8831 168.22 30.8831 168.22 30.9031C168.23 31.0326 168.24 31.1621 168.25 31.2916C168.25 31.4211 168.26 31.5506 168.27 31.6702C168.27 31.7997 168.29 31.9292 168.29 32.0587C168.29 32.1882 168.29 32.3177 168.3 32.4472C168.36 34.4995 168.189 36.6015 167.828 38.6836C167.798 38.8331 167.768 38.9825 167.738 39.1319C167.718 39.0722 167.698 39.0124 167.678 38.9526C167.638 38.8032 167.607 38.6438 167.577 38.4744C167.567 38.3947 167.557 38.3051 167.547 38.2154C167.547 38.1257 167.537 38.0361 167.537 37.9464C167.537 37.8568 167.537 37.7571 167.537 37.6675C167.537 37.5678 167.557 37.4782 167.567 37.3786C167.597 37.1793 167.617 36.9701 167.617 36.7709C167.617 36.5617 167.617 36.3525 167.587 36.1333C167.557 35.9241 167.517 35.7149 167.467 35.5057C167.407 35.2964 167.336 35.0972 167.246 34.9079C167.156 34.7186 167.045 34.5393 166.925 34.37C166.795 34.2006 166.654 34.0512 166.494 33.9117C166.162 33.6427 165.761 33.4435 165.279 33.3339C164.667 33.2044 163.995 33.0051 163.342 32.8059C163.011 32.7062 162.68 32.5967 162.359 32.497C162.038 32.3974 161.737 32.2978 161.446 32.1982C161.155 32.1085 160.884 32.0188 160.643 31.9491C160.523 31.9093 160.402 31.8794 160.302 31.8395C160.191 31.8096 160.091 31.7698 160.001 31.7399C159.639 31.6204 159.419 31.5407 159.419 31.5407C159.489 31.5705 159.579 31.6104 159.69 31.6702C159.74 31.7001 159.8 31.7299 159.86 31.7698C159.92 31.8096 159.981 31.8395 160.051 31.8893C160.181 31.969 160.312 32.0587 160.452 32.1683C160.523 32.2181 160.593 32.2679 160.663 32.3277C160.733 32.3875 160.804 32.4472 160.874 32.507C160.944 32.5668 161.014 32.6365 161.084 32.6963C161.155 32.7561 161.225 32.8258 161.285 32.8955C161.416 33.035 161.536 33.1745 161.657 33.3139C161.767 33.4534 161.867 33.6029 161.948 33.7423C161.988 33.8121 162.028 33.8818 162.058 33.9515C162.088 34.0213 162.118 34.091 162.138 34.1508C162.178 34.2803 162.229 34.3998 162.269 34.5094C162.309 34.619 162.349 34.7286 162.399 34.8382C162.439 34.9378 162.489 35.0374 162.53 35.1371C162.57 35.2367 162.61 35.3263 162.65 35.416C162.69 35.5057 162.73 35.5953 162.77 35.675C162.811 35.7647 162.841 35.8444 162.881 35.9241C162.951 36.0934 163.021 36.2528 163.071 36.4321C163.122 36.6115 163.342 36.8107 163.654 37.0199C163.955 37.2291 164.336 37.4483 164.707 37.6475C165.079 37.8468 165.45 38.0361 165.711 38.1656C165.982 38.2951 166.162 38.3848 166.162 38.3848C166.544 38.4445 166.835 38.594 167.066 38.8131C167.286 39.0223 167.437 39.2913 167.537 39.5404C167.567 39.6101 167.577 39.6799 167.597 39.7496C167.457 40.437 167.306 41.1144 167.136 41.7819C166.865 42.808 166.554 43.8043 166.213 44.7905C165.861 45.7868 165.48 46.7531 165.058 47.7095C165.058 47.6896 165.058 47.6796 165.058 47.6597C165.058 47.4903 165.058 47.3209 165.079 47.1416C165.099 46.9623 165.119 46.773 165.169 46.5837C165.219 46.3945 165.269 46.1952 165.349 45.996C165.671 45.199 165.831 44.2227 165.651 43.346C165.61 43.1268 165.55 42.9076 165.46 42.7084C165.37 42.5092 165.269 42.3099 165.139 42.1306C164.878 41.7719 164.517 41.4631 164.045 41.234C163.453 40.955 162.821 40.5864 162.198 40.1979C161.576 39.8193 160.964 39.4208 160.422 39.0722C159.358 38.3848 158.536 37.8568 158.536 37.8568C158.666 37.9464 158.867 38.1257 159.077 38.3748C159.188 38.4943 159.298 38.6338 159.409 38.7932C159.519 38.9426 159.629 39.112 159.74 39.2814C159.85 39.4507 159.951 39.63 160.051 39.8094C160.151 39.9887 160.242 40.178 160.312 40.3573C160.382 40.5366 160.452 40.7159 160.492 40.8853C160.533 41.0547 160.563 41.2141 160.573 41.3635C160.583 41.5129 160.593 41.6524 160.603 41.7819C160.613 41.9114 160.633 42.0409 160.653 42.1605C160.683 42.3996 160.723 42.6187 160.763 42.8279C160.834 43.2364 160.914 43.605 160.934 44.0035C160.944 44.2027 161.125 44.4618 161.376 44.7507C161.506 44.9001 161.657 45.0495 161.817 45.199C161.978 45.3484 162.138 45.4978 162.309 45.6473C162.64 45.9362 162.981 46.2052 163.222 46.4044C163.352 46.504 163.453 46.5837 163.523 46.6435C163.593 46.7033 163.633 46.7332 163.633 46.7332C164.015 46.8726 164.286 47.1018 164.466 47.3708C164.557 47.5003 164.627 47.6497 164.677 47.7991C164.727 47.9486 164.757 48.088 164.777 48.2375C164.777 48.2574 164.777 48.2773 164.777 48.2973C164.446 49.0245 164.095 49.7418 163.724 50.4292C162.77 52.1925 161.717 53.8263 160.593 55.2808C160.553 55.3406 160.512 55.3904 160.462 55.4402C160.492 55.3107 160.523 55.1912 160.573 55.0617C160.633 54.8823 160.713 54.6931 160.804 54.5137C160.894 54.3244 161.004 54.1451 161.145 53.9558C161.677 53.2087 162.068 52.2423 162.098 51.2959C162.108 50.8277 162.038 50.3595 161.847 49.9311C161.657 49.5027 161.355 49.1142 160.924 48.7854C160.653 48.5762 160.372 48.3471 160.091 48.098C159.81 47.8589 159.529 47.5899 159.248 47.3309C158.967 47.0719 158.696 46.8029 158.435 46.5439C158.174 46.2849 157.913 46.0358 157.673 45.7967C156.729 44.8603 156.007 44.143 156.007 44.143C156.067 44.2027 156.137 44.2924 156.207 44.402C156.278 44.5116 156.358 44.6411 156.448 44.8005C156.528 44.9499 156.619 45.1193 156.699 45.2986C156.779 45.4779 156.86 45.6672 156.93 45.8664C157.01 46.0657 157.07 46.2649 157.131 46.4742C157.191 46.6834 157.241 46.8926 157.271 47.0918C157.291 47.1914 157.301 47.2911 157.321 47.3907C157.331 47.4903 157.341 47.58 157.341 47.6696C157.341 47.8489 157.341 48.0283 157.321 48.1777C157.291 48.3271 157.281 48.4766 157.261 48.616C157.251 48.7555 157.231 48.885 157.221 49.0046C157.211 49.1341 157.201 49.2536 157.201 49.3632C157.201 49.4828 157.191 49.5924 157.181 49.7019C157.181 49.8115 157.181 49.9211 157.171 50.0207C157.171 50.1303 157.161 50.22 157.151 50.3296C157.151 50.4292 157.141 50.5288 157.131 50.6284C157.121 50.7281 157.1 50.8277 157.09 50.9273C157.07 51.0269 157.09 51.1564 157.151 51.2959C157.201 51.4354 157.281 51.6047 157.381 51.7741C157.482 51.9435 157.602 52.1327 157.723 52.322C157.853 52.5113 157.984 52.7006 158.124 52.8899C158.395 53.2585 158.666 53.6171 158.877 53.8761C159.077 54.1352 159.218 54.3045 159.218 54.3045C159.579 54.5337 159.79 54.8325 159.9 55.1414C160.011 55.4303 160.021 55.7391 159.991 56.018C159.047 57.1637 158.074 58.1998 157.09 59.0765C155.997 60.0528 154.893 60.8398 153.849 61.4475C153.899 61.3877 153.949 61.3279 154.01 61.2582C154.271 60.9593 154.582 60.6704 154.973 60.3915C155.364 60.1225 155.736 59.7738 156.047 59.3853C156.358 58.9868 156.609 58.5485 156.759 58.0802C156.799 57.9607 156.83 57.8511 156.85 57.7316C156.87 57.612 156.89 57.4925 156.9 57.3729C156.9 57.2534 156.91 57.1338 156.91 57.0143C156.91 56.8947 156.89 56.7752 156.87 56.6556C156.83 56.4165 156.759 56.1874 156.659 55.9583C156.549 55.7291 156.408 55.5 156.237 55.2808C156.017 55.0019 155.786 54.703 155.565 54.3942C155.344 54.0854 155.113 53.7566 154.893 53.4278C154.672 53.109 154.461 52.7803 154.25 52.4615C154.04 52.1527 153.839 51.8438 153.648 51.5549C153.458 51.266 153.277 50.997 153.116 50.7579C152.956 50.5188 152.805 50.2997 152.685 50.1204C152.444 49.7617 152.304 49.5525 152.304 49.5525C152.394 49.692 152.514 49.951 152.625 50.2798C152.675 50.4391 152.735 50.6185 152.775 50.8177C152.785 50.8675 152.795 50.9173 152.815 50.9672C152.815 51.017 152.835 51.0668 152.846 51.1166C152.866 51.2162 152.886 51.3158 152.906 51.4254C152.946 51.6346 152.966 51.8438 152.986 52.053C153.006 52.2623 153.006 52.4715 153.006 52.6707C153.006 52.8699 152.986 53.0592 152.956 53.2286C152.946 53.3183 152.926 53.398 152.906 53.4777C152.886 53.5474 152.856 53.6271 152.835 53.6869C152.805 53.7566 152.785 53.8164 152.755 53.8861C152.725 53.9459 152.705 54.0057 152.685 54.0654C152.645 54.185 152.605 54.3045 152.565 54.4141C152.494 54.6333 152.434 54.8425 152.384 55.0318C152.354 55.1314 152.334 55.2211 152.304 55.3107C152.274 55.4004 152.253 55.49 152.223 55.5797C152.213 55.6195 152.193 55.6694 152.183 55.7092L152.163 55.7789L152.133 55.8387C152.103 55.9184 152.063 56.0081 152.023 56.0878C152.003 56.1276 151.993 56.1874 151.982 56.2472C151.982 56.3069 151.982 56.3667 151.982 56.4464C151.993 56.5959 152.033 56.7752 152.073 56.9744C152.163 57.3629 152.304 57.8312 152.444 58.2795C152.585 58.7378 152.725 59.1661 152.825 59.4849C152.936 59.8037 152.996 60.0129 152.996 60.0129C153.247 60.3716 153.347 60.7302 153.327 61.0789C153.327 61.1685 153.317 61.2482 153.297 61.3379C153.277 61.4176 153.257 61.4973 153.237 61.577C153.207 61.6567 153.177 61.7364 153.147 61.8061C153.147 61.8161 153.137 61.8261 153.127 61.836C152.725 62.0452 152.334 62.2246 151.972 62.374C151.842 62.4238 151.722 62.4736 151.601 62.5234C151.481 62.5633 151.36 62.6131 151.24 62.6529C151.119 62.6928 151.009 62.7326 150.889 62.7625C150.778 62.7924 150.668 62.8323 150.557 62.8621C149.684 63.0913 148.992 63.1809 148.52 63.2208C148.46 63.2208 148.41 63.2208 148.35 63.2307C148.32 63.2307 148.3 63.2307 148.279 63.2307C148.259 63.2307 148.229 63.2307 148.209 63.2307C148.119 63.2307 148.039 63.2307 147.978 63.2307C147.858 63.2307 146.212 63.1012 146.212 63.1012C146.212 63.1012 143.131 62.9518 142.349 62.5832C141.937 62.3939 141.425 62.4138 141.104 62.7127C140.813 62.9817 141.034 63.4698 141.205 64.227C141.566 65.8409 142.931 66.7773 142.72 68.1721C142.72 68.1721 143.764 66.6279 142.981 65.3228C142.981 65.3228 143.101 63.958 145.801 64.227C145.801 64.227 146.182 64.2469 146.624 64.2768C146.022 64.9742 145.45 66.3788 147.035 68.7499C149.283 72.1271 149.163 73.741 149.122 73.9801C149.183 73.6115 149.795 69.5668 148.4 68.182C146.563 66.3589 147.316 65.0937 148.209 64.3366C148.229 64.3366 148.239 64.3366 148.259 64.3366H148.34C148.34 64.3366 148.4 64.3366 148.43 64.3366C148.49 64.3366 148.55 64.3366 148.621 64.3266C149.153 64.2868 149.935 64.1871 150.899 63.9281C151.019 63.8982 151.14 63.8584 151.27 63.8185C151.39 63.7787 151.521 63.7488 151.651 63.699C151.782 63.6591 151.912 63.6093 152.053 63.5595C152.183 63.5097 152.324 63.4499 152.464 63.4001C152.886 63.2307 153.327 63.0215 153.769 62.7924C154.06 62.8123 154.371 62.8721 154.662 62.9717C155.013 63.1112 155.344 63.3304 155.575 63.7089C155.575 63.7089 155.756 63.8484 156.057 64.0576C156.358 64.2569 156.779 64.5258 157.241 64.7649C157.472 64.8845 157.713 65.004 157.964 65.1037C158.214 65.2033 158.455 65.293 158.696 65.3527C159.168 65.4723 159.619 65.5121 159.92 65.3926C160.071 65.3328 160.221 65.283 160.352 65.2431C160.492 65.2033 160.613 65.1734 160.743 65.1435C160.994 65.0837 161.245 65.0439 161.506 64.9941C161.636 64.9642 161.777 64.9343 161.917 64.8945C161.988 64.8745 162.068 64.8546 162.138 64.8247C162.218 64.8048 162.289 64.7749 162.379 64.745C162.54 64.6852 162.72 64.6155 162.911 64.5259C163.102 64.4362 163.302 64.3266 163.523 64.1971C163.744 64.0676 164.005 63.958 164.296 63.8584C164.597 63.7588 164.918 63.6691 165.259 63.5894C165.61 63.5097 165.962 63.44 166.333 63.3702C166.704 63.3104 167.076 63.2407 167.447 63.1909C168.922 62.9717 170.317 62.8223 170.738 62.8024C170.738 62.8024 170.658 62.8024 170.508 62.7924C170.357 62.7924 170.136 62.7725 169.865 62.7526C169.594 62.7326 169.263 62.6928 168.912 62.6529C168.551 62.6131 168.149 62.5633 167.738 62.4935C166.905 62.364 165.992 62.1847 165.119 61.9456C164.246 61.7165 163.423 61.4276 162.75 61.1088C162.218 60.8597 161.636 60.7103 161.034 60.6306C160.733 60.5907 160.432 60.5708 160.131 60.5708C159.981 60.5708 159.83 60.5708 159.68 60.5808C159.529 60.5808 159.378 60.6007 159.238 60.6107C159.168 60.6107 159.087 60.6306 159.017 60.6405C158.947 60.6405 158.867 60.6605 158.796 60.6704C158.646 60.6904 158.505 60.7202 158.365 60.7501C158.224 60.78 158.084 60.8099 157.943 60.8498C157.803 60.8896 157.672 60.9295 157.542 60.9793C157.412 61.0191 157.281 61.0689 157.151 61.1187C157.02 61.1685 156.9 61.2283 156.779 61.2881C156.539 61.4076 156.318 61.5471 156.097 61.6866C155.997 61.7563 155.886 61.836 155.776 61.8958C155.665 61.9556 155.555 62.0153 155.445 62.0652C155.234 62.1648 155.013 62.2445 154.802 62.2943C154.752 62.3142 154.702 62.3242 154.642 62.3341C154.602 62.3341 154.552 62.3541 154.511 62.364C155.615 61.7165 156.759 60.8996 157.883 59.8834C158.947 58.937 160.001 57.8212 161.004 56.5759C161.125 56.5361 161.245 56.4863 161.386 56.4663C161.556 56.4265 161.737 56.4066 161.917 56.4066C162.279 56.4066 162.66 56.4863 163.011 56.7353C163.011 56.7353 163.061 56.7552 163.162 56.7752C163.252 56.8051 163.393 56.8349 163.563 56.8848C163.904 56.9645 164.366 57.074 164.868 57.1438C165.36 57.2235 165.891 57.2733 166.343 57.2534C166.453 57.2534 166.574 57.2434 166.674 57.2334C166.775 57.2235 166.875 57.2036 166.965 57.1836C167.146 57.1338 167.296 57.074 167.417 56.9844C167.527 56.8947 167.638 56.815 167.738 56.7552C167.838 56.6855 167.949 56.6257 168.049 56.566C168.149 56.5062 168.25 56.4564 168.36 56.3966C168.46 56.3468 168.571 56.287 168.671 56.2272C169.103 55.9882 169.584 55.6893 170.207 55.0617C170.518 54.7429 170.999 54.444 171.551 54.1551C171.832 54.0156 172.123 53.8761 172.434 53.7367C172.735 53.5972 173.057 53.4677 173.368 53.3481C173.679 53.2286 173.98 53.109 174.281 52.9995C174.572 52.8899 174.853 52.8002 175.104 52.7006C175.606 52.5312 175.997 52.4017 176.198 52.3619C176.198 52.3619 176.117 52.3718 175.977 52.3918C175.836 52.4117 175.636 52.4416 175.375 52.4715C175.124 52.5013 174.823 52.5412 174.482 52.581C174.14 52.6209 173.769 52.6508 173.378 52.6707C172.976 52.7006 172.565 52.7205 172.143 52.7305C171.722 52.7305 171.28 52.7305 170.859 52.7305C170.648 52.7305 170.437 52.7106 170.227 52.7006C170.016 52.6807 169.815 52.6707 169.604 52.6508C169.203 52.6109 168.822 52.5611 168.47 52.4914C168.189 52.4316 167.908 52.4117 167.628 52.4117C167.347 52.4117 167.066 52.4216 166.785 52.4615C166.233 52.5412 165.681 52.6906 165.179 52.9098C164.165 53.3481 163.292 53.9957 162.74 54.7927C162.6 54.9919 162.449 55.1712 162.299 55.3306C162.138 55.49 161.978 55.6295 161.807 55.7491C161.717 55.8188 161.626 55.8686 161.536 55.9184C162.69 54.4141 163.774 52.7404 164.757 50.9273C165.179 50.1502 165.57 49.3333 165.952 48.5065C166.202 48.3371 166.483 48.1877 166.805 48.108C166.975 48.0681 167.156 48.0482 167.336 48.0482C167.517 48.0482 167.708 48.098 167.898 48.1677C167.898 48.1677 168.761 48.2176 169.715 48.1478C170.197 48.1179 170.688 48.0482 171.11 47.9386C171.531 47.829 171.872 47.6796 172.033 47.4704C172.113 47.3708 172.194 47.2811 172.274 47.1914C172.354 47.1018 172.434 47.0221 172.515 46.9523C172.675 46.8029 172.846 46.6535 173.016 46.4941C173.187 46.3347 173.368 46.1554 173.568 45.9262C173.759 45.6971 173.96 45.4281 174.181 45.0695C174.291 44.8901 174.431 44.7108 174.602 44.5215C174.783 44.3422 174.973 44.1529 175.194 43.9636C175.305 43.874 175.415 43.7744 175.535 43.6847C175.646 43.595 175.766 43.4954 175.897 43.4058C176.137 43.2165 176.398 43.0372 176.649 42.8578C176.9 42.6785 177.151 42.5092 177.392 42.3498C177.633 42.1904 177.853 42.0409 178.064 41.9114C178.275 41.7819 178.456 41.6624 178.616 41.5727C178.767 41.483 178.897 41.4133 178.977 41.3635C178.977 41.3635 178.907 41.3934 178.787 41.4432L178.827 41.3735Z" fill="#D1D5DB"/>
<defs>
<clipPath id="clip0_304_1665">
<rect width="90" height="36" fill="white" transform="translate(44.9626 5.99023)"/>
</clipPath>
</defs>
</svg>
