<svg width="186" height="74" viewBox="0 0 186 74" fill="none" xmlns="http://www.w3.org/2000/svg">
<path d="M36.6915 62.6179C35.9088 62.9765 32.8279 63.1359 32.8279 63.1359C32.8279 63.1359 31.1822 63.2654 31.0617 63.2654C31.0015 63.2654 30.9212 63.2654 30.8309 63.2654C30.8108 63.2654 30.7807 63.2654 30.7607 63.2654C30.7406 63.2654 30.7105 63.2654 30.6904 63.2654C30.6402 63.2654 30.58 63.2654 30.5198 63.2555C30.0482 63.2256 29.3457 63.1359 28.4827 62.8968C28.3723 62.8669 28.2619 62.8271 28.1515 62.7972C28.0411 62.7673 27.9207 62.7274 27.8003 62.6876C27.6798 62.6478 27.5594 62.6079 27.439 62.5581C27.3186 62.5083 27.1881 62.4585 27.0677 62.4087C26.6964 62.2592 26.305 62.0699 25.9136 61.8707C25.9136 61.8607 25.9036 61.8508 25.8936 61.8408C25.8534 61.7611 25.8233 61.6914 25.8032 61.6117C25.7731 61.532 25.7531 61.4523 25.743 61.3726C25.723 61.2929 25.723 61.2032 25.7129 61.1136C25.7029 60.7649 25.7932 60.4062 26.0441 60.0476C26.0441 60.0476 26.1143 59.8384 26.2147 59.5196C26.315 59.2008 26.4555 58.7724 26.596 58.3141C26.7365 57.8658 26.877 57.3976 26.9673 57.0091C27.0175 56.8098 27.0476 56.6305 27.0576 56.4811C27.0576 56.4113 27.0576 56.3416 27.0576 56.2818C27.0576 56.2221 27.0376 56.1723 27.0175 56.1224C26.9774 56.0328 26.9473 55.9531 26.9172 55.8734L26.8971 55.8136L26.877 55.7439C26.877 55.7439 26.8469 55.6542 26.8369 55.6144C26.8068 55.5247 26.7867 55.435 26.7566 55.3454C26.7265 55.2557 26.7064 55.1561 26.6763 55.0664C26.6261 54.8772 26.5659 54.6679 26.4856 54.4488C26.4455 54.3392 26.4154 54.2196 26.3652 54.1001C26.3451 54.0403 26.315 53.9805 26.295 53.9208C26.2749 53.861 26.2448 53.7913 26.2147 53.7215C26.1846 53.6518 26.1645 53.5821 26.1444 53.5123C26.1244 53.4326 26.1043 53.3529 26.0943 53.2633C26.0642 53.0839 26.0441 52.9046 26.0441 52.7054C26.0441 52.5061 26.0441 52.3069 26.0642 52.0877C26.0842 51.8785 26.1043 51.6693 26.1444 51.4601C26.1645 51.3605 26.1846 51.2509 26.2047 51.1513C26.2147 51.1014 26.2247 51.0516 26.2348 51.0018C26.2448 50.952 26.2548 50.9022 26.2649 50.8524C26.315 50.6531 26.3652 50.4738 26.4154 50.3144C26.5258 49.9857 26.6362 49.7266 26.7365 49.5872C26.7365 49.5872 26.596 49.8063 26.3552 50.155C26.2348 50.3343 26.0943 50.5535 25.9237 50.7926C25.7631 51.0317 25.5825 51.3106 25.3918 51.5896C25.2011 51.8785 25.0004 52.1873 24.7897 52.4962C24.5789 52.815 24.3582 53.1437 24.1474 53.4625C23.9266 53.7913 23.7059 54.12 23.4751 54.4289C23.2543 54.7377 23.0235 55.0366 22.8027 55.3155C22.6221 55.5347 22.4816 55.7538 22.3812 55.9929C22.2708 56.2221 22.2106 56.4512 22.1705 56.6903C22.1504 56.8098 22.1404 56.9294 22.1303 57.0489C22.1303 57.1685 22.1303 57.288 22.1404 57.4076C22.1504 57.5271 22.1705 57.6467 22.1905 57.7662C22.2106 57.8858 22.2507 57.9954 22.2809 58.1149C22.4314 58.5831 22.6823 59.0215 22.9934 59.42C23.3045 59.8085 23.6758 60.1671 24.0671 60.4262C24.4485 60.6951 24.7696 60.994 25.0305 61.2929C25.0807 61.3527 25.1309 61.4224 25.1911 61.4822C24.1474 60.8745 23.0536 60.0874 21.9497 59.1111C20.9662 58.2344 19.9928 57.1984 19.0495 56.0527C19.0294 55.7638 19.0395 55.4649 19.1398 55.176C19.2502 54.8572 19.471 54.5683 19.8222 54.3392C19.8222 54.3392 19.9627 54.1698 20.1634 53.9108C20.3741 53.6518 20.6451 53.3031 20.9161 52.9245C21.0565 52.7353 21.187 52.546 21.3175 52.3567C21.4479 52.1674 21.5583 51.9781 21.6587 51.8088C21.759 51.6294 21.8393 51.47 21.8895 51.3306C21.9397 51.1911 21.9597 51.0616 21.9497 50.962C21.9296 50.8623 21.9196 50.7627 21.9095 50.6631C21.8995 50.5635 21.8895 50.4639 21.8895 50.3642C21.8895 50.2646 21.8794 50.165 21.8694 50.0554C21.8694 49.9558 21.8694 49.8462 21.8594 49.7366C21.8594 49.627 21.8594 49.5174 21.8393 49.3979C21.8393 49.2883 21.8293 49.1588 21.8192 49.0392C21.8092 48.9097 21.7891 48.7802 21.7791 48.6507C21.759 48.5112 21.749 48.3718 21.7189 48.2124C21.6888 48.0629 21.6888 47.8936 21.6988 47.7043C21.6988 47.6146 21.7088 47.515 21.7189 47.4254C21.7289 47.3257 21.749 47.2261 21.7691 47.1265C21.8092 46.9272 21.8493 46.718 21.9095 46.5088C21.9698 46.2996 22.03 46.1004 22.1103 45.9011C22.1805 45.7019 22.2608 45.5026 22.3411 45.3333C22.4213 45.1539 22.5117 44.9846 22.5919 44.8352C22.6722 44.6857 22.7525 44.5562 22.8328 44.4367C22.9131 44.3271 22.9733 44.2374 23.0335 44.1776C23.0335 44.1776 22.311 44.9049 21.3676 45.8314C21.1268 46.0705 20.8759 46.3195 20.605 46.5786C20.334 46.8376 20.0631 47.0966 19.7921 47.3656C19.5111 47.6246 19.2301 47.8836 18.9491 48.1327C18.6681 48.3817 18.3872 48.6109 18.1162 48.8201C17.6847 49.1488 17.3836 49.5374 17.193 49.9657C17.0023 50.3941 16.932 50.8623 16.9421 51.3306C16.9722 52.277 17.3736 53.2433 17.8954 53.9905C18.0259 54.1798 18.1363 54.3591 18.2366 54.5484C18.337 54.7377 18.4072 54.917 18.4674 55.0963C18.5176 55.2258 18.5477 55.3553 18.5778 55.4749C18.5377 55.4251 18.4975 55.3753 18.4474 55.3155C17.3234 53.861 16.2697 52.2272 15.3164 50.4639C14.9451 49.7765 14.5938 49.0592 14.2627 48.3319C14.2627 48.312 14.2627 48.2921 14.2627 48.2721C14.2827 48.1227 14.3128 47.9832 14.363 47.8338C14.4132 47.6844 14.4834 47.5449 14.5738 47.4054C14.7544 47.1364 15.0153 46.9073 15.4067 46.7678C15.4067 46.7678 15.4468 46.7379 15.5171 46.6782C15.5873 46.6184 15.6877 46.5387 15.8181 46.4391C16.069 46.2398 16.4002 45.9709 16.7313 45.6819C16.9019 45.5325 17.0625 45.3831 17.2231 45.2336C17.3836 45.0842 17.5342 44.9348 17.6646 44.7853C17.9255 44.4964 18.0961 44.2374 18.1062 44.0382C18.1262 43.6397 18.2065 43.2711 18.2768 42.8626C18.3169 42.6534 18.3571 42.4342 18.3872 42.1951C18.4072 42.0756 18.4173 41.9461 18.4373 41.8166C18.4474 41.6871 18.4574 41.5476 18.4674 41.3982C18.4775 41.2487 18.5076 41.0893 18.5477 40.92C18.5979 40.7506 18.6581 40.5713 18.7284 40.392C18.7986 40.2126 18.8889 40.0234 18.9893 39.844C19.0896 39.6647 19.19 39.4854 19.3004 39.316C19.4108 39.1467 19.5211 38.9773 19.6315 38.8279C19.7419 38.6784 19.8623 38.539 19.9627 38.4095C20.1734 38.1604 20.3741 37.9811 20.5046 37.8914C20.5046 37.8914 19.6817 38.4194 18.618 39.1068C18.0761 39.4555 17.4639 39.854 16.8417 40.2326C16.2195 40.6111 15.5873 40.9797 14.9952 41.2686C14.5336 41.4978 14.1623 41.7966 13.9014 42.1653C13.7709 42.3446 13.6605 42.5438 13.5702 42.7431C13.4799 42.9523 13.4197 43.1615 13.3796 43.3807C13.209 44.2673 13.3595 45.2336 13.6806 46.0306C13.7609 46.2299 13.8211 46.4291 13.8612 46.6184C13.9114 46.8077 13.9415 46.997 13.9516 47.1763C13.9716 47.3556 13.9716 47.5349 13.9716 47.6943C13.9716 47.7143 13.9716 47.7242 13.9716 47.7441C13.5502 46.7977 13.1688 45.8214 12.8176 44.8252C12.4663 43.8389 12.1653 42.8327 11.8943 41.8166C11.7137 41.1391 11.5632 40.4617 11.4327 39.7843C11.4528 39.7145 11.4728 39.6448 11.4929 39.5751C11.5933 39.316 11.7438 39.057 11.9646 38.8478C12.1854 38.6386 12.4864 38.4792 12.8678 38.4194C12.8678 38.4194 13.0484 38.3397 13.3193 38.2003C13.5903 38.0707 13.9516 37.8815 14.3229 37.6822C14.6942 37.483 15.0755 37.2638 15.3766 37.0546C15.6776 36.8454 15.8984 36.6362 15.9586 36.4668C16.0088 36.2875 16.079 36.1281 16.1493 35.9587C16.1894 35.879 16.2195 35.7894 16.2597 35.7097C16.2998 35.63 16.34 35.5403 16.3801 35.4507C16.4202 35.361 16.4604 35.2713 16.5005 35.1717C16.5407 35.0721 16.5908 34.9824 16.631 34.8728C16.6711 34.7633 16.7213 34.6636 16.7614 34.5441C16.8016 34.4245 16.8518 34.305 16.8919 34.1854C16.912 34.1257 16.9421 34.0559 16.9722 33.9862C17.0023 33.9165 17.0424 33.8467 17.0826 33.777C17.1629 33.6375 17.2632 33.498 17.3736 33.3486C17.484 33.2091 17.6144 33.0697 17.7449 32.9302C17.8051 32.8605 17.8754 32.8007 17.9456 32.7309C18.0159 32.6712 18.0861 32.6014 18.1563 32.5417C18.2266 32.4819 18.2968 32.4221 18.3671 32.3623C18.4373 32.3026 18.5076 32.2528 18.5778 32.2029C18.7183 32.0934 18.8588 32.0037 18.9792 31.924C19.0495 31.8842 19.1097 31.8443 19.1699 31.8045C19.2301 31.7646 19.2903 31.7347 19.3405 31.7048C19.4509 31.6451 19.5412 31.6052 19.6115 31.5753C19.6115 31.5753 19.3907 31.6451 19.0294 31.7746C18.9391 31.8045 18.8387 31.8343 18.7284 31.8742C18.618 31.9041 18.5076 31.9439 18.3872 31.9838C18.1463 32.0635 17.8653 32.1432 17.5843 32.2328C17.2933 32.3225 16.9923 32.4221 16.6711 32.5317C16.35 32.6313 16.0188 32.7409 15.6877 32.8405C15.0253 33.0497 14.363 33.239 13.7509 33.3685C13.2692 33.4781 12.8678 33.6774 12.5366 33.9464C12.366 34.0858 12.2255 34.2353 12.1051 34.4046C11.9746 34.574 11.8642 34.7533 11.7839 34.9426C11.6936 35.1319 11.6133 35.3411 11.5632 35.5403C11.513 35.7495 11.4728 35.9587 11.4427 36.1679C11.4227 36.3772 11.4126 36.5963 11.4126 36.8055C11.4126 37.0147 11.4327 37.214 11.4628 37.4132C11.4728 37.5129 11.4829 37.6025 11.4929 37.7021C11.4929 37.8018 11.503 37.8914 11.4929 37.9811C11.4929 38.0707 11.4929 38.1604 11.4829 38.2501C11.4829 38.3397 11.4728 38.4194 11.4528 38.5091C11.4327 38.6784 11.3926 38.8378 11.3524 38.9873C11.3324 39.0471 11.3123 39.1068 11.2922 39.1666C11.2621 39.0172 11.232 38.8677 11.2019 38.7183C10.8406 36.6461 10.67 34.5441 10.7302 32.4819C10.7302 32.3524 10.7302 32.2229 10.7403 32.0934C10.7403 31.9639 10.7503 31.8343 10.7603 31.7048C10.7603 31.5753 10.7804 31.4558 10.7804 31.3263C10.7904 31.1968 10.8005 31.0672 10.8105 30.9377C10.8105 30.9377 10.8105 30.9278 10.8105 30.9178C10.8707 30.8082 10.941 30.6887 11.0313 30.5691C11.1818 30.3599 11.3926 30.1607 11.6535 30.0212C11.9144 29.8817 12.2155 29.812 12.5767 29.8518C12.5767 29.8518 12.7574 29.822 13.0384 29.7622C13.3193 29.7024 13.6906 29.6227 14.0921 29.5331C14.4834 29.4334 14.8848 29.3338 15.216 29.2143C15.3766 29.1545 15.5271 29.0947 15.6375 29.025C15.7579 28.9652 15.8482 28.8955 15.8884 28.8158C16.079 28.5269 16.2898 28.2778 16.5407 27.9989C16.6611 27.8594 16.7815 27.7099 16.912 27.5406C17.0525 27.3712 17.1829 27.1919 17.3335 26.9727C17.3535 26.9528 17.3736 26.9229 17.3937 26.893C17.4137 26.8632 17.4338 26.8432 17.4639 26.8133C17.5141 26.7536 17.5643 26.7038 17.6245 26.6539C17.7349 26.5444 17.8653 26.4348 17.9958 26.3352C18.1363 26.2355 18.2868 26.1259 18.4373 26.0363C18.5979 25.9367 18.7484 25.847 18.909 25.7673C19.2402 25.5979 19.5613 25.4684 19.8322 25.3688C20.1132 25.2692 20.344 25.2194 20.4845 25.2094C20.4845 25.2094 19.6115 25.2692 18.4775 25.3588C18.1865 25.3788 17.8754 25.3987 17.5643 25.4186C17.2532 25.4385 16.922 25.4684 16.6009 25.4784C16.2798 25.4983 15.9486 25.5083 15.6275 25.5182C15.4669 25.5182 15.3063 25.5182 15.1558 25.5182C15.0053 25.5182 14.8547 25.5182 14.7042 25.5182C14.2426 25.4983 13.8311 25.588 13.4598 25.7573C13.3695 25.7972 13.2792 25.847 13.1889 25.8968C13.0986 25.9466 13.0183 26.0064 12.948 26.0662C12.7875 26.1857 12.647 26.3252 12.5065 26.4746C12.366 26.6241 12.2556 26.7934 12.1552 26.9628C12.0549 27.1321 11.9545 27.3214 11.8743 27.5007C11.804 27.69 11.7338 27.8793 11.6836 28.0686C11.6334 28.2579 11.5933 28.4472 11.5632 28.6265C11.5431 28.8158 11.503 28.9851 11.4528 29.1545C11.4327 29.2342 11.4026 29.3139 11.3725 29.3936C11.3424 29.4733 11.3123 29.543 11.2822 29.6227C11.1618 29.8917 11.0112 30.1308 10.8707 30.33C10.8707 30.2802 10.8707 30.2304 10.8908 30.1706C10.9209 29.9216 10.951 29.6626 10.9811 29.4135C11.1116 28.4073 11.2922 27.421 11.513 26.4647C11.7338 25.5083 12.0047 24.5718 12.3058 23.6752C12.3861 23.4461 12.4663 23.2269 12.5366 23.0077C12.6169 22.7886 12.7072 22.5694 12.7875 22.3502C12.7875 22.3303 12.7975 22.3203 12.8075 22.3004C12.9079 22.1709 13.0685 22.0115 13.2692 21.8621C13.3695 21.7923 13.4799 21.7126 13.6003 21.6529C13.6605 21.623 13.7208 21.5931 13.781 21.5732C13.8412 21.5532 13.9114 21.5333 13.9817 21.5134C14.2526 21.4536 14.5436 21.4536 14.8648 21.5831C14.8648 21.5831 15.5572 21.6429 16.3099 21.6529C16.6912 21.6628 17.0826 21.6529 17.4037 21.6329C17.7349 21.6031 17.9958 21.5433 18.1162 21.4337C18.3671 21.2145 18.628 21.0352 18.9291 20.836C18.9993 20.7861 19.0796 20.7363 19.1599 20.6766C19.2402 20.6168 19.3204 20.557 19.4007 20.4972C19.5713 20.3777 19.7419 20.2283 19.9326 20.0689C20.1233 19.8995 20.3942 19.7501 20.7153 19.6006C20.8759 19.5309 21.0365 19.4711 21.2071 19.4114C21.2974 19.3815 21.3777 19.3516 21.458 19.3317C21.5483 19.3018 21.6286 19.2818 21.7189 19.252C22.4013 19.0627 23.0636 18.973 23.3346 19.0029C23.3346 19.0029 23.1339 18.983 22.7927 18.9431C22.6221 18.9232 22.4213 18.8933 22.1905 18.8634C21.9597 18.8335 21.7088 18.7937 21.4379 18.7638C20.896 18.6941 20.2838 18.6044 19.6817 18.4948C19.0796 18.3952 18.4775 18.2657 17.9456 18.1162C17.5342 17.9967 17.1327 17.9867 16.7514 18.0565C16.3701 18.1262 16.0188 18.2856 15.6977 18.4948C15.6174 18.5546 15.5371 18.6044 15.4669 18.6642C15.3966 18.724 15.3164 18.7837 15.2461 18.8535C15.1056 18.983 14.9752 19.1224 14.8547 19.2719C14.7343 19.4213 14.634 19.5807 14.5336 19.7401C14.4834 19.8198 14.4333 19.8995 14.3931 19.9792C14.353 20.0589 14.3128 20.1386 14.2727 20.2183C14.2024 20.3777 14.1222 20.5271 14.0318 20.6566C13.9415 20.7961 13.8512 20.9157 13.7509 21.0352C13.6505 21.1448 13.5502 21.2544 13.4498 21.354C13.3494 21.4437 13.2491 21.5333 13.1487 21.613C13.1186 21.6429 13.0885 21.6628 13.0484 21.6828C13.0885 21.5732 13.1387 21.4735 13.1788 21.364C13.219 21.2544 13.2692 21.1548 13.3193 21.0551C13.3695 20.9455 13.4097 20.8459 13.4598 20.7463C13.51 20.6467 13.5502 20.5371 13.6003 20.4375C13.7007 20.2382 13.791 20.039 13.8914 19.8397C13.9917 19.6405 14.0921 19.4512 14.1924 19.252C14.2426 19.1523 14.2928 19.0627 14.3429 18.963C14.3931 18.8734 14.4433 18.7738 14.5035 18.6841C14.5537 18.5944 14.6039 18.4948 14.654 18.4052C14.6841 18.3553 14.7042 18.3155 14.7343 18.2657C14.7644 18.2159 14.7845 18.176 14.8146 18.1262C14.925 17.9369 15.0253 17.7576 15.1357 17.5783C15.2461 17.399 15.3565 17.2196 15.4569 17.0503C15.507 16.9606 15.5572 16.871 15.6174 16.7913C15.6676 16.7016 15.7278 16.6219 15.778 16.5322C16.2496 15.795 16.7313 15.1076 17.203 14.47L17.2231 14.49C17.2231 14.49 17.2933 14.4202 17.4238 14.3306C17.5542 14.231 17.7349 14.1214 17.9556 14.0217C18.1764 13.9221 18.4173 13.8524 18.6782 13.8524C18.9391 13.8524 19.2101 13.9122 19.4609 14.0915C19.4609 14.0915 20.0831 14.2808 20.7655 14.4402C21.1067 14.5199 21.468 14.5896 21.7791 14.6095C22.0902 14.6394 22.3511 14.6294 22.4916 14.5398C22.7826 14.3704 23.0736 14.2409 23.4048 14.0915C23.7259 13.9321 24.0972 13.7528 24.5388 13.4738C24.7596 13.3343 25.0606 13.2048 25.3918 13.1052C25.723 12.9956 26.0842 12.9159 26.4355 12.8462C27.1379 12.7167 27.8103 12.6569 28.0612 12.7067C28.0612 12.7067 27.8705 12.6768 27.5494 12.6071C27.2283 12.5473 26.7767 12.4477 26.2749 12.3282C25.2613 12.0891 24.017 11.7603 23.0937 11.3419C22.3611 11.0131 21.5985 11.0928 20.9261 11.3917C20.7555 11.4614 20.5949 11.5511 20.4344 11.6507C20.2738 11.7503 20.1233 11.8599 19.9828 11.9795C19.8423 12.099 19.7118 12.2186 19.5814 12.3481C19.5211 12.4079 19.4609 12.4776 19.4007 12.5473C19.3405 12.6071 19.2903 12.6768 19.2402 12.7466C19.1398 12.8761 19.0294 12.9956 18.919 13.1052C18.8086 13.2148 18.6882 13.3144 18.5778 13.3941C18.4574 13.4738 18.347 13.5535 18.2266 13.6233C18.1062 13.693 17.9958 13.7528 17.8954 13.8026C17.7951 13.8424 17.7048 13.8823 17.6245 13.9122C17.8754 13.5834 18.1162 13.2646 18.3571 12.9657C18.628 12.627 18.899 12.2983 19.1498 11.9994C19.5814 11.4814 21.177 9.16014 21.7189 8.37312C22.0902 8.09417 22.5418 7.89493 23.0435 7.90489C23.0435 7.90489 26.1143 7.02821 26.4254 6.23122C26.7365 5.43424 27.1781 4.81657 27.5795 3.55136C27.9809 2.28615 29.7371 0.353462 30.299 0.034668C30.299 0.034668 26.9172 1.91754 24.4485 2.46547C22.5016 2.90381 21.8092 4.98593 21.8092 6.63968C21.8092 7.24738 21.6085 7.78534 21.3576 8.21372C19.8824 9.82761 17.8252 12.099 17.6245 12.3481C17.4438 12.5772 17.2331 12.8263 17.0224 13.0654C17.0224 12.9956 17.0324 12.9259 17.0424 12.8462C17.0826 12.5971 17.1629 12.3282 17.2833 12.0392C17.3435 11.8898 17.4238 11.7503 17.5141 11.6009C17.6044 11.4614 17.7148 11.312 17.8352 11.1725C18.337 10.6047 18.8086 9.89735 19.0395 9.14021C19.1599 8.76165 19.2101 8.37312 19.1799 7.99455C19.1498 7.61598 19.0294 7.24738 18.7986 6.88873C18.2065 6.00209 17.6947 4.74684 17.3435 3.72072C17.1729 3.20268 17.0324 2.74441 16.932 2.41566C16.8417 2.0869 16.7915 1.88766 16.7915 1.88766C16.8618 2.15664 16.8317 2.86396 16.7213 3.65098C16.6611 4.03951 16.5808 4.44797 16.4805 4.82654C16.3801 5.2051 16.2496 5.55378 16.1092 5.83273C15.5171 6.92858 15.3966 7.61598 15.0755 8.35319C14.915 8.73176 15.1959 9.4889 15.5371 10.1564C15.7077 10.4851 15.8884 10.794 16.0188 11.0131C16.1593 11.2323 16.2496 11.3718 16.2496 11.3718C16.5206 11.571 16.6611 11.8201 16.7414 12.0791C16.8116 12.3381 16.8016 12.6071 16.7715 12.8562C16.7414 13.1052 16.6711 13.3244 16.6109 13.4838C16.6109 13.5137 16.5908 13.5236 16.5908 13.5436C15.9687 14.2708 15.3164 15.0479 14.7544 15.9245C14.6942 16.0142 14.644 16.1039 14.5838 16.1836C14.5236 16.2732 14.4734 16.3629 14.4132 16.4525C14.3028 16.6319 14.1924 16.8112 14.082 17.0005C13.9716 17.1898 13.8612 17.3691 13.7609 17.5584C13.7308 17.6082 13.7107 17.648 13.6806 17.6978C13.6505 17.7476 13.6304 17.7975 13.6003 17.8473C13.5502 17.9469 13.5 18.0366 13.4398 18.1362C13.3896 18.2358 13.3294 18.3354 13.2792 18.4251C13.229 18.5247 13.1788 18.6243 13.1186 18.724C13.0183 18.9232 12.9079 19.1224 12.8075 19.3317C12.7072 19.5409 12.6068 19.7501 12.5065 19.9493C12.4563 20.0589 12.4061 20.1585 12.366 20.2681C12.3158 20.3777 12.2656 20.4773 12.2255 20.5869C12.2155 20.6168 12.2054 20.6467 12.1854 20.6666C12.1854 20.4773 12.1854 20.2781 12.2155 20.0589C12.2255 19.9792 12.2456 19.8995 12.2656 19.8098C12.2857 19.7301 12.3058 19.6405 12.3359 19.5608C12.3961 19.3914 12.4663 19.2121 12.5567 19.0427C12.7473 18.6941 12.8979 18.3055 13.0183 17.907C13.0484 17.8074 13.0785 17.7078 13.0986 17.6082C13.1186 17.4986 13.1387 17.399 13.1588 17.2993C13.1989 17.0901 13.219 16.8809 13.229 16.6717C13.229 16.4625 13.229 16.2533 13.209 16.0441C13.1889 15.8349 13.1387 15.6356 13.0785 15.4364C12.9581 15.0379 12.7473 14.6693 12.4362 14.3405C12.2355 14.1313 12.0449 13.9022 11.8542 13.6531C11.6635 13.4041 11.4829 13.1351 11.3022 12.8661C11.1216 12.5872 10.951 12.3082 10.8005 12.0293C10.6399 11.7503 10.4994 11.4714 10.3589 11.2024C10.098 10.6644 9.87724 10.1763 9.73674 9.82761C9.59625 9.47893 9.51597 9.25976 9.51597 9.25976C9.56614 9.4092 9.61632 9.68814 9.64642 10.0468C9.68657 10.4054 9.71667 10.8438 9.72671 11.302C9.75681 12.2285 9.72671 13.2248 9.50593 13.9022C9.45575 14.0716 9.40558 14.221 9.36544 14.3704C9.3253 14.5199 9.29519 14.6593 9.27512 14.7888C9.22494 15.0578 9.1848 15.287 9.16473 15.5161C9.14466 15.7452 9.12459 15.9544 9.10452 16.1537C9.09448 16.2533 9.08445 16.3629 9.06438 16.4625C9.05434 16.5621 9.03427 16.6717 9.0142 16.7813C8.97406 17.0005 9.07441 17.2993 9.24501 17.6082C9.42565 17.927 9.67653 18.2557 9.93745 18.5646C10.1984 18.8734 10.4593 19.1424 10.66 19.3416C10.8607 19.5309 11.0012 19.6604 11.0012 19.6604C11.3324 19.7999 11.5531 20.0191 11.6936 20.2681C11.8442 20.5172 11.9044 20.7961 11.9445 21.0551C11.9445 21.1249 11.9445 21.1747 11.9545 21.2444C11.8642 21.4636 11.7639 21.6828 11.6836 21.9119C11.5933 22.141 11.513 22.3602 11.4227 22.5893C11.3424 22.8185 11.2621 23.0476 11.1818 23.2767C10.8707 24.2132 10.5998 25.1795 10.3589 26.1658C10.1382 27.162 9.95752 28.1782 9.81702 29.2143C9.79695 29.3537 9.78692 29.4932 9.76685 29.6327C9.71667 29.4733 9.6665 29.294 9.63639 29.1047C9.61632 28.9353 9.59625 28.756 9.60628 28.5667C9.60628 28.477 9.60628 28.3774 9.61632 28.2778C9.61632 28.1782 9.63639 28.0786 9.65646 27.9789C9.6966 27.7797 9.72671 27.5705 9.73674 27.3513C9.73674 27.2417 9.73674 27.1321 9.73674 27.0325C9.73674 26.9229 9.73674 26.8133 9.73674 26.7038C9.72671 26.4846 9.6966 26.2654 9.65646 26.0462C9.61632 25.8271 9.56614 25.6079 9.49589 25.3987C9.3554 24.9703 9.16473 24.5619 8.90381 24.1933C8.77335 24.004 8.62282 23.8346 8.45222 23.6752C8.28162 23.5158 8.10099 23.3763 7.89025 23.2468C7.36841 22.928 6.80644 22.5096 6.27457 22.0314C5.7427 21.5632 5.24093 21.0452 4.80942 20.557C4.58864 20.308 4.39797 20.0788 4.21733 19.8597C4.0367 19.6405 3.88617 19.4412 3.76575 19.2818C3.51486 18.9431 3.36433 18.7339 3.36433 18.7339C3.45465 18.8734 3.58511 19.1723 3.74568 19.5508C3.82596 19.7401 3.90624 19.9493 3.98652 20.1784C4.07684 20.4076 4.15712 20.6467 4.24744 20.8858C4.28758 21.0053 4.32772 21.1348 4.36786 21.2544C4.408 21.3739 4.44814 21.5034 4.48829 21.623C4.56857 21.872 4.63882 22.1311 4.69903 22.3702C4.72913 22.4897 4.75924 22.6092 4.77931 22.7288C4.80942 22.8483 4.82949 22.9579 4.83952 23.0675C4.86963 23.2867 4.8897 23.4959 4.8897 23.6852C4.8897 23.8745 4.8897 24.0438 4.8897 24.2132C4.8897 24.3726 4.90977 24.522 4.92984 24.6615C4.94991 24.801 4.95994 24.9305 4.98002 25.06C5.00009 25.1795 5.03019 25.2991 5.05026 25.4186C5.15062 25.8669 5.25097 26.2355 5.32122 26.7137C5.35132 26.9429 5.54199 27.2218 5.82298 27.4908C6.10397 27.7598 6.46524 28.0188 6.82651 28.2579C7.18778 28.487 7.53901 28.6863 7.80997 28.8257C7.94043 28.8955 8.05081 28.9552 8.1311 28.9851C8.21138 29.025 8.25152 29.0449 8.25152 29.0449C8.63286 29.0847 8.92388 29.2441 9.14466 29.4534C9.37547 29.6626 9.53604 29.9216 9.64642 30.1706C9.6665 30.2005 9.6665 30.2304 9.68657 30.2603C9.68657 30.3001 9.68657 30.34 9.67653 30.3798C9.67653 30.5094 9.65646 30.6389 9.64642 30.7783C9.63639 30.9079 9.62635 31.0473 9.61632 31.1768C9.61632 31.3063 9.59625 31.4359 9.59625 31.5753C9.59625 31.7048 9.57618 31.8443 9.57618 31.9738C9.57618 32.1033 9.57618 32.2428 9.56614 32.3723C9.50593 34.5042 9.67653 36.676 10.0478 38.8179C10.0478 38.8378 10.0478 38.8578 10.0579 38.8777C9.97759 38.7482 9.88727 38.6087 9.81702 38.4593C9.65646 38.1305 9.53604 37.742 9.48586 37.3136C9.38551 36.4569 9.02424 35.5602 8.45222 34.7832C8.17124 34.3947 7.82 34.046 7.42863 33.7571C7.22792 33.6076 7.01718 33.4781 6.7964 33.3685C6.57563 33.259 6.34481 33.1593 6.09393 33.0996C5.78284 33.0099 5.45167 32.9003 5.11047 32.7708C4.93987 32.7011 4.76927 32.6313 4.59867 32.5616C4.42807 32.4819 4.25747 32.4022 4.08687 32.3225C3.39444 31.9937 2.71204 31.6052 2.11996 31.2266C1.8189 31.0374 1.54795 30.8481 1.29706 30.6688C1.04618 30.4994 0.835441 30.35 0.654806 30.2105C0.293536 29.9415 0.0727594 29.7721 0.0727594 29.7721C0.203218 29.8917 0.444065 30.1507 0.735088 30.4894C0.875583 30.6588 1.03615 30.858 1.20675 31.0672C1.28703 31.1669 1.37735 31.2765 1.45763 31.396C1.53791 31.5056 1.62823 31.6251 1.71855 31.7347C1.88915 31.9639 2.06978 32.2029 2.23035 32.442C2.40095 32.6811 2.56151 32.9103 2.70201 33.1494C2.8425 33.3785 2.98299 33.6076 3.09338 33.8168C3.20377 34.036 3.28405 34.2353 3.34426 34.4245C3.40448 34.6138 3.45465 34.7931 3.51486 34.9525C3.57508 35.1119 3.63529 35.2514 3.6955 35.3909C3.81592 35.6499 3.93635 35.8691 4.05677 36.0683C4.17719 36.2676 4.29762 36.4469 4.408 36.6362C4.51839 36.8255 4.62878 37.0147 4.72913 37.2439C4.82949 37.473 5.11047 37.6922 5.48178 37.8815C5.66242 37.9811 5.86312 38.0707 6.07386 38.1504C6.2846 38.2301 6.50538 38.2999 6.72616 38.3696C7.15767 38.4991 7.57916 38.5987 7.89025 38.6685C8.20134 38.7382 8.41208 38.7681 8.41208 38.7681C8.80346 38.7083 9.1547 38.788 9.44572 38.9375C9.59625 39.0072 9.72671 39.1068 9.84713 39.2064C9.96755 39.3061 10.0779 39.4157 10.1783 39.5252C10.1783 39.5252 10.1783 39.5352 10.1984 39.5452C10.3589 40.3621 10.5396 41.1889 10.7503 41.9959C11.0213 43.0419 11.3424 44.078 11.7037 45.0942C12.0248 46.0107 12.376 46.8974 12.7574 47.774C12.4061 47.4254 12.0549 46.9671 11.8341 46.3793C11.513 45.5225 10.8808 44.7156 10.0579 44.0979C9.64642 43.7891 9.19484 43.5301 8.69307 43.3408C8.20134 43.1515 7.67951 43.032 7.1376 43.022C6.44517 43.0121 5.66242 42.9124 4.86963 42.763C4.66892 42.7231 4.46822 42.6833 4.26751 42.6434C4.0668 42.6036 3.87613 42.5538 3.67543 42.504C3.28405 42.4044 2.90271 42.3047 2.54144 42.2051C1.8189 41.9959 1.19671 41.7767 0.745124 41.6074C0.514312 41.5277 0.343712 41.4579 0.213253 41.4081C0.09283 41.3583 0.022583 41.3284 0.022583 41.3284C0.102865 41.3683 0.233324 41.438 0.383853 41.5376C0.534383 41.6273 0.725053 41.7468 0.935794 41.8763C1.14654 42.0059 1.36731 42.1553 1.60816 42.3147C1.84901 42.4741 2.09989 42.6434 2.35077 42.8228C2.60165 43.0021 2.85253 43.1814 3.10342 43.3707C3.22384 43.4604 3.34426 43.56 3.46469 43.6496C3.58511 43.7493 3.6955 43.8389 3.80589 43.9286C4.02666 44.1179 4.22737 44.3071 4.39797 44.4865C4.56857 44.6758 4.7191 44.8551 4.81945 45.0344C5.04023 45.3831 5.24093 45.662 5.4316 45.8912C5.62227 46.1203 5.80291 46.2896 5.98354 46.459C6.15414 46.6184 6.32474 46.7579 6.48531 46.9173C6.56559 46.997 6.64587 47.0767 6.72616 47.1564C6.80644 47.246 6.88672 47.3357 6.967 47.4353C7.12757 47.6346 7.46877 47.794 7.89025 47.9035C8.31173 48.0131 8.80346 48.0729 9.28515 48.1128C10.2385 48.1825 11.1015 48.1327 11.1015 48.1327C11.2922 48.053 11.4829 48.0131 11.6635 48.0131C11.8442 48.0131 12.0248 48.0231 12.1954 48.0729C12.5165 48.1526 12.7975 48.302 13.0484 48.4714C13.4197 49.2983 13.8211 50.1052 14.2426 50.8922C15.216 52.7054 16.2998 54.379 17.4639 55.8833C17.3736 55.8236 17.2833 55.7738 17.193 55.714C17.0324 55.5944 16.8618 55.455 16.7012 55.2956C16.5407 55.1362 16.4002 54.9569 16.2597 54.7576C15.7077 53.9606 14.8347 53.3131 13.8211 52.8747C13.3193 52.6655 12.7674 52.5061 12.2155 52.4264C11.9345 52.3866 11.6535 52.3667 11.3725 52.3766C11.0915 52.3766 10.8105 52.4065 10.5295 52.4563C10.1783 52.526 9.79695 52.5759 9.39554 52.6157C9.19484 52.6356 8.9841 52.6556 8.77335 52.6655C8.56261 52.6755 8.35187 52.6854 8.14113 52.6954C7.71965 52.7054 7.2781 52.7054 6.85661 52.6954C6.4251 52.6954 6.01365 52.6655 5.62227 52.6356C5.2309 52.6157 4.84956 52.5759 4.51839 52.546C4.17719 52.5161 3.87613 52.4762 3.62525 52.4364C3.37437 52.4065 3.17366 52.3766 3.02313 52.3567C2.88264 52.3368 2.80236 52.3268 2.80236 52.3268C2.99303 52.3766 3.39444 52.4962 3.8962 52.6655C4.14709 52.7552 4.42807 52.8548 4.7191 52.9644C5.01012 53.074 5.31118 53.1935 5.63231 53.3131C5.9434 53.4326 6.2545 53.5621 6.56559 53.7016C6.87669 53.8311 7.16771 53.9706 7.4487 54.12C8.01067 54.4089 8.48233 54.7078 8.79342 55.0266C9.41561 55.6642 9.89731 55.963 10.3288 56.1922C10.4392 56.2519 10.5396 56.3018 10.6399 56.3615C10.7403 56.4213 10.8406 56.4711 10.951 56.5309C11.0514 56.5907 11.1517 56.6504 11.2621 56.7202C11.3625 56.7899 11.4728 56.8696 11.5832 56.9493C11.6936 57.039 11.8442 57.0987 12.0348 57.1486C12.1251 57.1685 12.2255 57.1884 12.3258 57.1984C12.4262 57.2083 12.5466 57.2183 12.657 57.2183C13.1186 57.2382 13.6405 57.1884 14.1322 57.1087C14.6239 57.029 15.0956 56.9294 15.4368 56.8497C15.6074 56.8098 15.7479 56.77 15.8382 56.7401C15.9386 56.7102 15.9887 56.7003 15.9887 56.7003C16.34 56.4512 16.7213 56.3615 17.0826 56.3715C17.2632 56.3715 17.4438 56.3914 17.6144 56.4313C17.7449 56.4612 17.8653 56.501 17.9958 56.5409C18.9993 57.7762 20.053 58.892 21.1168 59.8483C22.2507 60.8645 23.3948 61.6814 24.4886 62.329C24.4485 62.329 24.3983 62.309 24.3582 62.2991C24.308 62.2891 24.2578 62.2692 24.1976 62.2592C23.9869 62.1994 23.7661 62.1297 23.5553 62.0301C23.4449 61.9803 23.3346 61.9205 23.2342 61.8607C23.1238 61.801 23.0235 61.7312 22.9131 61.6515C22.7023 61.5021 22.4816 61.3626 22.2307 61.253C22.1103 61.1933 21.9898 61.1335 21.8594 61.0837C21.7289 61.0339 21.5985 60.984 21.468 60.9442C21.3375 60.8944 21.2071 60.8545 21.0666 60.8147C20.9261 60.7748 20.7856 60.7449 20.6451 60.7151C20.5046 60.6852 20.3641 60.6553 20.2136 60.6354C20.1433 60.6254 20.0731 60.6154 19.9928 60.6055C19.9226 60.6055 19.8523 60.5856 19.772 60.5756C19.6215 60.5557 19.481 60.5457 19.3305 60.5457C19.1799 60.5457 19.0294 60.5357 18.8789 60.5357C18.5778 60.5357 18.2768 60.5557 17.9757 60.5955C17.3836 60.6653 16.8016 60.8246 16.2697 61.0737C15.5974 61.3925 14.7745 61.6814 13.9014 61.9105C13.0384 62.1496 12.1151 62.329 11.2822 62.4585C10.8707 62.5182 10.4693 62.578 10.108 62.6179C9.74678 62.6577 9.42565 62.6876 9.1547 62.7175C8.88374 62.7374 8.66297 62.7573 8.51244 62.7573C8.36191 62.7573 8.28162 62.7673 8.28162 62.7673C8.71314 62.7872 10.098 62.9367 11.5732 63.1558C11.9445 63.2156 12.3158 63.2754 12.6871 63.3352C13.0584 63.4049 13.4197 63.4746 13.7609 63.5543C14.1121 63.634 14.4232 63.7237 14.7243 63.8233C15.0253 63.9229 15.2762 64.0425 15.497 64.162C15.7178 64.2915 15.9185 64.4011 16.1092 64.4908C16.2998 64.5804 16.4805 64.6502 16.641 64.7099C16.7213 64.7398 16.8016 64.7697 16.8819 64.7896C16.9621 64.8096 17.0324 64.8395 17.1026 64.8594C17.2431 64.8992 17.3836 64.9291 17.5141 64.959C17.775 65.0188 18.0259 65.0586 18.2768 65.1084C18.4072 65.1383 18.5277 65.1682 18.6681 65.2081C18.8086 65.2479 18.9491 65.2977 19.0997 65.3575C19.4007 65.477 19.8523 65.4472 20.324 65.3176C20.5648 65.2579 20.8057 65.1682 21.0565 65.0686C21.2974 64.969 21.5483 64.8494 21.7791 64.7299C22.2407 64.4908 22.6622 64.2218 22.9633 64.0225C23.2643 63.8233 23.4449 63.6739 23.4449 63.6739C23.6758 63.3053 24.0069 63.0761 24.3582 62.9367C24.6492 62.8271 24.9502 62.7773 25.2513 62.7573C25.7029 62.9865 26.1444 63.1957 26.5559 63.365C26.6964 63.4248 26.8268 63.4746 26.9673 63.5244C27.1078 63.5742 27.2383 63.6241 27.3687 63.6639C27.4992 63.7137 27.6297 63.7436 27.7501 63.7835C27.8805 63.8233 28.001 63.8632 28.1214 63.893C29.0848 64.1521 29.8675 64.2517 30.3994 64.2915C30.4696 64.2915 30.5299 64.2915 30.5901 64.3015C30.6202 64.3015 30.6503 64.3015 30.6804 64.3015H30.7607C30.7607 64.3015 30.7908 64.3015 30.8108 64.3015C31.704 65.0586 32.4566 66.3238 30.6202 68.1469C29.2253 69.5317 29.8374 73.5764 29.8976 73.945C29.8675 73.7059 29.7371 72.092 31.985 68.7148C33.5706 66.3438 32.9985 64.9391 32.3964 64.2417C32.838 64.2218 33.2193 64.1919 33.2193 64.1919C35.9188 63.9229 36.0392 65.2878 36.0392 65.2878C35.2565 66.5829 36.3002 68.137 36.3002 68.137C36.0894 66.7422 37.4442 65.8058 37.8155 64.1919C37.9861 63.4348 38.1968 62.9466 37.9158 62.6776C37.5847 62.3688 37.0829 62.3489 36.6715 62.5481L36.6915 62.6179Z" fill="#D1D5DB"/>
<path fill-rule="evenodd" clip-rule="evenodd" d="M81.8726 32.311C81.8726 28.7228 79.3552 26.5799 75.5798 26.564C71.7559 26.564 69.2877 28.9273 69.2877 32.2791C69.2877 35.8832 71.8044 38.0268 75.5798 38.0268C79.405 38.0268 81.8726 35.6606 81.8726 32.311ZM79.6587 32.2951C79.6587 34.6287 78.0966 36.2009 75.597 36.2009V36.1987C72.912 36.1827 71.5022 34.4684 71.5022 32.2951C71.5022 29.9773 73.0478 28.4052 75.5645 28.3892C78.2495 28.4052 79.6587 30.1195 79.6587 32.2951Z" fill="#FF0D65"/>
<path fill-rule="evenodd" clip-rule="evenodd" d="M107.326 32.311C107.326 28.7228 104.809 26.5799 101.034 26.564C97.2088 26.564 94.7424 28.9273 94.7412 32.2791C94.7412 35.8832 97.2585 38.0268 101.034 38.0268C104.859 38.0268 107.326 35.6606 107.326 32.311ZM105.113 32.2951C105.113 34.6287 103.551 36.2009 101.051 36.2009L101.051 36.1987C98.3667 36.1827 96.9569 34.4684 96.9563 32.2951C96.9563 29.9773 98.5013 28.4052 101.019 28.3892C103.703 28.4052 105.113 30.1195 105.113 32.2951Z" fill="#FF0D65"/>
<path fill-rule="evenodd" clip-rule="evenodd" d="M109.525 37.8502V26.7368H114.626C117.244 26.7368 118.586 27.6571 118.586 29.499C118.586 30.7688 118.049 31.6107 116.841 32.0553C118.284 32.2931 118.939 33.1663 118.939 34.6108C118.939 36.9132 117.193 37.8502 114.34 37.8502H109.525ZM114.324 31.4359C115.65 31.4359 116.488 30.8805 116.488 29.9276C116.488 29.0385 115.867 28.5621 114.374 28.5621H111.623V31.4359H114.324ZM114.477 36.0242C116.086 36.0242 116.826 35.5318 116.826 34.4679C116.826 33.4041 115.988 32.9915 114.511 32.9915H111.625V36.0242H114.477Z" fill="#FF0D65"/>
<path fill-rule="evenodd" clip-rule="evenodd" d="M125.013 30.1974H123.418V26.7368H121.321V37.8502H125.032C128.455 37.8502 130.301 36.5477 130.301 33.9603C130.301 31.4519 128.737 30.1974 125.013 30.1974ZM123.418 36.0242V32.0233H125.197C127.244 32.0233 128.133 32.547 128.133 33.9124C128.133 35.4208 127.127 36.0242 125.163 36.0242H123.418Z" fill="#FF0D65"/>
<path d="M134.594 33.0394H139.997L139.999 31.2134H134.596V28.5621H140.62V26.7368H132.496V37.8502H140.802V36.0242H134.594V33.0394Z" fill="#FF0D65"/>
<path fill-rule="evenodd" clip-rule="evenodd" d="M86.1652 34.3889V37.8502H84.0674V26.7368H87.9761C91.6839 26.7368 93.2645 27.9906 93.2645 30.499C93.2645 33.0872 91.4192 34.3889 87.9761 34.3889H86.1652ZM86.1652 28.5621V32.5629H88.1278C90.0745 32.5629 91.0807 31.9595 91.0807 30.4519C91.0807 29.0864 90.209 28.5621 88.1616 28.5621H86.1652Z" fill="#FF0D65"/>
<path fill-rule="evenodd" clip-rule="evenodd" d="M57.3909 36.0242C58.0617 34.5158 58.5482 32.42 58.5992 29.0385L58.6323 26.7368H66.8877V36.0242H68.2465V39.914H66.2839V37.8502H58.0782V39.914H56.1156V36.0242H57.3909ZM59.4383 36.0242H64.7899V28.5621H60.5458V29.0864C60.4783 31.9914 60.1066 34.2779 59.4383 36.0242Z" fill="#FF0D65"/>
<path d="M50.0747 26.5781C48.2122 26.5781 46.8534 27.1017 46.182 27.5622L46.1802 30.3244C46.8688 29.3403 48.2952 28.3722 50.0729 28.4034C51.315 28.4353 52.288 28.8479 52.288 29.8798C52.288 30.7058 51.7677 31.3883 50.2578 31.3883H48.4948V33.0235H50.2738C52.1025 33.0235 52.8747 33.484 52.8747 34.468C52.8747 35.5957 51.7339 36.1672 50.3076 36.1831C48.1422 36.1991 46.6157 35.31 45.8945 34.1824V36.6277C46.5186 37.2941 48.1422 38.0251 50.2738 38.0091C53.4287 37.9932 55.056 36.5167 55.056 34.5957C55.056 33.1345 54.1855 32.2454 52.3734 31.9916C53.7328 31.5311 54.454 30.6739 54.454 29.3722C54.454 27.4193 52.7088 26.5941 50.0747 26.5781Z" fill="#FF0D65"/>
<path d="M76.9456 17.3446C77.7082 17.3486 78.4595 17.1714 79.1299 16.8293L79.6907 16.5436L81.3279 17.6785C80.2477 18.7666 78.6555 19.3647 76.8316 19.3647C75.088 19.3647 73.4943 18.7825 72.3544 17.7339C71.2144 16.6853 70.5863 15.228 70.5863 13.6447C70.5863 12.0614 71.2236 10.6257 72.3613 9.61455C73.4989 8.60343 75.0918 8.04639 76.8477 8.04639C78.4665 8.04639 79.882 8.50915 80.9416 9.38498L81.0617 9.48071L79.2469 10.7387C78.5764 10.2876 77.7699 10.0503 76.9456 10.0615C74.6649 10.0615 73.0093 11.5929 73.0093 13.703C73.0093 15.8131 74.6649 17.3446 76.9456 17.3446Z" fill="#21A038"/>
<path fill-rule="evenodd" clip-rule="evenodd" d="M89.0813 12.4876H86.0027V10.0248H90.9167L93.5654 8.18896H83.4725V19.2179H88.7516C91.7147 19.2179 93.4139 17.955 93.4139 15.7534C93.417 13.6477 91.8769 12.4876 89.0813 12.4876ZM88.6406 17.3813H86.0027V14.3242H88.6406C90.2473 14.3242 90.994 14.8359 90.994 15.8528C90.994 16.892 90.1991 17.3813 88.6406 17.3813Z" fill="#21A038"/>
<path d="M104.638 8.18896L101.989 10.0248H98.3027V12.7215H103.706V14.5581H98.3027V17.3813H104.638V19.2179H95.7726V8.18896H104.638Z" fill="#21A038"/>
<path fill-rule="evenodd" clip-rule="evenodd" d="M106.993 8.18896H111.82C114.9 8.18896 116.811 9.70098 116.811 12.1357C116.811 14.5703 114.898 16.0938 111.819 16.0938H109.524V19.2179H106.993V8.18896ZM109.524 14.2572H111.766C113.387 14.2572 114.279 13.5059 114.279 12.1414C114.279 10.7769 113.387 10.0248 111.766 10.0248H109.524V14.2572Z" fill="#21A038"/>
<path d="M78.8487 51.5734L80.1686 54.2349C80.3485 54.6054 80.8285 54.9608 81.2334 55.0288L83.6257 55.4296C85.1555 55.6866 85.5155 56.8057 84.4131 57.9096L82.5533 59.7848C82.2383 60.1023 82.0658 60.7148 82.1633 61.1533L82.6958 63.4746C83.1157 65.312 82.1483 66.0227 80.536 65.0624L78.2938 63.7241C77.8888 63.4822 77.2214 63.4822 76.8089 63.7241L74.5667 65.0624C72.9619 66.0227 71.987 65.3044 72.4069 63.4746L72.9394 61.1533C73.0368 60.7148 72.8644 60.1023 72.5494 59.7848L70.6896 57.9096C69.5947 56.8057 69.9472 55.6866 71.477 55.4296L73.8693 55.0288C74.2667 54.9608 74.7467 54.6054 74.9266 54.2349L76.2465 51.5734C76.9664 50.1292 78.1363 50.1292 78.8487 51.5734Z" fill="#FFA800"/>
<path d="M99.825 51.6782V59.1822H101.121V60.8142H99.825V62.9902H97.985V60.8142H92.145V59.4862L97.441 51.6782H99.825ZM94.289 59.1822H97.985V53.6462L94.289 59.1822ZM103.775 63.1182C103.455 63.0969 103.188 62.9902 102.975 62.7982C102.772 62.5956 102.671 62.3236 102.671 61.9822C102.671 61.6089 102.788 61.3262 103.023 61.1342C103.258 60.9316 103.519 60.8302 103.807 60.8302C103.839 60.8302 103.871 60.8302 103.903 60.8302C104.383 60.8622 104.714 61.0329 104.895 61.3422C105.076 61.6516 105.167 61.9769 105.167 62.3182C105.167 62.3716 105.167 62.4249 105.167 62.4782C105.167 62.7876 105.108 63.0916 104.991 63.3902C104.874 63.6996 104.719 63.9876 104.527 64.2542C104.335 64.5209 104.116 64.7502 103.871 64.9422C103.626 65.1449 103.37 65.2889 103.103 65.3742L102.623 64.7182C102.879 64.5369 103.114 64.3076 103.327 64.0302C103.54 63.7529 103.69 63.4489 103.775 63.1182ZM113.49 57.5822C113.33 57.8276 113.144 58.0356 112.93 58.2062C112.717 58.3769 112.482 58.5209 112.226 58.6382C111.981 58.7449 111.72 58.8249 111.442 58.8782C111.165 58.9316 110.888 58.9582 110.61 58.9582C110.077 58.9582 109.586 58.8782 109.138 58.7182C108.701 58.5476 108.317 58.3076 107.986 57.9982C107.656 57.6889 107.4 57.3102 107.218 56.8622C107.037 56.4142 106.946 55.9076 106.946 55.3422C106.946 54.7662 107.048 54.2436 107.25 53.7742C107.464 53.3049 107.746 52.9102 108.098 52.5902C108.461 52.2596 108.882 52.0089 109.362 51.8382C109.853 51.6569 110.381 51.5662 110.946 51.5662C111.736 51.5556 112.418 51.7316 112.994 52.0942C113.581 52.4462 114.029 52.8942 114.338 53.4382C114.658 53.9716 114.882 54.5849 115.01 55.2782C115.149 55.9609 115.229 56.6489 115.25 57.3422C115.25 58.0676 115.181 58.7769 115.042 59.4702C114.904 60.1636 114.664 60.7822 114.322 61.3262C113.992 61.8596 113.544 62.2916 112.978 62.6222C112.413 62.9422 111.704 63.1022 110.85 63.1022C110.381 63.1022 109.933 63.0489 109.506 62.9422C109.09 62.8249 108.712 62.6542 108.37 62.4302C108.029 62.1956 107.741 61.9076 107.506 61.5662C107.272 61.2142 107.117 60.7982 107.042 60.3182H108.946C109.085 60.7022 109.336 60.9902 109.698 61.1822C110.061 61.3636 110.445 61.4542 110.85 61.4542C111.17 61.4542 111.453 61.4116 111.698 61.3262C111.944 61.2302 112.162 61.1076 112.354 60.9582C112.546 60.8089 112.712 60.6329 112.85 60.4302C112.989 60.2169 113.101 59.9929 113.186 59.7582C113.325 59.4062 113.41 59.0489 113.442 58.6862C113.474 58.3129 113.49 57.9449 113.49 57.5822ZM108.802 55.2302C108.802 55.8809 108.989 56.3929 109.362 56.7662C109.746 57.1396 110.258 57.3262 110.898 57.3262C111.186 57.3262 111.458 57.2836 111.714 57.1982C111.981 57.1022 112.21 56.9742 112.402 56.8142C112.594 56.6436 112.744 56.4409 112.85 56.2062C112.968 55.9609 113.032 55.6942 113.042 55.4062C113.042 55.1076 112.994 54.8249 112.898 54.5582C112.802 54.2916 112.664 54.0622 112.482 53.8702C112.301 53.6676 112.077 53.5076 111.81 53.3902C111.554 53.2729 111.266 53.2142 110.946 53.2142C110.328 53.2142 109.816 53.3956 109.41 53.7582C109.016 54.1209 108.813 54.6116 108.802 55.2302Z" fill="#111827"/>
<path d="M184.917 41.3735C184.797 41.4233 184.616 41.493 184.385 41.5727C183.934 41.7421 183.302 41.9612 182.589 42.1704C182.228 42.28 181.846 42.3796 181.455 42.4693C181.264 42.5191 181.064 42.559 180.863 42.6088C180.662 42.6486 180.462 42.6885 180.261 42.7283C179.458 42.8778 178.675 42.9674 177.993 42.9873C177.451 42.9973 176.929 43.1169 176.437 43.3061C175.946 43.4954 175.494 43.7544 175.083 44.0633C174.26 44.6909 173.628 45.4978 173.306 46.3446C173.086 46.9324 172.744 47.3807 172.383 47.7394C172.764 46.8627 173.116 45.9661 173.437 45.0595C173.798 44.0434 174.109 43.0172 174.39 41.9612C174.601 41.1543 174.782 40.3374 174.942 39.5105C174.942 39.5105 174.942 39.5005 174.962 39.4906C175.063 39.381 175.173 39.2714 175.293 39.1718C175.414 39.0722 175.554 38.9825 175.695 38.9028C175.986 38.7534 176.337 38.6737 176.728 38.7334C176.728 38.7334 176.929 38.7036 177.25 38.6338C177.561 38.5641 177.983 38.4645 178.414 38.3349C178.635 38.2652 178.856 38.1955 179.067 38.1158C179.277 38.0361 179.478 37.9464 179.659 37.8468C180.02 37.6575 180.311 37.4383 180.411 37.2092C180.512 36.9801 180.622 36.7808 180.733 36.6015C180.843 36.4122 180.963 36.2329 181.084 36.0337C181.204 35.8344 181.325 35.6152 181.445 35.3562C181.505 35.2267 181.565 35.0773 181.626 34.9179C181.686 34.7585 181.736 34.5891 181.796 34.3899C181.856 34.2006 181.937 33.9914 182.047 33.7822C182.158 33.563 182.288 33.3438 182.438 33.1147C182.579 32.8856 182.74 32.6465 182.91 32.4074C183.071 32.1683 183.251 31.9292 183.422 31.7001C183.512 31.5805 183.593 31.4709 183.683 31.3613C183.763 31.2518 183.853 31.1422 183.934 31.0326C184.094 30.8234 184.265 30.6142 184.405 30.4548C184.696 30.116 184.927 29.857 185.068 29.7375C185.068 29.7375 184.857 29.9068 184.486 30.1758C184.305 30.3053 184.084 30.4647 183.843 30.6341C183.593 30.8034 183.312 30.9927 183.021 31.192C182.428 31.5705 181.746 31.9591 181.054 32.2878C180.883 32.3675 180.712 32.4472 180.542 32.5269C180.371 32.5967 180.191 32.6664 180.02 32.7361C179.679 32.8656 179.348 32.9752 179.037 33.0649C178.786 33.1346 178.555 33.2243 178.334 33.3339C178.113 33.4435 177.903 33.573 177.702 33.7224C177.31 34.0113 176.969 34.3699 176.678 34.7485C176.106 35.5156 175.745 36.4122 175.645 37.2789C175.604 37.7073 175.474 38.0859 175.313 38.4246C175.243 38.574 175.153 38.7135 175.073 38.843C175.073 38.8231 175.073 38.8032 175.083 38.7833C175.454 36.6414 175.635 34.4696 175.564 32.3376C175.564 32.2081 175.564 32.0687 175.554 31.9391C175.554 31.8096 175.544 31.6702 175.534 31.5407C175.534 31.4111 175.514 31.2717 175.514 31.1422C175.504 31.0127 175.494 30.8732 175.484 30.7437C175.474 30.6142 175.464 30.4747 175.454 30.3452C175.454 30.3053 175.454 30.2655 175.444 30.2256C175.454 30.1957 175.464 30.1659 175.484 30.136C175.604 29.8869 175.765 29.6279 175.986 29.4187C176.217 29.2095 176.508 29.0501 176.879 29.0102C176.879 29.0102 176.919 28.9903 176.999 28.9505C177.08 28.9106 177.19 28.8608 177.321 28.7911C177.591 28.6516 177.943 28.4523 178.304 28.2232C178.665 27.9941 179.027 27.7251 179.307 27.4561C179.578 27.1871 179.779 26.9181 179.809 26.6791C179.869 26.2108 179.97 25.8323 180.08 25.384C180.11 25.2744 180.13 25.1548 180.15 25.0253C180.171 24.9058 180.191 24.7663 180.201 24.6268C180.221 24.4873 180.231 24.3379 180.241 24.1785C180.241 24.0191 180.261 23.8398 180.241 23.6505C180.241 23.4612 180.251 23.252 180.291 23.0329C180.311 22.9233 180.331 22.8137 180.351 22.6941C180.371 22.5746 180.401 22.455 180.431 22.3355C180.492 22.0964 180.562 21.8473 180.642 21.5883C180.682 21.4688 180.722 21.3393 180.763 21.2197C180.803 21.0902 180.843 20.9707 180.883 20.8511C180.963 20.602 181.054 20.363 181.144 20.1438C181.224 19.9146 181.305 19.7054 181.385 19.5162C181.535 19.1376 181.676 18.8387 181.766 18.6992C181.766 18.6992 181.626 18.9085 181.365 19.2472C181.234 19.4165 181.084 19.6158 180.913 19.825C180.733 20.0442 180.542 20.2733 180.321 20.5223C179.89 21.0105 179.378 21.5285 178.856 21.9968C178.324 22.475 177.762 22.8934 177.24 23.2122C177.029 23.3417 176.849 23.4812 176.678 23.6406C176.508 23.7999 176.357 23.9693 176.227 24.1586C175.966 24.5272 175.775 24.9356 175.635 25.364C175.564 25.5732 175.514 25.7924 175.474 26.0116C175.434 26.2307 175.404 26.4499 175.394 26.6691C175.394 26.7787 175.394 26.8883 175.394 26.9978C175.394 27.1074 175.394 27.217 175.394 27.3166C175.404 27.5258 175.434 27.7351 175.474 27.9443C175.494 28.0439 175.504 28.1435 175.514 28.2431C175.514 28.3428 175.524 28.4424 175.524 28.532C175.524 28.7213 175.514 28.9006 175.494 29.07C175.464 29.2593 175.414 29.4386 175.364 29.598C175.344 29.4585 175.334 29.3191 175.313 29.1796C175.173 28.1435 174.992 27.1274 174.772 26.1311C174.541 25.1449 174.26 24.1785 173.949 23.2421C173.868 23.0129 173.788 22.7838 173.708 22.5547C173.617 22.3255 173.537 22.1064 173.447 21.8772C173.367 21.6481 173.266 21.4289 173.176 21.2097C173.176 21.15 173.176 21.0902 173.186 21.0205C173.226 20.7614 173.296 20.4825 173.437 20.2334C173.587 19.9844 173.798 19.7652 174.129 19.6257C174.129 19.6257 174.27 19.5062 174.47 19.3069C174.671 19.1077 174.932 18.8387 175.193 18.5299C175.454 18.231 175.705 17.8923 175.885 17.5735C176.056 17.2647 176.156 16.9658 176.116 16.7466C176.096 16.6371 176.086 16.5275 176.066 16.4278C176.056 16.3183 176.036 16.2186 176.026 16.119C176.006 15.9098 175.986 15.7006 175.966 15.4814C175.936 15.2623 175.906 15.0232 175.855 14.7542C175.825 14.6247 175.795 14.4852 175.765 14.3358C175.725 14.1863 175.675 14.0269 175.625 13.8675C175.414 13.2001 175.374 12.1939 175.404 11.2674C175.414 10.8091 175.444 10.3708 175.484 10.0121C175.514 9.65347 175.564 9.37453 175.615 9.22509C175.615 9.22509 175.534 9.44427 175.394 9.79295C175.253 10.1416 175.032 10.6298 174.772 11.1677C174.641 11.4367 174.491 11.7157 174.33 11.9946C174.169 12.2736 173.999 12.5625 173.818 12.8314C173.638 13.1004 173.457 13.3694 173.266 13.6185C173.076 13.8675 172.875 14.1066 172.684 14.3059C172.373 14.6346 172.172 15.0032 172.042 15.4017C171.982 15.601 171.932 15.8002 171.911 16.0094C171.881 16.2186 171.881 16.4179 171.891 16.6371C171.891 16.8463 171.922 17.0555 171.962 17.2647C171.982 17.3743 172.002 17.4739 172.022 17.5735C172.042 17.6731 172.072 17.7728 172.102 17.8724C172.223 18.2709 172.373 18.6594 172.564 19.0081C172.654 19.1774 172.724 19.3568 172.785 19.5261C172.815 19.6158 172.835 19.6955 172.855 19.7752C172.875 19.8549 172.895 19.9445 172.905 20.0242C172.935 20.2434 172.945 20.4426 172.935 20.6319C172.925 20.602 172.905 20.5722 172.895 20.5522C172.845 20.4426 172.795 20.3331 172.754 20.2334C172.704 20.1239 172.664 20.0242 172.604 19.9146C172.504 19.7054 172.403 19.4962 172.303 19.297C172.203 19.0878 172.092 18.8885 171.992 18.6893C171.942 18.5897 171.891 18.49 171.831 18.3904C171.781 18.2908 171.721 18.1912 171.671 18.1015C171.62 18.0019 171.56 17.9122 171.51 17.8126C171.48 17.7628 171.46 17.713 171.43 17.6632C171.4 17.6134 171.37 17.5735 171.35 17.5237C171.239 17.3344 171.129 17.1451 171.018 16.9658C170.908 16.7765 170.798 16.5972 170.687 16.4179C170.637 16.3282 170.577 16.2386 170.527 16.1489C170.466 16.0592 170.416 15.9696 170.356 15.8899C169.794 15.0132 169.142 14.2361 168.52 13.5089C168.52 13.489 168.51 13.469 168.499 13.4491C168.439 13.2897 168.369 13.0705 168.339 12.8215C168.309 12.5724 168.299 12.3034 168.369 12.0444C168.439 11.7854 168.59 11.5363 168.861 11.3371C168.861 11.3371 168.961 11.1976 169.092 10.9785C169.232 10.7593 169.413 10.4505 169.573 10.1217C169.914 9.46419 170.195 8.69709 170.035 8.31852C169.714 7.58131 169.593 6.89392 169.001 5.79806C168.851 5.51912 168.73 5.17044 168.62 4.79187C168.52 4.4133 168.439 4.00485 168.379 3.61632C168.269 2.83926 168.239 2.12197 168.309 1.85299C168.309 1.85299 168.259 2.05223 168.168 2.38099C168.078 2.70975 167.938 3.16801 167.757 3.68605C167.406 4.71217 166.894 5.96742 166.302 6.85407C166.071 7.20275 165.951 7.58131 165.92 7.95988C165.89 8.33845 165.94 8.72698 166.061 9.10555C166.292 9.86268 166.763 10.58 167.265 11.1379C167.396 11.2773 167.496 11.4268 167.596 11.5662C167.687 11.7157 167.767 11.8551 167.827 12.0046C167.948 12.2935 168.028 12.5724 168.068 12.8115C168.078 12.8912 168.088 12.951 168.088 13.0307C167.877 12.7816 167.677 12.5425 167.486 12.3134C167.285 12.0544 165.228 9.79295 163.753 8.17905C163.502 7.74071 163.301 7.21271 163.301 6.60501C163.301 4.95127 162.609 2.86914 160.662 2.4308C158.203 1.88288 154.811 0 154.811 0C155.373 0.318794 157.13 2.25148 157.531 3.51669C157.932 4.78191 158.374 5.38961 158.685 6.19655C158.996 6.99354 162.067 7.87022 162.067 7.87022C162.569 7.86026 163.01 8.0595 163.392 8.33845C163.923 9.12547 165.529 11.4467 165.961 11.9647C166.221 12.2736 166.482 12.5924 166.753 12.9311C166.994 13.2299 167.235 13.5487 167.486 13.8775C167.396 13.8476 167.305 13.8078 167.215 13.7679C167.105 13.7181 166.994 13.6583 166.884 13.5886C166.763 13.5288 166.653 13.4491 166.533 13.3595C166.412 13.2698 166.302 13.1801 166.191 13.0705C166.081 12.961 165.971 12.8414 165.87 12.7119C165.82 12.6422 165.77 12.5724 165.71 12.5127C165.649 12.4429 165.589 12.3831 165.529 12.3134C165.409 12.1839 165.268 12.0644 165.128 11.9448C164.987 11.8253 164.837 11.7157 164.676 11.616C164.515 11.5164 164.355 11.4268 164.184 11.357C163.512 11.0582 162.749 10.9785 162.017 11.3072C161.083 11.7256 159.839 12.0544 158.836 12.2935C158.334 12.413 157.882 12.5027 157.561 12.5724C157.24 12.6322 157.049 12.6721 157.049 12.6721C157.31 12.6322 157.972 12.6721 158.675 12.8115C159.036 12.8813 159.387 12.961 159.729 13.0705C160.06 13.1801 160.351 13.2997 160.582 13.4391C161.023 13.7181 161.384 13.8974 161.716 14.0568C162.047 14.2062 162.338 14.3358 162.629 14.5051C162.779 14.5948 163.03 14.6047 163.341 14.5749C163.652 14.545 164.014 14.4752 164.355 14.4055C165.037 14.2461 165.66 14.0568 165.66 14.0568C165.91 13.8875 166.181 13.8177 166.442 13.8177C166.703 13.8177 166.954 13.8974 167.165 13.9871C167.386 14.0767 167.566 14.1963 167.697 14.2959C167.827 14.3955 167.897 14.4553 167.897 14.4553C167.897 14.4553 167.907 14.4453 167.917 14.4354C168.389 15.0829 168.871 15.7604 169.342 16.4976C169.393 16.5773 169.453 16.6669 169.503 16.7566C169.563 16.8363 169.613 16.926 169.664 17.0156C169.774 17.185 169.874 17.3643 169.985 17.5436C170.085 17.7229 170.195 17.9023 170.296 18.0915C170.326 18.1414 170.346 18.1812 170.376 18.231C170.406 18.2808 170.426 18.3207 170.456 18.3705C170.507 18.4701 170.557 18.5598 170.607 18.6494C170.657 18.7491 170.707 18.8387 170.767 18.9284C170.818 19.028 170.868 19.1177 170.918 19.2173C171.018 19.4066 171.119 19.6058 171.219 19.8051C171.319 20.0043 171.41 20.2036 171.51 20.4028C171.56 20.5024 171.6 20.602 171.651 20.7116C171.701 20.8212 171.741 20.9208 171.791 21.0205C171.831 21.1201 171.881 21.2297 171.932 21.3293C171.972 21.4389 172.022 21.5385 172.062 21.6481C172.032 21.6282 172.002 21.6082 171.962 21.5784C171.861 21.4987 171.761 21.419 171.661 21.3193C171.56 21.2297 171.45 21.1201 171.36 21.0005C171.259 20.891 171.169 20.7614 171.079 20.622C170.988 20.4825 170.908 20.343 170.838 20.1836C170.808 20.1039 170.767 20.0242 170.717 19.9445C170.677 19.8648 170.627 19.7851 170.577 19.7054C170.476 19.546 170.366 19.3966 170.256 19.2372C170.135 19.0878 170.005 18.9483 169.864 18.8188C169.794 18.7491 169.724 18.6893 169.644 18.6295C169.573 18.5697 169.493 18.51 169.413 18.4602C169.092 18.2509 168.74 18.0915 168.359 18.0218C167.978 17.9521 167.586 17.962 167.165 18.0816C166.633 18.231 166.031 18.3506 165.429 18.4602C164.827 18.5598 164.214 18.6494 163.673 18.7291C163.402 18.759 163.151 18.7989 162.92 18.8288C162.689 18.8586 162.488 18.8885 162.318 18.9085C161.977 18.9483 161.776 18.9682 161.776 18.9682C162.047 18.9383 162.709 19.028 163.392 19.2173C163.482 19.2372 163.562 19.2671 163.652 19.297C163.743 19.3169 163.823 19.3568 163.903 19.3767C164.074 19.4365 164.234 19.4962 164.395 19.566C164.706 19.7054 164.977 19.8648 165.178 20.0342C165.368 20.1936 165.539 20.343 165.71 20.4626C165.79 20.5223 165.87 20.5821 165.951 20.6419C166.031 20.7017 166.101 20.7515 166.181 20.8013C166.482 21.0005 166.743 21.1799 166.994 21.399C167.125 21.5086 167.386 21.5684 167.717 21.5983C168.048 21.6282 168.439 21.6282 168.811 21.6182C169.563 21.5983 170.256 21.5485 170.256 21.5485C170.567 21.4289 170.868 21.419 171.139 21.4787C171.209 21.4987 171.269 21.5086 171.339 21.5385C171.4 21.5584 171.46 21.5883 171.52 21.6182C171.641 21.678 171.751 21.7477 171.851 21.8274C172.042 21.9768 172.203 22.1362 172.313 22.2658C172.313 22.2857 172.323 22.2956 172.333 22.3156C172.413 22.5347 172.494 22.7539 172.584 22.9731C172.664 23.1922 172.734 23.4114 172.815 23.6406C173.116 24.5471 173.377 25.4736 173.607 26.43C173.828 27.3864 173.999 28.3726 174.139 29.3788C174.169 29.6279 174.2 29.8869 174.23 30.136C174.23 30.1858 174.23 30.2456 174.25 30.2954C174.099 30.0961 173.949 29.857 173.828 29.588C173.798 29.5083 173.768 29.4386 173.738 29.3589C173.708 29.2792 173.678 29.1995 173.658 29.1198C173.607 28.9604 173.567 28.7811 173.547 28.5918C173.527 28.4025 173.487 28.2232 173.427 28.0339C173.377 27.8446 173.306 27.6554 173.236 27.4661C173.156 27.2768 173.066 27.0975 172.955 26.9281C172.855 26.7588 172.734 26.5894 172.604 26.44C172.473 26.2905 172.323 26.1511 172.172 26.0315C172.092 25.9717 172.012 25.912 171.922 25.8621C171.831 25.8123 171.751 25.7625 171.651 25.7227C171.279 25.5533 170.868 25.4637 170.406 25.4836C170.256 25.4836 170.105 25.4836 169.955 25.4836C169.804 25.4836 169.644 25.4836 169.483 25.4836C169.162 25.4836 168.831 25.4537 168.51 25.4437C168.178 25.4238 167.857 25.4039 167.546 25.384C167.235 25.364 166.924 25.3441 166.633 25.3242C165.499 25.2445 164.626 25.1747 164.626 25.1747C164.766 25.1847 165.007 25.2445 165.278 25.3341C165.549 25.4338 165.87 25.5633 166.201 25.7326C166.362 25.8123 166.523 25.912 166.673 26.0016C166.824 26.1012 166.984 26.2009 167.125 26.3005C167.265 26.4101 167.386 26.5197 167.496 26.6193C167.556 26.6791 167.606 26.7289 167.657 26.7787C167.677 26.8086 167.707 26.8285 167.727 26.8584C167.747 26.8883 167.767 26.9181 167.787 26.9381C167.927 27.1473 168.068 27.3366 168.208 27.5059C168.339 27.6753 168.459 27.8247 168.58 27.9642C168.831 28.2431 169.041 28.4922 169.232 28.7811C169.282 28.8508 169.373 28.9206 169.483 28.9903C169.593 29.0501 169.744 29.1198 169.904 29.1796C170.226 29.2991 170.637 29.4087 171.028 29.4984C171.42 29.588 171.801 29.6677 172.082 29.7275C172.363 29.7873 172.544 29.8172 172.544 29.8172C172.905 29.7773 173.216 29.8471 173.467 29.9865C173.728 30.126 173.939 30.3253 174.089 30.5345C174.179 30.654 174.25 30.7636 174.31 30.8831C174.31 30.8831 174.31 30.8831 174.31 30.9031C174.32 31.0326 174.33 31.1621 174.34 31.2916C174.34 31.4211 174.35 31.5506 174.36 31.6702C174.36 31.7997 174.38 31.9292 174.38 32.0587C174.38 32.1882 174.38 32.3177 174.39 32.4472C174.45 34.4995 174.28 36.6015 173.919 38.6836C173.888 38.8331 173.858 38.9825 173.828 39.1319C173.808 39.0722 173.788 39.0124 173.768 38.9526C173.728 38.8032 173.698 38.6438 173.668 38.4744C173.658 38.3947 173.648 38.3051 173.638 38.2154C173.638 38.1257 173.628 38.0361 173.628 37.9464C173.628 37.8568 173.628 37.7571 173.628 37.6675C173.628 37.5678 173.648 37.4782 173.658 37.3786C173.688 37.1793 173.708 36.9701 173.708 36.7709C173.708 36.5617 173.708 36.3525 173.678 36.1333C173.648 35.9241 173.607 35.7149 173.557 35.5057C173.497 35.2964 173.427 35.0972 173.336 34.9079C173.246 34.7186 173.136 34.5393 173.015 34.37C172.885 34.2006 172.744 34.0512 172.584 33.9117C172.253 33.6427 171.851 33.4435 171.37 33.3339C170.757 33.2044 170.085 33.0051 169.433 32.8059C169.102 32.7062 168.77 32.5967 168.449 32.497C168.128 32.3974 167.827 32.2978 167.536 32.1982C167.245 32.1085 166.974 32.0188 166.733 31.9491C166.613 31.9093 166.492 31.8794 166.392 31.8395C166.282 31.8096 166.181 31.7698 166.091 31.7399C165.73 31.6204 165.509 31.5407 165.509 31.5407C165.579 31.5705 165.67 31.6104 165.78 31.6702C165.83 31.7001 165.89 31.7299 165.951 31.7698C166.011 31.8096 166.071 31.8395 166.141 31.8893C166.272 31.969 166.402 32.0587 166.543 32.1683C166.613 32.2181 166.683 32.2679 166.753 32.3277C166.824 32.3875 166.894 32.4472 166.964 32.507C167.034 32.5668 167.105 32.6365 167.175 32.6963C167.245 32.7561 167.315 32.8258 167.376 32.8955C167.506 33.035 167.626 33.1745 167.747 33.3139C167.857 33.4534 167.958 33.6029 168.038 33.7423C168.078 33.8121 168.118 33.8818 168.148 33.9515C168.178 34.0213 168.208 34.091 168.229 34.1508C168.269 34.2803 168.319 34.3998 168.359 34.5094C168.399 34.619 168.439 34.7286 168.489 34.8382C168.53 34.9378 168.58 35.0374 168.62 35.1371C168.66 35.2367 168.7 35.3263 168.74 35.416C168.78 35.5057 168.821 35.5953 168.861 35.675C168.901 35.7647 168.931 35.8444 168.971 35.9241C169.041 36.0934 169.112 36.2528 169.162 36.4321C169.212 36.6115 169.433 36.8107 169.744 37.0199C170.045 37.2291 170.426 37.4483 170.798 37.6475C171.169 37.8468 171.54 38.0361 171.801 38.1656C172.072 38.2951 172.253 38.3848 172.253 38.3848C172.634 38.4445 172.925 38.594 173.156 38.8131C173.377 39.0223 173.527 39.2913 173.628 39.5404C173.658 39.6101 173.668 39.6799 173.688 39.7496C173.547 40.437 173.397 41.1144 173.226 41.7819C172.955 42.808 172.644 43.8043 172.303 44.7905C171.952 45.7868 171.57 46.7531 171.149 47.7095C171.149 47.6896 171.149 47.6796 171.149 47.6597C171.149 47.4903 171.149 47.3209 171.169 47.1416C171.189 46.9623 171.209 46.773 171.259 46.5837C171.309 46.3945 171.36 46.1952 171.44 45.996C171.761 45.199 171.922 44.2227 171.741 43.346C171.701 43.1268 171.641 42.9076 171.55 42.7084C171.46 42.5092 171.36 42.3099 171.229 42.1306C170.968 41.7719 170.607 41.4631 170.135 41.234C169.543 40.955 168.911 40.5864 168.289 40.1979C167.667 39.8193 167.054 39.4208 166.513 39.0722C165.449 38.3848 164.626 37.8568 164.626 37.8568C164.756 37.9464 164.957 38.1257 165.168 38.3748C165.278 38.4943 165.389 38.6338 165.499 38.7932C165.609 38.9426 165.72 39.112 165.83 39.2814C165.94 39.4507 166.041 39.63 166.141 39.8094C166.242 39.9887 166.332 40.178 166.402 40.3573C166.472 40.5366 166.543 40.7159 166.583 40.8853C166.623 41.0547 166.653 41.2141 166.663 41.3635C166.673 41.5129 166.683 41.6524 166.693 41.7819C166.703 41.9114 166.723 42.0409 166.743 42.1605C166.773 42.3996 166.814 42.6187 166.854 42.8279C166.924 43.2364 167.004 43.605 167.024 44.0035C167.034 44.2027 167.215 44.4618 167.466 44.7507C167.596 44.9001 167.747 45.0495 167.907 45.199C168.068 45.3484 168.229 45.4978 168.399 45.6473C168.73 45.9362 169.072 46.2052 169.312 46.4044C169.443 46.504 169.543 46.5837 169.613 46.6435C169.684 46.7033 169.724 46.7332 169.724 46.7332C170.105 46.8726 170.376 47.1018 170.557 47.3708C170.647 47.5003 170.717 47.6497 170.767 47.7991C170.818 47.9486 170.848 48.088 170.868 48.2375C170.868 48.2574 170.868 48.2773 170.868 48.2973C170.537 49.0245 170.185 49.7418 169.814 50.4292C168.861 52.1925 167.807 53.8263 166.683 55.2808C166.643 55.3406 166.603 55.3904 166.553 55.4402C166.583 55.3107 166.613 55.1912 166.663 55.0617C166.723 54.8823 166.804 54.6931 166.894 54.5137C166.984 54.3244 167.095 54.1451 167.235 53.9558C167.767 53.2087 168.158 52.2423 168.188 51.2959C168.198 50.8277 168.128 50.3595 167.938 49.9311C167.747 49.5027 167.446 49.1142 167.014 48.7854C166.743 48.5762 166.462 48.3471 166.181 48.098C165.9 47.8589 165.619 47.5899 165.338 47.3309C165.057 47.0719 164.786 46.8029 164.526 46.5439C164.265 46.2849 164.004 46.0358 163.763 45.7967C162.82 44.8603 162.097 44.143 162.097 44.143C162.157 44.2027 162.227 44.2924 162.298 44.402C162.368 44.5116 162.448 44.6411 162.539 44.8005C162.619 44.9499 162.709 45.1193 162.789 45.2986C162.87 45.4779 162.95 45.6672 163.02 45.8664C163.1 46.0657 163.161 46.2649 163.221 46.4742C163.281 46.6834 163.331 46.8926 163.361 47.0918C163.381 47.1914 163.392 47.2911 163.412 47.3907C163.422 47.4903 163.432 47.58 163.432 47.6696C163.432 47.8489 163.432 48.0283 163.412 48.1777C163.381 48.3271 163.371 48.4766 163.351 48.616C163.341 48.7555 163.321 48.885 163.311 49.0046C163.301 49.1341 163.291 49.2536 163.291 49.3632C163.291 49.4828 163.281 49.5924 163.271 49.7019C163.271 49.8115 163.271 49.9211 163.261 50.0207C163.261 50.1303 163.251 50.22 163.241 50.3296C163.241 50.4292 163.231 50.5288 163.221 50.6284C163.211 50.7281 163.191 50.8277 163.181 50.9273C163.161 51.0269 163.181 51.1564 163.241 51.2959C163.291 51.4354 163.371 51.6047 163.472 51.7741C163.572 51.9435 163.693 52.1327 163.813 52.322C163.943 52.5113 164.074 52.7006 164.214 52.8899C164.485 53.2585 164.756 53.6171 164.967 53.8761C165.168 54.1352 165.308 54.3045 165.308 54.3045C165.67 54.5337 165.88 54.8325 165.991 55.1414C166.101 55.4303 166.111 55.7391 166.081 56.018C165.138 57.1637 164.164 58.1998 163.181 59.0765C162.087 60.0528 160.983 60.8398 159.939 61.4475C159.99 61.3877 160.04 61.3279 160.1 61.2582C160.361 60.9593 160.672 60.6704 161.063 60.3915C161.455 60.1225 161.826 59.7738 162.137 59.3853C162.448 58.9868 162.699 58.5485 162.85 58.0802C162.89 57.9607 162.92 57.8511 162.94 57.7316C162.96 57.612 162.98 57.4925 162.99 57.3729C162.99 57.2534 163 57.1338 163 57.0143C163 56.8947 162.98 56.7752 162.96 56.6556C162.92 56.4165 162.85 56.1874 162.749 55.9583C162.639 55.7291 162.498 55.5 162.328 55.2808C162.107 55.0019 161.876 54.703 161.655 54.3942C161.435 54.0854 161.204 53.7566 160.983 53.4278C160.762 53.109 160.552 52.7803 160.341 52.4615C160.13 52.1527 159.929 51.8438 159.739 51.5549C159.548 51.266 159.367 50.997 159.207 50.7579C159.046 50.5188 158.896 50.2997 158.775 50.1204C158.534 49.7617 158.394 49.5525 158.394 49.5525C158.484 49.692 158.605 49.951 158.715 50.2798C158.765 50.4391 158.825 50.6185 158.866 50.8177C158.876 50.8675 158.886 50.9173 158.906 50.9672C158.906 51.017 158.926 51.0668 158.936 51.1166C158.956 51.2162 158.976 51.3158 158.996 51.4254C159.036 51.6346 159.056 51.8438 159.076 52.053C159.096 52.2623 159.096 52.4715 159.096 52.6707C159.096 52.8699 159.076 53.0592 159.046 53.2286C159.036 53.3183 159.016 53.398 158.996 53.4777C158.976 53.5474 158.946 53.6271 158.926 53.6869C158.896 53.7566 158.876 53.8164 158.846 53.8861C158.815 53.9459 158.795 54.0057 158.775 54.0654C158.735 54.185 158.695 54.3045 158.655 54.4141C158.585 54.6333 158.524 54.8425 158.474 55.0318C158.444 55.1314 158.424 55.2211 158.394 55.3107C158.364 55.4004 158.344 55.49 158.314 55.5797C158.304 55.6195 158.284 55.6694 158.274 55.7092L158.253 55.7789L158.223 55.8387C158.193 55.9184 158.153 56.0081 158.113 56.0878C158.093 56.1276 158.083 56.1874 158.073 56.2472C158.073 56.3069 158.073 56.3667 158.073 56.4464C158.083 56.5959 158.123 56.7752 158.163 56.9744C158.253 57.3629 158.394 57.8312 158.534 58.2795C158.675 58.7378 158.815 59.1661 158.916 59.4849C159.026 59.8037 159.086 60.0129 159.086 60.0129C159.337 60.3716 159.438 60.7302 159.418 61.0789C159.418 61.1685 159.408 61.2482 159.387 61.3379C159.367 61.4176 159.347 61.4973 159.327 61.577C159.297 61.6567 159.267 61.7364 159.237 61.8061C159.237 61.8161 159.227 61.8261 159.217 61.836C158.815 62.0452 158.424 62.2246 158.063 62.374C157.932 62.4238 157.812 62.4736 157.691 62.5234C157.571 62.5633 157.451 62.6131 157.33 62.6529C157.21 62.6928 157.099 62.7326 156.979 62.7625C156.869 62.7924 156.758 62.8323 156.648 62.8621C155.775 63.0913 155.082 63.1809 154.611 63.2208C154.55 63.2208 154.5 63.2208 154.44 63.2307C154.41 63.2307 154.39 63.2307 154.37 63.2307C154.35 63.2307 154.32 63.2307 154.3 63.2307C154.209 63.2307 154.129 63.2307 154.069 63.2307C153.948 63.2307 152.303 63.1012 152.303 63.1012C152.303 63.1012 149.222 62.9518 148.439 62.5832C148.027 62.3939 147.516 62.4138 147.195 62.7127C146.904 62.9817 147.124 63.4698 147.295 64.227C147.656 65.8409 149.021 66.7773 148.81 68.1721C148.81 68.1721 149.854 66.6279 149.071 65.3228C149.071 65.3228 149.192 63.958 151.891 64.227C151.891 64.227 152.272 64.2469 152.714 64.2768C152.112 64.9742 151.54 66.3788 153.125 68.7499C155.373 72.1271 155.253 73.741 155.213 73.9801C155.273 73.6115 155.885 69.5668 154.49 68.182C152.654 66.3589 153.406 65.0937 154.3 64.3366C154.32 64.3366 154.33 64.3366 154.35 64.3366H154.43C154.43 64.3366 154.49 64.3366 154.52 64.3366C154.581 64.3366 154.641 64.3366 154.711 64.3266C155.243 64.2868 156.026 64.1871 156.989 63.9281C157.109 63.8982 157.23 63.8584 157.36 63.8185C157.481 63.7787 157.611 63.7488 157.742 63.699C157.872 63.6591 158.003 63.6093 158.143 63.5595C158.274 63.5097 158.414 63.4499 158.555 63.4001C158.976 63.2307 159.418 63.0215 159.859 62.7924C160.15 62.8123 160.461 62.8721 160.752 62.9717C161.103 63.1112 161.435 63.3304 161.665 63.7089C161.665 63.7089 161.846 63.8484 162.147 64.0576C162.448 64.2569 162.87 64.5258 163.331 64.7649C163.562 64.8845 163.803 65.004 164.054 65.1037C164.305 65.2033 164.546 65.293 164.786 65.3527C165.258 65.4723 165.71 65.5121 166.011 65.3926C166.161 65.3328 166.312 65.283 166.442 65.2431C166.583 65.2033 166.703 65.1734 166.834 65.1435C167.085 65.0837 167.335 65.0439 167.596 64.9941C167.727 64.9642 167.867 64.9343 168.008 64.8945C168.078 64.8745 168.158 64.8546 168.229 64.8247C168.309 64.8048 168.379 64.7749 168.469 64.745C168.63 64.6852 168.811 64.6155 169.001 64.5259C169.192 64.4362 169.393 64.3266 169.613 64.1971C169.834 64.0676 170.095 63.958 170.386 63.8584C170.687 63.7588 171.008 63.6691 171.35 63.5894C171.701 63.5097 172.052 63.44 172.423 63.3702C172.795 63.3104 173.166 63.2407 173.537 63.1909C175.012 62.9717 176.407 62.8223 176.829 62.8024C176.829 62.8024 176.748 62.8024 176.598 62.7924C176.447 62.7924 176.227 62.7725 175.956 62.7526C175.685 62.7326 175.354 62.6928 175.002 62.6529C174.641 62.6131 174.24 62.5633 173.828 62.4935C172.995 62.364 172.082 62.1847 171.209 61.9456C170.336 61.7165 169.513 61.4276 168.841 61.1088C168.309 60.8597 167.727 60.7103 167.125 60.6306C166.824 60.5907 166.523 60.5708 166.221 60.5708C166.071 60.5708 165.92 60.5708 165.77 60.5808C165.619 60.5808 165.469 60.6007 165.328 60.6107C165.258 60.6107 165.178 60.6306 165.108 60.6405C165.037 60.6405 164.957 60.6605 164.887 60.6704C164.736 60.6904 164.596 60.7202 164.455 60.7501C164.315 60.78 164.174 60.8099 164.034 60.8498C163.893 60.8896 163.763 60.9295 163.632 60.9793C163.502 61.0191 163.371 61.0689 163.241 61.1187C163.111 61.1685 162.99 61.2283 162.87 61.2881C162.629 61.4076 162.408 61.5471 162.187 61.6866C162.087 61.7563 161.977 61.836 161.866 61.8958C161.756 61.9556 161.645 62.0153 161.535 62.0652C161.324 62.1648 161.103 62.2445 160.893 62.2943C160.843 62.3142 160.792 62.3242 160.732 62.3341C160.692 62.3341 160.642 62.3541 160.602 62.364C161.706 61.7165 162.85 60.8996 163.974 59.8834C165.037 58.937 166.091 57.8212 167.095 56.5759C167.215 56.5361 167.335 56.4863 167.476 56.4663C167.646 56.4265 167.827 56.4066 168.008 56.4066C168.369 56.4066 168.75 56.4863 169.102 56.7353C169.102 56.7353 169.152 56.7552 169.252 56.7752C169.342 56.8051 169.483 56.8349 169.654 56.8848C169.995 56.9645 170.456 57.074 170.958 57.1438C171.45 57.2235 171.982 57.2733 172.433 57.2534C172.544 57.2534 172.664 57.2434 172.764 57.2334C172.865 57.2235 172.965 57.2036 173.056 57.1836C173.236 57.1338 173.387 57.074 173.507 56.9844C173.617 56.8947 173.728 56.815 173.828 56.7552C173.929 56.6855 174.039 56.6257 174.139 56.566C174.24 56.5062 174.34 56.4564 174.45 56.3966C174.551 56.3468 174.661 56.287 174.762 56.2272C175.193 55.9882 175.675 55.6893 176.297 55.0617C176.608 54.7429 177.09 54.444 177.642 54.1551C177.923 54.0156 178.214 53.8761 178.525 53.7367C178.826 53.5972 179.147 53.4677 179.458 53.3481C179.769 53.2286 180.07 53.109 180.371 52.9995C180.662 52.8899 180.943 52.8002 181.194 52.7006C181.696 52.5312 182.087 52.4017 182.288 52.3619C182.288 52.3619 182.208 52.3718 182.067 52.3918C181.927 52.4117 181.726 52.4416 181.465 52.4715C181.214 52.5013 180.913 52.5412 180.572 52.581C180.231 52.6209 179.859 52.6508 179.468 52.6707C179.067 52.7006 178.655 52.7205 178.234 52.7305C177.812 52.7305 177.371 52.7305 176.949 52.7305C176.738 52.7305 176.528 52.7106 176.317 52.7006C176.106 52.6807 175.906 52.6707 175.695 52.6508C175.293 52.6109 174.912 52.5611 174.561 52.4914C174.28 52.4316 173.999 52.4117 173.718 52.4117C173.437 52.4117 173.156 52.4216 172.875 52.4615C172.323 52.5412 171.771 52.6906 171.269 52.9098C170.256 53.3481 169.383 53.9957 168.831 54.7927C168.69 54.9919 168.54 55.1712 168.389 55.3306C168.229 55.49 168.068 55.6295 167.897 55.7491C167.807 55.8188 167.717 55.8686 167.626 55.9184C168.78 54.4141 169.864 52.7404 170.848 50.9273C171.269 50.1502 171.661 49.3333 172.042 48.5065C172.293 48.3371 172.574 48.1877 172.895 48.108C173.066 48.0681 173.246 48.0482 173.427 48.0482C173.607 48.0482 173.798 48.098 173.989 48.1677C173.989 48.1677 174.852 48.2176 175.805 48.1478C176.287 48.1179 176.779 48.0482 177.2 47.9386C177.622 47.829 177.963 47.6796 178.123 47.4704C178.204 47.3708 178.284 47.2811 178.364 47.1914C178.444 47.1018 178.525 47.0221 178.605 46.9523C178.766 46.8029 178.936 46.6535 179.107 46.4941C179.277 46.3347 179.458 46.1554 179.659 45.9262C179.849 45.6971 180.05 45.4281 180.271 45.0695C180.381 44.8901 180.522 44.7108 180.692 44.5215C180.873 44.3422 181.064 44.1529 181.284 43.9636C181.395 43.874 181.505 43.7744 181.626 43.6847C181.736 43.595 181.856 43.4954 181.987 43.4058C182.228 43.2165 182.489 43.0372 182.74 42.8578C182.99 42.6785 183.241 42.5092 183.482 42.3498C183.723 42.1904 183.944 42.0409 184.155 41.9114C184.365 41.7819 184.546 41.6624 184.706 41.5727C184.857 41.483 184.987 41.4133 185.068 41.3635C185.068 41.3635 184.997 41.3934 184.877 41.4432L184.917 41.3735Z" fill="#D1D5DB"/>
</svg>
