<svg width="244" height="75" viewBox="0 0 244 75" fill="none" xmlns="http://www.w3.org/2000/svg">
<path d="M37.1689 63.5793C36.3862 63.9379 33.3054 64.0973 33.3054 64.0973C33.3054 64.0973 31.6596 64.2268 31.5391 64.2268C31.4789 64.2268 31.3987 64.2268 31.3083 64.2268C31.2883 64.2268 31.2582 64.2268 31.2381 64.2268C31.218 64.2268 31.1879 64.2268 31.1678 64.2268C31.1177 64.2268 31.0575 64.2268 30.9972 64.2169C30.5256 64.187 29.8231 64.0973 28.9601 63.8582C28.8497 63.8284 28.7393 63.7885 28.6289 63.7586C28.5185 63.7287 28.3981 63.6889 28.2777 63.649C28.1573 63.6092 28.0368 63.5693 27.9164 63.5195C27.796 63.4697 27.6655 63.4199 27.5451 63.3701C27.1738 63.2206 26.7824 63.0314 26.391 62.8321C26.391 62.8222 26.381 62.8122 26.371 62.8022C26.3308 62.7225 26.3007 62.6528 26.2807 62.5731C26.2506 62.4934 26.2305 62.4137 26.2204 62.334C26.2004 62.2543 26.2004 62.1646 26.1903 62.075C26.1803 61.7263 26.2706 61.3677 26.5215 61.009C26.5215 61.009 26.5917 60.7998 26.6921 60.481C26.7925 60.1622 26.9329 59.7338 27.0734 59.2756C27.2139 58.8273 27.3544 58.359 27.4447 57.9705C27.4949 57.7713 27.525 57.5919 27.5351 57.4425C27.5351 57.3728 27.5351 57.303 27.5351 57.2433C27.5351 57.1835 27.515 57.1337 27.4949 57.0839C27.4548 56.9942 27.4247 56.9145 27.3946 56.8348L27.3745 56.775L27.3544 56.7053C27.3544 56.7053 27.3243 56.6156 27.3143 56.5758C27.2842 56.4861 27.2641 56.3965 27.234 56.3068C27.2039 56.2171 27.1838 56.1175 27.1537 56.0279C27.1035 55.8386 27.0433 55.6294 26.9631 55.4102C26.9229 55.3006 26.8928 55.1811 26.8426 55.0615C26.8226 55.0017 26.7925 54.942 26.7724 54.8822C26.7523 54.8224 26.7222 54.7527 26.6921 54.6829C26.662 54.6132 26.6419 54.5435 26.6219 54.4737C26.6018 54.394 26.5817 54.3143 26.5717 54.2247C26.5416 54.0454 26.5215 53.866 26.5215 53.6668C26.5215 53.4675 26.5215 53.2683 26.5416 53.0491C26.5616 52.8399 26.5817 52.6307 26.6219 52.4215C26.6419 52.3219 26.662 52.2123 26.6821 52.1127C26.6921 52.0629 26.7021 52.0131 26.7122 51.9632C26.7222 51.9134 26.7322 51.8636 26.7423 51.8138C26.7925 51.6146 26.8426 51.4352 26.8928 51.2758C27.0032 50.9471 27.1136 50.6881 27.2139 50.5486C27.2139 50.5486 27.0734 50.7678 26.8326 51.1164C26.7122 51.2958 26.5717 51.5149 26.4011 51.754C26.2405 51.9931 26.0599 52.2721 25.8692 52.551C25.6785 52.8399 25.4778 53.1488 25.2671 53.4576C25.0564 53.7764 24.8356 54.1051 24.6248 54.4239C24.4041 54.7527 24.1833 55.0814 23.9525 55.3903C23.7317 55.6991 23.5009 55.998 23.2801 56.2769C23.0995 56.4961 22.959 56.7153 22.8586 56.9544C22.7482 57.1835 22.688 57.4126 22.6479 57.6517C22.6278 57.7713 22.6178 57.8908 22.6077 58.0104C22.6077 58.1299 22.6077 58.2495 22.6178 58.369C22.6278 58.4886 22.6479 58.6081 22.668 58.7276C22.688 58.8472 22.7282 58.9568 22.7583 59.0763C22.9088 59.5446 23.1597 59.9829 23.4708 60.3814C23.7819 60.7699 24.1532 61.1286 24.5445 61.3876C24.9259 61.6566 25.247 61.9554 25.5079 62.2543C25.5581 62.3141 25.6083 62.3838 25.6685 62.4436C24.6248 61.8359 23.531 61.0489 22.4271 60.0726C21.4436 59.1959 20.4702 58.1598 19.5269 57.0141C19.5068 56.7252 19.5169 56.4264 19.6172 56.1375C19.7276 55.8187 19.9484 55.5298 20.2996 55.3006C20.2996 55.3006 20.4401 55.1313 20.6408 54.8722C20.8516 54.6132 21.1225 54.2645 21.3935 53.886C21.534 53.6967 21.6644 53.5074 21.7949 53.3181C21.9253 53.1288 22.0357 52.9395 22.1361 52.7702C22.2364 52.5909 22.3167 52.4315 22.3669 52.292C22.4171 52.1525 22.4371 52.023 22.4271 51.9234C22.407 51.8238 22.397 51.7241 22.387 51.6245C22.3769 51.5249 22.3669 51.4253 22.3669 51.3257C22.3669 51.226 22.3569 51.1264 22.3468 51.0168C22.3468 50.9172 22.3468 50.8076 22.3368 50.698C22.3368 50.5884 22.3368 50.4789 22.3167 50.3593C22.3167 50.2497 22.3067 50.1202 22.2966 50.0007C22.2866 49.8712 22.2665 49.7416 22.2565 49.6121C22.2364 49.4727 22.2264 49.3332 22.1963 49.1738C22.1662 49.0244 22.1662 48.855 22.1762 48.6657C22.1762 48.5761 22.1863 48.4764 22.1963 48.3868C22.2063 48.2872 22.2264 48.1875 22.2465 48.0879C22.2866 47.8887 22.3268 47.6795 22.387 47.4702C22.4472 47.261 22.5074 47.0618 22.5877 46.8625C22.6579 46.6633 22.7382 46.4641 22.8185 46.2947C22.8988 46.1154 22.9891 45.946 23.0694 45.7966C23.1496 45.6471 23.2299 45.5176 23.3102 45.3981C23.3905 45.2885 23.4507 45.1988 23.5109 45.1391C23.5109 45.1391 22.7884 45.8663 21.8451 46.7928C21.6042 47.0319 21.3533 47.281 21.0824 47.54C20.8114 47.799 20.5405 48.058 20.2695 48.327C19.9885 48.586 19.7075 48.845 19.4266 49.0941C19.1456 49.3432 18.8646 49.5723 18.5936 49.7815C18.1621 50.1103 17.861 50.4988 17.6704 50.9272C17.4797 51.3555 17.4095 51.8238 17.4195 52.292C17.4496 53.2384 17.851 54.2048 18.3728 54.9519C18.5033 55.1412 18.6137 55.3205 18.714 55.5098C18.8144 55.6991 18.8846 55.8784 18.9449 56.0578C18.995 56.1873 19.0251 56.3168 19.0552 56.4363C19.0151 56.3865 18.975 56.3367 18.9248 56.2769C17.8008 54.8224 16.7471 53.1886 15.7938 51.4253C15.4225 50.7379 15.0712 50.0206 14.7401 49.2933C14.7401 49.2734 14.7401 49.2535 14.7401 49.2336C14.7601 49.0841 14.7903 48.9447 14.8404 48.7952C14.8906 48.6458 14.9609 48.5063 15.0512 48.3668C15.2318 48.0979 15.4927 47.8687 15.8841 47.7293C15.8841 47.7293 15.9242 47.6994 15.9945 47.6396C16.0647 47.5798 16.1651 47.5001 16.2955 47.4005C16.5464 47.2013 16.8776 46.9323 17.2088 46.6434C17.3794 46.4939 17.5399 46.3445 17.7005 46.1951C17.861 46.0456 18.0116 45.8962 18.142 45.7468C18.403 45.4579 18.5736 45.1988 18.5836 44.9996C18.6037 44.6011 18.6839 44.2325 18.7542 43.824C18.7943 43.6148 18.8345 43.3957 18.8646 43.1566C18.8846 43.037 18.8947 42.9075 18.9148 42.778C18.9248 42.6485 18.9348 42.509 18.9449 42.3596C18.9549 42.2101 18.985 42.0508 19.0251 41.8814C19.0753 41.712 19.1355 41.5327 19.2058 41.3534C19.276 41.1741 19.3663 40.9848 19.4667 40.8055C19.567 40.6261 19.6674 40.4468 19.7778 40.2775C19.8882 40.1081 19.9986 39.9387 20.109 39.7893C20.2193 39.6399 20.3398 39.5004 20.4401 39.3709C20.6509 39.1218 20.8516 38.9425 20.982 38.8528C20.982 38.8528 20.1591 39.3809 19.0954 40.0683C18.5535 40.4169 17.9413 40.8154 17.3191 41.194C16.697 41.5726 16.0647 41.9412 15.4727 42.2301C15.011 42.4592 14.6397 42.7581 14.3788 43.1267C14.2483 43.306 14.138 43.5052 14.0476 43.7045C13.9573 43.9137 13.8971 44.1229 13.857 44.3421C13.6864 45.2287 13.8369 46.1951 14.158 46.9921C14.2383 47.1913 14.2985 47.3905 14.3387 47.5798C14.3888 47.7691 14.4189 47.9584 14.429 48.1377C14.4491 48.317 14.449 48.4964 14.449 48.6558C14.449 48.6757 14.449 48.6856 14.449 48.7056C14.0276 47.7591 13.6462 46.7828 13.295 45.7866C12.9438 44.8003 12.6427 43.7942 12.3717 42.778C12.1911 42.1006 12.0406 41.4231 11.9101 40.7457C11.9302 40.676 11.9503 40.6062 11.9703 40.5365C12.0707 40.2775 12.2212 40.0184 12.442 39.8092C12.6628 39.6 12.9638 39.4406 13.3452 39.3809C13.3452 39.3809 13.5258 39.3012 13.7968 39.1617C14.0677 39.0322 14.429 38.8429 14.8003 38.6436C15.1716 38.4444 15.5529 38.2252 15.854 38.016C16.1551 37.8068 16.3758 37.5976 16.436 37.4282C16.4862 37.2489 16.5565 37.0895 16.6267 36.9202C16.6668 36.8405 16.697 36.7508 16.7371 36.6711C16.7772 36.5914 16.8174 36.5017 16.8575 36.4121C16.8977 36.3224 16.9378 36.2328 16.9779 36.1331C17.0181 36.0335 17.0683 35.9439 17.1084 35.8343C17.1485 35.7247 17.1987 35.6251 17.2389 35.5055C17.279 35.386 17.3292 35.2664 17.3693 35.1469C17.3894 35.0871 17.4195 35.0174 17.4496 34.9476C17.4797 34.8779 17.5198 34.8082 17.56 34.7384C17.6403 34.5989 17.7406 34.4595 17.851 34.31C17.9614 34.1706 18.0919 34.0311 18.2223 33.8916C18.2825 33.8219 18.3528 33.7621 18.423 33.6924C18.4933 33.6326 18.5635 33.5629 18.6338 33.5031C18.704 33.4433 18.7743 33.3835 18.8445 33.3238C18.9148 33.264 18.985 33.2142 19.0552 33.1644C19.1957 33.0548 19.3362 32.9651 19.4567 32.8854C19.5269 32.8456 19.5871 32.8057 19.6473 32.7659C19.7075 32.726 19.7678 32.6961 19.8179 32.6663C19.9283 32.6065 20.0186 32.5666 20.0889 32.5367C20.0889 32.5367 19.8681 32.6065 19.5068 32.736C19.4165 32.7659 19.3162 32.7958 19.2058 32.8356C19.0954 32.8655 18.985 32.9054 18.8646 32.9452C18.6237 33.0249 18.3427 33.1046 18.0618 33.1943C17.7707 33.2839 17.4697 33.3835 17.1485 33.4931C16.8274 33.5928 16.4962 33.7023 16.1651 33.802C15.5028 34.0112 14.8404 34.2005 14.2283 34.33C13.7466 34.4395 13.3452 34.6388 13.014 34.9078C12.8434 35.0472 12.7029 35.1967 12.5825 35.366C12.452 35.5354 12.3416 35.7147 12.2614 35.904C12.171 36.0933 12.0908 36.3025 12.0406 36.5017C11.9904 36.711 11.9503 36.9202 11.9202 37.1294C11.9001 37.3386 11.8901 37.5578 11.8901 37.767C11.8901 37.9762 11.9101 38.1754 11.9402 38.3747C11.9503 38.4743 11.9603 38.5639 11.9703 38.6636C11.9703 38.7632 11.9804 38.8529 11.9703 38.9425C11.9703 39.0322 11.9703 39.1218 11.9603 39.2115C11.9603 39.3012 11.9503 39.3809 11.9302 39.4705C11.9101 39.6399 11.87 39.7993 11.8298 39.9487C11.8098 40.0085 11.7897 40.0682 11.7696 40.128C11.7395 39.9786 11.7094 39.8292 11.6793 39.6797C11.318 37.6076 11.1474 35.5055 11.2077 33.4433C11.2077 33.3138 11.2077 33.1843 11.2177 33.0548C11.2177 32.9253 11.2277 32.7958 11.2378 32.6663C11.2378 32.5368 11.2578 32.4172 11.2578 32.2877C11.2679 32.1582 11.2779 32.0287 11.2879 31.8992C11.2879 31.8992 11.2879 31.8892 11.2879 31.8792C11.3481 31.7697 11.4184 31.6501 11.5087 31.5306C11.6592 31.3213 11.87 31.1221 12.1309 30.9826C12.3918 30.8432 12.6929 30.7734 13.0541 30.8133C13.0541 30.8133 13.2348 30.7834 13.5158 30.7236C13.7968 30.6638 14.1681 30.5841 14.5695 30.4945C14.9609 30.3949 15.3623 30.2952 15.6934 30.1757C15.854 30.1159 16.0045 30.0561 16.1149 29.9864C16.2353 29.9266 16.3257 29.8569 16.3658 29.7772C16.5565 29.4883 16.7672 29.2392 17.0181 28.9603C17.1385 28.8208 17.2589 28.6714 17.3894 28.502C17.5299 28.3327 17.6603 28.1533 17.8109 27.9342C17.8309 27.9142 17.851 27.8844 17.8711 27.8545C17.8912 27.8246 17.9112 27.8047 17.9413 27.7748C17.9915 27.715 18.0417 27.6652 18.1019 27.6154C18.2123 27.5058 18.3427 27.3962 18.4732 27.2966C18.6137 27.197 18.7642 27.0874 18.9148 26.9977C19.0753 26.8981 19.2258 26.8084 19.3864 26.7287C19.7176 26.5594 20.0387 26.4299 20.3097 26.3302C20.5906 26.2306 20.8215 26.1808 20.962 26.1708C20.962 26.1708 20.0889 26.2306 18.9549 26.3203C18.6639 26.3402 18.3528 26.3601 18.0417 26.38C17.7306 26.4 17.3994 26.4299 17.0783 26.4398C16.7572 26.4597 16.426 26.4697 16.1049 26.4797C15.9443 26.4797 15.7837 26.4797 15.6332 26.4797C15.4827 26.4797 15.3322 26.4797 15.1816 26.4797C14.72 26.4597 14.3086 26.5494 13.9373 26.7188C13.8469 26.7586 13.7566 26.8084 13.6663 26.8582C13.576 26.908 13.4957 26.9678 13.4255 27.0276C13.2649 27.1471 13.1244 27.2866 12.9839 27.4361C12.8434 27.5855 12.733 27.7548 12.6327 27.9242C12.5323 28.0936 12.432 28.2828 12.3517 28.4622C12.2814 28.6514 12.2112 28.8407 12.161 29.03C12.1108 29.2193 12.0707 29.4086 12.0406 29.5879C12.0205 29.7772 11.9804 29.9465 11.9302 30.1159C11.9101 30.1956 11.88 30.2753 11.8499 30.355C11.8198 30.4347 11.7897 30.5044 11.7596 30.5841C11.6392 30.8531 11.4886 31.0922 11.3481 31.2915C11.3481 31.2416 11.3481 31.1918 11.3682 31.1321C11.3983 30.883 11.4284 30.624 11.4585 30.3749C11.589 29.3687 11.7696 28.3825 11.9904 27.4261C12.2112 26.4697 12.4821 25.5332 12.7832 24.6366C12.8635 24.4075 12.9438 24.1883 13.014 23.9692C13.0943 23.75 13.1846 23.5308 13.2649 23.3117C13.2649 23.2917 13.2749 23.2818 13.285 23.2618C13.3853 23.1323 13.5459 22.9729 13.7466 22.8235C13.8469 22.7538 13.9573 22.6741 14.0777 22.6143C14.138 22.5844 14.1982 22.5545 14.2584 22.5346C14.3186 22.5147 14.3888 22.4947 14.4591 22.4748C14.73 22.415 15.0211 22.415 15.3422 22.5446C15.3422 22.5446 16.0346 22.6043 16.7873 22.6143C17.1686 22.6243 17.56 22.6143 17.8811 22.5944C18.2123 22.5645 18.4732 22.5047 18.5936 22.3951C18.8445 22.176 19.1054 21.9966 19.4065 21.7974C19.4767 21.7476 19.557 21.6978 19.6373 21.638C19.7176 21.5782 19.7979 21.5184 19.8781 21.4587C20.0487 21.3391 20.2193 21.1897 20.41 21.0303C20.6007 20.8609 20.8716 20.7115 21.1928 20.5621C21.3533 20.4923 21.5139 20.4326 21.6845 20.3728C21.7748 20.3429 21.8551 20.313 21.9354 20.2931C22.0257 20.2632 22.106 20.2433 22.1963 20.2134C22.8787 20.0241 23.541 19.9344 23.812 19.9643C23.812 19.9643 23.6113 19.9444 23.2701 19.9045C23.0995 19.8846 22.8988 19.8547 22.668 19.8248C22.4371 19.795 22.1863 19.7551 21.9153 19.7252C21.3734 19.6555 20.7612 19.5658 20.1591 19.4562C19.557 19.3566 18.9549 19.2271 18.423 19.0777C18.0116 18.9581 17.6102 18.9482 17.2288 19.0179C16.8475 19.0876 16.4962 19.247 16.1751 19.4562C16.0948 19.516 16.0146 19.5658 15.9443 19.6256C15.8741 19.6854 15.7938 19.7452 15.7235 19.8149C15.583 19.9444 15.4526 20.0839 15.3322 20.2333C15.2117 20.3827 15.1114 20.5421 15.011 20.7015C14.9609 20.7812 14.9107 20.8609 14.8705 20.9406C14.8304 21.0203 14.7903 21.1 14.7501 21.1797C14.6799 21.3391 14.5996 21.4886 14.5093 21.6181C14.4189 21.7575 14.3286 21.8771 14.2283 21.9966C14.1279 22.1062 14.0276 22.2158 13.9272 22.3154C13.8269 22.4051 13.7265 22.4947 13.6262 22.5744C13.5961 22.6043 13.5659 22.6243 13.5258 22.6442C13.5659 22.5346 13.6161 22.435 13.6563 22.3254C13.6964 22.2158 13.7466 22.1162 13.7968 22.0166C13.8469 21.907 13.8871 21.8073 13.9373 21.7077C13.9874 21.6081 14.0276 21.4985 14.0777 21.3989C14.1781 21.1996 14.2684 21.0004 14.3688 20.8012C14.4691 20.6019 14.5695 20.4126 14.6698 20.2134C14.72 20.1138 14.7702 20.0241 14.8204 19.9245C14.8705 19.8348 14.9207 19.7352 14.9809 19.6455C15.0311 19.5559 15.0813 19.4562 15.1315 19.3666C15.1616 19.3168 15.1816 19.2769 15.2117 19.2271C15.2418 19.1773 15.2619 19.1374 15.292 19.0876C15.4024 18.8984 15.5028 18.719 15.6131 18.5397C15.7235 18.3604 15.8339 18.1811 15.9343 18.0117C15.9845 17.922 16.0346 17.8324 16.0948 17.7527C16.145 17.663 16.2052 17.5833 16.2554 17.4937C16.7271 16.7565 17.2088 16.0691 17.6804 15.4315L17.7005 15.4514C17.7005 15.4514 17.7707 15.3817 17.9012 15.292C18.0316 15.1924 18.2123 15.0828 18.4331 14.9832C18.6538 14.8835 18.8947 14.8138 19.1556 14.8138C19.4165 14.8138 19.6875 14.8736 19.9384 15.0529C19.9384 15.0529 20.5605 15.2422 21.2429 15.4016C21.5841 15.4813 21.9454 15.551 22.2565 15.5709C22.5676 15.6008 22.8285 15.5909 22.969 15.5012C23.26 15.3319 23.5511 15.2023 23.8822 15.0529C24.2034 14.8935 24.5747 14.7142 25.0162 14.4352C25.237 14.2958 25.538 14.1663 25.8692 14.0666C26.2004 13.9571 26.5616 13.8774 26.9129 13.8076C27.6153 13.6781 28.2877 13.6183 28.5386 13.6681C28.5386 13.6681 28.3479 13.6383 28.0268 13.5685C27.7057 13.5087 27.2541 13.4091 26.7523 13.2896C25.7388 13.0505 24.4944 12.7217 23.5711 12.3033C22.8386 11.9746 22.0759 12.0543 21.4035 12.3531C21.2329 12.4229 21.0723 12.5125 20.9118 12.6121C20.7512 12.7118 20.6007 12.8213 20.4602 12.9409C20.3197 13.0604 20.1892 13.18 20.0588 13.3095C19.9986 13.3693 19.9384 13.439 19.8781 13.5087C19.8179 13.5685 19.7678 13.6383 19.7176 13.708C19.6172 13.8375 19.5068 13.9571 19.3964 14.0666C19.2861 14.1762 19.1656 14.2758 19.0552 14.3555C18.9348 14.4352 18.8244 14.5149 18.704 14.5847C18.5836 14.6544 18.4732 14.7142 18.3728 14.764C18.2725 14.8038 18.1822 14.8437 18.1019 14.8736C18.3528 14.5448 18.5936 14.226 18.8345 13.9272C19.1054 13.5884 19.3764 13.2597 19.6273 12.9608C20.0588 12.4428 21.6544 10.1216 22.1963 9.33454C22.5676 9.0556 23.0192 8.85635 23.521 8.86631C23.521 8.86631 26.5917 7.98963 26.9028 7.19265C27.2139 6.39566 27.6555 5.778 28.0569 4.51279C28.4583 3.24757 30.2145 1.31489 30.7765 0.996094C30.7765 0.996094 27.3946 2.87897 24.9259 3.4269C22.979 3.86524 22.2866 5.94736 22.2866 7.6011C22.2866 8.2088 22.0859 8.74677 21.835 9.17515C20.3598 10.789 18.3026 13.0604 18.1019 13.3095C17.9213 13.5386 17.7105 13.7877 17.4998 14.0268C17.4998 13.9571 17.5098 13.8873 17.5198 13.8076C17.56 13.5586 17.6403 13.2896 17.7607 13.0007C17.8209 12.8512 17.9012 12.7118 17.9915 12.5623C18.0818 12.4229 18.1922 12.2734 18.3126 12.134C18.8144 11.5661 19.2861 10.8588 19.5169 10.1016C19.6373 9.72307 19.6875 9.33454 19.6574 8.95597C19.6273 8.57741 19.5068 8.2088 19.276 7.85016C18.6839 6.96351 18.1721 5.70826 17.8209 4.68215C17.6503 4.16411 17.5098 3.70584 17.4095 3.37708C17.3191 3.04833 17.269 2.84908 17.269 2.84908C17.3392 3.11806 17.3091 3.82539 17.1987 4.61241C17.1385 5.00094 17.0582 5.40939 16.9579 5.78796C16.8575 6.16653 16.7271 6.51521 16.5866 6.79416C15.9945 7.89001 15.8741 8.57741 15.5529 9.31462C15.3924 9.69319 15.6734 10.4503 16.0146 11.1178C16.1852 11.4466 16.3658 11.7554 16.4962 11.9746C16.6367 12.1937 16.7271 12.3332 16.7271 12.3332C16.998 12.5324 17.1385 12.7815 17.2188 13.0405C17.289 13.2995 17.279 13.5685 17.2489 13.8176C17.2188 14.0666 17.1485 14.2858 17.0883 14.4452C17.0883 14.4751 17.0683 14.4851 17.0683 14.505C16.4461 15.2322 15.7938 16.0093 15.2318 16.886C15.1716 16.9756 15.1214 17.0653 15.0612 17.145C15.001 17.2347 14.9508 17.3243 14.8906 17.414C14.7802 17.5933 14.6698 17.7726 14.5594 17.9619C14.4491 18.1512 14.3387 18.3305 14.2383 18.5198C14.2082 18.5696 14.1881 18.6094 14.158 18.6593C14.1279 18.7091 14.1079 18.7589 14.0777 18.8087C14.0276 18.9083 13.9774 18.998 13.9172 19.0976C13.867 19.1972 13.8068 19.2968 13.7566 19.3865C13.7064 19.4861 13.6563 19.5858 13.5961 19.6854C13.4957 19.8846 13.3853 20.0839 13.285 20.2931C13.1846 20.5023 13.0843 20.7115 12.9839 20.9107C12.9337 21.0203 12.8835 21.1199 12.8434 21.2295C12.7932 21.3391 12.7431 21.4387 12.7029 21.5483C12.6929 21.5782 12.6828 21.6081 12.6628 21.628C12.6628 21.4387 12.6628 21.2395 12.6929 21.0203C12.7029 20.9406 12.723 20.8609 12.7431 20.7713C12.7631 20.6916 12.7832 20.6019 12.8133 20.5222C12.8735 20.3529 12.9438 20.1735 13.0341 20.0042C13.2247 19.6555 13.3753 19.267 13.4957 18.8685C13.5258 18.7688 13.5559 18.6692 13.576 18.5696C13.5961 18.46 13.6161 18.3604 13.6362 18.2608C13.6763 18.0516 13.6964 17.8424 13.7064 17.6331C13.7064 17.4239 13.7064 17.2147 13.6864 17.0055C13.6663 16.7963 13.6161 16.5971 13.5559 16.3978C13.4355 15.9993 13.2247 15.6307 12.9137 15.302C12.7129 15.0928 12.5223 14.8636 12.3316 14.6146C12.1409 14.3655 11.9603 14.0965 11.7797 13.8275C11.599 13.5486 11.4284 13.2697 11.2779 12.9907C11.1173 12.7118 10.9768 12.4328 10.8363 12.1638C10.5754 11.6259 10.3547 11.1377 10.2142 10.789C10.0737 10.4404 9.99338 10.2212 9.99338 10.2212C10.0436 10.3706 10.0937 10.6496 10.1238 11.0082C10.164 11.3669 10.1941 11.8052 10.2041 12.2635C10.2342 13.19 10.2041 14.1862 9.98335 14.8636C9.93317 15.033 9.88299 15.1824 9.84285 15.3319C9.80271 15.4813 9.77261 15.6208 9.75254 15.7503C9.70236 16.0192 9.66222 16.2484 9.64215 16.4775C9.62208 16.7066 9.60201 16.9159 9.58194 17.1151C9.5719 17.2147 9.56187 17.3243 9.54179 17.4239C9.53176 17.5236 9.51169 17.6331 9.49162 17.7427C9.45148 17.9619 9.55183 18.2608 9.72243 18.5696C9.90306 18.8884 10.1539 19.2171 10.4149 19.526C10.6758 19.8348 10.9367 20.1038 11.1374 20.303C11.3381 20.4923 11.4786 20.6218 11.4786 20.6218C11.8098 20.7613 12.0305 20.9805 12.171 21.2295C12.3216 21.4786 12.3818 21.7575 12.4219 22.0166C12.4219 22.0863 12.4219 22.1361 12.432 22.2058C12.3416 22.425 12.2413 22.6442 12.161 22.8733C12.0707 23.1024 11.9904 23.3216 11.9001 23.5508C11.8198 23.7799 11.7395 24.009 11.6592 24.2381C11.3481 25.1746 11.0772 26.1409 10.8363 27.1272C10.6156 28.1234 10.4349 29.1396 10.2944 30.1757C10.2744 30.3152 10.2643 30.4546 10.2443 30.5941C10.1941 30.4347 10.1439 30.2554 10.1138 30.0661C10.0937 29.8967 10.0737 29.7174 10.0837 29.5281C10.0837 29.4385 10.0837 29.3389 10.0937 29.2392C10.0937 29.1396 10.1138 29.04 10.1339 28.9404C10.174 28.7411 10.2041 28.5319 10.2142 28.3127C10.2142 28.2031 10.2142 28.0936 10.2142 27.9939C10.2142 27.8844 10.2142 27.7748 10.2142 27.6652C10.2041 27.446 10.174 27.2268 10.1339 27.0077C10.0937 26.7885 10.0436 26.5693 9.97331 26.3601C9.83282 25.9317 9.64215 25.5233 9.38123 25.1547C9.25077 24.9654 9.10024 24.796 8.92964 24.6366C8.75904 24.4772 8.57841 24.3378 8.36767 24.2083C7.84583 23.8895 7.28385 23.4711 6.75198 22.9929C6.22011 22.5246 5.71835 22.0066 5.28683 21.5184C5.06606 21.2694 4.87539 21.0402 4.69475 20.8211C4.51412 20.6019 4.36359 20.4027 4.24316 20.2433C3.99228 19.9045 3.84175 19.6953 3.84175 19.6953C3.93207 19.8348 4.06253 20.1337 4.22309 20.5122C4.30337 20.7015 4.38366 20.9107 4.46394 21.1399C4.55426 21.369 4.63454 21.6081 4.72486 21.8472C4.765 21.9667 4.80514 22.0963 4.84528 22.2158C4.88542 22.3354 4.92556 22.4649 4.9657 22.5844C5.04599 22.8335 5.11623 23.0925 5.17644 23.3316C5.20655 23.4511 5.23666 23.5707 5.25673 23.6902C5.28683 23.8098 5.3069 23.9194 5.31694 24.0289C5.34704 24.2481 5.36711 24.4573 5.36711 24.6466C5.36711 24.8359 5.36711 25.0052 5.36711 25.1746C5.36711 25.334 5.38719 25.4834 5.40726 25.6229C5.42733 25.7624 5.43736 25.8919 5.45743 26.0214C5.4775 26.141 5.50761 26.2605 5.52768 26.38C5.62803 26.8283 5.72839 27.197 5.79863 27.6751C5.82874 27.9043 6.01941 28.1832 6.3004 28.4522C6.58139 28.7212 6.94266 28.9802 7.30393 29.2193C7.6652 29.4484 8.01643 29.6477 8.28738 29.7872C8.41784 29.8569 8.52823 29.9167 8.60851 29.9466C8.6888 29.9864 8.72894 30.0063 8.72894 30.0063C9.11028 30.0462 9.4013 30.2056 9.62208 30.4148C9.85289 30.624 10.0135 30.883 10.1238 31.1321C10.1439 31.162 10.1439 31.1918 10.164 31.2217C10.164 31.2616 10.164 31.3014 10.1539 31.3413C10.1539 31.4708 10.1339 31.6003 10.1238 31.7398C10.1138 31.8693 10.1038 32.0087 10.0937 32.1383C10.0937 32.2678 10.0737 32.3973 10.0737 32.5367C10.0737 32.6663 10.0536 32.8057 10.0536 32.9352C10.0536 33.0648 10.0536 33.2042 10.0436 33.3337C9.98335 35.4657 10.1539 37.6374 10.5253 39.7793C10.5253 39.7993 10.5253 39.8192 10.5353 39.8391C10.455 39.7096 10.3647 39.5701 10.2944 39.4207C10.1339 39.0919 10.0135 38.7034 9.96328 38.275C9.86292 37.4183 9.50165 36.5217 8.92964 35.7446C8.64865 35.3561 8.29742 35.0074 7.90604 34.7185C7.70534 34.5691 7.4946 34.4395 7.27382 34.33C7.05304 34.2204 6.82223 34.1208 6.57135 34.061C6.26026 33.9713 5.92909 33.8617 5.58789 33.7322C5.41729 33.6625 5.24669 33.5928 5.07609 33.523C4.90549 33.4433 4.73489 33.3636 4.56429 33.2839C3.87186 32.9552 3.18946 32.5666 2.59738 32.1881C2.29632 31.9988 2.02536 31.8095 1.77448 31.6302C1.5236 31.4608 1.31286 31.3114 1.13222 31.1719C0.770953 30.9029 0.550176 30.7336 0.550176 30.7336C0.680635 30.8531 0.921482 31.1121 1.21251 31.4509C1.353 31.6202 1.51356 31.8195 1.68416 32.0287C1.76445 32.1283 1.85476 32.2379 1.93505 32.3574C2.01533 32.467 2.10565 32.5866 2.19596 32.6961C2.36656 32.9253 2.5472 33.1644 2.70776 33.4035C2.87836 33.6426 3.03893 33.8717 3.17942 34.1108C3.31992 34.3399 3.46041 34.5691 3.5708 34.7783C3.68119 34.9974 3.76147 35.1967 3.82168 35.386C3.88189 35.5753 3.93207 35.7546 3.99228 35.914C4.05249 36.0734 4.1127 36.2128 4.17292 36.3523C4.29334 36.6113 4.41376 36.8305 4.53419 37.0298C4.65461 37.229 4.77503 37.4083 4.88542 37.5976C4.99581 37.7869 5.1062 37.9762 5.20655 38.2053C5.3069 38.4344 5.58789 38.6536 5.9592 38.8429C6.13983 38.9425 6.34054 39.0322 6.55128 39.1119C6.76202 39.1916 6.9828 39.2613 7.20357 39.331C7.63509 39.4605 8.05657 39.5602 8.36767 39.6299C8.67876 39.6996 8.8895 39.7295 8.8895 39.7295C9.28088 39.6698 9.63211 39.7495 9.92314 39.8989C10.0737 39.9686 10.2041 40.0682 10.3245 40.1679C10.445 40.2675 10.5554 40.3771 10.6557 40.4867C10.6557 40.4867 10.6557 40.4966 10.6758 40.5066C10.8363 41.3235 11.017 42.1504 11.2277 42.9573C11.4987 44.0034 11.8198 45.0394 12.1811 46.0556C12.5022 46.9721 12.8534 47.8588 13.2348 48.7355C12.8835 48.3868 12.5323 47.9285 12.3115 47.3407C11.9904 46.484 11.3582 45.677 10.5353 45.0594C10.1238 44.7505 9.67225 44.4915 9.17049 44.3022C8.67876 44.1129 8.15693 43.9934 7.61502 43.9834C6.92258 43.9735 6.13983 43.8739 5.34704 43.7244C5.14634 43.6846 4.94563 43.6447 4.74493 43.6049C4.54422 43.565 4.35355 43.5152 4.15285 43.4654C3.76147 43.3658 3.38013 43.2662 3.01886 43.1665C2.29632 42.9573 1.67413 42.7381 1.22254 42.5688C0.991729 42.4891 0.821129 42.4194 0.69067 42.3695C0.570247 42.3197 0.5 42.2898 0.5 42.2898C0.580282 42.3297 0.710741 42.3994 0.86127 42.4991C1.0118 42.5887 1.20247 42.7083 1.41321 42.8378C1.62395 42.9673 1.84473 43.1167 2.08558 43.2761C2.32642 43.4355 2.5773 43.6049 2.82819 43.7842C3.07907 43.9635 3.32995 44.1428 3.58083 44.3321C3.70126 44.4218 3.82168 44.5214 3.9421 44.6111C4.06253 44.7107 4.17292 44.8003 4.2833 44.89C4.50408 45.0793 4.70479 45.2686 4.87539 45.4479C5.04599 45.6372 5.19652 45.8165 5.29687 45.9958C5.51764 46.3445 5.71835 46.6234 5.90902 46.8526C6.09969 47.0817 6.28033 47.2511 6.46096 47.4204C6.63156 47.5798 6.80216 47.7193 6.96273 47.8787C7.04301 47.9584 7.12329 48.0381 7.20357 48.1178C7.28385 48.2075 7.36414 48.2971 7.44442 48.3967C7.60498 48.596 7.94618 48.7554 8.36767 48.865C8.78915 48.9745 9.28088 49.0343 9.76257 49.0742C10.7159 49.1439 11.579 49.0941 11.579 49.0941C11.7696 49.0144 11.9603 48.9746 12.1409 48.9746C12.3216 48.9746 12.5022 48.9845 12.6728 49.0343C12.9939 49.114 13.2749 49.2635 13.5258 49.4328C13.8971 50.2597 14.2985 51.0666 14.72 51.8537C15.6934 53.6668 16.7772 55.3405 17.9413 56.8448C17.851 56.785 17.7607 56.7352 17.6704 56.6754C17.5098 56.5559 17.3392 56.4164 17.1786 56.257C17.0181 56.0976 16.8776 55.9183 16.7371 55.719C16.1852 54.922 15.3121 54.2745 14.2985 53.8362C13.7968 53.6269 13.2448 53.4676 12.6929 53.3879C12.4119 53.348 12.1309 53.3281 11.8499 53.338C11.5689 53.338 11.2879 53.3679 11.0069 53.4177C10.6557 53.4875 10.2744 53.5373 9.87296 53.5771C9.67225 53.5971 9.46151 53.617 9.25077 53.6269C9.04003 53.6369 8.82929 53.6469 8.61855 53.6568C8.19707 53.6668 7.75551 53.6668 7.33403 53.6568C6.90251 53.6568 6.49107 53.6269 6.09969 53.5971C5.70831 53.5771 5.32697 53.5373 4.99581 53.5074C4.65461 53.4775 4.35355 53.4377 4.10267 53.3978C3.85179 53.3679 3.65108 53.338 3.50055 53.3181C3.36006 53.2982 3.27977 53.2882 3.27977 53.2882C3.47045 53.338 3.87186 53.4576 4.37362 53.6269C4.6245 53.7166 4.90549 53.8162 5.19651 53.9258C5.48754 54.0354 5.7886 54.1549 6.10973 54.2745C6.42082 54.394 6.73191 54.5236 7.04301 54.663C7.3541 54.7925 7.64513 54.932 7.92611 55.0814C8.48809 55.3703 8.95975 55.6692 9.27084 55.988C9.89303 56.6256 10.3747 56.9245 10.8062 57.1536C10.9166 57.2134 11.017 57.2632 11.1173 57.323C11.2177 57.3827 11.318 57.4325 11.4284 57.4923C11.5288 57.5521 11.6291 57.6119 11.7395 57.6816C11.8399 57.7513 11.9503 57.831 12.0607 57.9107C12.171 58.0004 12.3216 58.0602 12.5122 58.11C12.6026 58.1299 12.7029 58.1498 12.8033 58.1598C12.9036 58.1698 13.024 58.1797 13.1344 58.1797C13.5961 58.1996 14.1179 58.1498 14.6096 58.0701C15.1013 57.9904 15.573 57.8908 15.9142 57.8111C16.0848 57.7713 16.2253 57.7314 16.3156 57.7015C16.416 57.6716 16.4661 57.6617 16.4661 57.6617C16.8174 57.4126 17.1987 57.323 17.56 57.3329C17.7406 57.3329 17.9213 57.3528 18.0919 57.3927C18.2223 57.4226 18.3427 57.4624 18.4732 57.5023C19.4767 58.7376 20.5304 59.8534 21.5942 60.8098C22.7282 61.8259 23.8722 62.6428 24.966 63.2904C24.9259 63.2904 24.8757 63.2705 24.8356 63.2605C24.7854 63.2505 24.7352 63.2306 24.675 63.2206C24.4643 63.1609 24.2435 63.0911 24.0328 62.9915C23.9224 62.9417 23.812 62.8819 23.7116 62.8222C23.6012 62.7624 23.5009 62.6926 23.3905 62.6129C23.1798 62.4635 22.959 62.324 22.7081 62.2145C22.5877 62.1547 22.4672 62.0949 22.3368 62.0451C22.2063 61.9953 22.0759 61.9455 21.9454 61.9056C21.815 61.8558 21.6845 61.816 21.544 61.7761C21.4035 61.7363 21.263 61.7064 21.1225 61.6765C20.982 61.6466 20.8415 61.6167 20.691 61.5968C20.6208 61.5868 20.5505 61.5769 20.4702 61.5669C20.4 61.5669 20.3297 61.547 20.2494 61.537C20.0989 61.5171 19.9584 61.5071 19.8079 61.5071C19.6574 61.5071 19.5068 61.4972 19.3563 61.4972C19.0552 61.4972 18.7542 61.5171 18.4531 61.5569C17.861 61.6267 17.279 61.7861 16.7471 62.0351C16.0748 62.3539 15.2519 62.6428 14.3788 62.872C13.5158 63.1111 12.5925 63.2904 11.7596 63.4199C11.3481 63.4797 10.9467 63.5394 10.5855 63.5793C10.2242 63.6191 9.90307 63.649 9.63211 63.6789C9.36116 63.6988 9.14038 63.7188 8.98985 63.7188C8.83932 63.7188 8.75904 63.7287 8.75904 63.7287C9.19056 63.7486 10.5754 63.8981 12.0506 64.1173C12.4219 64.177 12.7932 64.2368 13.1645 64.2966C13.5358 64.3663 13.8971 64.4361 14.2383 64.5157C14.5895 64.5954 14.9006 64.6851 15.2017 64.7847C15.5028 64.8843 15.7536 65.0039 15.9744 65.1234C16.1952 65.253 16.3959 65.3625 16.5866 65.4522C16.7772 65.5419 16.9579 65.6116 17.1184 65.6714C17.1987 65.7013 17.279 65.7311 17.3593 65.7511C17.4396 65.771 17.5098 65.8009 17.5801 65.8208C17.7206 65.8607 17.861 65.8905 17.9915 65.9204C18.2524 65.9802 18.5033 66.0201 18.7542 66.0699C18.8846 66.0998 19.0051 66.1296 19.1456 66.1695C19.2861 66.2093 19.4266 66.2591 19.5771 66.3189C19.8781 66.4385 20.3297 66.4086 20.8014 66.2791C21.0422 66.2193 21.2831 66.1296 21.534 66.03C21.7748 65.9304 22.0257 65.8108 22.2565 65.6913C22.7181 65.4522 23.1396 65.1832 23.4407 64.984C23.7417 64.7847 23.9224 64.6353 23.9224 64.6353C24.1532 64.2667 24.4843 64.0376 24.8356 63.8981C25.1266 63.7885 25.4277 63.7387 25.7287 63.7188C26.1803 63.9479 26.6219 64.1571 27.0333 64.3265C27.1738 64.3862 27.3043 64.436 27.4447 64.4859C27.5852 64.5357 27.7157 64.5855 27.8462 64.6253C27.9766 64.6751 28.1071 64.705 28.2275 64.7449C28.358 64.7847 28.4784 64.8246 28.5988 64.8545C29.5622 65.1135 30.3449 65.2131 30.8768 65.253C30.9471 65.253 31.0073 65.253 31.0675 65.2629C31.0976 65.2629 31.1277 65.2629 31.1578 65.2629H31.2381C31.2381 65.2629 31.2682 65.2629 31.2883 65.2629C32.1814 66.0201 32.9341 67.2853 31.0976 69.1084C29.7027 70.4931 30.3148 74.5378 30.3751 74.9064C30.3449 74.6673 30.2145 73.0534 32.4624 69.6762C34.048 67.3052 33.476 65.9005 32.8738 65.2031C33.3154 65.1832 33.6967 65.1533 33.6967 65.1533C36.3962 64.8843 36.5166 66.2492 36.5166 66.2492C35.7339 67.5443 36.7776 69.0984 36.7776 69.0984C36.5668 67.7037 37.9216 66.7672 38.2929 65.1533C38.4635 64.3962 38.6742 63.908 38.3932 63.6391C38.0621 63.3302 37.5603 63.3103 37.1489 63.5096L37.1689 63.5793Z" fill="#D1D5DB"/>
<g clip-path="url(#clip0_305_2501)">
<path d="M130.337 34.5908C132.103 34.5908 133.353 34.272 134.285 33.5852V30.4701C133.329 31.1323 132.176 31.5493 130.558 31.5493C127.836 31.5493 126.708 29.4399 126.708 26.104C126.708 22.5965 128.081 20.8059 130.582 20.8059C132.054 20.8059 133.5 21.321 134.261 21.8116V18.5739C133.451 18.1323 132.054 17.8135 130.141 17.8135C125.261 17.8135 122.735 21.321 122.735 26.2267C122.759 31.5984 125.236 34.5908 130.337 34.5908ZM106.476 33.1682V30.0531C105.299 30.8625 103.288 31.5739 101.449 31.5739C98.653 31.5739 97.5985 30.2493 97.4269 27.5512H106.648V25.5399C106.648 19.9229 104.171 17.8135 100.37 17.8135C95.7102 17.8135 93.5032 21.3701 93.5032 26.2512C93.5032 31.8682 96.2743 34.5908 101.13 34.5908C103.558 34.5908 105.348 33.9286 106.476 33.1682ZM71.4814 18.1078V24.4852H66.3805V18.1078H62.5549V34.272H66.3805V27.5267H71.4814V34.272H75.307V18.1078H71.4814ZM92.5468 31.2305H90.8547V18.1078H79.7211V19.4814C79.7211 23.4305 79.4759 28.5323 78.1271 31.2305H76.901V37.9512H80.4323V34.272H88.9909V37.9512H92.5222V31.2305H92.5468ZM118.664 34.272H123.005L116.874 25.5644L122.269 18.1078H118.419L113.024 25.5644V18.1078H109.198V34.272H113.024V26.3248L118.664 34.272ZM100.272 20.8059C102.16 20.8059 102.748 22.3757 102.748 24.4116V24.7305H97.4269C97.525 22.155 98.4568 20.8059 100.272 20.8059ZM87.029 31.2305H81.6339C82.6884 28.8022 82.9827 24.3871 82.9827 21.5908V21.1003H87.029V31.2305Z" fill="black"/>
<path d="M59.3669 34.2719H55.4677V14.9682H53.7266C50.5386 14.9682 48.871 16.5625 48.871 18.9417C48.871 21.6399 50.0236 22.8908 52.4023 24.4851L54.3642 25.8097L48.7239 34.2719H44.5304L49.6067 26.7172C46.6884 24.6323 45.0454 22.5965 45.0454 19.1625C45.0454 14.87 48.0372 11.9512 53.7021 11.9512H59.3424V34.2719H59.3669Z" fill="#FC3F1D"/>
</g>
<path d="M158.826 18.5343L160.146 21.1958C160.326 21.5663 160.806 21.9217 161.211 21.9897L163.603 22.3905C165.133 22.6476 165.493 23.7666 164.391 24.8705L162.531 26.7457C162.216 27.0633 162.043 27.6757 162.141 28.1143L162.673 30.4355C163.093 32.2729 162.126 32.9836 160.513 32.0234L158.271 30.6851C157.866 30.4431 157.199 30.4431 156.786 30.6851L154.544 32.0234C152.939 32.9836 151.964 32.2653 152.384 30.4355L152.917 28.1143C153.014 27.6757 152.842 27.0633 152.527 26.7457L150.667 24.8705C149.572 23.7666 149.925 22.6476 151.454 22.3905L153.847 21.9897C154.244 21.9217 154.724 21.5663 154.904 21.1958L156.224 18.5343C156.944 17.0901 158.114 17.0901 158.826 18.5343Z" fill="#FFA800"/>
<path d="M180.836 17.7252V26.1672H182.294V28.0032H180.836V30.4512H178.766V28.0032H172.196V26.5092L178.154 17.7252H180.836ZM174.608 26.1672H178.766V19.9392L174.608 26.1672ZM185.28 30.5952C184.92 30.5712 184.62 30.4512 184.38 30.2352C184.152 30.0072 184.038 29.7012 184.038 29.3172C184.038 28.8972 184.17 28.5792 184.434 28.3632C184.698 28.1352 184.992 28.0212 185.316 28.0212C185.352 28.0212 185.388 28.0212 185.424 28.0212C185.964 28.0572 186.336 28.2492 186.54 28.5972C186.744 28.9452 186.846 29.3112 186.846 29.6952C186.846 29.7552 186.846 29.8152 186.846 29.8752C186.846 30.2232 186.78 30.5652 186.648 30.9012C186.516 31.2492 186.342 31.5732 186.126 31.8732C185.91 32.1732 185.664 32.4312 185.388 32.6472C185.112 32.8752 184.824 33.0372 184.524 33.1332L183.984 32.3952C184.272 32.1912 184.536 31.9332 184.776 31.6212C185.016 31.3092 185.184 30.9672 185.28 30.5952ZM196.21 24.3672C196.03 24.6432 195.82 24.8772 195.58 25.0692C195.34 25.2612 195.076 25.4232 194.788 25.5552C194.512 25.6752 194.218 25.7652 193.906 25.8252C193.594 25.8852 193.282 25.9152 192.97 25.9152C192.37 25.9152 191.818 25.8252 191.314 25.6452C190.822 25.4532 190.39 25.1832 190.018 24.8352C189.646 24.4872 189.358 24.0612 189.154 23.5572C188.95 23.0532 188.848 22.4832 188.848 21.8472C188.848 21.1992 188.962 20.6112 189.19 20.0832C189.43 19.5552 189.748 19.1112 190.144 18.7512C190.552 18.3792 191.026 18.0972 191.566 17.9052C192.118 17.7012 192.712 17.5992 193.348 17.5992C194.236 17.5872 195.004 17.7852 195.652 18.1932C196.312 18.5892 196.816 19.0932 197.164 19.7052C197.524 20.3052 197.776 20.9952 197.92 21.7752C198.076 22.5432 198.166 23.3172 198.19 24.0972C198.19 24.9132 198.112 25.7112 197.956 26.4912C197.8 27.2712 197.53 27.9672 197.146 28.5792C196.774 29.1792 196.27 29.6652 195.634 30.0372C194.998 30.3972 194.2 30.5772 193.24 30.5772C192.712 30.5772 192.208 30.5172 191.728 30.3972C191.26 30.2652 190.834 30.0732 190.45 29.8212C190.066 29.5572 189.742 29.2332 189.478 28.8492C189.214 28.4532 189.04 27.9852 188.956 27.4452H191.098C191.254 27.8772 191.536 28.2012 191.944 28.4172C192.352 28.6212 192.784 28.7232 193.24 28.7232C193.6 28.7232 193.918 28.6752 194.194 28.5792C194.47 28.4712 194.716 28.3332 194.932 28.1652C195.148 27.9972 195.334 27.7992 195.49 27.5712C195.646 27.3312 195.772 27.0792 195.868 26.8152C196.024 26.4192 196.12 26.0172 196.156 25.6092C196.192 25.1892 196.21 24.7752 196.21 24.3672ZM190.936 21.7212C190.936 22.4532 191.146 23.0292 191.566 23.4492C191.998 23.8692 192.574 24.0792 193.294 24.0792C193.618 24.0792 193.924 24.0312 194.212 23.9352C194.512 23.8272 194.77 23.6832 194.986 23.5032C195.202 23.3112 195.37 23.0832 195.49 22.8192C195.622 22.5432 195.694 22.2432 195.706 21.9192C195.706 21.5832 195.652 21.2652 195.544 20.9652C195.436 20.6652 195.28 20.4072 195.076 20.1912C194.872 19.9632 194.62 19.7832 194.32 19.6512C194.032 19.5192 193.708 19.4532 193.348 19.4532C192.652 19.4532 192.076 19.6572 191.62 20.0652C191.176 20.4732 190.948 21.0252 190.936 21.7212Z" fill="#111827"/>
<path d="M59.4624 61.9912H58.1024V50.5192H59.3984L59.4624 51.8152C59.7504 51.3565 60.1397 51.0152 60.6304 50.7912C61.1317 50.5565 61.6704 50.4338 62.2464 50.4232C62.8971 50.4232 63.4464 50.5352 63.8944 50.7592C64.3531 50.9725 64.7317 51.2765 65.0304 51.6712C65.3397 52.0552 65.5691 52.5138 65.7184 53.0472C65.8677 53.5698 65.9424 54.1352 65.9424 54.7432C65.9424 55.3618 65.8677 55.9325 65.7184 56.4552C65.5691 56.9778 65.3397 57.4312 65.0304 57.8152C64.7211 58.1992 64.3317 58.5032 63.8624 58.7272C63.3931 58.9405 62.8331 59.0472 62.1824 59.0472C61.5424 59.0472 60.9984 58.9458 60.5504 58.7432C60.1024 58.5405 59.7397 58.2738 59.4624 57.9432V61.9912ZM62.0704 57.8472C62.5291 57.8472 62.9131 57.7672 63.2224 57.6072C63.5424 57.4365 63.7984 57.2125 63.9904 56.9352C64.1931 56.6472 64.3371 56.3165 64.4224 55.9432C64.5184 55.5698 64.5717 55.1698 64.5824 54.7432C64.5824 54.3165 64.5344 53.9165 64.4384 53.5432C64.3531 53.1592 64.2091 52.8285 64.0064 52.5512C63.8037 52.2738 63.5371 52.0552 63.2064 51.8952C62.8864 51.7245 62.4971 51.6392 62.0384 51.6392C61.4944 51.6392 61.0251 51.7885 60.6304 52.0872C60.2357 52.3752 59.9371 52.7432 59.7344 53.1912C59.6171 53.4365 59.5371 53.6925 59.4944 53.9592C59.4517 54.2152 59.4304 54.4818 59.4304 54.7592C59.4304 55.0792 59.4517 55.3778 59.4944 55.6552C59.5371 55.9218 59.6171 56.1778 59.7344 56.4232C59.9371 56.8285 60.2304 57.1698 60.6144 57.4472C61.0091 57.7138 61.4944 57.8472 62.0704 57.8472ZM68.7521 55.2392C68.7841 55.6125 68.8588 55.9592 68.9761 56.2792C69.1041 56.5885 69.2748 56.8605 69.4881 57.0952C69.7015 57.3298 69.9628 57.5165 70.2721 57.6552C70.5921 57.7832 70.9601 57.8472 71.3761 57.8472C71.5788 57.8472 71.7868 57.8312 72.0001 57.7992C72.2241 57.7565 72.4321 57.6925 72.6241 57.6072C72.8161 57.5112 72.9868 57.3885 73.1361 57.2392C73.2855 57.0898 73.3975 56.9085 73.4721 56.6952H74.8641C74.7681 57.1005 74.6028 57.4525 74.3681 57.7512C74.1441 58.0498 73.8721 58.2952 73.5521 58.4872C73.2428 58.6792 72.8961 58.8232 72.5121 58.9192C72.1281 59.0045 71.7388 59.0472 71.3441 59.0472C70.6721 59.0472 70.0855 58.9405 69.5841 58.7272C69.0935 58.5138 68.6828 58.2205 68.3521 57.8472C68.0215 57.4632 67.7761 57.0098 67.6161 56.4872C67.4561 55.9538 67.3761 55.3725 67.3761 54.7432C67.3761 54.1138 67.4615 53.5378 67.6321 53.0152C67.8135 52.4818 68.0695 52.0232 68.4001 51.6392C68.7308 51.2552 69.1361 50.9565 69.6161 50.7432C70.0961 50.5298 70.6668 50.4232 71.3281 50.4232C72.0001 50.4232 72.5815 50.5565 73.0721 50.8232C73.5628 51.0898 73.9575 51.4418 74.2561 51.8792C74.5548 52.3058 74.7628 52.7698 74.8801 53.2712C75.0081 53.7725 75.0615 54.2365 75.0401 54.6632C75.0401 54.7592 75.0348 54.8552 75.0241 54.9512C75.0241 55.0472 75.0188 55.1432 75.0081 55.2392H68.7521ZM73.6641 54.0552C73.6428 53.3405 73.4188 52.7592 72.9921 52.3112C72.5655 51.8632 71.9948 51.6392 71.2801 51.6392C70.8855 51.6392 70.5388 51.7032 70.2401 51.8312C69.9415 51.9592 69.6908 52.1352 69.4881 52.3592C69.2855 52.5832 69.1255 52.8445 69.0081 53.1432C68.8908 53.4312 68.8161 53.7352 68.7841 54.0552H73.6641ZM80.692 48.3592C81.14 48.3592 81.4974 48.2738 81.764 48.1032C82.0414 47.9325 82.18 47.6338 82.18 47.2072H83.428C83.4067 47.9752 83.1507 48.5352 82.66 48.8872C82.18 49.2392 81.5187 49.4152 80.676 49.4152C79.8334 49.4152 79.172 49.2392 78.692 48.8872C78.2227 48.5352 77.9774 47.9752 77.956 47.2072H79.204C79.2147 47.6338 79.3534 47.9325 79.62 48.1032C79.8867 48.2738 80.244 48.3592 80.692 48.3592ZM78.196 58.9512H76.868V50.5192H78.228V56.9832C78.3027 56.8338 78.404 56.6738 78.532 56.5032C78.66 56.3218 78.7614 56.1832 78.836 56.0872L82.916 50.5192H84.26V58.9512H82.9V52.4872C82.8147 52.6472 82.7187 52.8018 82.612 52.9512C82.516 53.0898 82.4254 53.2125 82.34 53.3192L78.196 58.9512ZM92.6233 50.5192V51.7192H89.7273V58.9512H88.3673V51.7192H85.4713V50.5192H92.6233ZM95.1648 58.9512H93.8368V50.5192H95.1968V56.9832C95.2714 56.8338 95.3728 56.6738 95.5008 56.5032C95.6288 56.3218 95.7301 56.1832 95.8048 56.0872L99.8848 50.5192H101.229V58.9512H99.8688V52.4872C99.7834 52.6472 99.6874 52.8018 99.5808 52.9512C99.4848 53.0898 99.3941 53.2125 99.3088 53.3192L95.1648 58.9512ZM103.368 58.9512V50.5192H104.728V54.2152H108.952V50.5192H110.312V58.9512H108.952V55.4152H104.728V58.9512H103.368ZM112.462 58.9512V50.5192H118.286V51.7192H113.822V58.9512H112.462ZM124.04 58.9512V50.5192H125.4V54.1512H126.872L129.368 50.5192H130.92L128.104 54.5352L131.16 58.9512H129.56L127.032 55.3352H125.4V58.9512H124.04ZM133.121 54.9992C133.174 54.2312 133.211 53.4845 133.233 52.7592C133.265 52.0338 133.286 51.2872 133.297 50.5192H139.153V58.9512H137.793V51.7192H134.625L134.481 55.0312C134.459 55.4578 134.411 55.9378 134.337 56.4712C134.262 57.0045 134.107 57.4898 133.873 57.9272C133.691 58.2365 133.446 58.4872 133.137 58.6792C132.827 58.8712 132.47 58.9672 132.065 58.9672H131.569V57.7672C131.995 57.7672 132.337 57.5858 132.593 57.2232C132.742 57.0098 132.859 56.7005 132.945 56.2952C133.03 55.8898 133.089 55.4578 133.121 54.9992ZM142.618 58.9512H141.29V50.5192H142.65V56.9832C142.725 56.8338 142.826 56.6738 142.954 56.5032C143.082 56.3218 143.183 56.1832 143.258 56.0872L147.338 50.5192H148.682V58.9512H147.322V52.4872C147.237 52.6472 147.141 52.8018 147.034 52.9512C146.938 53.0898 146.847 53.2125 146.762 53.3192L142.618 58.9512ZM150.821 58.9512V50.5192H152.181V54.2152H156.405V50.5192H157.765V58.9512H156.405V55.4152H152.181V58.9512H150.821ZM161.243 58.9512H159.915V50.5192H161.275V56.9832C161.35 56.8338 161.451 56.6738 161.579 56.5032C161.707 56.3218 161.808 56.1832 161.883 56.0872L165.963 50.5192H167.307V58.9512H165.947V52.4872C165.862 52.6472 165.766 52.8018 165.659 52.9512C165.563 53.0898 165.472 53.2125 165.387 53.3192L161.243 58.9512ZM169.446 58.9512V50.5192H170.806V54.1512H172.278L174.774 50.5192H176.326L173.51 54.5352L176.566 58.9512H174.966L172.438 55.3352H170.806V58.9512H169.446ZM179.071 58.9512H177.743V50.5192H179.103V56.9832C179.178 56.8338 179.279 56.6738 179.407 56.5032C179.535 56.3218 179.636 56.1832 179.711 56.0872L183.791 50.5192H185.135V58.9512H183.775V52.4872C183.69 52.6472 183.594 52.8018 183.487 52.9512C183.391 53.0898 183.3 53.2125 183.215 53.3192L179.071 58.9512Z" fill="#6B7280"/>
<path d="M243.395 42.3344C243.274 42.3842 243.094 42.4539 242.863 42.5336C242.411 42.703 241.779 42.9222 241.066 43.1314C240.705 43.241 240.324 43.3406 239.932 43.4302C239.742 43.4801 239.541 43.5199 239.34 43.5697C239.14 43.6096 238.939 43.6494 238.738 43.6893C237.935 43.8387 237.153 43.9284 236.47 43.9483C235.928 43.9582 235.407 44.0778 234.915 44.2671C234.423 44.4564 233.972 44.7154 233.56 45.0242C232.737 45.6518 232.105 46.4588 231.784 47.3056C231.563 47.8934 231.222 48.3417 230.861 48.7003C231.242 47.8236 231.593 46.927 231.914 46.0204C232.276 45.0043 232.587 43.9782 232.868 42.9222C233.078 42.1152 233.259 41.2983 233.42 40.4714C233.42 40.4714 233.42 40.4615 233.44 40.4515C233.54 40.3419 233.65 40.2323 233.771 40.1327C233.891 40.0331 234.032 39.9434 234.172 39.8637C234.463 39.7143 234.814 39.6346 235.206 39.6944C235.206 39.6944 235.407 39.6645 235.728 39.5948C236.039 39.525 236.46 39.4254 236.892 39.2959C237.113 39.2262 237.333 39.1564 237.544 39.0767C237.755 38.997 237.956 38.9074 238.136 38.8077C238.497 38.6184 238.788 38.3993 238.889 38.1701C238.989 37.941 239.1 37.7418 239.21 37.5624C239.32 37.3732 239.441 37.1938 239.561 36.9946C239.682 36.7953 239.802 36.5762 239.922 36.3172C239.983 36.1876 240.043 36.0382 240.103 35.8788C240.163 35.7194 240.213 35.5501 240.274 35.3508C240.334 35.1615 240.414 34.9523 240.525 34.7431C240.635 34.5239 240.765 34.3048 240.916 34.0756C241.056 33.8465 241.217 33.6074 241.388 33.3683C241.548 33.1292 241.729 32.8901 241.899 32.661C241.99 32.5414 242.07 32.4319 242.16 32.3223C242.241 32.2127 242.331 32.1031 242.411 31.9935C242.572 31.7843 242.742 31.5751 242.883 31.4157C243.174 31.077 243.405 30.818 243.545 30.6984C243.545 30.6984 243.334 30.8678 242.963 31.1368C242.782 31.2663 242.562 31.4257 242.321 31.595C242.07 31.7644 241.789 31.9537 241.498 32.1529C240.906 32.5315 240.223 32.92 239.531 33.2488C239.36 33.3285 239.19 33.4082 239.019 33.4879C238.849 33.5576 238.668 33.6273 238.497 33.6971C238.156 33.8266 237.825 33.9362 237.514 34.0258C237.263 34.0956 237.032 34.1852 236.811 34.2948C236.591 34.4044 236.38 34.5339 236.179 34.6833C235.788 34.9722 235.447 35.3309 235.156 35.7095C234.584 36.4766 234.222 37.3732 234.122 38.2399C234.082 38.6683 233.951 39.0468 233.791 39.3855C233.721 39.535 233.63 39.6745 233.55 39.804C233.55 39.784 233.55 39.7641 233.56 39.7442C233.931 37.6023 234.112 35.4305 234.042 33.2986C234.042 33.1691 234.042 33.0296 234.032 32.9001C234.032 32.7706 234.022 32.6311 234.012 32.5016C234.012 32.3721 233.992 32.2326 233.992 32.1031C233.982 31.9736 233.971 31.8341 233.961 31.7046C233.951 31.5751 233.941 31.4356 233.931 31.3061C233.931 31.2663 233.931 31.2264 233.921 31.1866C233.931 31.1567 233.941 31.1268 233.961 31.0969C234.082 30.8479 234.242 30.5888 234.463 30.3796C234.694 30.1704 234.985 30.011 235.356 29.9712C235.356 29.9712 235.397 29.9512 235.477 29.9114C235.557 29.8715 235.667 29.8217 235.798 29.752C236.069 29.6125 236.42 29.4133 236.781 29.1841C237.143 28.955 237.504 28.686 237.785 28.4171C238.056 28.1481 238.257 27.8791 238.287 27.64C238.347 27.1718 238.447 26.7932 238.558 26.3449C238.588 26.2353 238.608 26.1158 238.628 25.9862C238.648 25.8667 238.668 25.7272 238.678 25.5878C238.698 25.4483 238.708 25.2988 238.718 25.1395C238.718 24.9801 238.738 24.8007 238.718 24.6114C238.718 24.4222 238.728 24.213 238.768 23.9938C238.788 23.8842 238.809 23.7746 238.829 23.6551C238.849 23.5355 238.879 23.416 238.909 23.2964C238.969 23.0573 239.039 22.8083 239.12 22.5493C239.16 22.4297 239.2 22.3002 239.24 22.1806C239.28 22.0511 239.32 21.9316 239.36 21.812C239.441 21.563 239.531 21.3239 239.621 21.1047C239.702 20.8756 239.782 20.6664 239.862 20.4771C240.013 20.0985 240.153 19.7997 240.244 19.6602C240.244 19.6602 240.103 19.8694 239.842 20.2081C239.712 20.3775 239.561 20.5767 239.391 20.7859C239.21 21.0051 239.019 21.2342 238.798 21.4833C238.367 21.9714 237.855 22.4895 237.333 22.9577C236.801 23.4359 236.239 23.8543 235.718 24.1731C235.507 24.3026 235.326 24.4421 235.156 24.6015C234.985 24.7609 234.835 24.9302 234.704 25.1195C234.443 25.4881 234.252 25.8966 234.112 26.325C234.042 26.5342 233.992 26.7533 233.951 26.9725C233.911 27.1917 233.881 27.4109 233.871 27.63C233.871 27.7396 233.871 27.8492 233.871 27.9588C233.871 28.0684 233.871 28.178 233.871 28.2776C233.881 28.4868 233.911 28.696 233.951 28.9052C233.972 29.0048 233.982 29.1044 233.992 29.2041C233.992 29.3037 234.002 29.4033 234.002 29.493C234.002 29.6823 233.992 29.8616 233.971 30.0309C233.941 30.2202 233.891 30.3995 233.841 30.5589C233.821 30.4195 233.811 30.28 233.791 30.1405C233.65 29.1045 233.47 28.0883 233.249 27.0921C233.018 26.1058 232.737 25.1395 232.426 24.203C232.346 23.9739 232.266 23.7447 232.185 23.5156C232.095 23.2865 232.015 23.0673 231.924 22.8382C231.844 22.609 231.744 22.3899 231.653 22.1707C231.653 22.1109 231.653 22.0511 231.663 21.9814C231.704 21.7224 231.774 21.4434 231.914 21.1944C232.065 20.9453 232.276 20.7262 232.607 20.5867C232.607 20.5867 232.747 20.4671 232.948 20.2679C233.149 20.0686 233.41 19.7997 233.67 19.4908C233.931 19.192 234.182 18.8532 234.363 18.5344C234.533 18.2256 234.634 17.9267 234.594 17.7076C234.574 17.598 234.564 17.4884 234.544 17.3888C234.533 17.2792 234.513 17.1796 234.503 17.0799C234.483 16.8707 234.463 16.6615 234.443 16.4424C234.413 16.2232 234.383 15.9841 234.333 15.7151C234.303 15.5856 234.273 15.4461 234.242 15.2967C234.202 15.1473 234.152 14.9879 234.102 14.8285C233.891 14.161 233.851 13.1548 233.881 12.2283C233.891 11.77 233.921 11.3317 233.961 10.9731C233.992 10.6144 234.042 10.3355 234.092 10.186C234.092 10.186 234.012 10.4052 233.871 10.7539C233.731 11.1026 233.51 11.5907 233.249 12.1287C233.118 12.3977 232.968 12.6766 232.807 12.9556C232.647 13.2345 232.476 13.5234 232.296 13.7924C232.115 14.0614 231.934 14.3303 231.744 14.5794C231.553 14.8285 231.352 15.0676 231.162 15.2668C230.851 15.5956 230.65 15.9642 230.519 16.3627C230.459 16.5619 230.409 16.7612 230.389 16.9704C230.359 17.1796 230.359 17.3788 230.369 17.598C230.369 17.8072 230.399 18.0164 230.439 18.2256C230.459 18.3352 230.479 18.4348 230.499 18.5344C230.519 18.6341 230.549 18.7337 230.58 18.8333C230.7 19.2318 230.851 19.6203 231.041 19.969C231.132 20.1384 231.202 20.3177 231.262 20.4871C231.292 20.5767 231.312 20.6564 231.332 20.7361C231.352 20.8158 231.372 20.9055 231.382 20.9852C231.412 21.2043 231.423 21.4036 231.413 21.5929C231.402 21.563 231.382 21.5331 231.372 21.5132C231.322 21.4036 231.272 21.294 231.232 21.1944C231.182 21.0848 231.142 20.9852 231.081 20.8756C230.981 20.6664 230.881 20.4572 230.78 20.2579C230.68 20.0487 230.57 19.8495 230.469 19.6502C230.419 19.5506 230.369 19.451 230.309 19.3514C230.258 19.2517 230.198 19.1521 230.148 19.0624C230.098 18.9628 230.038 18.8732 229.987 18.7735C229.957 18.7237 229.937 18.6739 229.907 18.6241C229.877 18.5743 229.847 18.5344 229.827 18.4846C229.717 18.2953 229.606 18.1061 229.496 17.9267C229.385 17.7375 229.275 17.5581 229.165 17.3788C229.114 17.2892 229.054 17.1995 229.004 17.1098C228.944 17.0202 228.894 16.9305 228.833 16.8508C228.271 15.9741 227.619 15.1971 226.997 14.4698C226.997 14.4499 226.987 14.43 226.977 14.41C226.917 14.2507 226.846 14.0315 226.816 13.7824C226.786 13.5334 226.776 13.2644 226.846 13.0054C226.917 12.7463 227.067 12.4973 227.338 12.298C227.338 12.298 227.439 12.1586 227.569 11.9394C227.709 11.7202 227.89 11.4114 228.051 11.0826C228.392 10.4251 228.673 9.65803 228.512 9.27946C228.191 8.54225 228.071 7.85485 227.479 6.759C227.328 6.48005 227.208 6.13137 227.097 5.75281C226.997 5.37424 226.917 4.96578 226.856 4.57725C226.746 3.80019 226.716 3.08291 226.786 2.81393C226.786 2.81393 226.736 3.01317 226.646 3.34193C226.555 3.67068 226.415 4.12895 226.234 4.64699C225.883 5.67311 225.371 6.92836 224.779 7.815C224.548 8.16368 224.428 8.54225 224.398 8.92082C224.368 9.29939 224.418 9.68792 224.538 10.0665C224.769 10.8236 225.241 11.5409 225.743 12.0988C225.873 12.2383 225.973 12.3877 226.074 12.5272C226.164 12.6766 226.244 12.8161 226.305 12.9655C226.425 13.2544 226.505 13.5334 226.545 13.7725C226.555 13.8522 226.565 13.9119 226.565 13.9916C226.355 13.7426 226.154 13.5035 225.963 13.2743C225.763 13.0153 223.705 10.7539 222.23 9.13999C221.979 8.70165 221.779 8.17365 221.779 7.56595C221.779 5.9122 221.086 3.83008 219.139 3.39174C216.681 2.84381 213.289 0.960938 213.289 0.960938C213.851 1.27973 215.607 3.21242 216.008 4.47763C216.41 5.74284 216.851 6.35054 217.162 7.15749C217.473 7.95448 220.544 8.83116 220.544 8.83116C221.046 8.8212 221.488 9.02044 221.869 9.29939C222.401 10.0864 224.006 12.4076 224.438 12.9257C224.699 13.2345 224.96 13.5533 225.231 13.892C225.472 14.1909 225.712 14.5097 225.963 14.8384C225.873 14.8085 225.783 14.7687 225.692 14.7288C225.582 14.679 225.472 14.6193 225.361 14.5495C225.241 14.4897 225.13 14.41 225.01 14.3204C224.89 14.2307 224.779 14.1411 224.669 14.0315C224.558 13.9219 224.448 13.8023 224.348 13.6728C224.297 13.6031 224.247 13.5334 224.187 13.4736C224.127 13.4039 224.067 13.3441 224.006 13.2743C223.886 13.1448 223.746 13.0253 223.605 12.9057C223.465 12.7862 223.314 12.6766 223.153 12.577C222.993 12.4774 222.832 12.3877 222.662 12.318C221.989 12.0191 221.227 11.9394 220.494 12.2682C219.561 12.6866 218.316 13.0153 217.313 13.2544C216.811 13.374 216.36 13.4636 216.038 13.5334C215.717 13.5931 215.527 13.633 215.527 13.633C215.788 13.5931 216.45 13.633 217.152 13.7725C217.514 13.8422 217.865 13.9219 218.206 14.0315C218.537 14.1411 218.828 14.2606 219.059 14.4001C219.501 14.679 219.862 14.8584 220.193 15.0177C220.524 15.1672 220.815 15.2967 221.106 15.4661C221.257 15.5557 221.508 15.5657 221.819 15.5358C222.13 15.5059 222.491 15.4362 222.832 15.3664C223.515 15.207 224.137 15.0177 224.137 15.0177C224.388 14.8484 224.659 14.7787 224.92 14.7787C225.181 14.7787 225.431 14.8584 225.642 14.948C225.863 15.0377 226.044 15.1572 226.174 15.2568C226.305 15.3565 226.375 15.4162 226.375 15.4162C226.375 15.4162 226.385 15.4063 226.395 15.3963C226.867 16.0439 227.348 16.7213 227.82 17.4585C227.87 17.5382 227.93 17.6279 227.98 17.7175C228.041 17.7972 228.091 17.8869 228.141 17.9766C228.251 18.1459 228.352 18.3252 228.462 18.5046C228.562 18.6839 228.673 18.8632 228.773 19.0525C228.803 19.1023 228.823 19.1421 228.854 19.192C228.884 19.2418 228.904 19.2816 228.934 19.3314C228.984 19.4311 229.034 19.5207 229.084 19.6104C229.134 19.71 229.185 19.7997 229.245 19.8893C229.295 19.9889 229.345 20.0786 229.395 20.1782C229.496 20.3675 229.596 20.5668 229.696 20.766C229.797 20.9652 229.887 21.1645 229.987 21.3637C230.038 21.4634 230.078 21.563 230.128 21.6726C230.178 21.7822 230.218 21.8818 230.268 21.9814C230.309 22.081 230.359 22.1906 230.409 22.2902C230.449 22.3998 230.499 22.4994 230.539 22.609C230.509 22.5891 230.479 22.5692 230.439 22.5393C230.339 22.4596 230.238 22.3799 230.138 22.2803C230.038 22.1906 229.927 22.081 229.837 21.9615C229.737 21.8519 229.646 21.7224 229.556 21.5829C229.466 21.4434 229.385 21.304 229.315 21.1446C229.285 21.0649 229.245 20.9852 229.195 20.9055C229.155 20.8258 229.104 20.7461 229.054 20.6664C228.954 20.507 228.843 20.3575 228.733 20.1981C228.613 20.0487 228.482 19.9092 228.342 19.7797C228.271 19.71 228.201 19.6502 228.121 19.5904C228.051 19.5307 227.97 19.4709 227.89 19.4211C227.569 19.2119 227.218 19.0525 226.836 18.9827C226.455 18.913 226.064 18.923 225.642 19.0425C225.11 19.192 224.508 19.3115 223.906 19.4211C223.304 19.5207 222.692 19.6104 222.15 19.6901C221.879 19.72 221.628 19.7598 221.397 19.7897C221.166 19.8196 220.966 19.8495 220.795 19.8694C220.454 19.9092 220.253 19.9292 220.253 19.9292C220.524 19.8993 221.187 19.9889 221.869 20.1782C221.959 20.1981 222.04 20.228 222.13 20.2579C222.22 20.2778 222.3 20.3177 222.381 20.3376C222.551 20.3974 222.712 20.4572 222.872 20.5269C223.184 20.6664 223.455 20.8258 223.655 20.9951C223.846 21.1545 224.016 21.304 224.187 21.4235C224.267 21.4833 224.348 21.5431 224.428 21.6028C224.508 21.6626 224.578 21.7124 224.659 21.7622C224.96 21.9615 225.221 22.1408 225.472 22.36C225.602 22.4696 225.863 22.5293 226.194 22.5592C226.525 22.5891 226.917 22.5891 227.288 22.5791C228.041 22.5592 228.733 22.5094 228.733 22.5094C229.044 22.3899 229.345 22.3799 229.616 22.4397C229.686 22.4596 229.747 22.4696 229.817 22.4994C229.877 22.5194 229.937 22.5493 229.998 22.5791C230.118 22.6389 230.228 22.7086 230.329 22.7883C230.519 22.9378 230.68 23.0972 230.79 23.2267C230.79 23.2466 230.8 23.2566 230.81 23.2765C230.891 23.4957 230.971 23.7148 231.061 23.934C231.142 24.1532 231.212 24.3724 231.292 24.6015C231.593 25.5081 231.854 26.4346 232.085 27.3909C232.306 28.3473 232.476 29.3336 232.617 30.3398C232.647 30.5888 232.677 30.8479 232.707 31.0969C232.707 31.1467 232.707 31.2065 232.727 31.2563C232.577 31.0571 232.426 30.818 232.306 30.549C232.276 30.4693 232.245 30.3995 232.215 30.3199C232.185 30.2402 232.155 30.1605 232.135 30.0808C232.085 29.9214 232.045 29.742 232.025 29.5528C232.005 29.3635 231.964 29.1841 231.904 28.9949C231.854 28.8056 231.784 28.6163 231.714 28.427C231.633 28.2377 231.543 28.0584 231.433 27.889C231.332 27.7197 231.212 27.5503 231.081 27.4009C230.951 27.2515 230.8 27.112 230.65 26.9924C230.57 26.9327 230.489 26.8729 230.399 26.8231C230.309 26.7733 230.228 26.7235 230.128 26.6836C229.757 26.5142 229.345 26.4246 228.884 26.4445C228.733 26.4445 228.583 26.4445 228.432 26.4445C228.281 26.4445 228.121 26.4445 227.96 26.4445C227.639 26.4445 227.308 26.4146 226.987 26.4047C226.656 26.3847 226.335 26.3648 226.024 26.3449C225.712 26.325 225.401 26.305 225.11 26.2851C223.976 26.2054 223.103 26.1357 223.103 26.1357C223.244 26.1456 223.485 26.2054 223.756 26.2951C224.027 26.3947 224.348 26.5242 224.679 26.6936C224.839 26.7733 225 26.8729 225.15 26.9626C225.301 27.0622 225.462 27.1618 225.602 27.2614C225.743 27.371 225.863 27.4806 225.973 27.5802C226.034 27.64 226.084 27.6898 226.134 27.7396C226.154 27.7695 226.184 27.7894 226.204 27.8193C226.224 27.8492 226.244 27.8791 226.264 27.899C226.405 28.1082 226.545 28.2975 226.686 28.4669C226.816 28.6362 226.937 28.7857 227.057 28.9251C227.308 29.2041 227.519 29.4531 227.709 29.742C227.76 29.8118 227.85 29.8815 227.96 29.9512C228.071 30.011 228.221 30.0808 228.382 30.1405C228.703 30.2601 229.114 30.3697 229.506 30.4593C229.897 30.549 230.279 30.6287 230.559 30.6885C230.84 30.7482 231.021 30.7781 231.021 30.7781C231.382 30.7383 231.693 30.808 231.944 30.9475C232.205 31.0869 232.416 31.2862 232.567 31.4954C232.657 31.6149 232.727 31.7245 232.787 31.8441C232.787 31.8441 232.787 31.8441 232.787 31.864C232.797 31.9935 232.807 32.123 232.817 32.2525C232.817 32.382 232.827 32.5116 232.838 32.6311C232.838 32.7606 232.858 32.8901 232.858 33.0196C232.858 33.1491 232.858 33.2787 232.868 33.4082C232.928 35.4604 232.757 37.5624 232.396 39.6446C232.366 39.794 232.336 39.9434 232.306 40.0929C232.286 40.0331 232.265 39.9733 232.245 39.9135C232.205 39.7641 232.175 39.6047 232.145 39.4354C232.135 39.3557 232.125 39.266 232.115 39.1763C232.115 39.0867 232.105 38.997 232.105 38.9074C232.105 38.8177 232.105 38.7181 232.105 38.6284C232.105 38.5288 232.125 38.4391 232.135 38.3395C232.165 38.1403 232.185 37.931 232.185 37.7318C232.185 37.5226 232.185 37.3134 232.155 37.0942C232.125 36.885 232.085 36.6758 232.035 36.4666C231.974 36.2574 231.904 36.0581 231.814 35.8689C231.724 35.6796 231.613 35.5002 231.493 35.3309C231.362 35.1615 231.222 35.0121 231.061 34.8726C230.73 34.6036 230.329 34.4044 229.847 34.2948C229.235 34.1653 228.562 33.9661 227.91 33.7668C227.579 33.6672 227.248 33.5576 226.927 33.458C226.606 33.3584 226.305 33.2587 226.014 33.1591C225.722 33.0694 225.452 32.9798 225.211 32.91C225.09 32.8702 224.97 32.8403 224.869 32.8005C224.759 32.7706 224.659 32.7307 224.568 32.7008C224.207 32.5813 223.986 32.5016 223.986 32.5016C224.057 32.5315 224.147 32.5713 224.257 32.6311C224.308 32.661 224.368 32.6909 224.428 32.7307C224.488 32.7706 224.548 32.8005 224.619 32.8503C224.749 32.93 224.88 33.0196 225.02 33.1292C225.09 33.179 225.161 33.2288 225.231 33.2886C225.301 33.3484 225.371 33.4082 225.442 33.4679C225.512 33.5277 225.582 33.5974 225.652 33.6572C225.722 33.717 225.793 33.7867 225.853 33.8565C225.983 33.9959 226.104 34.1354 226.224 34.2749C226.335 34.4144 226.435 34.5638 226.515 34.7033C226.555 34.773 226.596 34.8427 226.626 34.9125C226.656 34.9822 226.686 35.0519 226.706 35.1117C226.746 35.2412 226.796 35.3608 226.836 35.4704C226.877 35.5799 226.917 35.6895 226.967 35.7991C227.007 35.8987 227.057 35.9984 227.097 36.098C227.137 36.1976 227.178 36.2873 227.218 36.3769C227.258 36.4666 227.298 36.5563 227.338 36.6359C227.378 36.7256 227.408 36.8053 227.449 36.885C227.519 37.0544 227.589 37.2138 227.639 37.3931C227.689 37.5724 227.91 37.7717 228.221 37.9809C228.522 38.1901 228.904 38.4092 229.275 38.6085C229.646 38.8077 230.018 38.997 230.279 39.1265C230.549 39.256 230.73 39.3457 230.73 39.3457C231.111 39.4055 231.402 39.5549 231.633 39.7741C231.854 39.9833 232.005 40.2523 232.105 40.5013C232.135 40.5711 232.145 40.6408 232.165 40.7105C232.025 41.3979 231.874 42.0754 231.704 42.7428C231.433 43.769 231.121 44.7652 230.78 45.7515C230.429 46.7477 230.048 47.714 229.626 48.6704C229.626 48.6505 229.626 48.6405 229.626 48.6206C229.626 48.4512 229.626 48.2819 229.646 48.1026C229.666 47.9232 229.686 47.734 229.737 47.5447C229.787 47.3554 229.837 47.1561 229.917 46.9569C230.238 46.1599 230.399 45.1836 230.218 44.3069C230.178 44.0878 230.118 43.8686 230.028 43.6693C229.937 43.4701 229.837 43.2708 229.707 43.0915C229.446 42.7329 229.084 42.424 228.613 42.1949C228.021 41.916 227.388 41.5474 226.766 41.1588C226.144 40.7803 225.532 40.3818 224.99 40.0331C223.926 39.3457 223.103 38.8177 223.103 38.8177C223.234 38.9074 223.434 39.0867 223.645 39.3357C223.756 39.4553 223.866 39.5948 223.976 39.7542C224.087 39.9036 224.197 40.0729 224.308 40.2423C224.418 40.4117 224.518 40.591 224.619 40.7703C224.719 40.9496 224.809 41.1389 224.88 41.3182C224.95 41.4976 225.02 41.6769 225.06 41.8462C225.1 42.0156 225.13 42.175 225.14 42.3244C225.15 42.4739 225.161 42.6133 225.171 42.7428C225.181 42.8724 225.201 43.0019 225.221 43.1214C225.251 43.3605 225.291 43.5797 225.331 43.7889C225.401 44.1973 225.482 44.5659 225.502 44.9644C225.512 45.1637 225.692 45.4227 225.943 45.7116C226.074 45.861 226.224 46.0105 226.385 46.1599C226.545 46.3093 226.706 46.4588 226.877 46.6082C227.208 46.8971 227.549 47.1661 227.79 47.3654C227.92 47.465 228.021 47.5447 228.091 47.6045C228.161 47.6642 228.201 47.6941 228.201 47.6941C228.583 47.8336 228.854 48.0627 229.034 48.3317C229.124 48.4612 229.195 48.6106 229.245 48.7601C229.295 48.9095 229.325 49.049 229.345 49.1984C229.345 49.2183 229.345 49.2383 229.345 49.2582C229.014 49.9854 228.663 50.7027 228.292 51.3901C227.338 53.1535 226.284 54.7873 225.161 56.2418C225.12 56.3015 225.08 56.3513 225.03 56.4012C225.06 56.2717 225.09 56.1521 225.14 56.0226C225.201 55.8433 225.281 55.654 225.371 55.4747C225.462 55.2854 225.572 55.1061 225.712 54.9168C226.244 54.1696 226.636 53.2033 226.666 52.2568C226.676 51.7886 226.606 51.3204 226.415 50.892C226.224 50.4636 225.923 50.0751 225.492 49.7463C225.221 49.5371 224.94 49.308 224.659 49.0589C224.378 48.8198 224.097 48.5509 223.816 48.2918C223.535 48.0328 223.264 47.7638 223.003 47.5048C222.742 47.2458 222.481 46.9967 222.24 46.7576C221.297 45.8212 220.574 45.1039 220.574 45.1039C220.635 45.1637 220.705 45.2533 220.775 45.3629C220.845 45.4725 220.926 45.602 221.016 45.7614C221.096 45.9109 221.187 46.0802 221.267 46.2595C221.347 46.4389 221.427 46.6281 221.498 46.8274C221.578 47.0266 221.638 47.2259 221.698 47.4351C221.759 47.6443 221.809 47.8535 221.839 48.0528C221.859 48.1524 221.869 48.252 221.889 48.3516C221.899 48.4512 221.909 48.5409 221.909 48.6306C221.909 48.8099 221.909 48.9892 221.889 49.1386C221.859 49.2881 221.849 49.4375 221.829 49.577C221.819 49.7165 221.799 49.846 221.789 49.9655C221.779 50.095 221.769 50.2146 221.769 50.3242C221.769 50.4437 221.759 50.5533 221.749 50.6629C221.749 50.7725 221.749 50.882 221.738 50.9817C221.738 51.0913 221.728 51.1809 221.718 51.2905C221.718 51.3901 221.708 51.4897 221.698 51.5894C221.688 51.689 221.668 51.7886 221.658 51.8882C221.638 51.9879 221.658 52.1174 221.718 52.2568C221.769 52.3963 221.849 52.5657 221.949 52.735C222.05 52.9044 222.17 53.0937 222.29 53.283C222.421 53.4722 222.551 53.6615 222.692 53.8508C222.963 54.2194 223.234 54.5781 223.444 54.8371C223.645 55.0961 223.786 55.2655 223.786 55.2655C224.147 55.4946 224.358 55.7935 224.468 56.1023C224.578 56.3912 224.589 56.7 224.558 56.979C223.615 58.1246 222.642 59.1607 221.658 60.0374C220.564 61.0137 219.46 61.8007 218.417 62.4084C218.467 62.3487 218.517 62.2889 218.577 62.2191C218.838 61.9203 219.149 61.6314 219.541 61.3524C219.932 61.0834 220.303 60.7348 220.615 60.3462C220.926 59.9477 221.177 59.5094 221.327 59.0412C221.367 58.9216 221.397 58.812 221.417 58.6925C221.437 58.5729 221.457 58.4534 221.468 58.3339C221.468 58.2143 221.478 58.0948 221.478 57.9752C221.478 57.8557 221.457 57.7361 221.437 57.6166C221.397 57.3775 221.327 57.1483 221.227 56.9192C221.116 56.6901 220.976 56.4609 220.805 56.2418C220.584 55.9628 220.354 55.664 220.133 55.3551C219.912 55.0463 219.681 54.7175 219.46 54.3888C219.24 54.07 219.029 53.7412 218.818 53.4224C218.607 53.1136 218.407 52.8048 218.216 52.5159C218.025 52.227 217.845 51.958 217.684 51.7189C217.524 51.4798 217.373 51.2606 217.253 51.0813C217.012 50.7226 216.871 50.5134 216.871 50.5134C216.962 50.6529 217.082 50.9119 217.192 51.2407C217.243 51.4001 217.303 51.5794 217.343 51.7787C217.353 51.8285 217.363 51.8783 217.383 51.9281C217.383 51.9779 217.403 52.0277 217.413 52.0775C217.433 52.1771 217.453 52.2768 217.473 52.3864C217.514 52.5956 217.534 52.8048 217.554 53.014C217.574 53.2232 217.574 53.4324 217.574 53.6316C217.574 53.8309 217.554 54.0202 217.524 54.1895C217.514 54.2792 217.494 54.3589 217.473 54.4386C217.453 54.5083 217.423 54.588 217.403 54.6478C217.373 54.7175 217.353 54.7773 217.323 54.847C217.293 54.9068 217.273 54.9666 217.253 55.0264C217.213 55.1459 217.172 55.2655 217.132 55.375C217.062 55.5942 217.002 55.8034 216.952 55.9927C216.922 56.0923 216.901 56.182 216.871 56.2717C216.841 56.3613 216.821 56.451 216.791 56.5406C216.781 56.5805 216.761 56.6303 216.751 56.6701L216.731 56.7399L216.701 56.7997C216.671 56.8794 216.631 56.969 216.59 57.0487C216.57 57.0886 216.56 57.1483 216.55 57.2081C216.55 57.2679 216.55 57.3277 216.55 57.4074C216.56 57.5568 216.6 57.7361 216.641 57.9354C216.731 58.3239 216.871 58.7921 217.012 59.2404C217.152 59.6987 217.293 60.1271 217.393 60.4459C217.504 60.7647 217.564 60.9739 217.564 60.9739C217.815 61.3325 217.915 61.6911 217.895 62.0398C217.895 62.1295 217.885 62.2092 217.865 62.2988C217.845 62.3785 217.825 62.4582 217.805 62.5379C217.775 62.6176 217.744 62.6973 217.714 62.7671C217.714 62.777 217.704 62.787 217.694 62.797C217.293 63.0062 216.901 63.1855 216.54 63.3349C216.41 63.3847 216.289 63.4346 216.169 63.4844C216.048 63.5242 215.928 63.574 215.808 63.6139C215.687 63.6537 215.577 63.6936 215.456 63.7235C215.346 63.7533 215.236 63.7932 215.125 63.8231C214.252 64.0522 213.56 64.1419 213.088 64.1817C213.028 64.1817 212.978 64.1817 212.917 64.1917C212.887 64.1917 212.867 64.1917 212.847 64.1917C212.827 64.1917 212.797 64.1917 212.777 64.1917C212.687 64.1917 212.606 64.1917 212.546 64.1917C212.426 64.1917 210.78 64.0622 210.78 64.0622C210.78 64.0622 207.699 63.9127 206.916 63.5441C206.505 63.3549 205.993 63.3748 205.672 63.6736C205.381 63.9426 205.602 64.4308 205.772 65.1879C206.134 66.8018 207.498 67.7383 207.288 69.133C207.288 69.133 208.331 67.5888 207.549 66.2838C207.549 66.2838 207.669 64.9189 210.369 65.1879C210.369 65.1879 210.75 65.2078 211.191 65.2377C210.589 65.9351 210.017 67.3398 211.603 69.7108C213.851 73.088 213.73 74.7019 213.69 74.941C213.75 74.5724 214.363 70.5277 212.968 69.143C211.131 67.3199 211.884 66.0546 212.777 65.2975C212.797 65.2975 212.807 65.2975 212.827 65.2975H212.907C212.907 65.2975 212.968 65.2975 212.998 65.2975C213.058 65.2975 213.118 65.2975 213.188 65.2875C213.72 65.2477 214.503 65.1481 215.466 64.8891C215.587 64.8592 215.707 64.8193 215.838 64.7795C215.958 64.7396 216.089 64.7097 216.219 64.6599C216.35 64.6201 216.48 64.5703 216.62 64.5204C216.751 64.4706 216.891 64.4109 217.032 64.361C217.453 64.1917 217.895 63.9825 218.337 63.7533C218.628 63.7733 218.939 63.833 219.23 63.9327C219.581 64.0721 219.912 64.2913 220.143 64.6699C220.143 64.6699 220.324 64.8094 220.625 65.0186C220.926 65.2178 221.347 65.4868 221.809 65.7259C222.04 65.8454 222.28 65.965 222.531 66.0646C222.782 66.1642 223.023 66.2539 223.264 66.3137C223.736 66.4332 224.187 66.4731 224.488 66.3535C224.639 66.2937 224.789 66.2439 224.92 66.2041C225.06 66.1642 225.181 66.1343 225.311 66.1044C225.562 66.0447 225.813 66.0048 226.074 65.955C226.204 65.9251 226.345 65.8952 226.485 65.8554C226.555 65.8355 226.636 65.8155 226.706 65.7857C226.786 65.7657 226.856 65.7358 226.947 65.706C227.107 65.6462 227.288 65.5765 227.479 65.4868C227.669 65.3971 227.87 65.2875 228.091 65.158C228.312 65.0285 228.573 64.9189 228.864 64.8193C229.165 64.7197 229.486 64.63 229.827 64.5503C230.178 64.4706 230.529 64.4009 230.901 64.3312C231.272 64.2714 231.643 64.2016 232.015 64.1518C233.49 63.9327 234.885 63.7832 235.306 63.7633C235.306 63.7633 235.226 63.7633 235.075 63.7533C234.925 63.7533 234.704 63.7334 234.433 63.7135C234.162 63.6936 233.831 63.6537 233.48 63.6139C233.119 63.574 232.717 63.5242 232.306 63.4545C231.473 63.325 230.56 63.1456 229.686 62.9065C228.813 62.6774 227.99 62.3885 227.318 62.0697C226.786 61.8207 226.204 61.6712 225.602 61.5915C225.301 61.5517 225 61.5317 224.699 61.5317C224.548 61.5317 224.398 61.5317 224.247 61.5417C224.097 61.5417 223.946 61.5616 223.806 61.5716C223.736 61.5716 223.655 61.5915 223.585 61.6015C223.515 61.6015 223.434 61.6214 223.364 61.6314C223.214 61.6513 223.073 61.6812 222.933 61.7111C222.792 61.741 222.652 61.7708 222.511 61.8107C222.371 61.8505 222.24 61.8904 222.11 61.9402C221.979 61.9801 221.849 62.0299 221.718 62.0797C221.588 62.1295 221.468 62.1893 221.347 62.249C221.106 62.3686 220.885 62.5081 220.665 62.6475C220.564 62.7173 220.454 62.797 220.344 62.8567C220.233 62.9165 220.123 62.9763 220.012 63.0261C219.802 63.1257 219.581 63.2054 219.37 63.2552C219.32 63.2752 219.27 63.2851 219.21 63.2951C219.169 63.2951 219.119 63.315 219.079 63.325C220.183 62.6774 221.327 61.8605 222.451 60.8443C223.515 59.8979 224.568 58.7822 225.572 57.5369C225.692 57.497 225.813 57.4472 225.953 57.4273C226.124 57.3874 226.305 57.3675 226.485 57.3675C226.846 57.3675 227.228 57.4472 227.579 57.6963C227.579 57.6963 227.629 57.7162 227.73 57.7361C227.82 57.766 227.96 57.7959 228.131 57.8457C228.472 57.9254 228.934 58.035 229.436 58.1047C229.927 58.1844 230.459 58.2342 230.911 58.2143C231.021 58.2143 231.142 58.2043 231.242 58.1944C231.342 58.1844 231.443 58.1645 231.533 58.1446C231.714 58.0948 231.864 58.035 231.985 57.9453C232.095 57.8557 232.205 57.776 232.306 57.7162C232.406 57.6465 232.516 57.5867 232.617 57.5269C232.717 57.4671 232.817 57.4173 232.928 57.3575C233.028 57.3077 233.139 57.248 233.239 57.1882C233.67 56.9491 234.152 56.6502 234.774 56.0226C235.085 55.7038 235.567 55.4049 236.119 55.116C236.4 54.9766 236.691 54.8371 237.002 54.6976C237.303 54.5581 237.624 54.4286 237.935 54.3091C238.247 54.1895 238.548 54.07 238.849 53.9604C239.14 53.8508 239.421 53.7612 239.672 53.6615C240.173 53.4922 240.565 53.3627 240.765 53.3228C240.765 53.3228 240.685 53.3328 240.545 53.3527C240.404 53.3726 240.203 53.4025 239.942 53.4324C239.692 53.4623 239.391 53.5021 239.049 53.542C238.708 53.5818 238.337 53.6117 237.945 53.6316C237.544 53.6615 237.133 53.6815 236.711 53.6914C236.29 53.6914 235.848 53.6914 235.427 53.6914C235.216 53.6914 235.005 53.6715 234.794 53.6615C234.584 53.6416 234.383 53.6316 234.172 53.6117C233.771 53.5719 233.389 53.5221 233.038 53.4523C232.757 53.3925 232.476 53.3726 232.195 53.3726C231.914 53.3726 231.633 53.3826 231.352 53.4224C230.8 53.5021 230.248 53.6516 229.747 53.8707C228.733 54.3091 227.86 54.9566 227.308 55.7536C227.168 55.9529 227.017 56.1322 226.867 56.2916C226.706 56.451 226.545 56.5904 226.375 56.71C226.284 56.7797 226.194 56.8295 226.104 56.8794C227.258 55.375 228.342 53.7014 229.325 51.8882C229.747 51.1112 230.138 50.2943 230.519 49.4674C230.77 49.298 231.051 49.1486 231.372 49.0689C231.543 49.0291 231.724 49.0091 231.904 49.0091C232.085 49.0091 232.276 49.0589 232.466 49.1287C232.466 49.1287 233.329 49.1785 234.283 49.1088C234.764 49.0789 235.256 49.0091 235.678 48.8995C236.099 48.79 236.44 48.6405 236.601 48.4313C236.681 48.3317 236.761 48.242 236.842 48.1524C236.922 48.0627 237.002 47.983 237.082 47.9133C237.243 47.7638 237.414 47.6144 237.584 47.455C237.755 47.2956 237.935 47.1163 238.136 46.8872C238.327 46.658 238.528 46.389 238.748 46.0304C238.859 45.8511 238.999 45.6718 239.17 45.4825C239.35 45.3032 239.541 45.1139 239.762 44.9246C239.872 44.8349 239.983 44.7353 240.103 44.6456C240.213 44.556 240.334 44.4564 240.464 44.3667C240.705 44.1774 240.966 43.9981 241.217 43.8188C241.468 43.6395 241.719 43.4701 241.96 43.3107C242.2 43.1513 242.421 43.0019 242.632 42.8724C242.843 42.7428 243.023 42.6233 243.184 42.5336C243.334 42.444 243.465 42.3742 243.545 42.3244C243.545 42.3244 243.475 42.3543 243.354 42.4041L243.395 42.3344Z" fill="#D1D5DB"/>
<defs>
<clipPath id="clip0_305_2501">
<rect width="90" height="26" fill="white" transform="translate(44.5304 11.9512)"/>
</clipPath>
</defs>
</svg>
